solid Untitled-5a4c750c
facet normal 7.459794946063064e-17 -3.744630580798599e-18 -1.0
  outer loop
    vertex 0.01703708685546517 7.754409522551222 7.049916206369744e-16
    vertex 0.0 5.24999999999988 0.0
    vertex -2.8199664825478975e-15 7.624999999999966 3.524958103184872e-16
  endloop
endfacet
facet normal 7.459794946063064e-17 -3.744630580798599e-18 -1.0
  outer loop
    vertex 0.0 5.24999999999988 0.0
    vertex 0.01703708685546517 7.754409522551222 7.049916206369744e-16
    vertex 0.0 4.4499999999996955 0.0
  endloop
endfacet
facet normal 7.459794946063064e-17 -3.744630580798599e-18 -1.0
  outer loop
    vertex 0.0 4.4499999999996955 0.0
    vertex 0.01703708685546517 7.754409522551222 7.049916206369744e-16
    vertex 0.0 0.7999999999998237 0.0
  endloop
endfacet
facet normal 7.459794946063064e-17 -3.744630580798599e-18 -1.0
  outer loop
    vertex 0.0 0.7999999999998237 0.0
    vertex 0.01703708685546517 7.754409522551222 7.049916206369744e-16
    vertex 0.0 0.0 0.0
  endloop
endfacet
facet normal 7.459794946063064e-17 -3.744630580798599e-18 -1.0
  outer loop
    vertex 0.0 0.0 0.0
    vertex 0.01703708685546517 7.754409522551222 7.049916206369744e-16
    vertex 0.01703708685546235 -2.504409522551334 8.81239525796218e-16
  endloop
endfacet
facet normal 7.459794946063064e-17 -3.744630580798599e-18 -1.0
  outer loop
    vertex 0.01703708685546235 -2.504409522551334 8.81239525796218e-16
    vertex 0.01703708685546517 7.754409522551222 7.049916206369744e-16
    vertex 0.06698729810777704 -2.625000000000075 1.9387269567516795e-15
  endloop
endfacet
facet normal 7.459794946063064e-17 -3.744630580798599e-18 -1.0
  outer loop
    vertex 0.06698729810777704 -2.625000000000075 1.9387269567516795e-15
    vertex 0.01703708685546517 7.754409522551222 7.049916206369744e-16
    vertex 0.0669872981077883 7.874999999999963 2.114974861910923e-15
  endloop
endfacet
facet normal 7.459794946063064e-17 -3.744630580798599e-18 -1.0
  outer loop
    vertex 0.06698729810777704 -2.625000000000075 1.9387269567516795e-15
    vertex 0.0669872981077883 7.874999999999963 2.114974861910923e-15
    vertex 0.14644660940672338 -2.7285533905933477 8.81239525796218e-16
  endloop
endfacet
facet normal 7.459794946063064e-17 -3.744630580798599e-18 -1.0
  outer loop
    vertex 0.14644660940672338 -2.7285533905933477 8.81239525796218e-16
    vertex 0.0669872981077883 7.874999999999963 2.114974861910923e-15
    vertex 0.14644660940673748 7.978553390593232 8.81239525796218e-16
  endloop
endfacet
facet normal 7.459794946063064e-17 -3.744630580798599e-18 -1.0
  outer loop
    vertex 0.14644660940672338 -2.7285533905933477 8.81239525796218e-16
    vertex 0.14644660940673748 7.978553390593232 8.81239525796218e-16
    vertex 0.2499999999999999 -2.8080127018922942 -3.524958103184872e-15
  endloop
endfacet
facet normal 7.459794946063064e-17 -3.744630580798599e-18 -1.0
  outer loop
    vertex 0.2499999999999999 -2.8080127018922942 -3.524958103184872e-15
    vertex 0.14644660940673748 7.978553390593232 8.81239525796218e-16
    vertex 0.2500000000000168 8.058012701892174 -3.524958103184872e-15
  endloop
endfacet
facet normal 7.459794946063064e-17 -3.744630580798599e-18 -1.0
  outer loop
    vertex 0.2499999999999999 -2.8080127018922942 -3.524958103184872e-15
    vertex 0.2500000000000168 8.058012701892174 -3.524958103184872e-15
    vertex 0.37059047744873524 -2.8579629131446094 1.9387269567516795e-15
  endloop
endfacet
facet normal 7.459794946063064e-17 -3.744630580798599e-18 -1.0
  outer loop
    vertex 0.37059047744873524 -2.8579629131446094 1.9387269567516795e-15
    vertex 0.2500000000000168 8.058012701892174 -3.524958103184872e-15
    vertex 0.3705904774487578 8.10796291314448 1.762479051592436e-15
  endloop
endfacet
facet normal 7.459794946063064e-17 -3.744630580798599e-18 -1.0
  outer loop
    vertex 0.37059047744873524 -2.8579629131446094 1.9387269567516795e-15
    vertex 0.3705904774487578 8.10796291314448 1.762479051592436e-15
    vertex 0.4999999999999966 -2.8750000000000737 0.0
  endloop
endfacet
facet normal 7.459794946063064e-17 -3.744630580798599e-18 -1.0
  outer loop
    vertex 0.4999999999999966 -2.8750000000000737 0.0
    vertex 0.3705904774487578 8.10796291314448 1.762479051592436e-15
    vertex 0.5000000000000192 8.124999999999938 -1.762479051592436e-16
  endloop
endfacet
facet normal 7.459794946063064e-17 -3.744630580798599e-18 -1.0
  outer loop
    vertex 0.4999999999999966 -2.8750000000000737 0.0
    vertex 0.5000000000000192 8.124999999999938 -1.762479051592436e-16
    vertex 0.6294095225512594 -2.8579629131446094 -1.233735336114705e-15
  endloop
endfacet
facet normal 7.459794946063064e-17 -3.744630580798599e-18 -1.0
  outer loop
    vertex 0.6294095225512594 -2.8579629131446094 -1.233735336114705e-15
    vertex 0.5000000000000192 8.124999999999938 -1.762479051592436e-16
    vertex 0.6294095225512791 8.107962913144469 -8.81239525796218e-16
  endloop
endfacet
facet normal 7.459794946063064e-17 -3.744630580798599e-18 -1.0
  outer loop
    vertex 0.6294095225512594 -2.8579629131446094 -1.233735336114705e-15
    vertex 0.6294095225512791 8.107962913144469 -8.81239525796218e-16
    vertex 0.7499999999999976 -2.8080127018922942 -7.049916206369744e-16
  endloop
endfacet
facet normal 7.459794946063064e-17 -3.744630580798599e-18 -1.0
  outer loop
    vertex 0.7499999999999976 -2.8080127018922942 -7.049916206369744e-16
    vertex 0.6294095225512791 8.107962913144469 -8.81239525796218e-16
    vertex 0.7500000000000173 8.058012701892151 -7.049916206369744e-16
  endloop
endfacet
facet normal 7.459794946063064e-17 -3.744630580798599e-18 -1.0
  outer loop
    vertex 0.7499999999999976 -2.8080127018922942 -7.049916206369744e-16
    vertex 0.7500000000000173 8.058012701892151 -7.049916206369744e-16
    vertex 0.8535533905932684 -2.7285533905933477 1.0574874309554614e-15
  endloop
endfacet
facet normal 7.459794946063064e-17 -3.744630580798599e-18 -1.0
  outer loop
    vertex 0.8535533905932684 -2.7285533905933477 1.0574874309554614e-15
    vertex 0.7500000000000173 8.058012701892151 -7.049916206369744e-16
    vertex 0.853553390593284 7.978553390593205 7.049916206369744e-16
  endloop
endfacet
facet normal 7.459794946063064e-17 -3.744630580798599e-18 -1.0
  outer loop
    vertex 0.8535533905932684 -2.7285533905933477 1.0574874309554614e-15
    vertex 0.853553390593284 7.978553390593205 7.049916206369744e-16
    vertex 0.9330127018922134 -2.6250000000000777 1.4099832412739487e-15
  endloop
endfacet
facet normal 7.459794946063064e-17 -3.744630580798599e-18 -1.0
  outer loop
    vertex 0.9330127018922134 -2.6250000000000777 1.4099832412739487e-15
    vertex 0.853553390593284 7.978553390593205 7.049916206369744e-16
    vertex 0.9330127018922246 7.874999999999924 1.233735336114705e-15
  endloop
endfacet
facet normal 7.459794946063064e-17 -3.744630580798599e-18 -1.0
  outer loop
    vertex 0.9330127018922134 -2.6250000000000777 1.4099832412739487e-15
    vertex 0.9330127018922246 7.874999999999924 1.233735336114705e-15
    vertex 0.9829629131445298 -2.504409522551334 7.049916206369744e-16
  endloop
endfacet
facet normal 7.459794946063064e-17 -3.744630580798599e-18 -1.0
  outer loop
    vertex 0.9829629131445298 -2.504409522551334 7.049916206369744e-16
    vertex 0.9330127018922246 7.874999999999924 1.233735336114705e-15
    vertex 0.9829629131445369 7.754409522551183 5.287437154777307e-16
  endloop
endfacet
facet normal 7.459794946063064e-17 -3.744630580798599e-18 -1.0
  outer loop
    vertex 0.9829629131445298 -2.504409522551334 7.049916206369744e-16
    vertex 0.9829629131445369 7.754409522551183 5.287437154777307e-16
    vertex 0.9999999999999957 -2.3750000000000737 1.762479051592436e-16
  endloop
endfacet
facet normal 7.459794946063064e-17 -3.744630580798599e-18 -1.0
  outer loop
    vertex 0.9999999999999957 -2.3750000000000737 1.762479051592436e-16
    vertex 0.9829629131445369 7.754409522551183 5.287437154777307e-16
    vertex 0.9999999999999971 7.624999999999921 1.762479051592436e-16
  endloop
endfacet
facet normal 7.459794946063064e-17 -3.744630580798599e-18 -1.0
  outer loop
    vertex 0.01703708685546235 -2.504409522551334 8.81239525796218e-16
    vertex -2.8199664825478975e-15 -2.3750000000000737 3.524958103184872e-16
    vertex 0.0 0.0 0.0
  endloop
endfacet
facet normal 7.459794946063064e-17 -3.744630580798599e-18 -1.0
  outer loop
    vertex -2.579555495773426 0.3552914270612973 -8.81239525796218e-16
    vertex -2.579555495773426 0.04470857293825502 -8.81239525796218e-16
    vertex -2.6000000000000374 0.19999999999995732 2.46747067222941e-15
  endloop
endfacet
facet normal 7.459794946063064e-17 -3.744630580798599e-18 -1.0
  outer loop
    vertex -2.579555495773426 0.04470857293825502 -8.81239525796218e-16
    vertex -2.579555495773426 0.3552914270612973 -8.81239525796218e-16
    vertex -2.5196152422706333 0.49999999999988487 -7.049916206369744e-16
  endloop
endfacet
facet normal 7.459794946063064e-17 -3.744630580798599e-18 -1.0
  outer loop
    vertex -2.579555495773426 0.04470857293825502 -8.81239525796218e-16
    vertex -2.5196152422706333 0.49999999999988487 -7.049916206369744e-16
    vertex -2.5196152422706333 -0.09999999999997726 -7.049916206369744e-16
  endloop
endfacet
facet normal 7.459794946063064e-17 -3.744630580798599e-18 -1.0
  outer loop
    vertex -2.5196152422706333 -0.09999999999997726 -7.049916206369744e-16
    vertex -2.5196152422706333 0.49999999999988487 -7.049916206369744e-16
    vertex -2.4242640687119112 0.6242640687118779 -1.762479051592436e-15
  endloop
endfacet
facet normal 7.459794946063064e-17 -3.744630580798599e-18 -1.0
  outer loop
    vertex -2.5196152422706333 -0.09999999999997726 -7.049916206369744e-16
    vertex -2.4242640687119112 0.6242640687118779 -1.762479051592436e-15
    vertex -2.4242640687119112 -0.22426406871196602 -1.762479051592436e-15
  endloop
endfacet
facet normal 7.459794946063064e-17 -3.744630580798599e-18 -1.0
  outer loop
    vertex -2.4242640687119112 -0.22426406871196602 -1.762479051592436e-15
    vertex -2.4242640687119112 0.6242640687118779 -1.762479051592436e-15
    vertex -2.300000000000007 0.719615242270521 3.1724622928663847e-15
  endloop
endfacet
facet normal 7.459794946063064e-17 -3.744630580798599e-18 -1.0
  outer loop
    vertex -2.4242640687119112 -0.22426406871196602 -1.762479051592436e-15
    vertex -2.300000000000007 0.719615242270521 3.1724622928663847e-15
    vertex -2.300000000000007 -0.31961524227060634 3.1724622928663847e-15
  endloop
endfacet
facet normal 7.459794946063064e-17 -3.744630580798599e-18 -1.0
  outer loop
    vertex -2.300000000000007 -0.31961524227060634 3.1724622928663847e-15
    vertex -2.300000000000007 0.719615242270521 3.1724622928663847e-15
    vertex -2.1552914270615124 0.779555495773215 7.049916206369744e-16
  endloop
endfacet
facet normal 7.459794946063064e-17 -3.744630580798599e-18 -1.0
  outer loop
    vertex -2.300000000000007 -0.31961524227060634 3.1724622928663847e-15
    vertex -2.1552914270615124 0.779555495773215 7.049916206369744e-16
    vertex -2.1552914270615124 -0.37955549577366765 7.049916206369744e-16
  endloop
endfacet
facet normal 7.459794946063064e-17 -3.744630580798599e-18 -1.0
  outer loop
    vertex -2.1552914270615124 -0.37955549577366765 7.049916206369744e-16
    vertex -2.1552914270615124 0.779555495773215 7.049916206369744e-16
    vertex -1.9999999999999865 0.7999999999998237 -2.114974861910923e-15
  endloop
endfacet
facet normal 7.459794946063064e-17 -3.744630580798599e-18 -1.0
  outer loop
    vertex -2.1552914270615124 -0.37955549577366765 7.049916206369744e-16
    vertex -1.9999999999999865 0.7999999999998237 -2.114974861910923e-15
    vertex -1.9999999999999865 -0.4000000000002707 -2.114974861910923e-15
  endloop
endfacet
facet normal 7.459794946063064e-17 -3.744630580798599e-18 -1.0
  outer loop
    vertex -1.9999999999999865 -0.4000000000002707 -2.114974861910923e-15
    vertex -1.9999999999999865 0.7999999999998237 -2.114974861910923e-15
    vertex -1.438963401491984 0.0 1.0574874309554614e-15
  endloop
endfacet
facet normal 7.459794946063064e-17 -3.744630580798599e-18 -1.0
  outer loop
    vertex -1.438963401491984 0.0 1.0574874309554614e-15
    vertex -1.9999999999999865 0.7999999999998237 -2.114974861910923e-15
    vertex 0.0 0.7999999999998237 0.0
  endloop
endfacet
facet normal 7.459794946063064e-17 -3.744630580798599e-18 -1.0
  outer loop
    vertex -1.9999999999999865 -0.4000000000002707 -2.114974861910923e-15
    vertex -1.438963401491984 0.0 1.0574874309554614e-15
    vertex -1.844708572938469 -0.37955549577366765 -1.762479051592436e-16
  endloop
endfacet
facet normal 7.459794946063064e-17 -3.744630580798599e-18 -1.0
  outer loop
    vertex -1.844708572938469 -0.37955549577366765 -1.762479051592436e-16
    vertex -1.438963401491984 0.0 1.0574874309554614e-15
    vertex -1.7000000000000632 -0.31961524227060634 -2.643718577388654e-15
  endloop
endfacet
facet normal 7.459794946063064e-17 -3.744630580798599e-18 -1.0
  outer loop
    vertex -1.7000000000000632 -0.31961524227060634 -2.643718577388654e-15
    vertex -1.438963401491984 0.0 1.0574874309554614e-15
    vertex -1.57573593128808 -0.22426406871196602 2.643718577388654e-15
  endloop
endfacet
facet normal 7.459794946063064e-17 -3.744630580798599e-18 -1.0
  outer loop
    vertex -1.57573593128808 -0.22426406871196602 2.643718577388654e-15
    vertex -1.438963401491984 0.0 1.0574874309554614e-15
    vertex -1.480384757729351 -0.09999999999997726 1.9387269567516795e-15
  endloop
endfacet
facet normal 7.459794946063064e-17 -3.744630580798599e-18 -1.0
  outer loop
    vertex -1.438963401491984 0.0 1.0574874309554614e-15
    vertex 0.0 0.7999999999998237 0.0
    vertex 0.0 0.0 0.0
  endloop
endfacet
facet normal 7.459794946063064e-17 -3.744630580798599e-18 -1.0
  outer loop
    vertex -2.579555495773426 5.205291427061272 -8.81239525796218e-16
    vertex -2.579555495773426 4.894708572938219 -8.81239525796218e-16
    vertex -2.6000000000000374 5.049999999999929 2.46747067222941e-15
  endloop
endfacet
facet normal 7.459794946063064e-17 -3.744630580798599e-18 -1.0
  outer loop
    vertex -2.579555495773426 4.894708572938219 -8.81239525796218e-16
    vertex -2.579555495773426 5.205291427061272 -8.81239525796218e-16
    vertex -2.5196152422706333 5.3499999999998575 -7.049916206369744e-16
  endloop
endfacet
facet normal 7.459794946063064e-17 -3.744630580798599e-18 -1.0
  outer loop
    vertex -2.579555495773426 4.894708572938219 -8.81239525796218e-16
    vertex -2.5196152422706333 5.3499999999998575 -7.049916206369744e-16
    vertex -2.5196152422706333 4.749999999999997 -7.049916206369744e-16
  endloop
endfacet
facet normal 7.459794946063064e-17 -3.744630580798599e-18 -1.0
  outer loop
    vertex -2.5196152422706333 4.749999999999997 -7.049916206369744e-16
    vertex -2.5196152422706333 5.3499999999998575 -7.049916206369744e-16
    vertex -2.4242640687119112 5.474264068711847 -1.762479051592436e-15
  endloop
endfacet
facet normal 7.459794946063064e-17 -3.744630580798599e-18 -1.0
  outer loop
    vertex -2.5196152422706333 4.749999999999997 -7.049916206369744e-16
    vertex -2.4242640687119112 5.474264068711847 -1.762479051592436e-15
    vertex -2.4242640687119112 4.625735931288011 -1.762479051592436e-15
  endloop
endfacet
facet normal 7.459794946063064e-17 -3.744630580798599e-18 -1.0
  outer loop
    vertex -2.4242640687119112 4.625735931288011 -1.762479051592436e-15
    vertex -2.4242640687119112 5.474264068711847 -1.762479051592436e-15
    vertex -2.300000000000007 5.569615242270478 3.1724622928663847e-15
  endloop
endfacet
facet normal 7.459794946063064e-17 -3.744630580798599e-18 -1.0
  outer loop
    vertex -2.4242640687119112 4.625735931288011 -1.762479051592436e-15
    vertex -2.300000000000007 5.569615242270478 3.1724622928663847e-15
    vertex -2.300000000000007 4.5303847577293626 3.1724622928663847e-15
  endloop
endfacet
facet normal 7.459794946063064e-17 -3.744630580798599e-18 -1.0
  outer loop
    vertex -2.300000000000007 4.5303847577293626 3.1724622928663847e-15
    vertex -2.300000000000007 5.569615242270478 3.1724622928663847e-15
    vertex -2.1552914270615124 5.629555495773175 7.049916206369744e-16
  endloop
endfacet
facet normal 7.459794946063064e-17 -3.744630580798599e-18 -1.0
  outer loop
    vertex -2.300000000000007 4.5303847577293626 3.1724622928663847e-15
    vertex -2.1552914270615124 5.629555495773175 7.049916206369744e-16
    vertex -2.1552914270615124 4.47044450422631 7.049916206369744e-16
  endloop
endfacet
facet normal 7.459794946063064e-17 -3.744630580798599e-18 -1.0
  outer loop
    vertex -2.1552914270615124 4.47044450422631 7.049916206369744e-16
    vertex -2.1552914270615124 5.629555495773175 7.049916206369744e-16
    vertex -1.9999999999999865 5.649999999999786 -2.114974861910923e-15
  endloop
endfacet
facet normal 7.459794946063064e-17 -3.744630580798599e-18 -1.0
  outer loop
    vertex -2.1552914270615124 4.47044450422631 7.049916206369744e-16
    vertex -1.9999999999999865 5.649999999999786 -2.114974861910923e-15
    vertex -1.9999999999999865 4.4499999999996955 -2.114974861910923e-15
  endloop
endfacet
facet normal 7.459794946063064e-17 -3.744630580798599e-18 -1.0
  outer loop
    vertex -1.9999999999999865 4.4499999999996955 -2.114974861910923e-15
    vertex -1.9999999999999865 5.649999999999786 -2.114974861910923e-15
    vertex -1.844708572938469 5.629555495773175 -1.762479051592436e-16
  endloop
endfacet
facet normal 7.459794946063064e-17 -3.744630580798599e-18 -1.0
  outer loop
    vertex -1.9999999999999865 4.4499999999996955 -2.114974861910923e-15
    vertex -1.844708572938469 5.629555495773175 -1.762479051592436e-16
    vertex -1.438963401491984 5.24999999999988 1.0574874309554614e-15
  endloop
endfacet
facet normal 7.459794946063064e-17 -3.744630580798599e-18 -1.0
  outer loop
    vertex -1.9999999999999865 4.4499999999996955 -2.114974861910923e-15
    vertex -1.438963401491984 5.24999999999988 1.0574874309554614e-15
    vertex 0.0 4.4499999999996955 0.0
  endloop
endfacet
facet normal 7.459794946063064e-17 -3.744630580798599e-18 -1.0
  outer loop
    vertex -1.438963401491984 5.24999999999988 1.0574874309554614e-15
    vertex -1.844708572938469 5.629555495773175 -1.762479051592436e-16
    vertex -1.7000000000000632 5.569615242270478 -2.643718577388654e-15
  endloop
endfacet
facet normal 7.459794946063064e-17 -3.744630580798599e-18 -1.0
  outer loop
    vertex -1.438963401491984 5.24999999999988 1.0574874309554614e-15
    vertex -1.7000000000000632 5.569615242270478 -2.643718577388654e-15
    vertex -1.57573593128808 5.474264068711847 2.643718577388654e-15
  endloop
endfacet
facet normal 7.459794946063064e-17 -3.744630580798599e-18 -1.0
  outer loop
    vertex -1.438963401491984 5.24999999999988 1.0574874309554614e-15
    vertex -1.57573593128808 5.474264068711847 2.643718577388654e-15
    vertex -1.480384757729351 5.3499999999998575 1.9387269567516795e-15
  endloop
endfacet
facet normal 7.459794946063064e-17 -3.744630580798599e-18 -1.0
  outer loop
    vertex 0.0 4.4499999999996955 0.0
    vertex -1.438963401491984 5.24999999999988 1.0574874309554614e-15
    vertex 0.0 5.24999999999988 0.0
  endloop
endfacet
facet normal 1.818031345491632e-15 4.919586425489226e-16 1.0
  outer loop
    vertex 0.01703708685558925 -2.504409522551334 100.00000000000001
    vertex 1.290134665765663e-13 0.0 99.99999999999994
    vertex 1.290134665765663e-13 -2.3750000000000737 99.99999999999994
  endloop
endfacet
facet normal 1.818031345491632e-15 4.919586425489226e-16 1.0
  outer loop
    vertex 1.290134665765663e-13 0.0 99.99999999999994
    vertex 0.01703708685558925 -2.504409522551334 100.00000000000001
    vertex 1.290134665765663e-13 0.7999999999998237 99.99999999999994
  endloop
endfacet
facet normal 1.818031345491632e-15 4.919586425489226e-16 1.0
  outer loop
    vertex 1.290134665765663e-13 0.7999999999998237 99.99999999999994
    vertex 0.01703708685558925 -2.504409522551334 100.00000000000001
    vertex 1.290134665765663e-13 4.4499999999996955 99.99999999999994
  endloop
endfacet
facet normal 1.818031345491632e-15 4.919586425489226e-16 1.0
  outer loop
    vertex 1.290134665765663e-13 4.4499999999996955 99.99999999999994
    vertex 0.01703708685558925 -2.504409522551334 100.00000000000001
    vertex 1.290134665765663e-13 5.24999999999988 99.99999999999994
  endloop
endfacet
facet normal 1.818031345491632e-15 4.919586425489226e-16 1.0
  outer loop
    vertex 1.290134665765663e-13 5.24999999999988 99.99999999999994
    vertex 0.01703708685558925 -2.504409522551334 100.00000000000001
    vertex 1.290134665765663e-13 7.624999999999966 99.99999999999994
  endloop
endfacet
facet normal 1.818031345491632e-15 4.919586425489226e-16 1.0
  outer loop
    vertex 1.290134665765663e-13 7.624999999999966 99.99999999999994
    vertex 0.01703708685558925 -2.504409522551334 100.00000000000001
    vertex 0.01703708685558925 7.754409522551222 100.00000000000001
  endloop
endfacet
facet normal 1.818031345491632e-15 4.919586425489226e-16 1.0
  outer loop
    vertex 0.01703708685558925 7.754409522551222 100.00000000000001
    vertex 0.01703708685558925 -2.504409522551334 100.00000000000001
    vertex 0.06698729810793848 -2.625000000000075 99.99999999999996
  endloop
endfacet
facet normal 1.818031345491632e-15 4.919586425489226e-16 1.0
  outer loop
    vertex 0.01703708685558925 7.754409522551222 100.00000000000001
    vertex 0.06698729810793848 -2.625000000000075 99.99999999999996
    vertex 0.06698729810793848 7.874999999999963 99.99999999999996
  endloop
endfacet
facet normal 1.818031345491632e-15 4.919586425489226e-16 1.0
  outer loop
    vertex 0.06698729810793848 7.874999999999963 99.99999999999996
    vertex 0.06698729810793848 -2.625000000000075 99.99999999999996
    vertex 0.1464466094068672 -2.7285533905933477 100.00000000000001
  endloop
endfacet
facet normal 1.818031345491632e-15 4.919586425489226e-16 1.0
  outer loop
    vertex 0.06698729810793848 7.874999999999963 99.99999999999996
    vertex 0.1464466094068672 -2.7285533905933477 100.00000000000001
    vertex 0.14644660940689258 7.978553390593232 99.99999999999999
  endloop
endfacet
facet normal 1.818031345491632e-15 4.919586425489226e-16 1.0
  outer loop
    vertex 0.14644660940689258 7.978553390593232 99.99999999999999
    vertex 0.1464466094068672 -2.7285533905933477 100.00000000000001
    vertex 0.2500000000001155 -2.8080127018922942 99.99999999999999
  endloop
endfacet
facet normal 1.818031345491632e-15 4.919586425489226e-16 1.0
  outer loop
    vertex 0.14644660940689258 7.978553390593232 99.99999999999999
    vertex 0.2500000000001155 -2.8080127018922942 99.99999999999999
    vertex 0.2500000000001155 8.058012701892174 99.99999999999999
  endloop
endfacet
facet normal 1.818031345491632e-15 4.919586425489226e-16 1.0
  outer loop
    vertex 0.2500000000001155 8.058012701892174 99.99999999999999
    vertex 0.2500000000001155 -2.8080127018922942 99.99999999999999
    vertex 0.37059047744883816 -2.8579629131446094 100.00000000000001
  endloop
endfacet
facet normal 1.818031345491632e-15 4.919586425489226e-16 1.0
  outer loop
    vertex 0.2500000000001155 8.058012701892174 99.99999999999999
    vertex 0.37059047744883816 -2.8579629131446094 100.00000000000001
    vertex 0.370590477448872 8.10796291314448 100.00000000000001
  endloop
endfacet
facet normal 1.818031345491632e-15 4.919586425489226e-16 1.0
  outer loop
    vertex 0.370590477448872 8.10796291314448 100.00000000000001
    vertex 0.37059047744883816 -2.8579629131446094 100.00000000000001
    vertex 0.5000000000001278 -2.8750000000000737 100.00000000000001
  endloop
endfacet
facet normal 1.818031345491632e-15 4.919586425489226e-16 1.0
  outer loop
    vertex 0.370590477448872 8.10796291314448 100.00000000000001
    vertex 0.5000000000001278 -2.8750000000000737 100.00000000000001
    vertex 0.5000000000001503 8.124999999999938 99.99999999999999
  endloop
endfacet
facet normal 1.818031345491632e-15 4.919586425489226e-16 1.0
  outer loop
    vertex 0.5000000000001503 8.124999999999938 99.99999999999999
    vertex 0.5000000000001278 -2.8750000000000737 100.00000000000001
    vertex 0.6294095225513511 -2.8579629131446094 100.00000000000001
  endloop
endfacet
facet normal 1.818031345491632e-15 4.919586425489226e-16 1.0
  outer loop
    vertex 0.5000000000001503 8.124999999999938 99.99999999999999
    vertex 0.6294095225513511 -2.8579629131446094 100.00000000000001
    vertex 0.6294095225513849 8.107962913144469 100.00000000000001
  endloop
endfacet
facet normal 1.818031345491632e-15 4.919586425489226e-16 1.0
  outer loop
    vertex 0.6294095225513849 8.107962913144469 100.00000000000001
    vertex 0.6294095225513511 -2.8579629131446094 100.00000000000001
    vertex 0.7500000000001118 -2.8080127018922942 100.00000000000006
  endloop
endfacet
facet normal 1.818031345491632e-15 4.919586425489226e-16 1.0
  outer loop
    vertex 0.6294095225513849 8.107962913144469 100.00000000000001
    vertex 0.7500000000001118 -2.8080127018922942 100.00000000000006
    vertex 0.7500000000001259 8.058012701892151 100.00000000000003
  endloop
endfacet
facet normal 1.818031345491632e-15 4.919586425489226e-16 1.0
  outer loop
    vertex 0.7500000000001259 8.058012701892151 100.00000000000003
    vertex 0.7500000000001118 -2.8080127018922942 100.00000000000006
    vertex 0.8535533905933869 -2.7285533905933477 100.00000000000003
  endloop
endfacet
facet normal 1.818031345491632e-15 4.919586425489226e-16 1.0
  outer loop
    vertex 0.7500000000001259 8.058012701892151 100.00000000000003
    vertex 0.8535533905933869 -2.7285533905933477 100.00000000000003
    vertex 0.8535533905934081 7.978553390593205 100.00000000000003
  endloop
endfacet
facet normal 1.818031345491632e-15 4.919586425489226e-16 1.0
  outer loop
    vertex 0.8535533905934081 7.978553390593205 100.00000000000003
    vertex 0.8535533905933869 -2.7285533905933477 100.00000000000003
    vertex 0.9330127018923488 -2.6250000000000777 100.00000000000006
  endloop
endfacet
facet normal 1.818031345491632e-15 4.919586425489226e-16 1.0
  outer loop
    vertex 0.8535533905934081 7.978553390593205 100.00000000000003
    vertex 0.9330127018923488 -2.6250000000000777 100.00000000000006
    vertex 0.9330127018923698 7.874999999999924 100.00000000000003
  endloop
endfacet
facet normal 1.818031345491632e-15 4.919586425489226e-16 1.0
  outer loop
    vertex 0.9330127018923698 7.874999999999924 100.00000000000003
    vertex 0.9330127018923488 -2.6250000000000777 100.00000000000006
    vertex 0.9829629131446497 -2.504409522551334 100.00000000000001
  endloop
endfacet
facet normal 1.818031345491632e-15 4.919586425489226e-16 1.0
  outer loop
    vertex 0.9330127018923698 7.874999999999924 100.00000000000003
    vertex 0.9829629131446497 -2.504409522551334 100.00000000000001
    vertex 0.9829629131446497 7.754409522551183 100.00000000000001
  endloop
endfacet
facet normal 1.818031345491632e-15 4.919586425489226e-16 1.0
  outer loop
    vertex 0.9829629131446497 7.754409522551183 100.00000000000001
    vertex 0.9829629131446497 -2.504409522551334 100.00000000000001
    vertex 1.0000000000001297 -2.3750000000000737 100.00000000000006
  endloop
endfacet
facet normal 1.818031345491632e-15 4.919586425489226e-16 1.0
  outer loop
    vertex 0.9829629131446497 7.754409522551183 100.00000000000001
    vertex 1.0000000000001297 -2.3750000000000737 100.00000000000006
    vertex 1.0000000000001297 7.624999999999921 100.00000000000006
  endloop
endfacet
facet normal 1.818031345491632e-15 4.919586425489226e-16 1.0
  outer loop
    vertex -2.579555495773316 4.894708572938219 100.00000000000001
    vertex -2.579555495773316 5.205291427061272 100.00000000000001
    vertex -2.5999999999999246 5.049999999999929 100.00000000000001
  endloop
endfacet
facet normal 1.818031345491632e-15 4.919586425489226e-16 1.0
  outer loop
    vertex -2.579555495773316 5.205291427061272 100.00000000000001
    vertex -2.579555495773316 4.894708572938219 100.00000000000001
    vertex -2.5196152422705063 4.749999999999997 99.99999999999999
  endloop
endfacet
facet normal 1.818031345491632e-15 4.919586425489226e-16 1.0
  outer loop
    vertex -2.579555495773316 5.205291427061272 100.00000000000001
    vertex -2.5196152422705063 4.749999999999997 99.99999999999999
    vertex -2.5196152422705063 5.3499999999998575 99.99999999999999
  endloop
endfacet
facet normal 1.818031345491632e-15 4.919586425489226e-16 1.0
  outer loop
    vertex -2.5196152422705063 5.3499999999998575 99.99999999999999
    vertex -2.5196152422705063 4.749999999999997 99.99999999999999
    vertex -2.4242640687117816 4.625735931288011 100.00000000000001
  endloop
endfacet
facet normal 1.818031345491632e-15 4.919586425489226e-16 1.0
  outer loop
    vertex -2.5196152422705063 5.3499999999998575 99.99999999999999
    vertex -2.4242640687117816 4.625735931288011 100.00000000000001
    vertex -2.4242640687117816 5.474264068711847 100.00000000000001
  endloop
endfacet
facet normal 1.818031345491632e-15 4.919586425489226e-16 1.0
  outer loop
    vertex -2.4242640687117816 5.474264068711847 100.00000000000001
    vertex -2.4242640687117816 4.625735931288011 100.00000000000001
    vertex -2.2999999999998972 4.5303847577293626 100.00000000000001
  endloop
endfacet
facet normal 1.818031345491632e-15 4.919586425489226e-16 1.0
  outer loop
    vertex -2.4242640687117816 5.474264068711847 100.00000000000001
    vertex -2.2999999999998972 4.5303847577293626 100.00000000000001
    vertex -2.2999999999998972 5.569615242270478 100.00000000000001
  endloop
endfacet
facet normal 1.818031345491632e-15 4.919586425489226e-16 1.0
  outer loop
    vertex -2.2999999999998972 5.569615242270478 100.00000000000001
    vertex -2.2999999999998972 4.5303847577293626 100.00000000000001
    vertex -2.155291427061414 4.47044450422631 100.00000000000001
  endloop
endfacet
facet normal 1.818031345491632e-15 4.919586425489226e-16 1.0
  outer loop
    vertex -2.2999999999998972 5.569615242270478 100.00000000000001
    vertex -2.155291427061414 4.47044450422631 100.00000000000001
    vertex -2.155291427061414 5.629555495773175 100.00000000000001
  endloop
endfacet
facet normal 1.818031345491632e-15 4.919586425489226e-16 1.0
  outer loop
    vertex -2.155291427061414 5.629555495773175 100.00000000000001
    vertex -2.155291427061414 4.47044450422631 100.00000000000001
    vertex -1.999999999999882 4.4499999999996955 100.00000000000001
  endloop
endfacet
facet normal 1.818031345491632e-15 4.919586425489226e-16 1.0
  outer loop
    vertex -2.155291427061414 5.629555495773175 100.00000000000001
    vertex -1.999999999999882 4.4499999999996955 100.00000000000001
    vertex -1.999999999999882 5.649999999999786 100.00000000000001
  endloop
endfacet
facet normal 1.818031345491632e-15 4.919586425489226e-16 1.0
  outer loop
    vertex -1.999999999999882 5.649999999999786 100.00000000000001
    vertex -1.999999999999882 4.4499999999996955 100.00000000000001
    vertex -1.4389634014918882 5.24999999999988 100.00000000000007
  endloop
endfacet
facet normal 1.818031345491632e-15 4.919586425489226e-16 1.0
  outer loop
    vertex -1.4389634014918882 5.24999999999988 100.00000000000007
    vertex -1.999999999999882 4.4499999999996955 100.00000000000001
    vertex 1.290134665765663e-13 4.4499999999996955 99.99999999999994
  endloop
endfacet
facet normal 1.818031345491632e-15 4.919586425489226e-16 1.0
  outer loop
    vertex -1.999999999999882 5.649999999999786 100.00000000000001
    vertex -1.4389634014918882 5.24999999999988 100.00000000000007
    vertex -1.8447085729383503 5.629555495773175 100.00000000000003
  endloop
endfacet
facet normal 1.818031345491632e-15 4.919586425489226e-16 1.0
  outer loop
    vertex -1.8447085729383503 5.629555495773175 100.00000000000003
    vertex -1.4389634014918882 5.24999999999988 100.00000000000007
    vertex -1.6999999999999391 5.569615242270478 100.00000000000003
  endloop
endfacet
facet normal 1.818031345491632e-15 4.919586425489226e-16 1.0
  outer loop
    vertex -1.6999999999999391 5.569615242270478 100.00000000000003
    vertex -1.4389634014918882 5.24999999999988 100.00000000000007
    vertex -1.5757359312879657 5.474264068711847 100.00000000000006
  endloop
endfacet
facet normal 1.818031345491632e-15 4.919586425489226e-16 1.0
  outer loop
    vertex -1.5757359312879657 5.474264068711847 100.00000000000006
    vertex -1.4389634014918882 5.24999999999988 100.00000000000007
    vertex -1.4803847577292606 5.3499999999998575 100.00000000000007
  endloop
endfacet
facet normal 1.818031345491632e-15 4.919586425489226e-16 1.0
  outer loop
    vertex -1.4389634014918882 5.24999999999988 100.00000000000007
    vertex 1.290134665765663e-13 4.4499999999996955 99.99999999999994
    vertex 1.290134665765663e-13 5.24999999999988 99.99999999999994
  endloop
endfacet
facet normal 1.818031345491632e-15 4.919586425489226e-16 1.0
  outer loop
    vertex -2.579555495773316 0.04470857293825502 100.00000000000001
    vertex -2.579555495773316 0.3552914270612973 100.00000000000001
    vertex -2.5999999999999246 0.19999999999995732 100.00000000000001
  endloop
endfacet
facet normal 1.818031345491632e-15 4.919586425489226e-16 1.0
  outer loop
    vertex -2.579555495773316 0.3552914270612973 100.00000000000001
    vertex -2.579555495773316 0.04470857293825502 100.00000000000001
    vertex -2.5196152422705063 -0.09999999999997726 99.99999999999999
  endloop
endfacet
facet normal 1.818031345491632e-15 4.919586425489226e-16 1.0
  outer loop
    vertex -2.579555495773316 0.3552914270612973 100.00000000000001
    vertex -2.5196152422705063 -0.09999999999997726 99.99999999999999
    vertex -2.5196152422705063 0.49999999999988487 99.99999999999999
  endloop
endfacet
facet normal 1.818031345491632e-15 4.919586425489226e-16 1.0
  outer loop
    vertex -2.5196152422705063 0.49999999999988487 99.99999999999999
    vertex -2.5196152422705063 -0.09999999999997726 99.99999999999999
    vertex -2.4242640687117816 -0.22426406871196602 100.00000000000001
  endloop
endfacet
facet normal 1.818031345491632e-15 4.919586425489226e-16 1.0
  outer loop
    vertex -2.5196152422705063 0.49999999999988487 99.99999999999999
    vertex -2.4242640687117816 -0.22426406871196602 100.00000000000001
    vertex -2.4242640687117816 0.6242640687118779 100.00000000000001
  endloop
endfacet
facet normal 1.818031345491632e-15 4.919586425489226e-16 1.0
  outer loop
    vertex -2.4242640687117816 0.6242640687118779 100.00000000000001
    vertex -2.4242640687117816 -0.22426406871196602 100.00000000000001
    vertex -2.2999999999998972 -0.31961524227060634 100.00000000000001
  endloop
endfacet
facet normal 1.818031345491632e-15 4.919586425489226e-16 1.0
  outer loop
    vertex -2.4242640687117816 0.6242640687118779 100.00000000000001
    vertex -2.2999999999998972 -0.31961524227060634 100.00000000000001
    vertex -2.2999999999998972 0.719615242270521 100.00000000000001
  endloop
endfacet
facet normal 1.818031345491632e-15 4.919586425489226e-16 1.0
  outer loop
    vertex -2.2999999999998972 0.719615242270521 100.00000000000001
    vertex -2.2999999999998972 -0.31961524227060634 100.00000000000001
    vertex -2.155291427061414 -0.37955549577366765 100.00000000000001
  endloop
endfacet
facet normal 1.818031345491632e-15 4.919586425489226e-16 1.0
  outer loop
    vertex -2.2999999999998972 0.719615242270521 100.00000000000001
    vertex -2.155291427061414 -0.37955549577366765 100.00000000000001
    vertex -2.155291427061414 0.779555495773215 100.00000000000001
  endloop
endfacet
facet normal 1.818031345491632e-15 4.919586425489226e-16 1.0
  outer loop
    vertex -2.155291427061414 0.779555495773215 100.00000000000001
    vertex -2.155291427061414 -0.37955549577366765 100.00000000000001
    vertex -1.999999999999882 -0.4000000000002707 100.00000000000001
  endloop
endfacet
facet normal 1.818031345491632e-15 4.919586425489226e-16 1.0
  outer loop
    vertex -2.155291427061414 0.779555495773215 100.00000000000001
    vertex -1.999999999999882 -0.4000000000002707 100.00000000000001
    vertex -1.999999999999882 0.7999999999998237 100.00000000000001
  endloop
endfacet
facet normal 1.818031345491632e-15 4.919586425489226e-16 1.0
  outer loop
    vertex -1.999999999999882 0.7999999999998237 100.00000000000001
    vertex -1.999999999999882 -0.4000000000002707 100.00000000000001
    vertex -1.8447085729383503 -0.37955549577366765 100.00000000000003
  endloop
endfacet
facet normal 1.818031345491632e-15 4.919586425489226e-16 1.0
  outer loop
    vertex -1.999999999999882 0.7999999999998237 100.00000000000001
    vertex -1.8447085729383503 -0.37955549577366765 100.00000000000003
    vertex -1.4389634014918882 0.0 100.00000000000007
  endloop
endfacet
facet normal 1.818031345491632e-15 4.919586425489226e-16 1.0
  outer loop
    vertex -1.999999999999882 0.7999999999998237 100.00000000000001
    vertex -1.4389634014918882 0.0 100.00000000000007
    vertex 1.290134665765663e-13 0.7999999999998237 99.99999999999994
  endloop
endfacet
facet normal 1.818031345491632e-15 4.919586425489226e-16 1.0
  outer loop
    vertex -1.4389634014918882 0.0 100.00000000000007
    vertex -1.8447085729383503 -0.37955549577366765 100.00000000000003
    vertex -1.6999999999999391 -0.31961524227060634 100.00000000000003
  endloop
endfacet
facet normal 1.818031345491632e-15 4.919586425489226e-16 1.0
  outer loop
    vertex -1.4389634014918882 0.0 100.00000000000007
    vertex -1.6999999999999391 -0.31961524227060634 100.00000000000003
    vertex -1.5757359312879657 -0.22426406871196602 100.00000000000006
  endloop
endfacet
facet normal 1.818031345491632e-15 4.919586425489226e-16 1.0
  outer loop
    vertex -1.4389634014918882 0.0 100.00000000000007
    vertex -1.5757359312879657 -0.22426406871196602 100.00000000000006
    vertex -1.4803847577292606 -0.09999999999997726 100.00000000000007
  endloop
endfacet
facet normal 1.818031345491632e-15 4.919586425489226e-16 1.0
  outer loop
    vertex 1.290134665765663e-13 0.7999999999998237 99.99999999999994
    vertex -1.4389634014918882 0.0 100.00000000000007
    vertex 1.290134665765663e-13 0.0 99.99999999999994
  endloop
endfacet
facet normal -0.1305261922203496 0.9914448613737712 1.325105707984319e-16
  outer loop
    vertex -2.1552914270615124 0.779555495773215 7.049916206369744e-16
    vertex -1.999999999999882 0.7999999999998237 100.00000000000001
    vertex -1.9999999999999865 0.7999999999998237 -2.114974861910923e-15
  endloop
endfacet
facet normal -0.1305261922203496 0.9914448613737712 1.325105707984319e-16
  outer loop
    vertex -1.999999999999882 0.7999999999998237 100.00000000000001
    vertex -2.1552914270615124 0.779555495773215 7.049916206369744e-16
    vertex -2.155291427061414 0.779555495773215 100.00000000000001
  endloop
endfacet
facet normal -0.38268343236463026 0.9238795325114773 3.9927281497694294e-16
  outer loop
    vertex -2.300000000000007 0.719615242270521 3.1724622928663847e-15
    vertex -2.155291427061414 0.779555495773215 100.00000000000001
    vertex -2.1552914270615124 0.779555495773215 7.049916206369744e-16
  endloop
endfacet
facet normal -0.38268343236463026 0.9238795325114773 3.9927281497694294e-16
  outer loop
    vertex -2.155291427061414 0.779555495773215 100.00000000000001
    vertex -2.300000000000007 0.719615242270521 3.1724622928663847e-15
    vertex -2.2999999999998972 0.719615242270521 100.00000000000001
  endloop
endfacet
facet normal -0.6087614290084583 0.7933533402914364 7.295927713750367e-16
  outer loop
    vertex -2.4242640687117816 0.6242640687118779 100.00000000000001
    vertex -2.300000000000007 0.719615242270521 3.1724622928663847e-15
    vertex -2.4242640687119112 0.6242640687118779 -1.762479051592436e-15
  endloop
endfacet
facet normal -0.6087614290084583 0.7933533402914364 7.295927713750367e-16
  outer loop
    vertex -2.300000000000007 0.719615242270521 3.1724622928663847e-15
    vertex -2.4242640687117816 0.6242640687118779 100.00000000000001
    vertex -2.2999999999998972 0.719615242270521 100.00000000000001
  endloop
endfacet
facet normal -0.7933533402914222 0.608761429008477 1.0179542883485387e-15
  outer loop
    vertex -2.4242640687117816 0.6242640687118779 100.00000000000001
    vertex -2.5196152422706333 0.49999999999988487 -7.049916206369744e-16
    vertex -2.5196152422705063 0.49999999999988487 99.99999999999999
  endloop
endfacet
facet normal -0.7933533402914222 0.608761429008477 1.0179542883485387e-15
  outer loop
    vertex -2.5196152422706333 0.49999999999988487 -7.049916206369744e-16
    vertex -2.4242640687117816 0.6242640687118779 100.00000000000001
    vertex -2.4242640687119112 0.6242640687118779 -1.762479051592436e-15
  endloop
endfacet
facet normal -0.9238795325113277 0.38268343236499147 1.0942241382751204e-15
  outer loop
    vertex -2.5196152422705063 0.49999999999988487 99.99999999999999
    vertex -2.579555495773426 0.3552914270612973 -8.81239525796218e-16
    vertex -2.579555495773316 0.3552914270612973 100.00000000000001
  endloop
endfacet
facet normal -0.9238795325113277 0.38268343236499147 1.0942241382751204e-15
  outer loop
    vertex -2.579555495773426 0.3552914270612973 -8.81239525796218e-16
    vertex -2.5196152422705063 0.49999999999988487 99.99999999999999
    vertex -2.5196152422706333 0.49999999999988487 -7.049916206369744e-16
  endloop
endfacet
facet normal -0.9914448613737497 0.1305261922205146 1.1043566496801868e-15
  outer loop
    vertex -2.579555495773316 0.3552914270612973 100.00000000000001
    vertex -2.6000000000000374 0.19999999999995732 2.46747067222941e-15
    vertex -2.5999999999999246 0.19999999999995732 100.00000000000001
  endloop
endfacet
facet normal -0.9914448613737497 0.1305261922205146 1.1043566496801868e-15
  outer loop
    vertex -2.6000000000000374 0.19999999999995732 2.46747067222941e-15
    vertex -2.579555495773316 0.3552914270612973 100.00000000000001
    vertex -2.579555495773426 0.3552914270612973 -8.81239525796218e-16
  endloop
endfacet
facet normal -0.991444861373789 -0.13052619222021522 1.1043566496802306e-15
  outer loop
    vertex -2.5999999999999246 0.19999999999995732 100.00000000000001
    vertex -2.579555495773426 0.04470857293825502 -8.81239525796218e-16
    vertex -2.579555495773316 0.04470857293825502 100.00000000000001
  endloop
endfacet
facet normal -0.991444861373789 -0.13052619222021522 1.1043566496802306e-15
  outer loop
    vertex -2.579555495773426 0.04470857293825502 -8.81239525796218e-16
    vertex -2.5999999999999246 0.19999999999995732 100.00000000000001
    vertex -2.6000000000000374 0.19999999999995732 2.46747067222941e-15
  endloop
endfacet
facet normal -0.9238795325109954 -0.38268343236579333 1.094224138274727e-15
  outer loop
    vertex -2.579555495773316 0.04470857293825502 100.00000000000001
    vertex -2.5196152422706333 -0.09999999999997726 -7.049916206369744e-16
    vertex -2.5196152422705063 -0.09999999999997726 99.99999999999999
  endloop
endfacet
facet normal -0.9238795325109954 -0.38268343236579333 1.094224138274727e-15
  outer loop
    vertex -2.5196152422706333 -0.09999999999997726 -7.049916206369744e-16
    vertex -2.579555495773316 0.04470857293825502 100.00000000000001
    vertex -2.579555495773426 0.04470857293825502 -8.81239525796218e-16
  endloop
endfacet
facet normal -0.7933533402914124 -0.6087614290084901 1.0179542883485263e-15
  outer loop
    vertex -2.5196152422705063 -0.09999999999997726 99.99999999999999
    vertex -2.4242640687119112 -0.22426406871196602 -1.762479051592436e-15
    vertex -2.4242640687117816 -0.22426406871196602 100.00000000000001
  endloop
endfacet
facet normal -0.7933533402914124 -0.6087614290084901 1.0179542883485263e-15
  outer loop
    vertex -2.4242640687119112 -0.22426406871196602 -1.762479051592436e-15
    vertex -2.5196152422705063 -0.09999999999997726 99.99999999999999
    vertex -2.5196152422706333 -0.09999999999997726 -7.049916206369744e-16
  endloop
endfacet
facet normal -0.608761429008447 -0.7933533402914452 7.295927713750231e-16
  outer loop
    vertex -2.300000000000007 -0.31961524227060634 3.1724622928663847e-15
    vertex -2.4242640687117816 -0.22426406871196602 100.00000000000001
    vertex -2.4242640687119112 -0.22426406871196602 -1.762479051592436e-15
  endloop
endfacet
facet normal -0.608761429008447 -0.7933533402914452 7.295927713750231e-16
  outer loop
    vertex -2.4242640687117816 -0.22426406871196602 100.00000000000001
    vertex -2.300000000000007 -0.31961524227060634 3.1724622928663847e-15
    vertex -2.2999999999998972 -0.31961524227060634 100.00000000000001
  endloop
endfacet
facet normal -0.38268343236663177 -0.923879532510648 3.9929866453239687e-16
  outer loop
    vertex -2.155291427061414 -0.37955549577366765 100.00000000000001
    vertex -2.300000000000007 -0.31961524227060634 3.1724622928663847e-15
    vertex -2.1552914270615124 -0.37955549577366765 7.049916206369744e-16
  endloop
endfacet
facet normal -0.38268343236663177 -0.923879532510648 3.9929866453239687e-16
  outer loop
    vertex -2.300000000000007 -0.31961524227060634 3.1724622928663847e-15
    vertex -2.155291427061414 -0.37955549577366765 100.00000000000001
    vertex -2.2999999999998972 -0.31961524227060634 100.00000000000001
  endloop
endfacet
facet normal -0.13052619222031422 -0.9914448613737759 1.3251057079839594e-16
  outer loop
    vertex -1.999999999999882 -0.4000000000002707 100.00000000000001
    vertex -2.1552914270615124 -0.37955549577366765 7.049916206369744e-16
    vertex -1.9999999999999865 -0.4000000000002707 -2.114974861910923e-15
  endloop
endfacet
facet normal -0.13052619222031422 -0.9914448613737759 1.3251057079839594e-16
  outer loop
    vertex -2.1552914270615124 -0.37955549577366765 7.049916206369744e-16
    vertex -1.999999999999882 -0.4000000000002707 100.00000000000001
    vertex -2.155291427061414 -0.37955549577366765 100.00000000000001
  endloop
endfacet
facet normal 0.13052619222031775 -0.9914448613737754 -1.45381831363575e-16
  outer loop
    vertex -1.844708572938469 -0.37955549577366765 -1.762479051592436e-16
    vertex -1.999999999999882 -0.4000000000002707 100.00000000000001
    vertex -1.9999999999999865 -0.4000000000002707 -2.114974861910923e-15
  endloop
endfacet
facet normal 0.13052619222031775 -0.9914448613737754 -1.45381831363575e-16
  outer loop
    vertex -1.999999999999882 -0.4000000000002707 100.00000000000001
    vertex -1.844708572938469 -0.37955549577366765 -1.762479051592436e-16
    vertex -1.8447085729383503 -0.37955549577366765 100.00000000000003
  endloop
endfacet
facet normal 0.3826834323668132 -0.923879532510573 -4.640087613284926e-16
  outer loop
    vertex -1.6999999999999391 -0.31961524227060634 100.00000000000003
    vertex -1.844708572938469 -0.37955549577366765 -1.762479051592436e-16
    vertex -1.7000000000000632 -0.31961524227060634 -2.643718577388654e-15
  endloop
endfacet
facet normal 0.3826834323668132 -0.923879532510573 -4.640087613284926e-16
  outer loop
    vertex -1.844708572938469 -0.37955549577366765 -1.762479051592436e-16
    vertex -1.6999999999999391 -0.31961524227060634 100.00000000000003
    vertex -1.8447085729383503 -0.37955549577366765 100.00000000000003
  endloop
endfacet
facet normal 0.6087614290081883 -0.7933533402916437 -7.253020563101836e-16
  outer loop
    vertex -1.57573593128808 -0.22426406871196602 2.643718577388654e-15
    vertex -1.6999999999999391 -0.31961524227060634 100.00000000000003
    vertex -1.7000000000000632 -0.31961524227060634 -2.643718577388654e-15
  endloop
endfacet
facet normal 0.6087614290081883 -0.7933533402916437 -7.253020563101836e-16
  outer loop
    vertex -1.6999999999999391 -0.31961524227060634 100.00000000000003
    vertex -1.57573593128808 -0.22426406871196602 2.643718577388654e-15
    vertex -1.5757359312879657 -0.22426406871196602 100.00000000000006
  endloop
endfacet
facet normal 0.793353340291432 -0.6087614290084644 -8.10972793258535e-16
  outer loop
    vertex -1.480384757729351 -0.09999999999997726 1.9387269567516795e-15
    vertex -1.5757359312879657 -0.22426406871196602 100.00000000000006
    vertex -1.57573593128808 -0.22426406871196602 2.643718577388654e-15
  endloop
endfacet
facet normal 0.793353340291432 -0.6087614290084644 -8.10972793258535e-16
  outer loop
    vertex -1.5757359312879657 -0.22426406871196602 100.00000000000006
    vertex -1.480384757729351 -0.09999999999997726 1.9387269567516795e-15
    vertex -1.4803847577292606 -0.09999999999997726 100.00000000000007
  endloop
endfacet
facet normal 0.92387953251106 -0.3826834323656376 -8.597432201648807e-16
  outer loop
    vertex -1.438963401491984 0.0 1.0574874309554614e-15
    vertex -1.4803847577292606 -0.09999999999997726 100.00000000000007
    vertex -1.480384757729351 -0.09999999999997726 1.9387269567516795e-15
  endloop
endfacet
facet normal 0.92387953251106 -0.3826834323656376 -8.597432201648807e-16
  outer loop
    vertex -1.4803847577292606 -0.09999999999997726 100.00000000000007
    vertex -1.438963401491984 0.0 1.0574874309554614e-15
    vertex -1.4389634014918882 0.0 100.00000000000007
  endloop
endfacet
facet normal 0.0 -1.0 0.0
  outer loop
    vertex 1.290134665765663e-13 0.0 99.99999999999994
    vertex -1.438963401491984 0.0 1.0574874309554614e-15
    vertex 0.0 0.0 0.0
  endloop
endfacet
facet normal 0.0 -1.0 0.0
  outer loop
    vertex -1.438963401491984 0.0 1.0574874309554614e-15
    vertex 1.290134665765663e-13 0.0 99.99999999999994
    vertex -1.4389634014918882 0.0 100.00000000000007
  endloop
endfacet
facet normal -1.0 5.936771542205904e-16 1.304234498178403e-15
  outer loop
    vertex 1.290134665765663e-13 0.0 99.99999999999994
    vertex -2.8199664825478975e-15 -2.3750000000000737 3.524958103184872e-16
    vertex 1.290134665765663e-13 -2.3750000000000737 99.99999999999994
  endloop
endfacet
facet normal -1.0 5.936771542205904e-16 1.304234498178403e-15
  outer loop
    vertex -2.8199664825478975e-15 -2.3750000000000737 3.524958103184872e-16
    vertex 1.290134665765663e-13 0.0 99.99999999999994
    vertex 0.0 0.0 0.0
  endloop
endfacet
facet normal -0.9914448613738136 -0.1305261922200279 1.2825969878993775e-15
  outer loop
    vertex 1.290134665765663e-13 -2.3750000000000737 99.99999999999994
    vertex 0.01703708685546235 -2.504409522551334 8.81239525796218e-16
    vertex 0.01703708685558925 -2.504409522551334 100.00000000000001
  endloop
endfacet
facet normal -0.9914448613738136 -0.1305261922200279 1.2825969878993775e-15
  outer loop
    vertex 0.01703708685546235 -2.504409522551334 8.81239525796218e-16
    vertex 1.290134665765663e-13 -2.3750000000000737 99.99999999999994
    vertex -2.8199664825478975e-15 -2.3750000000000737 3.524958103184872e-16
  endloop
endfacet
facet normal -0.923879532511242 -0.38268343236519825 1.3319665351912548e-15
  outer loop
    vertex 0.01703708685558925 -2.504409522551334 100.00000000000001
    vertex 0.06698729810777704 -2.625000000000075 1.9387269567516795e-15
    vertex 0.06698729810793848 -2.625000000000075 99.99999999999996
  endloop
endfacet
facet normal -0.923879532511242 -0.38268343236519825 1.3319665351912548e-15
  outer loop
    vertex 0.06698729810777704 -2.625000000000075 1.9387269567516795e-15
    vertex 0.01703708685558925 -2.504409522551334 100.00000000000001
    vertex 0.01703708685546235 -2.504409522551334 8.81239525796218e-16
  endloop
endfacet
facet normal -0.7933533402912627 -0.6087614290086849 1.210915745206281e-15
  outer loop
    vertex 0.06698729810793848 -2.625000000000075 99.99999999999996
    vertex 0.14644660940672338 -2.7285533905933477 8.81239525796218e-16
    vertex 0.1464466094068672 -2.7285533905933477 100.00000000000001
  endloop
endfacet
facet normal -0.7933533402912627 -0.6087614290086849 1.210915745206281e-15
  outer loop
    vertex 0.14644660940672338 -2.7285533905933477 8.81239525796218e-16
    vertex 0.06698729810793848 -2.625000000000075 99.99999999999996
    vertex 0.06698729810777704 -2.625000000000075 1.9387269567516795e-15
  endloop
endfacet
facet normal -0.6087614290087665 -0.7933533402912001 7.896709143250376e-16
  outer loop
    vertex 0.2500000000001155 -2.8080127018922942 99.99999999999999
    vertex 0.14644660940672338 -2.7285533905933477 8.81239525796218e-16
    vertex 0.2499999999999999 -2.8080127018922942 -3.524958103184872e-15
  endloop
endfacet
facet normal -0.6087614290087665 -0.7933533402912001 7.896709143250376e-16
  outer loop
    vertex 0.14644660940672338 -2.7285533905933477 8.81239525796218e-16
    vertex 0.2500000000001155 -2.8080127018922942 99.99999999999999
    vertex 0.1464466094068672 -2.7285533905933477 100.00000000000001
  endloop
endfacet
facet normal -0.38268343236512 -0.9238795325112744 4.181814125512682e-16
  outer loop
    vertex 0.37059047744873524 -2.8579629131446094 1.9387269567516795e-15
    vertex 0.2500000000001155 -2.8080127018922942 99.99999999999999
    vertex 0.2499999999999999 -2.8080127018922942 -3.524958103184872e-15
  endloop
endfacet
facet normal -0.38268343236512 -0.9238795325112744 4.181814125512682e-16
  outer loop
    vertex 0.2500000000001155 -2.8080127018922942 99.99999999999999
    vertex 0.37059047744873524 -2.8579629131446094 1.9387269567516795e-15
    vertex 0.37059047744883816 -2.8579629131446094 100.00000000000001
  endloop
endfacet
facet normal -0.13052619222002615 -0.9914448613738138 1.52757473138107e-16
  outer loop
    vertex 0.5000000000001278 -2.8750000000000737 100.00000000000001
    vertex 0.37059047744873524 -2.8579629131446094 1.9387269567516795e-15
    vertex 0.4999999999999966 -2.8750000000000737 0.0
  endloop
endfacet
facet normal -0.13052619222002615 -0.9914448613738138 1.52757473138107e-16
  outer loop
    vertex 0.37059047744873524 -2.8579629131446094 1.9387269567516795e-15
    vertex 0.5000000000001278 -2.8750000000000737 100.00000000000001
    vertex 0.37059047744883816 -2.8579629131446094 100.00000000000001
  endloop
endfacet
facet normal 0.13052619222005832 -0.9914448613738096 -1.4538765911900017e-16
  outer loop
    vertex 0.6294095225513511 -2.8579629131446094 100.00000000000001
    vertex 0.4999999999999966 -2.8750000000000737 0.0
    vertex 0.6294095225512594 -2.8579629131446094 -1.233735336114705e-15
  endloop
endfacet
facet normal 0.13052619222005832 -0.9914448613738096 -1.4538765911900017e-16
  outer loop
    vertex 0.4999999999999966 -2.8750000000000737 0.0
    vertex 0.6294095225513511 -2.8579629131446094 100.00000000000001
    vertex 0.5000000000001278 -2.8750000000000737 100.00000000000001
  endloop
endfacet
facet normal 0.38268343236506464 -0.9238795325112972 -3.9390145685594495e-16
  outer loop
    vertex 0.7499999999999976 -2.8080127018922942 -7.049916206369744e-16
    vertex 0.6294095225513511 -2.8579629131446094 100.00000000000001
    vertex 0.6294095225512594 -2.8579629131446094 -1.233735336114705e-15
  endloop
endfacet
facet normal 0.38268343236506464 -0.9238795325112972 -3.9390145685594495e-16
  outer loop
    vertex 0.6294095225513511 -2.8579629131446094 100.00000000000001
    vertex 0.7499999999999976 -2.8080127018922942 -7.049916206369744e-16
    vertex 0.7500000000001118 -2.8080127018922942 100.00000000000006
  endloop
endfacet
facet normal 0.6087614290087273 -0.7933533402912301 -7.080840317733148e-16
  outer loop
    vertex 0.8535533905932684 -2.7285533905933477 1.0574874309554614e-15
    vertex 0.7500000000001118 -2.8080127018922942 100.00000000000006
    vertex 0.7499999999999976 -2.8080127018922942 -7.049916206369744e-16
  endloop
endfacet
facet normal 0.6087614290087273 -0.7933533402912301 -7.080840317733148e-16
  outer loop
    vertex 0.7500000000001118 -2.8080127018922942 100.00000000000006
    vertex 0.8535533905932684 -2.7285533905933477 1.0574874309554614e-15
    vertex 0.8535533905933869 -2.7285533905933477 100.00000000000003
  endloop
endfacet
facet normal 0.793353340291196 -0.6087614290087718 -1.006744543422708e-15
  outer loop
    vertex 0.9330127018922134 -2.6250000000000777 1.4099832412739487e-15
    vertex 0.8535533905933869 -2.7285533905933477 100.00000000000003
    vertex 0.8535533905932684 -2.7285533905933477 1.0574874309554614e-15
  endloop
endfacet
facet normal 0.793353340291196 -0.6087614290087718 -1.006744543422708e-15
  outer loop
    vertex 0.8535533905933869 -2.7285533905933477 100.00000000000003
    vertex 0.9330127018922134 -2.6250000000000777 1.4099832412739487e-15
    vertex 0.9330127018923488 -2.6250000000000777 100.00000000000006
  endloop
endfacet
facet normal 0.9238795325113082 -0.38268343236503843 -1.1788984049366034e-15
  outer loop
    vertex 0.9829629131445298 -2.504409522551334 7.049916206369744e-16
    vertex 0.9330127018923488 -2.6250000000000777 100.00000000000006
    vertex 0.9330127018922134 -2.6250000000000777 1.4099832412739487e-15
  endloop
endfacet
facet normal 0.9238795325113082 -0.38268343236503843 -1.1788984049366034e-15
  outer loop
    vertex 0.9330127018923488 -2.6250000000000777 100.00000000000006
    vertex 0.9829629131445298 -2.504409522551334 7.049916206369744e-16
    vertex 0.9829629131446497 -2.504409522551334 100.00000000000001
  endloop
endfacet
facet normal 0.9914448613738035 -0.13052619222010486 -1.2581244910065266e-15
  outer loop
    vertex 0.9999999999999957 -2.3750000000000737 1.762479051592436e-16
    vertex 0.9829629131446497 -2.504409522551334 100.00000000000001
    vertex 0.9829629131445298 -2.504409522551334 7.049916206369744e-16
  endloop
endfacet
facet normal 0.9914448613738035 -0.13052619222010486 -1.2581244910065266e-15
  outer loop
    vertex 0.9829629131446497 -2.504409522551334 100.00000000000001
    vertex 0.9999999999999957 -2.3750000000000737 1.762479051592436e-16
    vertex 1.0000000000001297 -2.3750000000000737 100.00000000000006
  endloop
endfacet
facet normal 1.0 -7.049916206369737e-17 -1.3324341630038808e-15
  outer loop
    vertex 0.9999999999999971 7.624999999999921 1.762479051592436e-16
    vertex 1.0000000000001297 -2.3750000000000737 100.00000000000006
    vertex 0.9999999999999957 -2.3750000000000737 1.762479051592436e-16
  endloop
endfacet
facet normal 1.0 -7.049916206369737e-17 -1.3324341630038808e-15
  outer loop
    vertex 1.0000000000001297 -2.3750000000000737 100.00000000000006
    vertex 0.9999999999999971 7.624999999999921 1.762479051592436e-16
    vertex 1.0000000000001297 7.624999999999921 100.00000000000006
  endloop
endfacet
facet normal 0.9914448613738064 0.13052619222008263 -1.2161881955451249e-15
  outer loop
    vertex 0.9829629131445369 7.754409522551183 5.287437154777307e-16
    vertex 1.0000000000001297 7.624999999999921 100.00000000000006
    vertex 0.9999999999999971 7.624999999999921 1.762479051592436e-16
  endloop
endfacet
facet normal 0.9914448613738064 0.13052619222008263 -1.2161881955451249e-15
  outer loop
    vertex 1.0000000000001297 7.624999999999921 100.00000000000006
    vertex 0.9829629131445369 7.754409522551183 5.287437154777307e-16
    vertex 0.9829629131446497 7.754409522551183 100.00000000000001
  endloop
endfacet
facet normal 0.9238795325113393 0.382683432364963 -1.1919140355261548e-15
  outer loop
    vertex 0.9330127018922246 7.874999999999924 1.233735336114705e-15
    vertex 0.9829629131446497 7.754409522551183 100.00000000000001
    vertex 0.9829629131445369 7.754409522551183 5.287437154777307e-16
  endloop
endfacet
facet normal 0.9238795325113393 0.382683432364963 -1.1919140355261548e-15
  outer loop
    vertex 0.9829629131446497 7.754409522551183 100.00000000000001
    vertex 0.9330127018922246 7.874999999999924 1.233735336114705e-15
    vertex 0.9330127018923698 7.874999999999924 100.00000000000003
  endloop
endfacet
facet normal 0.7933533402912338 0.6087614290087224 -1.0682775926466373e-15
  outer loop
    vertex 0.853553390593284 7.978553390593205 7.049916206369744e-16
    vertex 0.9330127018923698 7.874999999999924 100.00000000000003
    vertex 0.9330127018922246 7.874999999999924 1.233735336114705e-15
  endloop
endfacet
facet normal 0.7933533402912338 0.6087614290087224 -1.0682775926466373e-15
  outer loop
    vertex 0.9330127018923698 7.874999999999924 100.00000000000003
    vertex 0.853553390593284 7.978553390593205 7.049916206369744e-16
    vertex 0.8535533905934081 7.978553390593205 100.00000000000003
  endloop
endfacet
facet normal 0.6087614290087289 0.7933533402912288 -7.081537012459923e-16
  outer loop
    vertex 0.7500000000001259 8.058012701892151 100.00000000000003
    vertex 0.853553390593284 7.978553390593205 7.049916206369744e-16
    vertex 0.7500000000000173 8.058012701892151 -7.049916206369744e-16
  endloop
endfacet
facet normal 0.6087614290087289 0.7933533402912288 -7.081537012459923e-16
  outer loop
    vertex 0.853553390593284 7.978553390593205 7.049916206369744e-16
    vertex 0.7500000000001259 8.058012701892151 100.00000000000003
    vertex 0.8535533905934081 7.978553390593205 100.00000000000003
  endloop
endfacet
facet normal 0.38268343236510055 0.9238795325112825 -4.100782527542398e-16
  outer loop
    vertex 0.6294095225513849 8.107962913144469 100.00000000000001
    vertex 0.7500000000000173 8.058012701892151 -7.049916206369744e-16
    vertex 0.6294095225512791 8.107962913144469 -8.81239525796218e-16
  endloop
endfacet
facet normal 0.38268343236510055 0.9238795325112825 -4.100782527542398e-16
  outer loop
    vertex 0.7500000000000173 8.058012701892151 -7.049916206369744e-16
    vertex 0.6294095225513849 8.107962913144469 100.00000000000001
    vertex 0.7500000000001259 8.058012701892151 100.00000000000003
  endloop
endfacet
facet normal 0.13052619222008596 0.9914448613738059 -1.5458459971019309e-16
  outer loop
    vertex 0.5000000000000192 8.124999999999938 -1.762479051592436e-16
    vertex 0.6294095225513849 8.107962913144469 100.00000000000001
    vertex 0.6294095225512791 8.107962913144469 -8.81239525796218e-16
  endloop
endfacet
facet normal 0.13052619222008596 0.9914448613738059 -1.5458459971019309e-16
  outer loop
    vertex 0.6294095225513849 8.107962913144469 100.00000000000001
    vertex 0.5000000000000192 8.124999999999938 -1.762479051592436e-16
    vertex 0.5000000000001503 8.124999999999938 99.99999999999999
  endloop
endfacet
facet normal -0.1305261922199787 0.9914448613738202 1.6011157176133817e-16
  outer loop
    vertex 0.3705904774487578 8.10796291314448 1.762479051592436e-15
    vertex 0.5000000000001503 8.124999999999938 99.99999999999999
    vertex 0.5000000000000192 8.124999999999938 -1.762479051592436e-16
  endloop
endfacet
facet normal -0.1305261922199787 0.9914448613738202 1.6011157176133817e-16
  outer loop
    vertex 0.5000000000001503 8.124999999999938 99.99999999999999
    vertex 0.3705904774487578 8.10796291314448 1.762479051592436e-15
    vertex 0.370590477448872 8.10796291314448 100.00000000000001
  endloop
endfacet
facet normal -0.382683432365002 0.9238795325113233 4.073885190811164e-16
  outer loop
    vertex 0.2500000000001155 8.058012701892174 99.99999999999999
    vertex 0.3705904774487578 8.10796291314448 1.762479051592436e-15
    vertex 0.2500000000000168 8.058012701892174 -3.524958103184872e-15
  endloop
endfacet
facet normal -0.382683432365002 0.9238795325113233 4.073885190811164e-16
  outer loop
    vertex 0.3705904774487578 8.10796291314448 1.762479051592436e-15
    vertex 0.2500000000001155 8.058012701892174 99.99999999999999
    vertex 0.370590477448872 8.10796291314448 100.00000000000001
  endloop
endfacet
facet normal -0.6087614290087877 0.7933533402911837 7.724915706845946e-16
  outer loop
    vertex 0.14644660940673748 7.978553390593232 8.81239525796218e-16
    vertex 0.2500000000001155 8.058012701892174 99.99999999999999
    vertex 0.2500000000000168 8.058012701892174 -3.524958103184872e-15
  endloop
endfacet
facet normal -0.6087614290087877 0.7933533402911837 7.724915706845946e-16
  outer loop
    vertex 0.2500000000001155 8.058012701892174 99.99999999999999
    vertex 0.14644660940673748 7.978553390593232 8.81239525796218e-16
    vertex 0.14644660940689258 7.978553390593232 99.99999999999999
  endloop
endfacet
facet normal -0.7933533402912006 0.6087614290087658 1.210895086155764e-15
  outer loop
    vertex 0.14644660940689258 7.978553390593232 99.99999999999999
    vertex 0.0669872981077883 7.874999999999963 2.114974861910923e-15
    vertex 0.06698729810793848 7.874999999999963 99.99999999999996
  endloop
endfacet
facet normal -0.7933533402912006 0.6087614290087658 1.210895086155764e-15
  outer loop
    vertex 0.0669872981077883 7.874999999999963 2.114974861910923e-15
    vertex 0.14644660940689258 7.978553390593232 99.99999999999999
    vertex 0.14644660940673748 7.978553390593232 8.81239525796218e-16
  endloop
endfacet
facet normal -0.9238795325112305 0.38268343236522584 1.2668385854864676e-15
  outer loop
    vertex 0.06698729810793848 7.874999999999963 99.99999999999996
    vertex 0.01703708685546517 7.754409522551222 7.049916206369744e-16
    vertex 0.01703708685558925 7.754409522551222 100.00000000000001
  endloop
endfacet
facet normal -0.9238795325112305 0.38268343236522584 1.2668385854864676e-15
  outer loop
    vertex 0.01703708685546517 7.754409522551222 7.049916206369744e-16
    vertex 0.06698729810793848 7.874999999999963 99.99999999999996
    vertex 0.0669872981077883 7.874999999999963 2.114974861910923e-15
  endloop
endfacet
facet normal -0.9914448613738116 0.13052619222004305 1.2686160341067336e-15
  outer loop
    vertex 0.01703708685558925 7.754409522551222 100.00000000000001
    vertex -2.8199664825478975e-15 7.624999999999966 3.524958103184872e-16
    vertex 1.290134665765663e-13 7.624999999999966 99.99999999999994
  endloop
endfacet
facet normal -0.9914448613738116 0.13052619222004305 1.2686160341067336e-15
  outer loop
    vertex -2.8199664825478975e-15 7.624999999999966 3.524958103184872e-16
    vertex 0.01703708685558925 7.754409522551222 100.00000000000001
    vertex 0.01703708685546517 7.754409522551222 7.049916206369744e-16
  endloop
endfacet
facet normal -1.0 -5.936771542205871e-16 1.3042344981784033e-15
  outer loop
    vertex 1.290134665765663e-13 7.624999999999966 99.99999999999994
    vertex 0.0 5.24999999999988 0.0
    vertex 1.290134665765663e-13 5.24999999999988 99.99999999999994
  endloop
endfacet
facet normal -1.0 -5.936771542205871e-16 1.3042344981784033e-15
  outer loop
    vertex 0.0 5.24999999999988 0.0
    vertex 1.290134665765663e-13 7.624999999999966 99.99999999999994
    vertex -2.8199664825478975e-15 7.624999999999966 3.524958103184872e-16
  endloop
endfacet
facet normal -0.0 1.0 -0.0
  outer loop
    vertex -1.438963401491984 5.24999999999988 1.0574874309554614e-15
    vertex 1.290134665765663e-13 5.24999999999988 99.99999999999994
    vertex 0.0 5.24999999999988 0.0
  endloop
endfacet
facet normal -0.0 1.0 -0.0
  outer loop
    vertex 1.290134665765663e-13 5.24999999999988 99.99999999999994
    vertex -1.438963401491984 5.24999999999988 1.0574874309554614e-15
    vertex -1.4389634014918882 5.24999999999988 100.00000000000007
  endloop
endfacet
facet normal 0.92387953251106 0.3826834323656376 -8.597432201648807e-16
  outer loop
    vertex -1.480384757729351 5.3499999999998575 1.9387269567516795e-15
    vertex -1.4389634014918882 5.24999999999988 100.00000000000007
    vertex -1.438963401491984 5.24999999999988 1.0574874309554614e-15
  endloop
endfacet
facet normal 0.92387953251106 0.3826834323656376 -8.597432201648807e-16
  outer loop
    vertex -1.4389634014918882 5.24999999999988 100.00000000000007
    vertex -1.480384757729351 5.3499999999998575 1.9387269567516795e-15
    vertex -1.4803847577292606 5.3499999999998575 100.00000000000007
  endloop
endfacet
facet normal 0.7933533402914318 0.6087614290084645 -8.109727932585348e-16
  outer loop
    vertex -1.57573593128808 5.474264068711847 2.643718577388654e-15
    vertex -1.4803847577292606 5.3499999999998575 100.00000000000007
    vertex -1.480384757729351 5.3499999999998575 1.9387269567516795e-15
  endloop
endfacet
facet normal 0.7933533402914318 0.6087614290084645 -8.109727932585348e-16
  outer loop
    vertex -1.4803847577292606 5.3499999999998575 100.00000000000007
    vertex -1.57573593128808 5.474264068711847 2.643718577388654e-15
    vertex -1.5757359312879657 5.474264068711847 100.00000000000006
  endloop
endfacet
facet normal 0.6087614290081543 0.7933533402916699 -7.253020563101432e-16
  outer loop
    vertex -1.6999999999999391 5.569615242270478 100.00000000000003
    vertex -1.57573593128808 5.474264068711847 2.643718577388654e-15
    vertex -1.7000000000000632 5.569615242270478 -2.643718577388654e-15
  endloop
endfacet
facet normal 0.6087614290081543 0.7933533402916699 -7.253020563101432e-16
  outer loop
    vertex -1.57573593128808 5.474264068711847 2.643718577388654e-15
    vertex -1.6999999999999391 5.569615242270478 100.00000000000003
    vertex -1.5757359312879657 5.474264068711847 100.00000000000006
  endloop
endfacet
facet normal 0.38268343236482694 0.9238795325113957 -4.640087613260842e-16
  outer loop
    vertex -1.844708572938469 5.629555495773175 -1.762479051592436e-16
    vertex -1.6999999999999391 5.569615242270478 100.00000000000003
    vertex -1.7000000000000632 5.569615242270478 -2.643718577388654e-15
  endloop
endfacet
facet normal 0.38268343236482694 0.9238795325113957 -4.640087613260842e-16
  outer loop
    vertex -1.6999999999999391 5.569615242270478 100.00000000000003
    vertex -1.844708572938469 5.629555495773175 -1.762479051592436e-16
    vertex -1.8447085729383503 5.629555495773175 100.00000000000003
  endloop
endfacet
facet normal 0.13052619222037082 0.9914448613737684 -1.453887663605551e-16
  outer loop
    vertex -1.999999999999882 5.649999999999786 100.00000000000001
    vertex -1.844708572938469 5.629555495773175 -1.762479051592436e-16
    vertex -1.9999999999999865 5.649999999999786 -2.114974861910923e-15
  endloop
endfacet
facet normal 0.13052619222037082 0.9914448613737684 -1.453887663605551e-16
  outer loop
    vertex -1.844708572938469 5.629555495773175 -1.762479051592436e-16
    vertex -1.999999999999882 5.649999999999786 100.00000000000001
    vertex -1.8447085729383503 5.629555495773175 100.00000000000003
  endloop
endfacet
facet normal -0.13052619222036732 0.9914448613737689 1.3251057079844986e-16
  outer loop
    vertex -2.1552914270615124 5.629555495773175 7.049916206369744e-16
    vertex -1.999999999999882 5.649999999999786 100.00000000000001
    vertex -1.9999999999999865 5.649999999999786 -2.114974861910923e-15
  endloop
endfacet
facet normal -0.13052619222036732 0.9914448613737689 1.3251057079844986e-16
  outer loop
    vertex -1.999999999999882 5.649999999999786 100.00000000000001
    vertex -2.1552914270615124 5.629555495773175 7.049916206369744e-16
    vertex -2.155291427061414 5.629555495773175 100.00000000000001
  endloop
endfacet
facet normal -0.3826834323646456 0.9238795325114707 3.9927281497695887e-16
  outer loop
    vertex -2.300000000000007 5.569615242270478 3.1724622928663847e-15
    vertex -2.155291427061414 5.629555495773175 100.00000000000001
    vertex -2.1552914270615124 5.629555495773175 7.049916206369744e-16
  endloop
endfacet
facet normal -0.3826834323646456 0.9238795325114707 3.9927281497695887e-16
  outer loop
    vertex -2.155291427061414 5.629555495773175 100.00000000000001
    vertex -2.300000000000007 5.569615242270478 3.1724622928663847e-15
    vertex -2.2999999999998972 5.569615242270478 100.00000000000001
  endloop
endfacet
facet normal -0.6087614290084129 0.7933533402914715 7.295927713749825e-16
  outer loop
    vertex -2.4242640687117816 5.474264068711847 100.00000000000001
    vertex -2.300000000000007 5.569615242270478 3.1724622928663847e-15
    vertex -2.4242640687119112 5.474264068711847 -1.762479051592436e-15
  endloop
endfacet
facet normal -0.6087614290084129 0.7933533402914715 7.295927713749825e-16
  outer loop
    vertex -2.300000000000007 5.569615242270478 3.1724622928663847e-15
    vertex -2.4242640687117816 5.474264068711847 100.00000000000001
    vertex -2.2999999999998972 5.569615242270478 100.00000000000001
  endloop
endfacet
facet normal -0.7933533402914124 0.6087614290084901 1.0179542883485263e-15
  outer loop
    vertex -2.4242640687117816 5.474264068711847 100.00000000000001
    vertex -2.5196152422706333 5.3499999999998575 -7.049916206369744e-16
    vertex -2.5196152422705063 5.3499999999998575 99.99999999999999
  endloop
endfacet
facet normal -0.7933533402914124 0.6087614290084901 1.0179542883485263e-15
  outer loop
    vertex -2.5196152422706333 5.3499999999998575 -7.049916206369744e-16
    vertex -2.4242640687117816 5.474264068711847 100.00000000000001
    vertex -2.4242640687119112 5.474264068711847 -1.762479051592436e-15
  endloop
endfacet
facet normal -0.9238795325113262 0.38268343236499447 1.0942241382751187e-15
  outer loop
    vertex -2.5196152422705063 5.3499999999998575 99.99999999999999
    vertex -2.579555495773426 5.205291427061272 -8.81239525796218e-16
    vertex -2.579555495773316 5.205291427061272 100.00000000000001
  endloop
endfacet
facet normal -0.9238795325113262 0.38268343236499447 1.0942241382751187e-15
  outer loop
    vertex -2.579555495773426 5.205291427061272 -8.81239525796218e-16
    vertex -2.5196152422705063 5.3499999999998575 99.99999999999999
    vertex -2.5196152422706333 5.3499999999998575 -7.049916206369744e-16
  endloop
endfacet
facet normal -0.9914448613737499 0.13052619222051226 1.1043566496801872e-15
  outer loop
    vertex -2.579555495773316 5.205291427061272 100.00000000000001
    vertex -2.6000000000000374 5.049999999999929 2.46747067222941e-15
    vertex -2.5999999999999246 5.049999999999929 100.00000000000001
  endloop
endfacet
facet normal -0.9914448613737499 0.13052619222051226 1.1043566496801872e-15
  outer loop
    vertex -2.6000000000000374 5.049999999999929 2.46747067222941e-15
    vertex -2.579555495773316 5.205291427061272 100.00000000000001
    vertex -2.579555495773426 5.205291427061272 -8.81239525796218e-16
  endloop
endfacet
facet normal -0.9914448613737897 -0.13052619222020936 1.1043566496802314e-15
  outer loop
    vertex -2.5999999999999246 5.049999999999929 100.00000000000001
    vertex -2.579555495773426 4.894708572938219 -8.81239525796218e-16
    vertex -2.579555495773316 4.894708572938219 100.00000000000001
  endloop
endfacet
facet normal -0.9914448613737897 -0.13052619222020936 1.1043566496802314e-15
  outer loop
    vertex -2.579555495773426 4.894708572938219 -8.81239525796218e-16
    vertex -2.5999999999999246 5.049999999999929 100.00000000000001
    vertex -2.6000000000000374 5.049999999999929 2.46747067222941e-15
  endloop
endfacet
facet normal -0.9238795325109861 -0.38268343236581565 1.0942241382747161e-15
  outer loop
    vertex -2.579555495773316 4.894708572938219 100.00000000000001
    vertex -2.5196152422706333 4.749999999999997 -7.049916206369744e-16
    vertex -2.5196152422705063 4.749999999999997 99.99999999999999
  endloop
endfacet
facet normal -0.9238795325109861 -0.38268343236581565 1.0942241382747161e-15
  outer loop
    vertex -2.5196152422706333 4.749999999999997 -7.049916206369744e-16
    vertex -2.579555495773316 4.894708572938219 100.00000000000001
    vertex -2.579555495773426 4.894708572938219 -8.81239525796218e-16
  endloop
endfacet
facet normal -0.7933533402914056 -0.6087614290084986 1.0179542883485176e-15
  outer loop
    vertex -2.5196152422705063 4.749999999999997 99.99999999999999
    vertex -2.4242640687119112 4.625735931288011 -1.762479051592436e-15
    vertex -2.4242640687117816 4.625735931288011 100.00000000000001
  endloop
endfacet
facet normal -0.7933533402914056 -0.6087614290084986 1.0179542883485176e-15
  outer loop
    vertex -2.4242640687119112 4.625735931288011 -1.762479051592436e-15
    vertex -2.5196152422705063 4.749999999999997 99.99999999999999
    vertex -2.5196152422706333 4.749999999999997 -7.049916206369744e-16
  endloop
endfacet
facet normal -0.608761429008481 -0.7933533402914191 7.295927713750638e-16
  outer loop
    vertex -2.300000000000007 4.5303847577293626 3.1724622928663847e-15
    vertex -2.4242640687117816 4.625735931288011 100.00000000000001
    vertex -2.4242640687119112 4.625735931288011 -1.762479051592436e-15
  endloop
endfacet
facet normal -0.608761429008481 -0.7933533402914191 7.295927713750638e-16
  outer loop
    vertex -2.4242640687117816 4.625735931288011 100.00000000000001
    vertex -2.300000000000007 4.5303847577293626 3.1724622928663847e-15
    vertex -2.2999999999998972 4.5303847577293626 100.00000000000001
  endloop
endfacet
facet normal -0.38268343236658187 -0.9238795325106689 3.9927281497897914e-16
  outer loop
    vertex -2.155291427061414 4.47044450422631 100.00000000000001
    vertex -2.300000000000007 4.5303847577293626 3.1724622928663847e-15
    vertex -2.1552914270615124 4.47044450422631 7.049916206369744e-16
  endloop
endfacet
facet normal -0.38268343236658187 -0.9238795325106689 3.9927281497897914e-16
  outer loop
    vertex -2.300000000000007 4.5303847577293626 3.1724622928663847e-15
    vertex -2.155291427061414 4.47044450422631 100.00000000000001
    vertex -2.2999999999998972 4.5303847577293626 100.00000000000001
  endloop
endfacet
facet normal -0.13052619222038506 -0.9914448613737666 1.3251057079846788e-16
  outer loop
    vertex -1.999999999999882 4.4499999999996955 100.00000000000001
    vertex -2.1552914270615124 4.47044450422631 7.049916206369744e-16
    vertex -1.9999999999999865 4.4499999999996955 -2.114974861910923e-15
  endloop
endfacet
facet normal -0.13052619222038506 -0.9914448613737666 1.3251057079846788e-16
  outer loop
    vertex -2.1552914270615124 4.47044450422631 7.049916206369744e-16
    vertex -1.999999999999882 4.4499999999996955 100.00000000000001
    vertex -2.155291427061414 4.47044450422631 100.00000000000001
  endloop
endfacet
facet normal 0.0 -1.0 0.0
  outer loop
    vertex 0.0 4.4499999999996955 0.0
    vertex -1.999999999999882 4.4499999999996955 100.00000000000001
    vertex -1.9999999999999865 4.4499999999996955 -2.114974861910923e-15
  endloop
endfacet
facet normal 0.0 -1.0 0.0
  outer loop
    vertex -1.999999999999882 4.4499999999996955 100.00000000000001
    vertex 0.0 4.4499999999996955 0.0
    vertex 1.290134665765663e-13 4.4499999999996955 99.99999999999994
  endloop
endfacet
facet normal -1.0 0.0 1.2901346657656637e-15
  outer loop
    vertex 1.290134665765663e-13 4.4499999999996955 99.99999999999994
    vertex 0.0 0.7999999999998237 0.0
    vertex 1.290134665765663e-13 0.7999999999998237 99.99999999999994
  endloop
endfacet
facet normal -1.0 0.0 1.2901346657656637e-15
  outer loop
    vertex 0.0 0.7999999999998237 0.0
    vertex 1.290134665765663e-13 4.4499999999996955 99.99999999999994
    vertex 0.0 4.4499999999996955 0.0
  endloop
endfacet
facet normal -0.0 1.0 -0.0
  outer loop
    vertex -1.999999999999882 0.7999999999998237 100.00000000000001
    vertex 0.0 0.7999999999998237 0.0
    vertex -1.9999999999999865 0.7999999999998237 -2.114974861910923e-15
  endloop
endfacet
facet normal -0.0 1.0 -0.0
  outer loop
    vertex 0.0 0.7999999999998237 0.0
    vertex -1.999999999999882 0.7999999999998237 100.00000000000001
    vertex 1.290134665765663e-13 0.7999999999998237 99.99999999999994
  endloop
endfacet
endsolid Untitled-5a4c750c
