solid Bed_Belt_Tensioner
facet normal 0.0 0.0 -1.0
  outer loop
    vertex 8.938841915079667 11.039704112214821 0.0
    vertex 8.35 4.999999999999999 0.0
    vertex 7.950000000000001 11.449295844483803 0.0
  endloop
endfacet
facet normal 0.0 0.0 -1.0
  outer loop
    vertex 8.35 4.999999999999999 0.0
    vertex 8.938841915079667 11.039704112214821 0.0
    vertex 8.406222386623037 5.427051424419158 0.0
  endloop
endfacet
facet normal 0.0 0.0 -1.0
  outer loop
    vertex 8.406222386623037 5.427051424419158 0.0
    vertex 8.938841915079667 11.039704112214821 0.0
    vertex 8.571058083755675 5.8249999999999975 0.0
  endloop
endfacet
facet normal 0.0 0.0 -1.0
  outer loop
    vertex 8.571058083755675 5.8249999999999975 0.0
    vertex 8.938841915079667 11.039704112214821 0.0
    vertex 8.833273811042195 6.166726188957803 0.0
  endloop
endfacet
facet normal 0.0 0.0 -1.0
  outer loop
    vertex 8.833273811042195 6.166726188957803 0.0
    vertex 8.938841915079667 11.039704112214821 0.0
    vertex 9.175 6.428941916244322 0.0
  endloop
endfacet
facet normal 0.0 0.0 -1.0
  outer loop
    vertex 9.175 6.428941916244322 0.0
    vertex 8.938841915079667 11.039704112214821 0.0
    vertex 10.0 10.900000000000002 0.0
  endloop
endfacet
facet normal 0.0 0.0 -1.0
  outer loop
    vertex 9.175 6.428941916244322 0.0
    vertex 10.0 10.900000000000002 0.0
    vertex 9.57294857558084 6.593777613376962 0.0
  endloop
endfacet
facet normal 0.0 0.0 -1.0
  outer loop
    vertex 9.57294857558084 6.593777613376962 0.0
    vertex 10.0 10.900000000000002 0.0
    vertex 10.0 6.6499999999999995 0.0
  endloop
endfacet
facet normal 0.0 0.0 -1.0
  outer loop
    vertex 10.0 6.6499999999999995 0.0
    vertex 10.0 10.900000000000002 0.0
    vertex 11.061158084920336 11.039704112214821 0.0
  endloop
endfacet
facet normal 0.0 0.0 -1.0
  outer loop
    vertex 10.0 6.6499999999999995 0.0
    vertex 11.061158084920336 11.039704112214821 0.0
    vertex 10.427051424419158 6.593777613376962 0.0
  endloop
endfacet
facet normal 0.0 0.0 -1.0
  outer loop
    vertex 10.427051424419158 6.593777613376962 0.0
    vertex 11.061158084920336 11.039704112214821 0.0
    vertex 10.825 6.428941916244324 0.0
  endloop
endfacet
facet normal 0.0 0.0 -1.0
  outer loop
    vertex 10.825 6.428941916244324 0.0
    vertex 11.061158084920336 11.039704112214821 0.0
    vertex 11.166726188957803 6.166726188957803 0.0
  endloop
endfacet
facet normal 0.0 0.0 -1.0
  outer loop
    vertex 11.166726188957803 6.166726188957803 0.0
    vertex 11.061158084920336 11.039704112214821 0.0
    vertex 12.05 11.449295844483805 0.0
  endloop
endfacet
facet normal 0.0 0.0 -1.0
  outer loop
    vertex 11.166726188957803 6.166726188957803 0.0
    vertex 12.05 11.449295844483805 0.0
    vertex 11.428941916244323 5.824999999999999 0.0
  endloop
endfacet
facet normal 0.0 0.0 -1.0
  outer loop
    vertex 11.428941916244323 5.824999999999999 0.0
    vertex 12.05 11.449295844483805 0.0
    vertex 11.593777613376963 5.427051424419159 0.0
  endloop
endfacet
facet normal 0.0 0.0 -1.0
  outer loop
    vertex 11.593777613376963 5.427051424419159 0.0
    vertex 12.05 11.449295844483805 0.0
    vertex 11.65 4.999999999999999 0.0
  endloop
endfacet
facet normal 0.0 0.0 -1.0
  outer loop
    vertex 0.0 30.0 0.0
    vertex 8.406222386623037 25.427051424419158 0.0
    vertex 0.0 0.0 0.0
  endloop
endfacet
facet normal 0.0 0.0 -1.0
  outer loop
    vertex 8.406222386623037 25.427051424419158 0.0
    vertex 0.0 30.0 0.0
    vertex 8.571058083755675 25.825000000000003 0.0
  endloop
endfacet
facet normal 0.0 0.0 -1.0
  outer loop
    vertex 8.571058083755675 25.825000000000003 0.0
    vertex 0.0 30.0 0.0
    vertex 8.833273811042195 26.166726188957803 0.0
  endloop
endfacet
facet normal 0.0 0.0 -1.0
  outer loop
    vertex 8.833273811042195 26.166726188957803 0.0
    vertex 0.0 30.0 0.0
    vertex 9.175 26.428941916244323 0.0
  endloop
endfacet
facet normal 0.0 0.0 -1.0
  outer loop
    vertex 9.175 26.428941916244323 0.0
    vertex 0.0 30.0 0.0
    vertex 9.57294857558084 26.59377761337696 0.0
  endloop
endfacet
facet normal 0.0 0.0 -1.0
  outer loop
    vertex 9.57294857558084 26.59377761337696 0.0
    vertex 0.0 30.0 0.0
    vertex 20.0 30.0 0.0
  endloop
endfacet
facet normal 0.0 0.0 -1.0
  outer loop
    vertex 0.0 0.0 0.0
    vertex 8.406222386623037 25.427051424419158 0.0
    vertex 6.03970411221482 16.061158084920333 0.0
  endloop
endfacet
facet normal 0.0 0.0 -1.0
  outer loop
    vertex 0.0 0.0 0.0
    vertex 6.03970411221482 16.061158084920333 0.0
    vertex 5.9 15.0 0.0
  endloop
endfacet
facet normal 0.0 0.0 -1.0
  outer loop
    vertex 6.03970411221482 16.061158084920333 0.0
    vertex 8.406222386623037 25.427051424419158 0.0
    vertex 6.4492958444838 17.049999999999997 0.0
  endloop
endfacet
facet normal 0.0 0.0 -1.0
  outer loop
    vertex 6.4492958444838 17.049999999999997 0.0
    vertex 8.406222386623037 25.427051424419158 0.0
    vertex 7.1008621971351555 17.899137802864843 0.0
  endloop
endfacet
facet normal 0.0 0.0 -1.0
  outer loop
    vertex 7.1008621971351555 17.899137802864843 0.0
    vertex 8.406222386623037 25.427051424419158 0.0
    vertex 8.35 25.000000000000004 0.0
  endloop
endfacet
facet normal 0.0 0.0 -1.0
  outer loop
    vertex 7.1008621971351555 17.899137802864843 0.0
    vertex 8.35 25.000000000000004 0.0
    vertex 7.949999999999998 18.550704155516197 0.0
  endloop
endfacet
facet normal 0.0 0.0 -1.0
  outer loop
    vertex 9.57294857558084 26.59377761337696 0.0
    vertex 20.0 30.0 0.0
    vertex 10.0 26.650000000000002 0.0
  endloop
endfacet
facet normal 0.0 0.0 -1.0
  outer loop
    vertex 10.0 26.650000000000002 0.0
    vertex 20.0 30.0 0.0
    vertex 10.427051424419158 26.59377761337696 0.0
  endloop
endfacet
facet normal 0.0 0.0 -1.0
  outer loop
    vertex 10.427051424419158 26.59377761337696 0.0
    vertex 20.0 30.0 0.0
    vertex 10.825 26.428941916244323 0.0
  endloop
endfacet
facet normal 0.0 0.0 -1.0
  outer loop
    vertex 10.825 26.428941916244323 0.0
    vertex 20.0 30.0 0.0
    vertex 11.166726188957803 26.166726188957803 0.0
  endloop
endfacet
facet normal 0.0 0.0 -1.0
  outer loop
    vertex 11.166726188957803 26.166726188957803 0.0
    vertex 20.0 30.0 0.0
    vertex 11.428941916244323 25.825000000000003 0.0
  endloop
endfacet
facet normal 0.0 0.0 -1.0
  outer loop
    vertex 11.428941916244323 25.825000000000003 0.0
    vertex 20.0 30.0 0.0
    vertex 11.593777613376963 25.427051424419165 0.0
  endloop
endfacet
facet normal 0.0 0.0 -1.0
  outer loop
    vertex 11.593777613376963 25.427051424419165 0.0
    vertex 20.0 30.0 0.0
    vertex 11.65 25.000000000000004 0.0
  endloop
endfacet
facet normal 0.0 0.0 -1.0
  outer loop
    vertex 11.65 25.000000000000004 0.0
    vertex 20.0 30.0 0.0
    vertex 12.049999999999999 18.550704155516197 0.0
  endloop
endfacet
facet normal 0.0 0.0 -1.0
  outer loop
    vertex 12.049999999999999 18.550704155516197 0.0
    vertex 20.0 30.0 0.0
    vertex 12.899137802864844 17.899137802864843 0.0
  endloop
endfacet
facet normal 0.0 0.0 -1.0
  outer loop
    vertex 12.899137802864844 17.899137802864843 0.0
    vertex 20.0 30.0 0.0
    vertex 13.550704155516199 17.05 0.0
  endloop
endfacet
facet normal 0.0 0.0 -1.0
  outer loop
    vertex 13.550704155516199 17.05 0.0
    vertex 20.0 30.0 0.0
    vertex 13.96029588778518 16.061158084920336 0.0
  endloop
endfacet
facet normal 0.0 0.0 -1.0
  outer loop
    vertex 13.96029588778518 16.061158084920336 0.0
    vertex 20.0 30.0 0.0
    vertex 14.1 15.0 0.0
  endloop
endfacet
facet normal 0.0 0.0 -1.0
  outer loop
    vertex 0.0 0.0 0.0
    vertex 9.572948575580842 3.406222386623037 0.0
    vertex 20.0 0.0 0.0
  endloop
endfacet
facet normal 0.0 0.0 -1.0
  outer loop
    vertex 9.572948575580842 3.406222386623037 0.0
    vertex 0.0 0.0 0.0
    vertex 9.175 3.5710580837556756 0.0
  endloop
endfacet
facet normal 0.0 0.0 -1.0
  outer loop
    vertex 9.175 3.5710580837556756 0.0
    vertex 0.0 0.0 0.0
    vertex 8.833273811042197 3.8332738110421953 0.0
  endloop
endfacet
facet normal 0.0 0.0 -1.0
  outer loop
    vertex 8.833273811042197 3.8332738110421953 0.0
    vertex 0.0 0.0 0.0
    vertex 8.571058083755677 4.174999999999999 0.0
  endloop
endfacet
facet normal 0.0 0.0 -1.0
  outer loop
    vertex 8.571058083755677 4.174999999999999 0.0
    vertex 0.0 0.0 0.0
    vertex 8.406222386623039 4.572948575580839 0.0
  endloop
endfacet
facet normal 0.0 0.0 -1.0
  outer loop
    vertex 8.406222386623039 4.572948575580839 0.0
    vertex 0.0 0.0 0.0
    vertex 6.039704112214821 13.938841915079662 0.0
  endloop
endfacet
facet normal 0.0 0.0 -1.0
  outer loop
    vertex 6.039704112214821 13.938841915079662 0.0
    vertex 0.0 0.0 0.0
    vertex 5.9 15.0 0.0
  endloop
endfacet
facet normal 0.0 0.0 -1.0
  outer loop
    vertex 8.406222386623039 4.572948575580839 0.0
    vertex 6.039704112214821 13.938841915079662 0.0
    vertex 6.449295844483803 12.95 0.0
  endloop
endfacet
facet normal 0.0 0.0 -1.0
  outer loop
    vertex 8.406222386623039 4.572948575580839 0.0
    vertex 6.449295844483803 12.95 0.0
    vertex 7.100862197135157 12.100862197135156 0.0
  endloop
endfacet
facet normal 0.0 0.0 -1.0
  outer loop
    vertex 8.406222386623039 4.572948575580839 0.0
    vertex 7.100862197135157 12.100862197135156 0.0
    vertex 8.35 4.999999999999999 0.0
  endloop
endfacet
facet normal 0.0 0.0 -1.0
  outer loop
    vertex 8.35 4.999999999999999 0.0
    vertex 7.100862197135157 12.100862197135156 0.0
    vertex 7.950000000000001 11.449295844483803 0.0
  endloop
endfacet
facet normal 0.0 0.0 -1.0
  outer loop
    vertex 20.0 0.0 0.0
    vertex 9.572948575580842 3.406222386623037 0.0
    vertex 10.0 3.3499999999999996 0.0
  endloop
endfacet
facet normal 0.0 0.0 -1.0
  outer loop
    vertex 20.0 0.0 0.0
    vertex 10.0 3.3499999999999996 0.0
    vertex 10.42705142441916 3.406222386623037 0.0
  endloop
endfacet
facet normal 0.0 0.0 -1.0
  outer loop
    vertex 20.0 0.0 0.0
    vertex 10.42705142441916 3.406222386623037 0.0
    vertex 10.825 3.5710580837556765 0.0
  endloop
endfacet
facet normal 0.0 0.0 -1.0
  outer loop
    vertex 20.0 0.0 0.0
    vertex 10.825 3.5710580837556765 0.0
    vertex 11.166726188957803 3.8332738110421958 0.0
  endloop
endfacet
facet normal 0.0 0.0 -1.0
  outer loop
    vertex 20.0 0.0 0.0
    vertex 11.166726188957803 3.8332738110421958 0.0
    vertex 11.428941916244325 4.175 0.0
  endloop
endfacet
facet normal 0.0 0.0 -1.0
  outer loop
    vertex 20.0 0.0 0.0
    vertex 11.428941916244325 4.175 0.0
    vertex 11.593777613376963 4.572948575580841 0.0
  endloop
endfacet
facet normal 0.0 0.0 -1.0
  outer loop
    vertex 20.0 0.0 0.0
    vertex 11.593777613376963 4.572948575580841 0.0
    vertex 11.65 4.999999999999999 0.0
  endloop
endfacet
facet normal 0.0 0.0 -1.0
  outer loop
    vertex 20.0 0.0 0.0
    vertex 11.65 4.999999999999999 0.0
    vertex 12.05 11.449295844483805 0.0
  endloop
endfacet
facet normal 0.0 0.0 -1.0
  outer loop
    vertex 20.0 0.0 0.0
    vertex 12.05 11.449295844483805 0.0
    vertex 12.899137802864844 12.100862197135157 0.0
  endloop
endfacet
facet normal 0.0 0.0 -1.0
  outer loop
    vertex 20.0 0.0 0.0
    vertex 12.899137802864844 12.100862197135157 0.0
    vertex 13.550704155516199 12.950000000000001 0.0
  endloop
endfacet
facet normal 0.0 0.0 -1.0
  outer loop
    vertex 20.0 0.0 0.0
    vertex 13.550704155516199 12.950000000000001 0.0
    vertex 13.96029588778518 13.938841915079667 0.0
  endloop
endfacet
facet normal 0.0 0.0 -1.0
  outer loop
    vertex 20.0 0.0 0.0
    vertex 13.96029588778518 13.938841915079667 0.0
    vertex 14.1 15.0 0.0
  endloop
endfacet
facet normal 0.0 0.0 -1.0
  outer loop
    vertex 20.0 0.0 0.0
    vertex 14.1 15.0 0.0
    vertex 20.0 30.0 0.0
  endloop
endfacet
facet normal 0.0 0.0 -1.0
  outer loop
    vertex 8.35 25.000000000000004 0.0
    vertex 8.938841915079662 18.96029588778518 0.0
    vertex 7.949999999999998 18.550704155516197 0.0
  endloop
endfacet
facet normal 0.0 0.0 -1.0
  outer loop
    vertex 8.938841915079662 18.96029588778518 0.0
    vertex 8.35 25.000000000000004 0.0
    vertex 8.406222386623039 24.572948575580842 0.0
  endloop
endfacet
facet normal 0.0 0.0 -1.0
  outer loop
    vertex 8.938841915079662 18.96029588778518 0.0
    vertex 8.406222386623039 24.572948575580842 0.0
    vertex 8.571058083755677 24.175 0.0
  endloop
endfacet
facet normal 0.0 0.0 -1.0
  outer loop
    vertex 8.938841915079662 18.96029588778518 0.0
    vertex 8.571058083755677 24.175 0.0
    vertex 8.833273811042197 23.833273811042197 0.0
  endloop
endfacet
facet normal 0.0 0.0 -1.0
  outer loop
    vertex 8.938841915079662 18.96029588778518 0.0
    vertex 8.833273811042197 23.833273811042197 0.0
    vertex 9.175 23.571058083755677 0.0
  endloop
endfacet
facet normal 0.0 0.0 -1.0
  outer loop
    vertex 8.938841915079662 18.96029588778518 0.0
    vertex 9.175 23.571058083755677 0.0
    vertex 10.0 19.099999999999998 0.0
  endloop
endfacet
facet normal 0.0 0.0 -1.0
  outer loop
    vertex 10.0 19.099999999999998 0.0
    vertex 9.175 23.571058083755677 0.0
    vertex 9.572948575580842 23.40622238662304 0.0
  endloop
endfacet
facet normal 0.0 0.0 -1.0
  outer loop
    vertex 10.0 19.099999999999998 0.0
    vertex 9.572948575580842 23.40622238662304 0.0
    vertex 10.0 23.35 0.0
  endloop
endfacet
facet normal 0.0 0.0 -1.0
  outer loop
    vertex 10.0 19.099999999999998 0.0
    vertex 10.0 23.35 0.0
    vertex 10.42705142441916 23.40622238662304 0.0
  endloop
endfacet
facet normal 0.0 0.0 -1.0
  outer loop
    vertex 10.0 19.099999999999998 0.0
    vertex 10.42705142441916 23.40622238662304 0.0
    vertex 11.061158084920335 18.96029588778518 0.0
  endloop
endfacet
facet normal 0.0 0.0 -1.0
  outer loop
    vertex 11.061158084920335 18.96029588778518 0.0
    vertex 10.42705142441916 23.40622238662304 0.0
    vertex 10.825 23.571058083755677 0.0
  endloop
endfacet
facet normal 0.0 0.0 -1.0
  outer loop
    vertex 11.061158084920335 18.96029588778518 0.0
    vertex 10.825 23.571058083755677 0.0
    vertex 11.166726188957803 23.833273811042197 0.0
  endloop
endfacet
facet normal 0.0 0.0 -1.0
  outer loop
    vertex 11.061158084920335 18.96029588778518 0.0
    vertex 11.166726188957803 23.833273811042197 0.0
    vertex 12.049999999999999 18.550704155516197 0.0
  endloop
endfacet
facet normal 0.0 0.0 -1.0
  outer loop
    vertex 12.049999999999999 18.550704155516197 0.0
    vertex 11.166726188957803 23.833273811042197 0.0
    vertex 11.428941916244325 24.175000000000004 0.0
  endloop
endfacet
facet normal 0.0 0.0 -1.0
  outer loop
    vertex 12.049999999999999 18.550704155516197 0.0
    vertex 11.428941916244325 24.175000000000004 0.0
    vertex 11.593777613376963 24.572948575580842 0.0
  endloop
endfacet
facet normal 0.0 0.0 -1.0
  outer loop
    vertex 12.049999999999999 18.550704155516197 0.0
    vertex 11.593777613376963 24.572948575580842 0.0
    vertex 11.65 25.000000000000004 0.0
  endloop
endfacet
facet normal -1.0 0.0 0.0
  outer loop
    vertex 0.0 30.0 5.0
    vertex 0.0 0.0 0.0
    vertex 0.0 0.0 5.0
  endloop
endfacet
facet normal -1.0 0.0 0.0
  outer loop
    vertex 0.0 0.0 0.0
    vertex 0.0 30.0 5.0
    vertex 0.0 30.0 0.0
  endloop
endfacet
facet normal -0.0 1.0 -0.0
  outer loop
    vertex 0.0 30.0 5.0
    vertex 20.0 30.0 0.0
    vertex 0.0 30.0 0.0
  endloop
endfacet
facet normal -0.0 1.0 -0.0
  outer loop
    vertex 20.0 30.0 0.0
    vertex 0.0 30.0 5.0
    vertex 12.5 30.0 4.999999999999999
  endloop
endfacet
facet normal -0.0 1.0 -0.0
  outer loop
    vertex 12.5 30.0 4.999999999999999
    vertex 0.0 30.0 5.0
    vertex 7.5 30.0 5.000000000000001
  endloop
endfacet
facet normal -0.0 1.0 -0.0
  outer loop
    vertex 12.5 30.0 4.999999999999999
    vertex 7.5 30.0 5.000000000000001
    vertex 12.5 30.0 5.999999999999999
  endloop
endfacet
facet normal -0.0 1.0 -0.0
  outer loop
    vertex 12.5 30.0 5.999999999999999
    vertex 7.5 30.0 5.000000000000001
    vertex 7.5 30.0 6.0
  endloop
endfacet
facet normal -0.0 1.0 -0.0
  outer loop
    vertex 20.0 30.0 5.0
    vertex 20.0 30.0 0.0
    vertex 12.5 30.0 4.999999999999999
  endloop
endfacet
facet normal 1.0 0.0 0.0
  outer loop
    vertex 20.0 30.0 0.0
    vertex 20.0 0.0 5.0
    vertex 20.0 0.0 0.0
  endloop
endfacet
facet normal 1.0 0.0 0.0
  outer loop
    vertex 20.0 0.0 5.0
    vertex 20.0 30.0 0.0
    vertex 20.0 30.0 5.0
  endloop
endfacet
facet normal 0.0 -1.0 0.0
  outer loop
    vertex 20.0 0.0 5.0
    vertex 0.0 0.0 0.0
    vertex 20.0 0.0 0.0
  endloop
endfacet
facet normal 0.0 -1.0 0.0
  outer loop
    vertex 0.0 0.0 0.0
    vertex 20.0 0.0 5.0
    vertex 0.0 0.0 5.0
  endloop
endfacet
facet normal 0.0 -1.0 0.0
  outer loop
    vertex 0.0 0.0 5.0
    vertex 20.0 0.0 5.0
    vertex 12.5 0.0 5.000000000000001
  endloop
endfacet
facet normal 0.0 -1.0 0.0
  outer loop
    vertex 0.0 0.0 5.0
    vertex 12.5 0.0 5.000000000000001
    vertex 7.5 0.0 5.000000000000001
  endloop
endfacet
facet normal 0.0 -1.0 0.0
  outer loop
    vertex 7.5 0.0 5.000000000000001
    vertex 12.5 0.0 5.000000000000001
    vertex 12.5 1.1331656513887326e-16 6.0
  endloop
endfacet
facet normal 0.0 -1.0 0.0
  outer loop
    vertex 7.5 0.0 5.000000000000001
    vertex 12.5 1.1331656513887326e-16 6.0
    vertex 7.5 1.1331656513887326e-16 6.0
  endloop
endfacet
facet normal 0.6087614290087201 0.7933533402912355 5.5326753596502166e-17
  outer loop
    vertex 7.100862197135157 12.100862197135156 4.999999999999999
    vertex 7.950000000000001 11.449295844483803 0.0
    vertex 7.100862197135157 12.100862197135156 0.0
  endloop
endfacet
facet normal 0.6087614290087201 0.7933533402912355 5.5326753596502166e-17
  outer loop
    vertex 7.950000000000001 11.449295844483803 0.0
    vertex 7.100862197135157 12.100862197135156 4.999999999999999
    vertex 7.5 11.794592989074333 5.0
  endloop
endfacet
facet normal 0.6087614290087201 0.7933533402912355 5.5326753596502166e-17
  outer loop
    vertex 7.950000000000001 11.449295844483803 0.0
    vertex 7.5 11.794592989074333 5.0
    vertex 7.950000000000001 11.449295844483803 5.999999999999999
  endloop
endfacet
facet normal 0.6087614290087201 0.7933533402912355 5.5326753596502166e-17
  outer loop
    vertex 7.950000000000001 11.449295844483803 5.999999999999999
    vertex 7.5 11.794592989074333 5.0
    vertex 7.5 11.794592989074333 6.0
  endloop
endfacet
facet normal 0.382683432365089 0.9238795325112871 0.0
  outer loop
    vertex 7.950000000000001 11.449295844483803 5.999999999999999
    vertex 8.938841915079667 11.039704112214821 0.0
    vertex 7.950000000000001 11.449295844483803 0.0
  endloop
endfacet
facet normal 0.382683432365089 0.9238795325112871 0.0
  outer loop
    vertex 8.938841915079667 11.039704112214821 0.0
    vertex 7.950000000000001 11.449295844483803 5.999999999999999
    vertex 8.938841915079667 11.039704112214821 5.999999999999999
  endloop
endfacet
facet normal 0.13052619222005096 0.9914448613738106 0.0
  outer loop
    vertex 8.938841915079667 11.039704112214821 5.999999999999999
    vertex 10.0 10.900000000000002 0.0
    vertex 8.938841915079667 11.039704112214821 0.0
  endloop
endfacet
facet normal 0.13052619222005096 0.9914448613738106 0.0
  outer loop
    vertex 10.0 10.900000000000002 0.0
    vertex 8.938841915079667 11.039704112214821 5.999999999999999
    vertex 10.0 10.900000000000002 5.999999999999999
  endloop
endfacet
facet normal -0.1305261922200506 0.9914448613738106 -0.0
  outer loop
    vertex 10.0 10.900000000000002 5.999999999999999
    vertex 11.061158084920336 11.039704112214821 0.0
    vertex 10.0 10.900000000000002 0.0
  endloop
endfacet
facet normal -0.1305261922200506 0.9914448613738106 -0.0
  outer loop
    vertex 11.061158084920336 11.039704112214821 0.0
    vertex 10.0 10.900000000000002 5.999999999999999
    vertex 11.061158084920336 11.039704112214821 5.999999999999999
  endloop
endfacet
facet normal -0.38268343236509067 0.9238795325112865 -0.0
  outer loop
    vertex 11.061158084920336 11.039704112214821 5.999999999999999
    vertex 12.05 11.449295844483805 0.0
    vertex 11.061158084920336 11.039704112214821 0.0
  endloop
endfacet
facet normal -0.38268343236509067 0.9238795325112865 -0.0
  outer loop
    vertex 12.05 11.449295844483805 0.0
    vertex 11.061158084920336 11.039704112214821 5.999999999999999
    vertex 12.05 11.449295844483805 5.999999999999999
  endloop
endfacet
facet normal -0.608761429008721 0.7933533402912348 -3.917295692599056e-17
  outer loop
    vertex 12.05 11.449295844483805 5.999999999999999
    vertex 12.899137802864844 12.100862197135157 0.0
    vertex 12.05 11.449295844483805 0.0
  endloop
endfacet
facet normal -0.608761429008721 0.7933533402912348 -3.917295692599056e-17
  outer loop
    vertex 12.899137802864844 12.100862197135157 0.0
    vertex 12.05 11.449295844483805 5.999999999999999
    vertex 12.5 11.794592989074337 4.999999999999999
  endloop
endfacet
facet normal -0.608761429008721 0.7933533402912348 -3.917295692599056e-17
  outer loop
    vertex 12.5 11.794592989074337 4.999999999999999
    vertex 12.05 11.449295844483805 5.999999999999999
    vertex 12.5 11.794592989074337 5.999999999999999
  endloop
endfacet
facet normal -0.608761429008721 0.7933533402912348 -3.917295692599056e-17
  outer loop
    vertex 12.899137802864844 12.100862197135157 4.999999999999999
    vertex 12.899137802864844 12.100862197135157 0.0
    vertex 12.5 11.794592989074337 4.999999999999999
  endloop
endfacet
facet normal -0.7933533402912348 0.608761429008721 -0.0
  outer loop
    vertex 13.550704155516199 12.950000000000001 4.999999999999999
    vertex 12.899137802864844 12.100862197135157 0.0
    vertex 12.899137802864844 12.100862197135157 4.999999999999999
  endloop
endfacet
facet normal -0.7933533402912348 0.608761429008721 -0.0
  outer loop
    vertex 12.899137802864844 12.100862197135157 0.0
    vertex 13.550704155516199 12.950000000000001 4.999999999999999
    vertex 13.550704155516199 12.950000000000001 0.0
  endloop
endfacet
facet normal -0.9238795325112866 0.38268343236509017 -0.0
  outer loop
    vertex 13.96029588778518 13.938841915079667 4.999999999999999
    vertex 13.550704155516199 12.950000000000001 0.0
    vertex 13.550704155516199 12.950000000000001 4.999999999999999
  endloop
endfacet
facet normal -0.9238795325112866 0.38268343236509017 -0.0
  outer loop
    vertex 13.550704155516199 12.950000000000001 0.0
    vertex 13.96029588778518 13.938841915079667 4.999999999999999
    vertex 13.96029588778518 13.938841915079667 0.0
  endloop
endfacet
facet normal -0.9914448613738106 0.13052619222005096 -0.0
  outer loop
    vertex 14.1 15.0 4.999999999999999
    vertex 13.96029588778518 13.938841915079667 0.0
    vertex 13.96029588778518 13.938841915079667 4.999999999999999
  endloop
endfacet
facet normal -0.9914448613738106 0.13052619222005096 -0.0
  outer loop
    vertex 13.96029588778518 13.938841915079667 0.0
    vertex 14.1 15.0 4.999999999999999
    vertex 14.1 15.0 0.0
  endloop
endfacet
facet normal -0.9914448613738106 -0.1305261922200506 -0.0
  outer loop
    vertex 13.96029588778518 16.061158084920336 4.999999999999999
    vertex 14.1 15.0 0.0
    vertex 14.1 15.0 4.999999999999999
  endloop
endfacet
facet normal -0.9914448613738106 -0.1305261922200506 -0.0
  outer loop
    vertex 14.1 15.0 0.0
    vertex 13.96029588778518 16.061158084920336 4.999999999999999
    vertex 13.96029588778518 16.061158084920336 0.0
  endloop
endfacet
facet normal -0.9238795325112862 -0.3826834323650911 -0.0
  outer loop
    vertex 13.550704155516199 17.05 4.999999999999999
    vertex 13.96029588778518 16.061158084920336 0.0
    vertex 13.96029588778518 16.061158084920336 4.999999999999999
  endloop
endfacet
facet normal -0.9238795325112862 -0.3826834323650911 -0.0
  outer loop
    vertex 13.96029588778518 16.061158084920336 0.0
    vertex 13.550704155516199 17.05 4.999999999999999
    vertex 13.550704155516199 17.05 0.0
  endloop
endfacet
facet normal -0.7933533402912348 -0.608761429008721 -0.0
  outer loop
    vertex 12.899137802864844 17.899137802864843 4.999999999999999
    vertex 13.550704155516199 17.05 0.0
    vertex 13.550704155516199 17.05 4.999999999999999
  endloop
endfacet
facet normal -0.7933533402912348 -0.608761429008721 -0.0
  outer loop
    vertex 13.550704155516199 17.05 0.0
    vertex 12.899137802864844 17.899137802864843 4.999999999999999
    vertex 12.899137802864844 17.899137802864843 0.0
  endloop
endfacet
facet normal -0.6087614290087204 -0.7933533402912355 -8.25862854779902e-17
  outer loop
    vertex 12.899137802864844 17.899137802864843 4.999999999999999
    vertex 12.049999999999999 18.550704155516197 0.0
    vertex 12.899137802864844 17.899137802864843 0.0
  endloop
endfacet
facet normal -0.6087614290087204 -0.7933533402912355 -8.25862854779902e-17
  outer loop
    vertex 12.049999999999999 18.550704155516197 0.0
    vertex 12.899137802864844 17.899137802864843 4.999999999999999
    vertex 12.5 18.205407010925665 4.999999999999999
  endloop
endfacet
facet normal -0.6087614290087204 -0.7933533402912355 -8.25862854779902e-17
  outer loop
    vertex 12.049999999999999 18.550704155516197 0.0
    vertex 12.5 18.205407010925665 4.999999999999999
    vertex 12.049999999999999 18.550704155516197 5.999999999999999
  endloop
endfacet
facet normal -0.6087614290087204 -0.7933533402912355 -8.25862854779902e-17
  outer loop
    vertex 12.049999999999999 18.550704155516197 5.999999999999999
    vertex 12.5 18.205407010925665 4.999999999999999
    vertex 12.5 18.205407010925665 5.999999999999999
  endloop
endfacet
facet normal -0.38268343236509067 -0.9238795325112865 -0.0
  outer loop
    vertex 12.049999999999999 18.550704155516197 5.999999999999999
    vertex 11.061158084920335 18.96029588778518 0.0
    vertex 12.049999999999999 18.550704155516197 0.0
  endloop
endfacet
facet normal -0.38268343236509067 -0.9238795325112865 -0.0
  outer loop
    vertex 11.061158084920335 18.96029588778518 0.0
    vertex 12.049999999999999 18.550704155516197 5.999999999999999
    vertex 11.061158084920335 18.96029588778518 5.999999999999999
  endloop
endfacet
facet normal -0.13052619222005077 -0.9914448613738106 -0.0
  outer loop
    vertex 11.061158084920335 18.96029588778518 5.999999999999999
    vertex 10.0 19.099999999999998 0.0
    vertex 11.061158084920335 18.96029588778518 0.0
  endloop
endfacet
facet normal -0.13052619222005077 -0.9914448613738106 -0.0
  outer loop
    vertex 10.0 19.099999999999998 0.0
    vertex 11.061158084920335 18.96029588778518 5.999999999999999
    vertex 10.0 19.099999999999998 5.999999999999999
  endloop
endfacet
facet normal 0.13052619222005044 -0.9914448613738107 -0.0
  outer loop
    vertex 10.0 19.099999999999998 5.999999999999999
    vertex 8.938841915079662 18.96029588778518 0.0
    vertex 10.0 19.099999999999998 0.0
  endloop
endfacet
facet normal 0.13052619222005044 -0.9914448613738107 -0.0
  outer loop
    vertex 8.938841915079662 18.96029588778518 0.0
    vertex 10.0 19.099999999999998 5.999999999999999
    vertex 8.938841915079662 18.96029588778518 5.999999999999999
  endloop
endfacet
facet normal 0.38268343236509067 -0.9238795325112865 -0.0
  outer loop
    vertex 8.938841915079662 18.96029588778518 5.999999999999999
    vertex 7.949999999999998 18.550704155516197 0.0
    vertex 8.938841915079662 18.96029588778518 0.0
  endloop
endfacet
facet normal 0.38268343236509067 -0.9238795325112865 -0.0
  outer loop
    vertex 7.949999999999998 18.550704155516197 0.0
    vertex 8.938841915079662 18.96029588778518 5.999999999999999
    vertex 7.949999999999998 18.550704155516197 5.999999999999999
  endloop
endfacet
facet normal 0.6087614290087217 -0.7933533402912344 5.451906376297671e-18
  outer loop
    vertex 7.949999999999998 18.550704155516197 5.999999999999999
    vertex 7.1008621971351555 17.899137802864843 0.0
    vertex 7.949999999999998 18.550704155516197 0.0
  endloop
endfacet
facet normal 0.6087614290087217 -0.7933533402912344 5.451906376297671e-18
  outer loop
    vertex 7.1008621971351555 17.899137802864843 0.0
    vertex 7.949999999999998 18.550704155516197 5.999999999999999
    vertex 7.5 18.205407010925665 5.0
  endloop
endfacet
facet normal 0.6087614290087217 -0.7933533402912344 5.451906376297671e-18
  outer loop
    vertex 7.1008621971351555 17.899137802864843 0.0
    vertex 7.5 18.205407010925665 5.0
    vertex 7.1008621971351555 17.899137802864843 4.999999999999999
  endloop
endfacet
facet normal 0.6087614290087217 -0.7933533402912344 5.451906376297671e-18
  outer loop
    vertex 7.5 18.205407010925665 5.0
    vertex 7.949999999999998 18.550704155516197 5.999999999999999
    vertex 7.5 18.205407010925665 6.0
  endloop
endfacet
facet normal 0.7933533402912352 -0.6087614290087205 -0.0
  outer loop
    vertex 7.1008621971351555 17.899137802864843 0.0
    vertex 6.4492958444838 17.049999999999997 4.999999999999999
    vertex 6.4492958444838 17.049999999999997 0.0
  endloop
endfacet
facet normal 0.7933533402912352 -0.6087614290087205 -0.0
  outer loop
    vertex 6.4492958444838 17.049999999999997 4.999999999999999
    vertex 7.1008621971351555 17.899137802864843 0.0
    vertex 7.1008621971351555 17.899137802864843 4.999999999999999
  endloop
endfacet
facet normal 0.9238795325112868 -0.3826834323650894 -0.0
  outer loop
    vertex 6.4492958444838 17.049999999999997 0.0
    vertex 6.03970411221482 16.061158084920333 4.999999999999999
    vertex 6.03970411221482 16.061158084920333 0.0
  endloop
endfacet
facet normal 0.9238795325112868 -0.3826834323650894 -0.0
  outer loop
    vertex 6.03970411221482 16.061158084920333 4.999999999999999
    vertex 6.4492958444838 17.049999999999997 0.0
    vertex 6.4492958444838 17.049999999999997 4.999999999999999
  endloop
endfacet
facet normal 0.9914448613738105 -0.1305261922200516 -0.0
  outer loop
    vertex 6.03970411221482 16.061158084920333 0.0
    vertex 5.9 15.0 4.999999999999999
    vertex 5.9 15.0 0.0
  endloop
endfacet
facet normal 0.9914448613738105 -0.1305261922200516 -0.0
  outer loop
    vertex 5.9 15.0 4.999999999999999
    vertex 6.03970411221482 16.061158084920333 0.0
    vertex 6.03970411221482 16.061158084920333 4.999999999999999
  endloop
endfacet
facet normal 0.9914448613738104 0.13052619222005155 0.0
  outer loop
    vertex 5.9 15.0 0.0
    vertex 6.039704112214821 13.938841915079662 4.999999999999999
    vertex 6.039704112214821 13.938841915079662 0.0
  endloop
endfacet
facet normal 0.9914448613738104 0.13052619222005155 0.0
  outer loop
    vertex 6.039704112214821 13.938841915079662 4.999999999999999
    vertex 5.9 15.0 0.0
    vertex 5.9 15.0 4.999999999999999
  endloop
endfacet
facet normal 0.9238795325112862 0.3826834323650911 0.0
  outer loop
    vertex 6.039704112214821 13.938841915079662 0.0
    vertex 6.449295844483803 12.95 4.999999999999999
    vertex 6.449295844483803 12.95 0.0
  endloop
endfacet
facet normal 0.9238795325112862 0.3826834323650911 0.0
  outer loop
    vertex 6.449295844483803 12.95 4.999999999999999
    vertex 6.039704112214821 13.938841915079662 0.0
    vertex 6.039704112214821 13.938841915079662 4.999999999999999
  endloop
endfacet
facet normal 0.7933533402912348 0.608761429008721 0.0
  outer loop
    vertex 6.449295844483803 12.95 0.0
    vertex 7.100862197135157 12.100862197135156 4.999999999999999
    vertex 7.100862197135157 12.100862197135156 0.0
  endloop
endfacet
facet normal 0.7933533402912348 0.608761429008721 0.0
  outer loop
    vertex 7.100862197135157 12.100862197135156 4.999999999999999
    vertex 6.449295844483803 12.95 0.0
    vertex 6.449295844483803 12.95 4.999999999999999
  endloop
endfacet
facet normal -6.865996090699984e-17 2.2309475911084054e-17 1.0
  outer loop
    vertex 20.0 0.0 5.0
    vertex 12.5 11.794592989074337 4.999999999999999
    vertex 12.5 0.0 5.000000000000001
  endloop
endfacet
facet normal -6.865996090699984e-17 2.2309475911084054e-17 1.0
  outer loop
    vertex 12.5 11.794592989074337 4.999999999999999
    vertex 20.0 0.0 5.0
    vertex 12.899137802864844 12.100862197135157 4.999999999999999
  endloop
endfacet
facet normal -6.865996090699984e-17 2.2309475911084054e-17 1.0
  outer loop
    vertex 12.899137802864844 12.100862197135157 4.999999999999999
    vertex 20.0 0.0 5.0
    vertex 13.550704155516199 12.950000000000001 4.999999999999999
  endloop
endfacet
facet normal -6.865996090699984e-17 2.2309475911084054e-17 1.0
  outer loop
    vertex 13.550704155516199 12.950000000000001 4.999999999999999
    vertex 20.0 0.0 5.0
    vertex 13.96029588778518 13.938841915079667 4.999999999999999
  endloop
endfacet
facet normal -6.865996090699984e-17 2.2309475911084054e-17 1.0
  outer loop
    vertex 13.96029588778518 13.938841915079667 4.999999999999999
    vertex 20.0 0.0 5.0
    vertex 14.1 15.0 4.999999999999999
  endloop
endfacet
facet normal -6.865996090699984e-17 2.2309475911084054e-17 1.0
  outer loop
    vertex 12.899137802864844 17.899137802864843 4.999999999999999
    vertex 12.5 30.0 4.999999999999999
    vertex 12.5 18.205407010925665 4.999999999999999
  endloop
endfacet
facet normal -6.865996090699984e-17 2.2309475911084054e-17 1.0
  outer loop
    vertex 12.5 30.0 4.999999999999999
    vertex 12.899137802864844 17.899137802864843 4.999999999999999
    vertex 20.0 30.0 5.0
  endloop
endfacet
facet normal -6.865996090699984e-17 2.2309475911084054e-17 1.0
  outer loop
    vertex 20.0 30.0 5.0
    vertex 12.899137802864844 17.899137802864843 4.999999999999999
    vertex 13.550704155516199 17.05 4.999999999999999
  endloop
endfacet
facet normal -6.865996090699984e-17 2.2309475911084054e-17 1.0
  outer loop
    vertex 20.0 30.0 5.0
    vertex 13.550704155516199 17.05 4.999999999999999
    vertex 13.96029588778518 16.061158084920336 4.999999999999999
  endloop
endfacet
facet normal -6.865996090699984e-17 2.2309475911084054e-17 1.0
  outer loop
    vertex 20.0 30.0 5.0
    vertex 13.96029588778518 16.061158084920336 4.999999999999999
    vertex 14.1 15.0 4.999999999999999
  endloop
endfacet
facet normal -6.865996090699984e-17 2.2309475911084054e-17 1.0
  outer loop
    vertex 20.0 30.0 5.0
    vertex 14.1 15.0 4.999999999999999
    vertex 20.0 0.0 5.0
  endloop
endfacet
facet normal 1.0194660071646302e-17 -7.657048684330902e-34 1.0
  outer loop
    vertex 7.5 0.0 5.000000000000001
    vertex 0.0 30.0 5.0
    vertex 0.0 0.0 5.0
  endloop
endfacet
facet normal 1.0194660071646302e-17 -7.657048684330902e-34 1.0
  outer loop
    vertex 0.0 30.0 5.0
    vertex 7.5 0.0 5.000000000000001
    vertex 5.9 15.0 4.999999999999999
  endloop
endfacet
facet normal 1.0194660071646302e-17 -7.657048684330902e-34 1.0
  outer loop
    vertex 5.9 15.0 4.999999999999999
    vertex 7.5 0.0 5.000000000000001
    vertex 6.039704112214821 13.938841915079662 4.999999999999999
  endloop
endfacet
facet normal 1.0194660071646302e-17 -7.657048684330902e-34 1.0
  outer loop
    vertex 6.039704112214821 13.938841915079662 4.999999999999999
    vertex 7.5 0.0 5.000000000000001
    vertex 6.449295844483803 12.95 4.999999999999999
  endloop
endfacet
facet normal 1.0194660071646302e-17 -7.657048684330902e-34 1.0
  outer loop
    vertex 6.449295844483803 12.95 4.999999999999999
    vertex 7.5 0.0 5.000000000000001
    vertex 7.100862197135157 12.100862197135156 4.999999999999999
  endloop
endfacet
facet normal 1.0194660071646302e-17 -7.657048684330902e-34 1.0
  outer loop
    vertex 7.100862197135157 12.100862197135156 4.999999999999999
    vertex 7.5 0.0 5.000000000000001
    vertex 7.5 11.794592989074333 5.0
  endloop
endfacet
facet normal 1.0194660071646302e-17 -7.657048684330902e-34 1.0
  outer loop
    vertex 5.9 15.0 4.999999999999999
    vertex 7.5 30.0 5.000000000000001
    vertex 0.0 30.0 5.0
  endloop
endfacet
facet normal 1.0194660071646302e-17 -7.657048684330902e-34 1.0
  outer loop
    vertex 7.5 30.0 5.000000000000001
    vertex 5.9 15.0 4.999999999999999
    vertex 6.03970411221482 16.061158084920333 4.999999999999999
  endloop
endfacet
facet normal 1.0194660071646302e-17 -7.657048684330902e-34 1.0
  outer loop
    vertex 7.5 30.0 5.000000000000001
    vertex 6.03970411221482 16.061158084920333 4.999999999999999
    vertex 6.4492958444838 17.049999999999997 4.999999999999999
  endloop
endfacet
facet normal 1.0194660071646302e-17 -7.657048684330902e-34 1.0
  outer loop
    vertex 7.5 30.0 5.000000000000001
    vertex 6.4492958444838 17.049999999999997 4.999999999999999
    vertex 7.1008621971351555 17.899137802864843 4.999999999999999
  endloop
endfacet
facet normal 1.0194660071646302e-17 -7.657048684330902e-34 1.0
  outer loop
    vertex 7.5 30.0 5.000000000000001
    vertex 7.1008621971351555 17.899137802864843 4.999999999999999
    vertex 7.5 18.205407010925665 5.0
  endloop
endfacet
facet normal 1.4828562145104903e-16 -5.146611853772883e-17 1.0
  outer loop
    vertex 8.938841915079662 18.96029588778518 5.999999999999999
    vertex 8.35 25.000000000000004 6.0
    vertex 7.949999999999998 18.550704155516197 5.999999999999999
  endloop
endfacet
facet normal 1.4828562145104903e-16 -5.146611853772883e-17 1.0
  outer loop
    vertex 8.35 25.000000000000004 6.0
    vertex 8.938841915079662 18.96029588778518 5.999999999999999
    vertex 8.406222386623039 24.572948575580842 6.0
  endloop
endfacet
facet normal 1.4828562145104903e-16 -5.146611853772883e-17 1.0
  outer loop
    vertex 8.406222386623039 24.572948575580842 6.0
    vertex 8.938841915079662 18.96029588778518 5.999999999999999
    vertex 8.571058083755677 24.175 6.0
  endloop
endfacet
facet normal 1.4828562145104903e-16 -5.146611853772883e-17 1.0
  outer loop
    vertex 8.571058083755677 24.175 6.0
    vertex 8.938841915079662 18.96029588778518 5.999999999999999
    vertex 8.833273811042197 23.833273811042197 6.0
  endloop
endfacet
facet normal 1.4828562145104903e-16 -5.146611853772883e-17 1.0
  outer loop
    vertex 8.833273811042197 23.833273811042197 6.0
    vertex 8.938841915079662 18.96029588778518 5.999999999999999
    vertex 9.175 23.571058083755677 6.0
  endloop
endfacet
facet normal 1.4828562145104903e-16 -5.146611853772883e-17 1.0
  outer loop
    vertex 9.175 23.571058083755677 6.0
    vertex 8.938841915079662 18.96029588778518 5.999999999999999
    vertex 10.0 19.099999999999998 5.999999999999999
  endloop
endfacet
facet normal 1.4828562145104903e-16 -5.146611853772883e-17 1.0
  outer loop
    vertex 9.175 23.571058083755677 6.0
    vertex 10.0 19.099999999999998 5.999999999999999
    vertex 9.572948575580842 23.40622238662304 6.0
  endloop
endfacet
facet normal 1.4828562145104903e-16 -5.146611853772883e-17 1.0
  outer loop
    vertex 9.572948575580842 23.40622238662304 6.0
    vertex 10.0 19.099999999999998 5.999999999999999
    vertex 10.0 23.35 6.0
  endloop
endfacet
facet normal 1.4828562145104903e-16 -5.146611853772883e-17 1.0
  outer loop
    vertex 10.0 23.35 6.0
    vertex 10.0 19.099999999999998 5.999999999999999
    vertex 11.061158084920335 18.96029588778518 5.999999999999999
  endloop
endfacet
facet normal 1.4828562145104903e-16 -5.146611853772883e-17 1.0
  outer loop
    vertex 10.0 23.35 6.0
    vertex 11.061158084920335 18.96029588778518 5.999999999999999
    vertex 10.42705142441916 23.40622238662304 6.0
  endloop
endfacet
facet normal 1.4828562145104903e-16 -5.146611853772883e-17 1.0
  outer loop
    vertex 10.42705142441916 23.40622238662304 6.0
    vertex 11.061158084920335 18.96029588778518 5.999999999999999
    vertex 10.825 23.571058083755677 6.0
  endloop
endfacet
facet normal 1.4828562145104903e-16 -5.146611853772883e-17 1.0
  outer loop
    vertex 10.825 23.571058083755677 6.0
    vertex 11.061158084920335 18.96029588778518 5.999999999999999
    vertex 11.166726188957803 23.833273811042197 6.0
  endloop
endfacet
facet normal 1.4828562145104903e-16 -5.146611853772883e-17 1.0
  outer loop
    vertex 11.166726188957803 23.833273811042197 6.0
    vertex 11.061158084920335 18.96029588778518 5.999999999999999
    vertex 12.049999999999999 18.550704155516197 5.999999999999999
  endloop
endfacet
facet normal 1.4828562145104903e-16 -5.146611853772883e-17 1.0
  outer loop
    vertex 11.166726188957803 23.833273811042197 6.0
    vertex 12.049999999999999 18.550704155516197 5.999999999999999
    vertex 11.428941916244325 24.175000000000004 6.0
  endloop
endfacet
facet normal 1.4828562145104903e-16 -5.146611853772883e-17 1.0
  outer loop
    vertex 11.428941916244325 24.175000000000004 6.0
    vertex 12.049999999999999 18.550704155516197 5.999999999999999
    vertex 11.593777613376963 24.572948575580842 6.0
  endloop
endfacet
facet normal 1.4828562145104903e-16 -5.146611853772883e-17 1.0
  outer loop
    vertex 11.593777613376963 24.572948575580842 6.0
    vertex 12.049999999999999 18.550704155516197 5.999999999999999
    vertex 11.65 25.000000000000004 6.0
  endloop
endfacet
facet normal 1.4828562145104903e-16 -5.146611853772883e-17 1.0
  outer loop
    vertex 7.949999999999998 18.550704155516197 5.999999999999999
    vertex 7.5 30.0 6.0
    vertex 7.5 18.205407010925665 6.0
  endloop
endfacet
facet normal 1.4828562145104903e-16 -5.146611853772883e-17 1.0
  outer loop
    vertex 7.5 30.0 6.0
    vertex 7.949999999999998 18.550704155516197 5.999999999999999
    vertex 8.35 25.000000000000004 6.0
  endloop
endfacet
facet normal 1.4828562145104903e-16 -5.146611853772883e-17 1.0
  outer loop
    vertex 7.5 30.0 6.0
    vertex 8.35 25.000000000000004 6.0
    vertex 8.406222386623037 25.427051424419158 6.0
  endloop
endfacet
facet normal 1.4828562145104903e-16 -5.146611853772883e-17 1.0
  outer loop
    vertex 7.5 30.0 6.0
    vertex 8.406222386623037 25.427051424419158 6.0
    vertex 8.571058083755675 25.825000000000003 6.0
  endloop
endfacet
facet normal 1.4828562145104903e-16 -5.146611853772883e-17 1.0
  outer loop
    vertex 7.5 30.0 6.0
    vertex 8.571058083755675 25.825000000000003 6.0
    vertex 8.833273811042195 26.166726188957803 6.0
  endloop
endfacet
facet normal 1.4828562145104903e-16 -5.146611853772883e-17 1.0
  outer loop
    vertex 7.5 30.0 6.0
    vertex 8.833273811042195 26.166726188957803 6.0
    vertex 12.5 30.0 5.999999999999999
  endloop
endfacet
facet normal 1.4828562145104903e-16 -5.146611853772883e-17 1.0
  outer loop
    vertex 12.5 30.0 5.999999999999999
    vertex 8.833273811042195 26.166726188957803 6.0
    vertex 9.175 26.428941916244323 6.0
  endloop
endfacet
facet normal 1.4828562145104903e-16 -5.146611853772883e-17 1.0
  outer loop
    vertex 12.5 30.0 5.999999999999999
    vertex 9.175 26.428941916244323 6.0
    vertex 9.57294857558084 26.59377761337696 6.0
  endloop
endfacet
facet normal 1.4828562145104903e-16 -5.146611853772883e-17 1.0
  outer loop
    vertex 12.5 30.0 5.999999999999999
    vertex 9.57294857558084 26.59377761337696 6.0
    vertex 10.0 26.650000000000002 6.0
  endloop
endfacet
facet normal 1.4828562145104903e-16 -5.146611853772883e-17 1.0
  outer loop
    vertex 12.5 30.0 5.999999999999999
    vertex 10.0 26.650000000000002 6.0
    vertex 10.427051424419158 26.59377761337696 6.0
  endloop
endfacet
facet normal 1.4828562145104903e-16 -5.146611853772883e-17 1.0
  outer loop
    vertex 12.5 30.0 5.999999999999999
    vertex 10.427051424419158 26.59377761337696 6.0
    vertex 10.825 26.428941916244323 6.0
  endloop
endfacet
facet normal 1.4828562145104903e-16 -5.146611853772883e-17 1.0
  outer loop
    vertex 12.5 30.0 5.999999999999999
    vertex 10.825 26.428941916244323 6.0
    vertex 11.166726188957803 26.166726188957803 6.0
  endloop
endfacet
facet normal 1.4828562145104903e-16 -5.146611853772883e-17 1.0
  outer loop
    vertex 12.5 30.0 5.999999999999999
    vertex 11.166726188957803 26.166726188957803 6.0
    vertex 11.428941916244323 25.825000000000003 6.0
  endloop
endfacet
facet normal 1.4828562145104903e-16 -5.146611853772883e-17 1.0
  outer loop
    vertex 12.5 30.0 5.999999999999999
    vertex 11.428941916244323 25.825000000000003 6.0
    vertex 11.593777613376963 25.427051424419165 6.0
  endloop
endfacet
facet normal 1.4828562145104903e-16 -5.146611853772883e-17 1.0
  outer loop
    vertex 12.5 30.0 5.999999999999999
    vertex 11.593777613376963 25.427051424419165 6.0
    vertex 11.65 25.000000000000004 6.0
  endloop
endfacet
facet normal 1.4828562145104903e-16 -5.146611853772883e-17 1.0
  outer loop
    vertex 12.5 30.0 5.999999999999999
    vertex 11.65 25.000000000000004 6.0
    vertex 12.049999999999999 18.550704155516197 5.999999999999999
  endloop
endfacet
facet normal 1.4828562145104903e-16 -5.146611853772883e-17 1.0
  outer loop
    vertex 12.5 30.0 5.999999999999999
    vertex 12.049999999999999 18.550704155516197 5.999999999999999
    vertex 12.5 18.205407010925665 5.999999999999999
  endloop
endfacet
facet normal -1.0 -8.863393648324653e-33 1.4828562145104905e-16
  outer loop
    vertex 7.5 30.0 6.0
    vertex 7.5 18.205407010925665 5.0
    vertex 7.5 18.205407010925665 6.0
  endloop
endfacet
facet normal -1.0 -8.863393648324653e-33 1.4828562145104905e-16
  outer loop
    vertex 7.5 18.205407010925665 5.0
    vertex 7.5 30.0 6.0
    vertex 7.5 30.0 5.000000000000001
  endloop
endfacet
facet normal 1.0 0.0 -1.4828562145104903e-16
  outer loop
    vertex 12.5 30.0 4.999999999999999
    vertex 12.5 18.205407010925665 5.999999999999999
    vertex 12.5 18.205407010925665 4.999999999999999
  endloop
endfacet
facet normal 1.0 0.0 -1.4828562145104903e-16
  outer loop
    vertex 12.5 18.205407010925665 5.999999999999999
    vertex 12.5 30.0 4.999999999999999
    vertex 12.5 30.0 5.999999999999999
  endloop
endfacet
facet normal 4.942854048368303e-17 1.1331656513887328e-16 1.0
  outer loop
    vertex 7.5 1.1331656513887326e-16 6.0
    vertex 8.35 4.999999999999999 6.0
    vertex 7.5 11.794592989074333 6.0
  endloop
endfacet
facet normal 4.942854048368303e-17 1.1331656513887328e-16 1.0
  outer loop
    vertex 8.35 4.999999999999999 6.0
    vertex 7.5 1.1331656513887326e-16 6.0
    vertex 8.406222386623039 4.572948575580839 6.0
  endloop
endfacet
facet normal 4.942854048368303e-17 1.1331656513887328e-16 1.0
  outer loop
    vertex 8.406222386623039 4.572948575580839 6.0
    vertex 7.5 1.1331656513887326e-16 6.0
    vertex 8.571058083755677 4.174999999999999 6.0
  endloop
endfacet
facet normal 4.942854048368303e-17 1.1331656513887328e-16 1.0
  outer loop
    vertex 8.571058083755677 4.174999999999999 6.0
    vertex 7.5 1.1331656513887326e-16 6.0
    vertex 8.833273811042197 3.8332738110421953 6.0
  endloop
endfacet
facet normal 4.942854048368303e-17 1.1331656513887328e-16 1.0
  outer loop
    vertex 8.833273811042197 3.8332738110421953 6.0
    vertex 7.5 1.1331656513887326e-16 6.0
    vertex 12.5 1.1331656513887326e-16 6.0
  endloop
endfacet
facet normal 4.942854048368303e-17 1.1331656513887328e-16 1.0
  outer loop
    vertex 7.5 11.794592989074333 6.0
    vertex 8.35 4.999999999999999 6.0
    vertex 7.950000000000001 11.449295844483803 5.999999999999999
  endloop
endfacet
facet normal 4.942854048368303e-17 1.1331656513887328e-16 1.0
  outer loop
    vertex 8.833273811042197 3.8332738110421953 6.0
    vertex 12.5 1.1331656513887326e-16 6.0
    vertex 9.175 3.5710580837556756 6.0
  endloop
endfacet
facet normal 4.942854048368303e-17 1.1331656513887328e-16 1.0
  outer loop
    vertex 9.175 3.5710580837556756 6.0
    vertex 12.5 1.1331656513887326e-16 6.0
    vertex 9.572948575580842 3.406222386623037 6.0
  endloop
endfacet
facet normal 4.942854048368303e-17 1.1331656513887328e-16 1.0
  outer loop
    vertex 9.572948575580842 3.406222386623037 6.0
    vertex 12.5 1.1331656513887326e-16 6.0
    vertex 10.0 3.3499999999999996 6.0
  endloop
endfacet
facet normal 4.942854048368303e-17 1.1331656513887328e-16 1.0
  outer loop
    vertex 10.0 3.3499999999999996 6.0
    vertex 12.5 1.1331656513887326e-16 6.0
    vertex 10.42705142441916 3.406222386623037 6.0
  endloop
endfacet
facet normal 4.942854048368303e-17 1.1331656513887328e-16 1.0
  outer loop
    vertex 10.42705142441916 3.406222386623037 6.0
    vertex 12.5 1.1331656513887326e-16 6.0
    vertex 10.825 3.5710580837556765 6.0
  endloop
endfacet
facet normal 4.942854048368303e-17 1.1331656513887328e-16 1.0
  outer loop
    vertex 10.825 3.5710580837556765 6.0
    vertex 12.5 1.1331656513887326e-16 6.0
    vertex 11.166726188957803 3.8332738110421958 6.0
  endloop
endfacet
facet normal 4.942854048368303e-17 1.1331656513887328e-16 1.0
  outer loop
    vertex 11.166726188957803 3.8332738110421958 6.0
    vertex 12.5 1.1331656513887326e-16 6.0
    vertex 11.428941916244325 4.175 6.0
  endloop
endfacet
facet normal 4.942854048368303e-17 1.1331656513887328e-16 1.0
  outer loop
    vertex 11.428941916244325 4.175 6.0
    vertex 12.5 1.1331656513887326e-16 6.0
    vertex 11.593777613376963 4.572948575580841 6.0
  endloop
endfacet
facet normal 4.942854048368303e-17 1.1331656513887328e-16 1.0
  outer loop
    vertex 11.593777613376963 4.572948575580841 6.0
    vertex 12.5 1.1331656513887326e-16 6.0
    vertex 11.65 4.999999999999999 6.0
  endloop
endfacet
facet normal 4.942854048368303e-17 1.1331656513887328e-16 1.0
  outer loop
    vertex 11.65 4.999999999999999 6.0
    vertex 12.5 1.1331656513887326e-16 6.0
    vertex 12.05 11.449295844483805 5.999999999999999
  endloop
endfacet
facet normal 4.942854048368303e-17 1.1331656513887328e-16 1.0
  outer loop
    vertex 12.05 11.449295844483805 5.999999999999999
    vertex 12.5 1.1331656513887326e-16 6.0
    vertex 12.5 11.794592989074337 5.999999999999999
  endloop
endfacet
facet normal 4.942854048368303e-17 1.1331656513887328e-16 1.0
  outer loop
    vertex 8.35 4.999999999999999 6.0
    vertex 8.938841915079667 11.039704112214821 5.999999999999999
    vertex 7.950000000000001 11.449295844483803 5.999999999999999
  endloop
endfacet
facet normal 4.942854048368303e-17 1.1331656513887328e-16 1.0
  outer loop
    vertex 8.938841915079667 11.039704112214821 5.999999999999999
    vertex 8.35 4.999999999999999 6.0
    vertex 8.406222386623037 5.427051424419158 6.0
  endloop
endfacet
facet normal 4.942854048368303e-17 1.1331656513887328e-16 1.0
  outer loop
    vertex 8.938841915079667 11.039704112214821 5.999999999999999
    vertex 8.406222386623037 5.427051424419158 6.0
    vertex 8.571058083755675 5.8249999999999975 6.0
  endloop
endfacet
facet normal 4.942854048368303e-17 1.1331656513887328e-16 1.0
  outer loop
    vertex 8.938841915079667 11.039704112214821 5.999999999999999
    vertex 8.571058083755675 5.8249999999999975 6.0
    vertex 8.833273811042195 6.166726188957803 6.0
  endloop
endfacet
facet normal 4.942854048368303e-17 1.1331656513887328e-16 1.0
  outer loop
    vertex 8.938841915079667 11.039704112214821 5.999999999999999
    vertex 8.833273811042195 6.166726188957803 6.0
    vertex 9.175 6.428941916244322 6.0
  endloop
endfacet
facet normal 4.942854048368303e-17 1.1331656513887328e-16 1.0
  outer loop
    vertex 8.938841915079667 11.039704112214821 5.999999999999999
    vertex 9.175 6.428941916244322 6.0
    vertex 10.0 10.900000000000002 5.999999999999999
  endloop
endfacet
facet normal 4.942854048368303e-17 1.1331656513887328e-16 1.0
  outer loop
    vertex 10.0 10.900000000000002 5.999999999999999
    vertex 9.175 6.428941916244322 6.0
    vertex 9.57294857558084 6.593777613376962 6.0
  endloop
endfacet
facet normal 4.942854048368303e-17 1.1331656513887328e-16 1.0
  outer loop
    vertex 10.0 10.900000000000002 5.999999999999999
    vertex 9.57294857558084 6.593777613376962 6.0
    vertex 10.0 6.6499999999999995 6.0
  endloop
endfacet
facet normal 4.942854048368303e-17 1.1331656513887328e-16 1.0
  outer loop
    vertex 10.0 10.900000000000002 5.999999999999999
    vertex 10.0 6.6499999999999995 6.0
    vertex 10.427051424419158 6.593777613376962 6.0
  endloop
endfacet
facet normal 4.942854048368303e-17 1.1331656513887328e-16 1.0
  outer loop
    vertex 10.0 10.900000000000002 5.999999999999999
    vertex 10.427051424419158 6.593777613376962 6.0
    vertex 11.061158084920336 11.039704112214821 5.999999999999999
  endloop
endfacet
facet normal 4.942854048368303e-17 1.1331656513887328e-16 1.0
  outer loop
    vertex 11.061158084920336 11.039704112214821 5.999999999999999
    vertex 10.427051424419158 6.593777613376962 6.0
    vertex 10.825 6.428941916244324 6.0
  endloop
endfacet
facet normal 4.942854048368303e-17 1.1331656513887328e-16 1.0
  outer loop
    vertex 11.061158084920336 11.039704112214821 5.999999999999999
    vertex 10.825 6.428941916244324 6.0
    vertex 11.166726188957803 6.166726188957803 6.0
  endloop
endfacet
facet normal 4.942854048368303e-17 1.1331656513887328e-16 1.0
  outer loop
    vertex 11.061158084920336 11.039704112214821 5.999999999999999
    vertex 11.166726188957803 6.166726188957803 6.0
    vertex 12.05 11.449295844483805 5.999999999999999
  endloop
endfacet
facet normal 4.942854048368303e-17 1.1331656513887328e-16 1.0
  outer loop
    vertex 12.05 11.449295844483805 5.999999999999999
    vertex 11.166726188957803 6.166726188957803 6.0
    vertex 11.428941916244323 5.824999999999999 6.0
  endloop
endfacet
facet normal 4.942854048368303e-17 1.1331656513887328e-16 1.0
  outer loop
    vertex 12.05 11.449295844483805 5.999999999999999
    vertex 11.428941916244323 5.824999999999999 6.0
    vertex 11.593777613376963 5.427051424419159 6.0
  endloop
endfacet
facet normal 4.942854048368303e-17 1.1331656513887328e-16 1.0
  outer loop
    vertex 12.05 11.449295844483805 5.999999999999999
    vertex 11.593777613376963 5.427051424419159 6.0
    vertex 11.65 4.999999999999999 6.0
  endloop
endfacet
facet normal -1.0 2.9544645494415526e-33 4.942854048368303e-17
  outer loop
    vertex 7.5 1.1331656513887326e-16 6.0
    vertex 7.5 11.794592989074333 5.0
    vertex 7.5 0.0 5.000000000000001
  endloop
endfacet
facet normal -1.0 2.9544645494415526e-33 4.942854048368303e-17
  outer loop
    vertex 7.5 11.794592989074333 5.0
    vertex 7.5 1.1331656513887326e-16 6.0
    vertex 7.5 11.794592989074333 6.0
  endloop
endfacet
facet normal 1.0 -5.9089290988831045e-33 -4.942854048368303e-17
  outer loop
    vertex 12.5 11.794592989074337 4.999999999999999
    vertex 12.5 1.1331656513887326e-16 6.0
    vertex 12.5 0.0 5.000000000000001
  endloop
endfacet
facet normal 1.0 -5.9089290988831045e-33 -4.942854048368303e-17
  outer loop
    vertex 12.5 1.1331656513887326e-16 6.0
    vertex 12.5 11.794592989074337 4.999999999999999
    vertex 12.5 11.794592989074337 5.999999999999999
  endloop
endfacet
facet normal 0.7933533402912348 0.6087614290087213 0.0
  outer loop
    vertex 8.571058083755677 24.175 0.0
    vertex 8.833273811042197 23.833273811042197 6.0
    vertex 8.833273811042197 23.833273811042197 0.0
  endloop
endfacet
facet normal 0.7933533402912348 0.6087614290087213 0.0
  outer loop
    vertex 8.833273811042197 23.833273811042197 6.0
    vertex 8.571058083755677 24.175 0.0
    vertex 8.571058083755677 24.175 6.0
  endloop
endfacet
facet normal 0.6087614290087213 0.7933533402912348 0.0
  outer loop
    vertex 8.833273811042197 23.833273811042197 6.0
    vertex 9.175 23.571058083755677 0.0
    vertex 8.833273811042197 23.833273811042197 0.0
  endloop
endfacet
facet normal 0.6087614290087213 0.7933533402912348 0.0
  outer loop
    vertex 9.175 23.571058083755677 0.0
    vertex 8.833273811042197 23.833273811042197 6.0
    vertex 9.175 23.571058083755677 6.0
  endloop
endfacet
facet normal 0.3826834323650883 0.9238795325112875 0.0
  outer loop
    vertex 9.175 23.571058083755677 6.0
    vertex 9.572948575580842 23.40622238662304 0.0
    vertex 9.175 23.571058083755677 0.0
  endloop
endfacet
facet normal 0.3826834323650883 0.9238795325112875 0.0
  outer loop
    vertex 9.572948575580842 23.40622238662304 0.0
    vertex 9.175 23.571058083755677 6.0
    vertex 9.572948575580842 23.40622238662304 6.0
  endloop
endfacet
facet normal 0.1305261922200513 0.9914448613738104 0.0
  outer loop
    vertex 9.572948575580842 23.40622238662304 6.0
    vertex 10.0 23.35 0.0
    vertex 9.572948575580842 23.40622238662304 0.0
  endloop
endfacet
facet normal 0.1305261922200513 0.9914448613738104 0.0
  outer loop
    vertex 10.0 23.35 0.0
    vertex 9.572948575580842 23.40622238662304 6.0
    vertex 10.0 23.35 6.0
  endloop
endfacet
facet normal -0.13052619222005085 0.9914448613738105 -0.0
  outer loop
    vertex 10.0 23.35 6.0
    vertex 10.42705142441916 23.40622238662304 0.0
    vertex 10.0 23.35 0.0
  endloop
endfacet
facet normal -0.13052619222005085 0.9914448613738105 -0.0
  outer loop
    vertex 10.42705142441916 23.40622238662304 0.0
    vertex 10.0 23.35 6.0
    vertex 10.42705142441916 23.40622238662304 6.0
  endloop
endfacet
facet normal -0.38268343236508934 0.9238795325112868 -0.0
  outer loop
    vertex 10.42705142441916 23.40622238662304 6.0
    vertex 10.825 23.571058083755677 0.0
    vertex 10.42705142441916 23.40622238662304 0.0
  endloop
endfacet
facet normal -0.38268343236508934 0.9238795325112868 -0.0
  outer loop
    vertex 10.825 23.571058083755677 0.0
    vertex 10.42705142441916 23.40622238662304 6.0
    vertex 10.825 23.571058083755677 6.0
  endloop
endfacet
facet normal -0.6087614290087213 0.7933533402912348 -0.0
  outer loop
    vertex 10.825 23.571058083755677 6.0
    vertex 11.166726188957803 23.833273811042197 0.0
    vertex 10.825 23.571058083755677 0.0
  endloop
endfacet
facet normal -0.6087614290087213 0.7933533402912348 -0.0
  outer loop
    vertex 11.166726188957803 23.833273811042197 0.0
    vertex 10.825 23.571058083755677 6.0
    vertex 11.166726188957803 23.833273811042197 6.0
  endloop
endfacet
facet normal -0.7933533402912355 0.6087614290087202 -0.0
  outer loop
    vertex 11.428941916244325 24.175000000000004 6.0
    vertex 11.166726188957803 23.833273811042197 0.0
    vertex 11.166726188957803 23.833273811042197 6.0
  endloop
endfacet
facet normal -0.7933533402912355 0.6087614290087202 -0.0
  outer loop
    vertex 11.166726188957803 23.833273811042197 0.0
    vertex 11.428941916244325 24.175000000000004 6.0
    vertex 11.428941916244325 24.175000000000004 0.0
  endloop
endfacet
facet normal -0.9238795325112868 0.38268343236508934 -0.0
  outer loop
    vertex 11.593777613376963 24.572948575580842 6.0
    vertex 11.428941916244325 24.175000000000004 0.0
    vertex 11.428941916244325 24.175000000000004 6.0
  endloop
endfacet
facet normal -0.9238795325112868 0.38268343236508934 -0.0
  outer loop
    vertex 11.428941916244325 24.175000000000004 0.0
    vertex 11.593777613376963 24.572948575580842 6.0
    vertex 11.593777613376963 24.572948575580842 0.0
  endloop
endfacet
facet normal -0.9914448613738104 0.1305261922200513 -0.0
  outer loop
    vertex 11.65 25.000000000000004 6.0
    vertex 11.593777613376963 24.572948575580842 0.0
    vertex 11.593777613376963 24.572948575580842 6.0
  endloop
endfacet
facet normal -0.9914448613738104 0.1305261922200513 -0.0
  outer loop
    vertex 11.593777613376963 24.572948575580842 0.0
    vertex 11.65 25.000000000000004 6.0
    vertex 11.65 25.000000000000004 0.0
  endloop
endfacet
facet normal -0.9914448613738107 -0.13052619222005046 -0.0
  outer loop
    vertex 11.593777613376963 25.427051424419165 6.0
    vertex 11.65 25.000000000000004 0.0
    vertex 11.65 25.000000000000004 6.0
  endloop
endfacet
facet normal -0.9914448613738107 -0.13052619222005046 -0.0
  outer loop
    vertex 11.65 25.000000000000004 0.0
    vertex 11.593777613376963 25.427051424419165 6.0
    vertex 11.593777613376963 25.427051424419165 0.0
  endloop
endfacet
facet normal -0.9238795325112857 -0.38268343236509217 -0.0
  outer loop
    vertex 11.428941916244323 25.825000000000003 6.0
    vertex 11.593777613376963 25.427051424419165 0.0
    vertex 11.593777613376963 25.427051424419165 6.0
  endloop
endfacet
facet normal -0.9238795325112857 -0.38268343236509217 -0.0
  outer loop
    vertex 11.593777613376963 25.427051424419165 0.0
    vertex 11.428941916244323 25.825000000000003 6.0
    vertex 11.428941916244323 25.825000000000003 0.0
  endloop
endfacet
facet normal -0.7933533402912324 -0.6087614290087245 -0.0
  outer loop
    vertex 11.166726188957803 26.166726188957803 6.0
    vertex 11.428941916244323 25.825000000000003 0.0
    vertex 11.428941916244323 25.825000000000003 6.0
  endloop
endfacet
facet normal -0.7933533402912324 -0.6087614290087245 -0.0
  outer loop
    vertex 11.428941916244323 25.825000000000003 0.0
    vertex 11.166726188957803 26.166726188957803 6.0
    vertex 11.166726188957803 26.166726188957803 0.0
  endloop
endfacet
facet normal -0.6087614290087213 -0.7933533402912348 -0.0
  outer loop
    vertex 11.166726188957803 26.166726188957803 6.0
    vertex 10.825 26.428941916244323 0.0
    vertex 11.166726188957803 26.166726188957803 0.0
  endloop
endfacet
facet normal -0.6087614290087213 -0.7933533402912348 -0.0
  outer loop
    vertex 10.825 26.428941916244323 0.0
    vertex 11.166726188957803 26.166726188957803 6.0
    vertex 10.825 26.428941916244323 6.0
  endloop
endfacet
facet normal -0.3826834323650883 -0.9238795325112875 -0.0
  outer loop
    vertex 10.825 26.428941916244323 6.0
    vertex 10.427051424419158 26.59377761337696 0.0
    vertex 10.825 26.428941916244323 0.0
  endloop
endfacet
facet normal -0.3826834323650883 -0.9238795325112875 -0.0
  outer loop
    vertex 10.427051424419158 26.59377761337696 0.0
    vertex 10.825 26.428941916244323 6.0
    vertex 10.427051424419158 26.59377761337696 6.0
  endloop
endfacet
facet normal -0.1305261922200577 -0.9914448613738096 -0.0
  outer loop
    vertex 10.427051424419158 26.59377761337696 6.0
    vertex 10.0 26.650000000000002 0.0
    vertex 10.427051424419158 26.59377761337696 0.0
  endloop
endfacet
facet normal -0.1305261922200577 -0.9914448613738096 -0.0
  outer loop
    vertex 10.0 26.650000000000002 0.0
    vertex 10.427051424419158 26.59377761337696 6.0
    vertex 10.0 26.650000000000002 6.0
  endloop
endfacet
facet normal 0.1305261922200573 -0.9914448613738096 -0.0
  outer loop
    vertex 10.0 26.650000000000002 6.0
    vertex 9.57294857558084 26.59377761337696 0.0
    vertex 10.0 26.650000000000002 0.0
  endloop
endfacet
facet normal 0.1305261922200573 -0.9914448613738096 -0.0
  outer loop
    vertex 9.57294857558084 26.59377761337696 0.0
    vertex 10.0 26.650000000000002 6.0
    vertex 9.57294857558084 26.59377761337696 6.0
  endloop
endfacet
facet normal 0.38268343236508934 -0.9238795325112868 -0.0
  outer loop
    vertex 9.57294857558084 26.59377761337696 6.0
    vertex 9.175 26.428941916244323 0.0
    vertex 9.57294857558084 26.59377761337696 0.0
  endloop
endfacet
facet normal 0.38268343236508934 -0.9238795325112868 -0.0
  outer loop
    vertex 9.175 26.428941916244323 0.0
    vertex 9.57294857558084 26.59377761337696 6.0
    vertex 9.175 26.428941916244323 6.0
  endloop
endfacet
facet normal 0.6087614290087197 -0.7933533402912358 -0.0
  outer loop
    vertex 9.175 26.428941916244323 6.0
    vertex 8.833273811042195 26.166726188957803 0.0
    vertex 9.175 26.428941916244323 0.0
  endloop
endfacet
facet normal 0.6087614290087197 -0.7933533402912358 -0.0
  outer loop
    vertex 8.833273811042195 26.166726188957803 0.0
    vertex 9.175 26.428941916244323 6.0
    vertex 8.833273811042195 26.166726188957803 6.0
  endloop
endfacet
facet normal 0.7933533402912324 -0.6087614290087245 -0.0
  outer loop
    vertex 8.833273811042195 26.166726188957803 0.0
    vertex 8.571058083755675 25.825000000000003 6.0
    vertex 8.571058083755675 25.825000000000003 0.0
  endloop
endfacet
facet normal 0.7933533402912324 -0.6087614290087245 -0.0
  outer loop
    vertex 8.571058083755675 25.825000000000003 6.0
    vertex 8.833273811042195 26.166726188957803 0.0
    vertex 8.833273811042195 26.166726188957803 6.0
  endloop
endfacet
facet normal 0.9238795325112888 -0.38268343236508473 -0.0
  outer loop
    vertex 8.571058083755675 25.825000000000003 0.0
    vertex 8.406222386623037 25.427051424419158 6.0
    vertex 8.406222386623037 25.427051424419158 0.0
  endloop
endfacet
facet normal 0.9238795325112888 -0.38268343236508473 -0.0
  outer loop
    vertex 8.406222386623037 25.427051424419158 6.0
    vertex 8.571058083755675 25.825000000000003 0.0
    vertex 8.571058083755675 25.825000000000003 6.0
  endloop
endfacet
facet normal 0.9914448613738105 -0.13052619222005216 -0.0
  outer loop
    vertex 8.406222386623037 25.427051424419158 0.0
    vertex 8.35 25.000000000000004 6.0
    vertex 8.35 25.000000000000004 0.0
  endloop
endfacet
facet normal 0.9914448613738105 -0.13052619222005216 -0.0
  outer loop
    vertex 8.35 25.000000000000004 6.0
    vertex 8.406222386623037 25.427051424419158 0.0
    vertex 8.406222386623037 25.427051424419158 6.0
  endloop
endfacet
facet normal 0.9914448613738103 0.13052619222005368 0.0
  outer loop
    vertex 8.35 25.000000000000004 0.0
    vertex 8.406222386623039 24.572948575580842 6.0
    vertex 8.406222386623039 24.572948575580842 0.0
  endloop
endfacet
facet normal 0.9914448613738103 0.13052619222005368 0.0
  outer loop
    vertex 8.406222386623039 24.572948575580842 6.0
    vertex 8.35 25.000000000000004 0.0
    vertex 8.35 25.000000000000004 6.0
  endloop
endfacet
facet normal 0.9238795325112868 0.38268343236508934 0.0
  outer loop
    vertex 8.406222386623039 24.572948575580842 0.0
    vertex 8.571058083755677 24.175 6.0
    vertex 8.571058083755677 24.175 0.0
  endloop
endfacet
facet normal 0.9238795325112868 0.38268343236508934 0.0
  outer loop
    vertex 8.571058083755677 24.175 6.0
    vertex 8.406222386623039 24.572948575580842 0.0
    vertex 8.406222386623039 24.572948575580842 6.0
  endloop
endfacet
facet normal -0.3826834323650883 -0.9238795325112875 -0.0
  outer loop
    vertex 10.825 6.428941916244324 6.0
    vertex 10.427051424419158 6.593777613376962 0.0
    vertex 10.825 6.428941916244324 0.0
  endloop
endfacet
facet normal -0.3826834323650883 -0.9238795325112875 -0.0
  outer loop
    vertex 10.427051424419158 6.593777613376962 0.0
    vertex 10.825 6.428941916244324 6.0
    vertex 10.427051424419158 6.593777613376962 6.0
  endloop
endfacet
facet normal -0.1305261922200513 -0.9914448613738104 -0.0
  outer loop
    vertex 10.427051424419158 6.593777613376962 6.0
    vertex 10.0 6.6499999999999995 0.0
    vertex 10.427051424419158 6.593777613376962 0.0
  endloop
endfacet
facet normal -0.1305261922200513 -0.9914448613738104 -0.0
  outer loop
    vertex 10.0 6.6499999999999995 0.0
    vertex 10.427051424419158 6.593777613376962 6.0
    vertex 10.0 6.6499999999999995 6.0
  endloop
endfacet
facet normal 0.13052619222005085 -0.9914448613738105 -0.0
  outer loop
    vertex 10.0 6.6499999999999995 6.0
    vertex 9.57294857558084 6.593777613376962 0.0
    vertex 10.0 6.6499999999999995 0.0
  endloop
endfacet
facet normal 0.13052619222005085 -0.9914448613738105 -0.0
  outer loop
    vertex 9.57294857558084 6.593777613376962 0.0
    vertex 10.0 6.6499999999999995 6.0
    vertex 9.57294857558084 6.593777613376962 6.0
  endloop
endfacet
facet normal 0.38268343236509217 -0.9238795325112857 -0.0
  outer loop
    vertex 9.57294857558084 6.593777613376962 6.0
    vertex 9.175 6.428941916244322 0.0
    vertex 9.57294857558084 6.593777613376962 0.0
  endloop
endfacet
facet normal 0.38268343236509217 -0.9238795325112857 -0.0
  outer loop
    vertex 9.175 6.428941916244322 0.0
    vertex 9.57294857558084 6.593777613376962 6.0
    vertex 9.175 6.428941916244322 6.0
  endloop
endfacet
facet normal 0.6087614290087187 -0.7933533402912367 -0.0
  outer loop
    vertex 9.175 6.428941916244322 6.0
    vertex 8.833273811042195 6.166726188957803 0.0
    vertex 9.175 6.428941916244322 0.0
  endloop
endfacet
facet normal 0.6087614290087187 -0.7933533402912367 -0.0
  outer loop
    vertex 8.833273811042195 6.166726188957803 0.0
    vertex 9.175 6.428941916244322 6.0
    vertex 8.833273811042195 6.166726188957803 6.0
  endloop
endfacet
facet normal 0.7933533402912365 -0.6087614290087189 -0.0
  outer loop
    vertex 8.833273811042195 6.166726188957803 0.0
    vertex 8.571058083755675 5.8249999999999975 6.0
    vertex 8.571058083755675 5.8249999999999975 0.0
  endloop
endfacet
facet normal 0.7933533402912365 -0.6087614290087189 -0.0
  outer loop
    vertex 8.571058083755675 5.8249999999999975 6.0
    vertex 8.833273811042195 6.166726188957803 0.0
    vertex 8.833273811042195 6.166726188957803 6.0
  endloop
endfacet
facet normal 0.9238795325112868 -0.38268343236508934 -0.0
  outer loop
    vertex 8.571058083755675 5.8249999999999975 0.0
    vertex 8.406222386623037 5.427051424419158 6.0
    vertex 8.406222386623037 5.427051424419158 0.0
  endloop
endfacet
facet normal 0.9238795325112868 -0.38268343236508934 -0.0
  outer loop
    vertex 8.406222386623037 5.427051424419158 6.0
    vertex 8.571058083755675 5.8249999999999975 0.0
    vertex 8.571058083755675 5.8249999999999975 6.0
  endloop
endfacet
facet normal 0.9914448613738104 -0.1305261922200513 -0.0
  outer loop
    vertex 8.406222386623037 5.427051424419158 0.0
    vertex 8.35 4.999999999999999 6.0
    vertex 8.35 4.999999999999999 0.0
  endloop
endfacet
facet normal 0.9914448613738104 -0.1305261922200513 -0.0
  outer loop
    vertex 8.35 4.999999999999999 6.0
    vertex 8.406222386623037 5.427051424419158 0.0
    vertex 8.406222386623037 5.427051424419158 6.0
  endloop
endfacet
facet normal 0.99144486137381 0.13052619222005407 0.0
  outer loop
    vertex 8.35 4.999999999999999 0.0
    vertex 8.406222386623039 4.572948575580839 6.0
    vertex 8.406222386623039 4.572948575580839 0.0
  endloop
endfacet
facet normal 0.99144486137381 0.13052619222005407 0.0
  outer loop
    vertex 8.406222386623039 4.572948575580839 6.0
    vertex 8.35 4.999999999999999 0.0
    vertex 8.35 4.999999999999999 6.0
  endloop
endfacet
facet normal 0.9238795325112872 0.3826834323650888 0.0
  outer loop
    vertex 8.406222386623039 4.572948575580839 0.0
    vertex 8.571058083755677 4.174999999999999 6.0
    vertex 8.571058083755677 4.174999999999999 0.0
  endloop
endfacet
facet normal 0.9238795325112872 0.3826834323650888 0.0
  outer loop
    vertex 8.571058083755677 4.174999999999999 6.0
    vertex 8.406222386623039 4.572948575580839 0.0
    vertex 8.406222386623039 4.572948575580839 6.0
  endloop
endfacet
facet normal 0.7933533402912353 0.6087614290087205 0.0
  outer loop
    vertex 8.571058083755677 4.174999999999999 0.0
    vertex 8.833273811042197 3.8332738110421953 6.0
    vertex 8.833273811042197 3.8332738110421953 0.0
  endloop
endfacet
facet normal 0.7933533402912353 0.6087614290087205 0.0
  outer loop
    vertex 8.833273811042197 3.8332738110421953 6.0
    vertex 8.571058083755677 4.174999999999999 0.0
    vertex 8.571058083755677 4.174999999999999 6.0
  endloop
endfacet
facet normal 0.6087614290087202 0.7933533402912355 0.0
  outer loop
    vertex 8.833273811042197 3.8332738110421953 6.0
    vertex 9.175 3.5710580837556756 0.0
    vertex 8.833273811042197 3.8332738110421953 0.0
  endloop
endfacet
facet normal 0.6087614290087202 0.7933533402912355 0.0
  outer loop
    vertex 9.175 3.5710580837556756 0.0
    vertex 8.833273811042197 3.8332738110421953 6.0
    vertex 9.175 3.5710580837556756 6.0
  endloop
endfacet
facet normal 0.38268343236508956 0.9238795325112867 0.0
  outer loop
    vertex 9.175 3.5710580837556756 6.0
    vertex 9.572948575580842 3.406222386623037 0.0
    vertex 9.175 3.5710580837556756 0.0
  endloop
endfacet
facet normal 0.38268343236508956 0.9238795325112867 0.0
  outer loop
    vertex 9.572948575580842 3.406222386623037 0.0
    vertex 9.175 3.5710580837556756 6.0
    vertex 9.572948575580842 3.406222386623037 6.0
  endloop
endfacet
facet normal 0.1305261922200513 0.9914448613738104 0.0
  outer loop
    vertex 9.572948575580842 3.406222386623037 6.0
    vertex 10.0 3.3499999999999996 0.0
    vertex 9.572948575580842 3.406222386623037 0.0
  endloop
endfacet
facet normal 0.1305261922200513 0.9914448613738104 0.0
  outer loop
    vertex 10.0 3.3499999999999996 0.0
    vertex 9.572948575580842 3.406222386623037 6.0
    vertex 10.0 3.3499999999999996 6.0
  endloop
endfacet
facet normal -0.13052619222005085 0.9914448613738105 -0.0
  outer loop
    vertex 10.0 3.3499999999999996 6.0
    vertex 10.42705142441916 3.406222386623037 0.0
    vertex 10.0 3.3499999999999996 0.0
  endloop
endfacet
facet normal -0.13052619222005085 0.9914448613738105 -0.0
  outer loop
    vertex 10.42705142441916 3.406222386623037 0.0
    vertex 10.0 3.3499999999999996 6.0
    vertex 10.42705142441916 3.406222386623037 6.0
  endloop
endfacet
facet normal -0.38268343236509217 0.9238795325112857 -0.0
  outer loop
    vertex 10.42705142441916 3.406222386623037 6.0
    vertex 10.825 3.5710580837556765 0.0
    vertex 10.42705142441916 3.406222386623037 0.0
  endloop
endfacet
facet normal -0.38268343236509217 0.9238795325112857 -0.0
  outer loop
    vertex 10.825 3.5710580837556765 0.0
    vertex 10.42705142441916 3.406222386623037 6.0
    vertex 10.825 3.5710580837556765 6.0
  endloop
endfacet
facet normal -0.6087614290087202 0.7933533402912355 -0.0
  outer loop
    vertex 10.825 3.5710580837556765 6.0
    vertex 11.166726188957803 3.8332738110421958 0.0
    vertex 10.825 3.5710580837556765 0.0
  endloop
endfacet
facet normal -0.6087614290087202 0.7933533402912355 -0.0
  outer loop
    vertex 11.166726188957803 3.8332738110421958 0.0
    vertex 10.825 3.5710580837556765 6.0
    vertex 11.166726188957803 3.8332738110421958 6.0
  endloop
endfacet
facet normal -0.7933533402912337 0.6087614290087225 -0.0
  outer loop
    vertex 11.428941916244325 4.175 6.0
    vertex 11.166726188957803 3.8332738110421958 0.0
    vertex 11.166726188957803 3.8332738110421958 6.0
  endloop
endfacet
facet normal -0.7933533402912337 0.6087614290087225 -0.0
  outer loop
    vertex 11.166726188957803 3.8332738110421958 0.0
    vertex 11.428941916244325 4.175 6.0
    vertex 11.428941916244325 4.175 0.0
  endloop
endfacet
facet normal -0.9238795325112875 0.3826834323650883 -0.0
  outer loop
    vertex 11.593777613376963 4.572948575580841 6.0
    vertex 11.428941916244325 4.175 0.0
    vertex 11.428941916244325 4.175 6.0
  endloop
endfacet
facet normal -0.9238795325112875 0.3826834323650883 -0.0
  outer loop
    vertex 11.428941916244325 4.175 0.0
    vertex 11.593777613376963 4.572948575580841 6.0
    vertex 11.593777613376963 4.572948575580841 0.0
  endloop
endfacet
facet normal -0.9914448613738104 0.1305261922200513 -0.0
  outer loop
    vertex 11.65 4.999999999999999 6.0
    vertex 11.593777613376963 4.572948575580841 0.0
    vertex 11.593777613376963 4.572948575580841 6.0
  endloop
endfacet
facet normal -0.9914448613738104 0.1305261922200513 -0.0
  outer loop
    vertex 11.593777613376963 4.572948575580841 0.0
    vertex 11.65 4.999999999999999 6.0
    vertex 11.65 4.999999999999999 0.0
  endloop
endfacet
facet normal -0.9914448613738105 -0.13052619222005107 -0.0
  outer loop
    vertex 11.593777613376963 5.427051424419159 6.0
    vertex 11.65 4.999999999999999 0.0
    vertex 11.65 4.999999999999999 6.0
  endloop
endfacet
facet normal -0.9914448613738105 -0.13052619222005107 -0.0
  outer loop
    vertex 11.65 4.999999999999999 0.0
    vertex 11.593777613376963 5.427051424419159 6.0
    vertex 11.593777613376963 5.427051424419159 0.0
  endloop
endfacet
facet normal -0.9238795325112861 -0.3826834323650916 -0.0
  outer loop
    vertex 11.428941916244323 5.824999999999999 6.0
    vertex 11.593777613376963 5.427051424419159 0.0
    vertex 11.593777613376963 5.427051424419159 6.0
  endloop
endfacet
facet normal -0.9238795325112861 -0.3826834323650916 -0.0
  outer loop
    vertex 11.593777613376963 5.427051424419159 0.0
    vertex 11.428941916244323 5.824999999999999 6.0
    vertex 11.428941916244323 5.824999999999999 0.0
  endloop
endfacet
facet normal -0.7933533402912353 -0.6087614290087205 -0.0
  outer loop
    vertex 11.166726188957803 6.166726188957803 6.0
    vertex 11.428941916244323 5.824999999999999 0.0
    vertex 11.428941916244323 5.824999999999999 6.0
  endloop
endfacet
facet normal -0.7933533402912353 -0.6087614290087205 -0.0
  outer loop
    vertex 11.428941916244323 5.824999999999999 0.0
    vertex 11.166726188957803 6.166726188957803 6.0
    vertex 11.166726188957803 6.166726188957803 0.0
  endloop
endfacet
facet normal -0.6087614290087223 -0.7933533402912338 -0.0
  outer loop
    vertex 11.166726188957803 6.166726188957803 6.0
    vertex 10.825 6.428941916244324 0.0
    vertex 11.166726188957803 6.166726188957803 0.0
  endloop
endfacet
facet normal -0.6087614290087223 -0.7933533402912338 -0.0
  outer loop
    vertex 10.825 6.428941916244324 0.0
    vertex 11.166726188957803 6.166726188957803 6.0
    vertex 10.825 6.428941916244324 6.0
  endloop
endfacet
endsolid Bed_Belt_Tensioner
