solid board cover 2
facet normal -9.34113897343991e-16 -3.5249581031847174e-17 1.0
  outer loop
    vertex -19.999999999999986 -12.99999999999997 2.999999999999981
    vertex -10.849999999999977 -9.472243186433529 2.9999999999999947
    vertex -19.999999999999968 -2.9999999999999716 2.9999999999999813
  endloop
endfacet
facet normal -9.34113897343991e-16 -3.5249581031847174e-17 1.0
  outer loop
    vertex -10.849999999999977 -9.472243186433529 2.9999999999999947
    vertex -19.999999999999986 -12.99999999999997 2.999999999999981
    vertex -10.439992376674263 -9.6420739046914 2.9999999999999947
  endloop
endfacet
facet normal -9.34113897343991e-16 -3.5249581031847174e-17 1.0
  outer loop
    vertex -10.439992376674263 -9.6420739046914 2.9999999999999947
    vertex -19.999999999999986 -12.99999999999997 2.999999999999981
    vertex 1.3565537226728082e-14 -12.999999999999998 3.0
  endloop
endfacet
facet normal -9.34113897343991e-16 -3.5249581031847174e-17 1.0
  outer loop
    vertex -19.999999999999968 -2.9999999999999716 2.9999999999999813
    vertex -10.849999999999977 -9.472243186433529 2.9999999999999947
    vertex -11.202081528017109 -9.202081528017114 2.9999999999999942
  endloop
endfacet
facet normal -9.34113897343991e-16 -3.5249581031847174e-17 1.0
  outer loop
    vertex -19.999999999999968 -2.9999999999999716 2.9999999999999813
    vertex -11.202081528017109 -9.202081528017114 2.9999999999999942
    vertex -11.472243186433523 -8.849999999999984 2.999999999999994
  endloop
endfacet
facet normal -9.34113897343991e-16 -3.5249581031847174e-17 1.0
  outer loop
    vertex -19.999999999999968 -2.9999999999999716 2.9999999999999813
    vertex -11.472243186433523 -8.849999999999984 2.999999999999994
    vertex -11.642073904691392 -8.439992376674267 2.999999999999994
  endloop
endfacet
facet normal -9.34113897343991e-16 -3.5249581031847174e-17 1.0
  outer loop
    vertex -19.999999999999968 -2.9999999999999716 2.9999999999999813
    vertex -11.642073904691392 -8.439992376674267 2.999999999999994
    vertex -11.699999999999976 -7.999999999999982 2.9999999999999933
  endloop
endfacet
facet normal -9.34113897343991e-16 -3.5249581031847174e-17 1.0
  outer loop
    vertex -10.439992376674263 -9.6420739046914 2.9999999999999947
    vertex 1.3565537226728082e-14 -12.999999999999998 3.0
    vertex -9.999999999999979 -9.699999999999985 2.999999999999995
  endloop
endfacet
facet normal -9.34113897343991e-16 -3.5249581031847174e-17 1.0
  outer loop
    vertex -9.999999999999979 -9.699999999999985 2.999999999999995
    vertex 1.3565537226728082e-14 -12.999999999999998 3.0
    vertex -9.560007623325694 -9.642073904691403 2.9999999999999956
  endloop
endfacet
facet normal -9.34113897343991e-16 -3.5249581031847174e-17 1.0
  outer loop
    vertex -9.560007623325694 -9.642073904691403 2.9999999999999956
    vertex 1.3565537226728082e-14 -12.999999999999998 3.0
    vertex -9.149999999999979 -9.472243186433532 2.999999999999996
  endloop
endfacet
facet normal -9.34113897343991e-16 -3.5249581031847174e-17 1.0
  outer loop
    vertex -9.149999999999979 -9.472243186433532 2.999999999999996
    vertex 1.3565537226728082e-14 -12.999999999999998 3.0
    vertex -8.797918471982848 -9.202081528017118 2.9999999999999964
  endloop
endfacet
facet normal -9.34113897343991e-16 -3.5249581031847174e-17 1.0
  outer loop
    vertex -8.797918471982848 -9.202081528017118 2.9999999999999964
    vertex 1.3565537226728082e-14 -12.999999999999998 3.0
    vertex -8.527756813566432 -8.849999999999987 2.9999999999999964
  endloop
endfacet
facet normal -9.34113897343991e-16 -3.5249581031847174e-17 1.0
  outer loop
    vertex -8.527756813566432 -8.849999999999987 2.9999999999999964
    vertex 1.3565537226728082e-14 -12.999999999999998 3.0
    vertex -8.35792609530856 -8.439992376674274 2.9999999999999964
  endloop
endfacet
facet normal -9.34113897343991e-16 -3.5249581031847174e-17 1.0
  outer loop
    vertex -8.35792609530856 -8.439992376674274 2.9999999999999964
    vertex 1.3565537226728082e-14 -12.999999999999998 3.0
    vertex -8.299999999999976 -7.9999999999999885 2.999999999999997
  endloop
endfacet
facet normal -9.34113897343991e-16 -3.5249581031847174e-17 1.0
  outer loop
    vertex -19.999999999999968 -2.9999999999999716 2.9999999999999813
    vertex -10.43999237667426 -6.357926095308569 2.9999999999999947
    vertex 3.2722442096726616e-14 -3.0 3.0
  endloop
endfacet
facet normal -9.34113897343991e-16 -3.5249581031847174e-17 1.0
  outer loop
    vertex -10.43999237667426 -6.357926095308569 2.9999999999999947
    vertex -19.999999999999968 -2.9999999999999716 2.9999999999999813
    vertex -10.849999999999975 -6.527756813566438 2.9999999999999947
  endloop
endfacet
facet normal -9.34113897343991e-16 -3.5249581031847174e-17 1.0
  outer loop
    vertex -10.849999999999975 -6.527756813566438 2.9999999999999947
    vertex -19.999999999999968 -2.9999999999999716 2.9999999999999813
    vertex -11.202081528017105 -6.797918471982853 2.9999999999999942
  endloop
endfacet
facet normal -9.34113897343991e-16 -3.5249581031847174e-17 1.0
  outer loop
    vertex -11.202081528017105 -6.797918471982853 2.9999999999999942
    vertex -19.999999999999968 -2.9999999999999716 2.9999999999999813
    vertex -11.47224318643352 -7.149999999999983 2.999999999999994
  endloop
endfacet
facet normal -9.34113897343991e-16 -3.5249581031847174e-17 1.0
  outer loop
    vertex -11.47224318643352 -7.149999999999983 2.999999999999994
    vertex -19.999999999999968 -2.9999999999999716 2.9999999999999813
    vertex -11.642073904691392 -7.560007623325698 2.999999999999994
  endloop
endfacet
facet normal -9.34113897343991e-16 -3.5249581031847174e-17 1.0
  outer loop
    vertex -11.642073904691392 -7.560007623325698 2.999999999999994
    vertex -19.999999999999968 -2.9999999999999716 2.9999999999999813
    vertex -11.699999999999976 -7.999999999999982 2.9999999999999933
  endloop
endfacet
facet normal -9.34113897343991e-16 -3.5249581031847174e-17 1.0
  outer loop
    vertex 3.2722442096726616e-14 -3.0 3.0
    vertex -10.43999237667426 -6.357926095308569 2.9999999999999947
    vertex -9.999999999999973 -6.299999999999986 2.999999999999995
  endloop
endfacet
facet normal -9.34113897343991e-16 -3.5249581031847174e-17 1.0
  outer loop
    vertex 3.2722442096726616e-14 -3.0 3.0
    vertex -9.999999999999973 -6.299999999999986 2.999999999999995
    vertex -9.560007623325689 -6.35792609530857 2.9999999999999956
  endloop
endfacet
facet normal -9.34113897343991e-16 -3.5249581031847174e-17 1.0
  outer loop
    vertex 3.2722442096726616e-14 -3.0 3.0
    vertex -9.560007623325689 -6.35792609530857 2.9999999999999956
    vertex -9.149999999999975 -6.527756813566441 2.999999999999996
  endloop
endfacet
facet normal -9.34113897343991e-16 -3.5249581031847174e-17 1.0
  outer loop
    vertex 3.2722442096726616e-14 -3.0 3.0
    vertex -9.149999999999975 -6.527756813566441 2.999999999999996
    vertex -8.797918471982843 -6.797918471982856 2.9999999999999964
  endloop
endfacet
facet normal -9.34113897343991e-16 -3.5249581031847174e-17 1.0
  outer loop
    vertex 3.2722442096726616e-14 -3.0 3.0
    vertex -8.797918471982843 -6.797918471982856 2.9999999999999964
    vertex -8.527756813566429 -7.149999999999987 2.9999999999999964
  endloop
endfacet
facet normal -9.34113897343991e-16 -3.5249581031847174e-17 1.0
  outer loop
    vertex 3.2722442096726616e-14 -3.0 3.0
    vertex -8.527756813566429 -7.149999999999987 2.9999999999999964
    vertex -8.35792609530856 -7.560007623325702 2.9999999999999964
  endloop
endfacet
facet normal -9.34113897343991e-16 -3.5249581031847174e-17 1.0
  outer loop
    vertex 3.2722442096726616e-14 -3.0 3.0
    vertex -8.35792609530856 -7.560007623325702 2.9999999999999964
    vertex -8.299999999999976 -7.9999999999999885 2.999999999999997
  endloop
endfacet
facet normal -9.34113897343991e-16 -3.5249581031847174e-17 1.0
  outer loop
    vertex 3.2722442096726616e-14 -3.0 3.0
    vertex -8.299999999999976 -7.9999999999999885 2.999999999999997
    vertex 1.3565537226728082e-14 -12.999999999999998 3.0
  endloop
endfacet
facet normal -0.9238795325112863 0.3826834323650907 -8.43401479116871e-16
  outer loop
    vertex -8.35792609530856 -8.439992376674274 2.9999999999999964
    vertex -8.527756813566432 -8.849999999999987 -7.049916206369744e-16
    vertex -8.527756813566432 -8.849999999999987 2.9999999999999964
  endloop
endfacet
facet normal -0.9238795325112863 0.3826834323650907 -8.43401479116871e-16
  outer loop
    vertex -8.527756813566432 -8.849999999999987 -7.049916206369744e-16
    vertex -8.35792609530856 -8.439992376674274 2.9999999999999964
    vertex -8.35792609530856 -8.439992376674274 -7.049916206369744e-16
  endloop
endfacet
facet normal -0.9914448613738103 0.130526192220053 -9.050812720924493e-16
  outer loop
    vertex -8.299999999999976 -7.9999999999999885 2.999999999999997
    vertex -8.35792609530856 -8.439992376674274 -7.049916206369744e-16
    vertex -8.35792609530856 -8.439992376674274 2.9999999999999964
  endloop
endfacet
facet normal -0.9914448613738103 0.130526192220053 -9.050812720924493e-16
  outer loop
    vertex -8.35792609530856 -8.439992376674274 -7.049916206369744e-16
    vertex -8.299999999999976 -7.9999999999999885 2.999999999999997
    vertex -8.299999999999976 -7.9999999999999885 -7.049916206369744e-16
  endloop
endfacet
facet normal -0.9914448613738108 -0.13052619222004946 -9.050812720924493e-16
  outer loop
    vertex -8.35792609530856 -7.560007623325702 2.9999999999999964
    vertex -8.299999999999976 -7.9999999999999885 -7.049916206369744e-16
    vertex -8.299999999999976 -7.9999999999999885 2.999999999999997
  endloop
endfacet
facet normal -0.9914448613738108 -0.13052619222004946 -9.050812720924493e-16
  outer loop
    vertex -8.299999999999976 -7.9999999999999885 -7.049916206369744e-16
    vertex -8.35792609530856 -7.560007623325702 2.9999999999999964
    vertex -8.35792609530856 -7.560007623325702 -7.049916206369744e-16
  endloop
endfacet
facet normal -0.9238795325112875 -0.38268343236508806 -8.43401479116871e-16
  outer loop
    vertex -8.527756813566429 -7.149999999999987 2.9999999999999964
    vertex -8.35792609530856 -7.560007623325702 -7.049916206369744e-16
    vertex -8.35792609530856 -7.560007623325702 2.9999999999999964
  endloop
endfacet
facet normal -0.9238795325112875 -0.38268343236508806 -8.43401479116871e-16
  outer loop
    vertex -8.35792609530856 -7.560007623325702 -7.049916206369744e-16
    vertex -8.527756813566429 -7.149999999999987 2.9999999999999964
    vertex -8.527756813566429 -7.149999999999987 -7.049916206369744e-16
  endloop
endfacet
facet normal -0.6087614290087194 -0.7933533402912362 -5.557329409167103e-16
  outer loop
    vertex -8.797918471982843 -6.797918471982856 2.9999999999999964
    vertex -9.149999999999975 -6.527756813566441 -1.4099832412739487e-15
    vertex -8.797918471982843 -6.797918471982856 -1.4099832412739487e-15
  endloop
endfacet
facet normal -0.6087614290087194 -0.7933533402912362 -5.557329409167103e-16
  outer loop
    vertex -9.149999999999975 -6.527756813566441 -1.4099832412739487e-15
    vertex -8.797918471982843 -6.797918471982856 2.9999999999999964
    vertex -9.149999999999975 -6.527756813566441 2.999999999999996
  endloop
endfacet
facet normal -0.7933533402912362 -0.6087614290087194 -7.242452691263226e-16
  outer loop
    vertex -8.797918471982843 -6.797918471982856 2.9999999999999964
    vertex -8.527756813566429 -7.149999999999987 -7.049916206369744e-16
    vertex -8.527756813566429 -7.149999999999987 2.9999999999999964
  endloop
endfacet
facet normal -0.7933533402912362 -0.6087614290087194 -7.242452691263226e-16
  outer loop
    vertex -8.527756813566429 -7.149999999999987 -7.049916206369744e-16
    vertex -8.797918471982843 -6.797918471982856 2.9999999999999964
    vertex -8.797918471982843 -6.797918471982856 -1.4099832412739487e-15
  endloop
endfacet
facet normal -0.3826834323650907 -0.9238795325112863 -3.493483311757363e-16
  outer loop
    vertex -9.149999999999975 -6.527756813566441 -1.4099832412739487e-15
    vertex -9.560007623325689 -6.35792609530857 2.9999999999999956
    vertex -9.560007623325689 -6.35792609530857 -2.114974861910923e-15
  endloop
endfacet
facet normal -0.3826834323650907 -0.9238795325112863 -3.493483311757363e-16
  outer loop
    vertex -9.560007623325689 -6.35792609530857 2.9999999999999956
    vertex -9.149999999999975 -6.527756813566441 -1.4099832412739487e-15
    vertex -9.149999999999975 -6.527756813566441 2.999999999999996
  endloop
endfacet
facet normal 0.130526192220053 0.9914448613738103 1.1915620999054833e-16
  outer loop
    vertex -10.439992376674263 -9.6420739046914 2.9999999999999947
    vertex -9.999999999999979 -9.699999999999985 -2.114974861910923e-15
    vertex -10.439992376674263 -9.6420739046914 -2.8199664825478975e-15
  endloop
endfacet
facet normal 0.130526192220053 0.9914448613738103 1.1915620999054833e-16
  outer loop
    vertex -9.999999999999979 -9.699999999999985 -2.114974861910923e-15
    vertex -10.439992376674263 -9.6420739046914 2.9999999999999947
    vertex -9.999999999999979 -9.699999999999985 2.999999999999995
  endloop
endfacet
facet normal 0.3826834323650919 0.923879532511286 3.4934833117573733e-16
  outer loop
    vertex -10.849999999999977 -9.472243186433529 2.9999999999999947
    vertex -10.439992376674263 -9.6420739046914 -2.8199664825478975e-15
    vertex -10.849999999999977 -9.472243186433529 -2.8199664825478975e-15
  endloop
endfacet
facet normal 0.3826834323650919 0.923879532511286 3.4934833117573733e-16
  outer loop
    vertex -10.439992376674263 -9.6420739046914 -2.8199664825478975e-15
    vertex -10.849999999999977 -9.472243186433529 2.9999999999999947
    vertex -10.439992376674263 -9.6420739046914 2.9999999999999947
  endloop
endfacet
facet normal -0.13052619222004985 0.9914448613738107 -1.1915620999054803e-16
  outer loop
    vertex -9.999999999999979 -9.699999999999985 2.999999999999995
    vertex -9.560007623325694 -9.642073904691403 -2.114974861910923e-15
    vertex -9.999999999999979 -9.699999999999985 -2.114974861910923e-15
  endloop
endfacet
facet normal -0.13052619222004985 0.9914448613738107 -1.1915620999054803e-16
  outer loop
    vertex -9.560007623325694 -9.642073904691403 -2.114974861910923e-15
    vertex -9.999999999999979 -9.699999999999985 2.999999999999995
    vertex -9.560007623325694 -9.642073904691403 2.9999999999999956
  endloop
endfacet
facet normal 0.6087614290087214 0.7933533402912346 5.557329409167122e-16
  outer loop
    vertex -11.202081528017109 -9.202081528017114 2.9999999999999942
    vertex -10.849999999999977 -9.472243186433529 -2.8199664825478975e-15
    vertex -11.202081528017109 -9.202081528017114 -3.524958103184872e-15
  endloop
endfacet
facet normal 0.6087614290087214 0.7933533402912346 5.557329409167122e-16
  outer loop
    vertex -10.849999999999977 -9.472243186433529 -2.8199664825478975e-15
    vertex -11.202081528017109 -9.202081528017114 2.9999999999999942
    vertex -10.849999999999977 -9.472243186433529 2.9999999999999947
  endloop
endfacet
facet normal 0.7933533402912349 0.6087614290087209 7.242452691263214e-16
  outer loop
    vertex -11.472243186433523 -8.849999999999984 -3.524958103184872e-15
    vertex -11.202081528017109 -9.202081528017114 2.9999999999999942
    vertex -11.202081528017109 -9.202081528017114 -3.524958103184872e-15
  endloop
endfacet
facet normal 0.7933533402912349 0.6087614290087209 7.242452691263214e-16
  outer loop
    vertex -11.202081528017109 -9.202081528017114 2.9999999999999942
    vertex -11.472243186433523 -8.849999999999984 -3.524958103184872e-15
    vertex -11.472243186433523 -8.849999999999984 2.999999999999994
  endloop
endfacet
facet normal 0.923879532511288 0.3826834323650869 8.434014791168713e-16
  outer loop
    vertex -11.642073904691392 -8.439992376674267 -3.524958103184872e-15
    vertex -11.472243186433523 -8.849999999999984 2.999999999999994
    vertex -11.472243186433523 -8.849999999999984 -3.524958103184872e-15
  endloop
endfacet
facet normal 0.923879532511288 0.3826834323650869 8.434014791168713e-16
  outer loop
    vertex -11.472243186433523 -8.849999999999984 2.999999999999994
    vertex -11.642073904691392 -8.439992376674267 -3.524958103184872e-15
    vertex -11.642073904691392 -8.439992376674267 2.999999999999994
  endloop
endfacet
facet normal 0.9914448613738107 0.13052619222004985 9.050812720924493e-16
  outer loop
    vertex -11.699999999999976 -7.999999999999982 -4.229949723821846e-15
    vertex -11.642073904691392 -8.439992376674267 2.999999999999994
    vertex -11.642073904691392 -8.439992376674267 -3.524958103184872e-15
  endloop
endfacet
facet normal 0.9914448613738107 0.13052619222004985 9.050812720924493e-16
  outer loop
    vertex -11.642073904691392 -8.439992376674267 2.999999999999994
    vertex -11.699999999999976 -7.999999999999982 -4.229949723821846e-15
    vertex -11.699999999999976 -7.999999999999982 2.9999999999999933
  endloop
endfacet
facet normal 0.9914448613738102 -0.1305261922200534 9.05081272092449e-16
  outer loop
    vertex -11.642073904691392 -7.560007623325698 -3.524958103184872e-15
    vertex -11.699999999999976 -7.999999999999982 2.9999999999999933
    vertex -11.699999999999976 -7.999999999999982 -4.229949723821846e-15
  endloop
endfacet
facet normal 0.9914448613738102 -0.1305261922200534 9.05081272092449e-16
  outer loop
    vertex -11.699999999999976 -7.999999999999982 2.9999999999999933
    vertex -11.642073904691392 -7.560007623325698 -3.524958103184872e-15
    vertex -11.642073904691392 -7.560007623325698 2.999999999999994
  endloop
endfacet
facet normal -0.1305261922200534 -0.9914448613738102 -1.191562099905487e-16
  outer loop
    vertex -9.560007623325689 -6.35792609530857 2.9999999999999956
    vertex -9.999999999999973 -6.299999999999986 -2.114974861910923e-15
    vertex -9.560007623325689 -6.35792609530857 -2.114974861910923e-15
  endloop
endfacet
facet normal -0.1305261922200534 -0.9914448613738102 -1.191562099905487e-16
  outer loop
    vertex -9.999999999999973 -6.299999999999986 -2.114974861910923e-15
    vertex -9.560007623325689 -6.35792609530857 2.9999999999999956
    vertex -9.999999999999973 -6.299999999999986 2.999999999999995
  endloop
endfacet
facet normal 0.13052619222004946 -0.9914448613738108 1.1915620999054766e-16
  outer loop
    vertex -9.999999999999973 -6.299999999999986 -2.114974861910923e-15
    vertex -10.43999237667426 -6.357926095308569 2.9999999999999947
    vertex -10.43999237667426 -6.357926095308569 -2.8199664825478975e-15
  endloop
endfacet
facet normal 0.13052619222004946 -0.9914448613738108 1.1915620999054766e-16
  outer loop
    vertex -10.43999237667426 -6.357926095308569 2.9999999999999947
    vertex -9.999999999999973 -6.299999999999986 -2.114974861910923e-15
    vertex -9.999999999999973 -6.299999999999986 2.999999999999995
  endloop
endfacet
facet normal 0.38268343236508806 -0.9238795325112875 3.493483311757362e-16
  outer loop
    vertex -10.43999237667426 -6.357926095308569 2.9999999999999947
    vertex -10.849999999999975 -6.527756813566438 -2.8199664825478975e-15
    vertex -10.43999237667426 -6.357926095308569 -2.8199664825478975e-15
  endloop
endfacet
facet normal 0.38268343236508806 -0.9238795325112875 3.493483311757362e-16
  outer loop
    vertex -10.849999999999975 -6.527756813566438 -2.8199664825478975e-15
    vertex -10.43999237667426 -6.357926095308569 2.9999999999999947
    vertex -10.849999999999975 -6.527756813566438 2.9999999999999947
  endloop
endfacet
facet normal 0.6087614290087194 -0.7933533402912362 5.557329409167125e-16
  outer loop
    vertex -10.849999999999975 -6.527756813566438 -2.8199664825478975e-15
    vertex -11.202081528017105 -6.797918471982853 2.9999999999999942
    vertex -11.202081528017105 -6.797918471982853 -3.524958103184872e-15
  endloop
endfacet
facet normal 0.6087614290087194 -0.7933533402912362 5.557329409167125e-16
  outer loop
    vertex -11.202081528017105 -6.797918471982853 2.9999999999999942
    vertex -10.849999999999975 -6.527756813566438 -2.8199664825478975e-15
    vertex -10.849999999999975 -6.527756813566438 2.9999999999999947
  endloop
endfacet
facet normal 0.7933533402912349 -0.6087614290087209 7.24245269126323e-16
  outer loop
    vertex -11.202081528017105 -6.797918471982853 -3.524958103184872e-15
    vertex -11.47224318643352 -7.149999999999983 2.999999999999994
    vertex -11.47224318643352 -7.149999999999983 -3.524958103184872e-15
  endloop
endfacet
facet normal 0.7933533402912349 -0.6087614290087209 7.24245269126323e-16
  outer loop
    vertex -11.47224318643352 -7.149999999999983 2.999999999999994
    vertex -11.202081528017105 -6.797918471982853 -3.524958103184872e-15
    vertex -11.202081528017105 -6.797918471982853 2.9999999999999942
  endloop
endfacet
facet normal 0.923879532511287 -0.3826834323650897 8.434014791168715e-16
  outer loop
    vertex -11.47224318643352 -7.149999999999983 -3.524958103184872e-15
    vertex -11.642073904691392 -7.560007623325698 2.999999999999994
    vertex -11.642073904691392 -7.560007623325698 -3.524958103184872e-15
  endloop
endfacet
facet normal 0.923879532511287 -0.3826834323650897 8.434014791168715e-16
  outer loop
    vertex -11.642073904691392 -7.560007623325698 2.999999999999994
    vertex -11.47224318643352 -7.149999999999983 -3.524958103184872e-15
    vertex -11.47224318643352 -7.149999999999983 2.999999999999994
  endloop
endfacet
facet normal -0.38268343236508806 0.9238795325112875 -3.493483311757362e-16
  outer loop
    vertex -9.560007623325694 -9.642073904691403 2.9999999999999956
    vertex -9.149999999999979 -9.472243186433532 -1.4099832412739487e-15
    vertex -9.560007623325694 -9.642073904691403 -2.114974861910923e-15
  endloop
endfacet
facet normal -0.38268343236508806 0.9238795325112875 -3.493483311757362e-16
  outer loop
    vertex -9.149999999999979 -9.472243186433532 -1.4099832412739487e-15
    vertex -9.560007623325694 -9.642073904691403 2.9999999999999956
    vertex -9.149999999999979 -9.472243186433532 2.999999999999996
  endloop
endfacet
facet normal -0.6087614290087194 0.7933533402912362 -5.557329409167125e-16
  outer loop
    vertex -9.149999999999979 -9.472243186433532 2.999999999999996
    vertex -8.797918471982848 -9.202081528017118 -1.4099832412739487e-15
    vertex -9.149999999999979 -9.472243186433532 -1.4099832412739487e-15
  endloop
endfacet
facet normal -0.6087614290087194 0.7933533402912362 -5.557329409167125e-16
  outer loop
    vertex -8.797918471982848 -9.202081528017118 -1.4099832412739487e-15
    vertex -9.149999999999979 -9.472243186433532 2.999999999999996
    vertex -8.797918471982848 -9.202081528017118 2.9999999999999964
  endloop
endfacet
facet normal -0.7933533402912335 0.608761429008723 -7.242452691263217e-16
  outer loop
    vertex -8.527756813566432 -8.849999999999987 2.9999999999999964
    vertex -8.797918471982848 -9.202081528017118 -1.4099832412739487e-15
    vertex -8.797918471982848 -9.202081528017118 2.9999999999999964
  endloop
endfacet
facet normal -0.7933533402912335 0.608761429008723 -7.242452691263217e-16
  outer loop
    vertex -8.797918471982848 -9.202081528017118 -1.4099832412739487e-15
    vertex -8.527756813566432 -8.849999999999987 2.9999999999999964
    vertex -8.527756813566432 -8.849999999999987 -7.049916206369744e-16
  endloop
endfacet
facet normal 9.689174621234223e-16 -4.422764933370788e-31 -1.0
  outer loop
    vertex -19.999999999999964 2.7847169015160488e-14 22.999999999999982
    vertex -46.19387030894293 -2.9999999999999334 22.999999999999957
    vertex -46.19387030894293 6.55642207192386e-14 22.999999999999957
  endloop
endfacet
facet normal 9.689174621234223e-16 -4.422764933370788e-31 -1.0
  outer loop
    vertex -46.19387030894293 -2.9999999999999334 22.999999999999957
    vertex -19.999999999999964 2.7847169015160488e-14 22.999999999999982
    vertex -19.999999999999964 -2.999999999999971 22.999999999999982
  endloop
endfacet
facet normal -1.0 1.4373697562412125e-15 1.4099832412739483e-16
  outer loop
    vertex -19.999999999999964 -2.999999999999971 22.999999999999982
    vertex -19.999999999999968 2.7847169015160488e-14 2.9999999999999813
    vertex -19.999999999999968 -2.9999999999999716 2.9999999999999813
  endloop
endfacet
facet normal -1.0 1.4373697562412125e-15 1.4099832412739483e-16
  outer loop
    vertex -19.999999999999968 2.7847169015160488e-14 2.9999999999999813
    vertex -19.999999999999964 -2.999999999999971 22.999999999999982
    vertex -19.999999999999964 2.7847169015160488e-14 22.999999999999982
  endloop
endfacet
facet normal 9.259580420734843e-16 2.610500081303055e-17 -1.0
  outer loop
    vertex -19.999999999999968 2.7847169015160488e-14 -1.8179795830900256e-14
    vertex -11.642073904691392 -7.560007623325698 -3.524958103184872e-15
    vertex -11.699999999999976 -7.999999999999982 -4.229949723821846e-15
  endloop
endfacet
facet normal 9.259580420734843e-16 2.610500081303055e-17 -1.0
  outer loop
    vertex -11.642073904691392 -7.560007623325698 -3.524958103184872e-15
    vertex -19.999999999999968 2.7847169015160488e-14 -1.8179795830900256e-14
    vertex -11.47224318643352 -7.149999999999983 -3.524958103184872e-15
  endloop
endfacet
facet normal 9.259580420734843e-16 2.610500081303055e-17 -1.0
  outer loop
    vertex -11.47224318643352 -7.149999999999983 -3.524958103184872e-15
    vertex -19.999999999999968 2.7847169015160488e-14 -1.8179795830900256e-14
    vertex -11.202081528017105 -6.797918471982853 -3.524958103184872e-15
  endloop
endfacet
facet normal 9.259580420734843e-16 2.610500081303055e-17 -1.0
  outer loop
    vertex -11.202081528017105 -6.797918471982853 -3.524958103184872e-15
    vertex -19.999999999999968 2.7847169015160488e-14 -1.8179795830900256e-14
    vertex -10.849999999999975 -6.527756813566438 -2.8199664825478975e-15
  endloop
endfacet
facet normal 9.259580420734843e-16 2.610500081303055e-17 -1.0
  outer loop
    vertex -10.849999999999975 -6.527756813566438 -2.8199664825478975e-15
    vertex -19.999999999999968 2.7847169015160488e-14 -1.8179795830900256e-14
    vertex 0.0 0.0 0.0
  endloop
endfacet
facet normal 9.259580420734843e-16 2.610500081303055e-17 -1.0
  outer loop
    vertex -10.849999999999975 -6.527756813566438 -2.8199664825478975e-15
    vertex 0.0 0.0 0.0
    vertex -10.43999237667426 -6.357926095308569 -2.8199664825478975e-15
  endloop
endfacet
facet normal 9.259580420734843e-16 2.610500081303055e-17 -1.0
  outer loop
    vertex -10.43999237667426 -6.357926095308569 -2.8199664825478975e-15
    vertex 0.0 0.0 0.0
    vertex -9.999999999999973 -6.299999999999986 -2.114974861910923e-15
  endloop
endfacet
facet normal 9.259580420734843e-16 2.610500081303055e-17 -1.0
  outer loop
    vertex -9.999999999999973 -6.299999999999986 -2.114974861910923e-15
    vertex 0.0 0.0 0.0
    vertex -9.560007623325689 -6.35792609530857 -2.114974861910923e-15
  endloop
endfacet
facet normal 9.259580420734843e-16 2.610500081303055e-17 -1.0
  outer loop
    vertex -9.560007623325689 -6.35792609530857 -2.114974861910923e-15
    vertex 0.0 0.0 0.0
    vertex -9.149999999999975 -6.527756813566441 -1.4099832412739487e-15
  endloop
endfacet
facet normal 9.259580420734843e-16 2.610500081303055e-17 -1.0
  outer loop
    vertex -9.149999999999975 -6.527756813566441 -1.4099832412739487e-15
    vertex 0.0 0.0 0.0
    vertex -8.797918471982843 -6.797918471982856 -1.4099832412739487e-15
  endloop
endfacet
facet normal 9.259580420734843e-16 2.610500081303055e-17 -1.0
  outer loop
    vertex -8.797918471982843 -6.797918471982856 -1.4099832412739487e-15
    vertex 0.0 0.0 0.0
    vertex -8.527756813566429 -7.149999999999987 -7.049916206369744e-16
  endloop
endfacet
facet normal 9.259580420734843e-16 2.610500081303055e-17 -1.0
  outer loop
    vertex -8.527756813566429 -7.149999999999987 -7.049916206369744e-16
    vertex 0.0 0.0 0.0
    vertex -8.35792609530856 -7.560007623325702 -7.049916206369744e-16
  endloop
endfacet
facet normal 9.259580420734843e-16 2.610500081303055e-17 -1.0
  outer loop
    vertex -8.35792609530856 -7.560007623325702 -7.049916206369744e-16
    vertex 0.0 0.0 0.0
    vertex -8.299999999999976 -7.9999999999999885 -7.049916206369744e-16
  endloop
endfacet
facet normal 9.259580420734843e-16 2.610500081303055e-17 -1.0
  outer loop
    vertex -19.999999999999986 -12.99999999999997 -1.8858525852039063e-14
    vertex -10.439992376674263 -9.6420739046914 -2.8199664825478975e-15
    vertex 0.0 -12.999999999999998 0.0
  endloop
endfacet
facet normal 9.259580420734843e-16 2.610500081303055e-17 -1.0
  outer loop
    vertex -10.439992376674263 -9.6420739046914 -2.8199664825478975e-15
    vertex -19.999999999999986 -12.99999999999997 -1.8858525852039063e-14
    vertex -10.849999999999977 -9.472243186433529 -2.8199664825478975e-15
  endloop
endfacet
facet normal 9.259580420734843e-16 2.610500081303055e-17 -1.0
  outer loop
    vertex -10.849999999999977 -9.472243186433529 -2.8199664825478975e-15
    vertex -19.999999999999986 -12.99999999999997 -1.8858525852039063e-14
    vertex -11.202081528017109 -9.202081528017114 -3.524958103184872e-15
  endloop
endfacet
facet normal 9.259580420734843e-16 2.610500081303055e-17 -1.0
  outer loop
    vertex -11.202081528017109 -9.202081528017114 -3.524958103184872e-15
    vertex -19.999999999999986 -12.99999999999997 -1.8858525852039063e-14
    vertex -19.999999999999968 2.7847169015160488e-14 -1.8179795830900256e-14
  endloop
endfacet
facet normal 9.259580420734843e-16 2.610500081303055e-17 -1.0
  outer loop
    vertex -11.202081528017109 -9.202081528017114 -3.524958103184872e-15
    vertex -19.999999999999968 2.7847169015160488e-14 -1.8179795830900256e-14
    vertex -11.472243186433523 -8.849999999999984 -3.524958103184872e-15
  endloop
endfacet
facet normal 9.259580420734843e-16 2.610500081303055e-17 -1.0
  outer loop
    vertex -11.472243186433523 -8.849999999999984 -3.524958103184872e-15
    vertex -19.999999999999968 2.7847169015160488e-14 -1.8179795830900256e-14
    vertex -11.642073904691392 -8.439992376674267 -3.524958103184872e-15
  endloop
endfacet
facet normal 9.259580420734843e-16 2.610500081303055e-17 -1.0
  outer loop
    vertex -11.642073904691392 -8.439992376674267 -3.524958103184872e-15
    vertex -19.999999999999968 2.7847169015160488e-14 -1.8179795830900256e-14
    vertex -11.699999999999976 -7.999999999999982 -4.229949723821846e-15
  endloop
endfacet
facet normal 9.259580420734843e-16 2.610500081303055e-17 -1.0
  outer loop
    vertex 0.0 -12.999999999999998 0.0
    vertex -10.439992376674263 -9.6420739046914 -2.8199664825478975e-15
    vertex -9.999999999999979 -9.699999999999985 -2.114974861910923e-15
  endloop
endfacet
facet normal 9.259580420734843e-16 2.610500081303055e-17 -1.0
  outer loop
    vertex 0.0 -12.999999999999998 0.0
    vertex -9.999999999999979 -9.699999999999985 -2.114974861910923e-15
    vertex -9.560007623325694 -9.642073904691403 -2.114974861910923e-15
  endloop
endfacet
facet normal 9.259580420734843e-16 2.610500081303055e-17 -1.0
  outer loop
    vertex 0.0 -12.999999999999998 0.0
    vertex -9.560007623325694 -9.642073904691403 -2.114974861910923e-15
    vertex -9.149999999999979 -9.472243186433532 -1.4099832412739487e-15
  endloop
endfacet
facet normal 9.259580420734843e-16 2.610500081303055e-17 -1.0
  outer loop
    vertex 0.0 -12.999999999999998 0.0
    vertex -9.149999999999979 -9.472243186433532 -1.4099832412739487e-15
    vertex -8.797918471982848 -9.202081528017118 -1.4099832412739487e-15
  endloop
endfacet
facet normal 9.259580420734843e-16 2.610500081303055e-17 -1.0
  outer loop
    vertex 0.0 -12.999999999999998 0.0
    vertex -8.797918471982848 -9.202081528017118 -1.4099832412739487e-15
    vertex -8.527756813566432 -8.849999999999987 -7.049916206369744e-16
  endloop
endfacet
facet normal 9.259580420734843e-16 2.610500081303055e-17 -1.0
  outer loop
    vertex 0.0 -12.999999999999998 0.0
    vertex -8.527756813566432 -8.849999999999987 -7.049916206369744e-16
    vertex -8.35792609530856 -8.439992376674274 -7.049916206369744e-16
  endloop
endfacet
facet normal 9.259580420734843e-16 2.610500081303055e-17 -1.0
  outer loop
    vertex 0.0 -12.999999999999998 0.0
    vertex -8.35792609530856 -8.439992376674274 -7.049916206369744e-16
    vertex -8.299999999999976 -7.9999999999999885 -7.049916206369744e-16
  endloop
endfacet
facet normal 9.259580420734843e-16 2.610500081303055e-17 -1.0
  outer loop
    vertex 0.0 -12.999999999999998 0.0
    vertex -8.299999999999976 -7.9999999999999885 -7.049916206369744e-16
    vertex 0.0 0.0 0.0
  endloop
endfacet
facet normal -1.4099832412739491e-15 -1.0 3.310660050093617e-30
  outer loop
    vertex 0.0 -12.999999999999998 0.0
    vertex -19.999999999999986 -12.99999999999997 2.999999999999981
    vertex -19.999999999999986 -12.99999999999997 -1.8858525852039063e-14
  endloop
endfacet
facet normal -1.4099832412739491e-15 -1.0 3.310660050093617e-30
  outer loop
    vertex -19.999999999999986 -12.99999999999997 2.999999999999981
    vertex 0.0 -12.999999999999998 0.0
    vertex 1.3565537226728082e-14 -12.999999999999998 3.0
  endloop
endfacet
facet normal -9.767413602499418e-16 1.2007516069173486e-30 1.0
  outer loop
    vertex 6.371679405695528e-14 -3.0 36.0
    vertex -46.19387030894277 118.00000000000006 35.99999999999996
    vertex -46.19387030894295 -2.9999999999999267 35.99999999999996
  endloop
endfacet
facet normal -9.767413602499418e-16 1.2007516069173486e-30 1.0
  outer loop
    vertex -46.19387030894277 118.00000000000006 35.99999999999996
    vertex 6.371679405695528e-14 -3.0 36.0
    vertex 1.858315835372954e-13 117.99999999999999 36.0
  endloop
endfacet
facet normal 9.156950252343203e-16 -6.086999395089397e-30 -1.0
  outer loop
    vertex 2.816793639751064e-13 117.99999999999999 -19.999999999999996
    vertex -46.193870308942714 115.00000000000006 -20.00000000000004
    vertex -46.19387030894272 118.00000000000006 -20.00000000000004
  endloop
endfacet
facet normal 9.156950252343203e-16 -6.086999395089397e-30 -1.0
  outer loop
    vertex -46.193870308942714 115.00000000000006 -20.00000000000004
    vertex 2.816793639751064e-13 117.99999999999999 -19.999999999999996
    vertex 2.346064488579728e-13 114.99999999999999 -19.999999999999996
  endloop
endfacet
facet normal -1.4651120403749143e-15 -1.0 -2.432023401424986e-30
  outer loop
    vertex 2.346064488579728e-13 114.99999999999999 -19.999999999999996
    vertex -9.560007623325449 115.00000000000004 -11.642073904691422
    vertex -9.999999999999734 115.00000000000004 -11.700000000000005
  endloop
endfacet
facet normal -1.4651120403749143e-15 -1.0 -2.432023401424986e-30
  outer loop
    vertex -9.560007623325449 115.00000000000004 -11.642073904691422
    vertex 2.346064488579728e-13 114.99999999999999 -19.999999999999996
    vertex -9.149999999999734 115.00000000000004 -11.472243186433552
  endloop
endfacet
facet normal -1.4651120403749143e-15 -1.0 -2.432023401424986e-30
  outer loop
    vertex -9.149999999999734 115.00000000000004 -11.472243186433552
    vertex 2.346064488579728e-13 114.99999999999999 -19.999999999999996
    vertex -8.797918471982603 115.00000000000004 -11.202081528017136
  endloop
endfacet
facet normal -1.4651120403749143e-15 -1.0 -2.432023401424986e-30
  outer loop
    vertex -8.797918471982603 115.00000000000004 -11.202081528017136
    vertex 2.346064488579728e-13 114.99999999999999 -19.999999999999996
    vertex -8.527756813566189 115.00000000000004 -10.850000000000005
  endloop
endfacet
facet normal -1.4651120403749143e-15 -1.0 -2.432023401424986e-30
  outer loop
    vertex -8.527756813566189 115.00000000000004 -10.850000000000005
    vertex 2.346064488579728e-13 114.99999999999999 -19.999999999999996
    vertex -8.357926095308319 115.00000000000004 -10.43999237667429
  endloop
endfacet
facet normal -1.4651120403749143e-15 -1.0 -2.432023401424986e-30
  outer loop
    vertex -8.357926095308319 115.00000000000004 -10.43999237667429
    vertex 2.346064488579728e-13 114.99999999999999 -19.999999999999996
    vertex 1.1468256066333848e-13 114.99999999999999 33.0
  endloop
endfacet
facet normal -1.4651120403749143e-15 -1.0 -2.432023401424986e-30
  outer loop
    vertex -8.357926095308319 115.00000000000004 -10.43999237667429
    vertex 1.1468256066333848e-13 114.99999999999999 33.0
    vertex -8.299999999999736 115.00000000000004 -10.000000000000004
  endloop
endfacet
facet normal -1.4651120403749143e-15 -1.0 -2.432023401424986e-30
  outer loop
    vertex -8.299999999999736 115.00000000000004 -10.000000000000004
    vertex 1.1468256066333848e-13 114.99999999999999 33.0
    vertex -8.357926095308319 115.00000000000004 -9.56000762332572
  endloop
endfacet
facet normal -1.4651120403749143e-15 -1.0 -2.432023401424986e-30
  outer loop
    vertex -8.357926095308319 115.00000000000004 -9.56000762332572
    vertex 1.1468256066333848e-13 114.99999999999999 33.0
    vertex -8.527756813566189 115.00000000000004 -9.150000000000004
  endloop
endfacet
facet normal -1.4651120403749143e-15 -1.0 -2.432023401424986e-30
  outer loop
    vertex -8.527756813566189 115.00000000000004 -9.150000000000004
    vertex 1.1468256066333848e-13 114.99999999999999 33.0
    vertex -8.797918471982603 115.00000000000004 -8.797918471982875
  endloop
endfacet
facet normal -1.4651120403749143e-15 -1.0 -2.432023401424986e-30
  outer loop
    vertex -8.797918471982603 115.00000000000004 -8.797918471982875
    vertex 1.1468256066333848e-13 114.99999999999999 33.0
    vertex -9.149999999999736 115.00000000000004 -8.52775681356646
  endloop
endfacet
facet normal -1.4651120403749143e-15 -1.0 -2.432023401424986e-30
  outer loop
    vertex -9.149999999999736 115.00000000000004 -8.52775681356646
    vertex 1.1468256066333848e-13 114.99999999999999 33.0
    vertex -9.560007623325449 115.00000000000004 -8.357926095308589
  endloop
endfacet
facet normal -1.4651120403749143e-15 -1.0 -2.432023401424986e-30
  outer loop
    vertex -9.560007623325449 115.00000000000004 -8.357926095308589
    vertex 1.1468256066333848e-13 114.99999999999999 33.0
    vertex -9.999999999999737 115.00000000000004 -8.300000000000006
  endloop
endfacet
facet normal -1.4651120403749143e-15 -1.0 -2.432023401424986e-30
  outer loop
    vertex -9.999999999999737 115.00000000000004 -8.300000000000006
    vertex 1.1468256066333848e-13 114.99999999999999 33.0
    vertex -46.19387030894277 115.00000000000006 32.99999999999996
  endloop
endfacet
facet normal -1.4651120403749143e-15 -1.0 -2.432023401424986e-30
  outer loop
    vertex -46.193870308942714 115.00000000000006 -20.00000000000004
    vertex -11.202081528016866 115.00000000000004 -11.202081528017137
    vertex -46.19387030894277 115.00000000000006 32.99999999999996
  endloop
endfacet
facet normal -1.4651120403749143e-15 -1.0 -2.432023401424986e-30
  outer loop
    vertex -11.202081528016866 115.00000000000004 -11.202081528017137
    vertex -46.193870308942714 115.00000000000006 -20.00000000000004
    vertex 2.346064488579728e-13 114.99999999999999 -19.999999999999996
  endloop
endfacet
facet normal -1.4651120403749143e-15 -1.0 -2.432023401424986e-30
  outer loop
    vertex -11.202081528016866 115.00000000000004 -11.202081528017137
    vertex 2.346064488579728e-13 114.99999999999999 -19.999999999999996
    vertex -10.849999999999735 115.00000000000004 -11.472243186433552
  endloop
endfacet
facet normal -1.4651120403749143e-15 -1.0 -2.432023401424986e-30
  outer loop
    vertex -10.849999999999735 115.00000000000004 -11.472243186433552
    vertex 2.346064488579728e-13 114.99999999999999 -19.999999999999996
    vertex -10.439992376674018 115.00000000000004 -11.642073904691422
  endloop
endfacet
facet normal -1.4651120403749143e-15 -1.0 -2.432023401424986e-30
  outer loop
    vertex -10.439992376674018 115.00000000000004 -11.642073904691422
    vertex 2.346064488579728e-13 114.99999999999999 -19.999999999999996
    vertex -9.999999999999734 115.00000000000004 -11.700000000000005
  endloop
endfacet
facet normal -1.4651120403749143e-15 -1.0 -2.432023401424986e-30
  outer loop
    vertex -46.19387030894277 115.00000000000006 32.99999999999996
    vertex -11.202081528016866 115.00000000000004 -11.202081528017137
    vertex -11.47224318643328 115.00000000000004 -10.850000000000007
  endloop
endfacet
facet normal -1.4651120403749143e-15 -1.0 -2.432023401424986e-30
  outer loop
    vertex -46.19387030894277 115.00000000000006 32.99999999999996
    vertex -11.47224318643328 115.00000000000004 -10.850000000000007
    vertex -11.642073904691152 115.00000000000004 -10.439992376674292
  endloop
endfacet
facet normal -1.4651120403749143e-15 -1.0 -2.432023401424986e-30
  outer loop
    vertex -46.19387030894277 115.00000000000006 32.99999999999996
    vertex -11.642073904691152 115.00000000000004 -10.439992376674292
    vertex -11.699999999999735 115.00000000000004 -10.000000000000007
  endloop
endfacet
facet normal -1.4651120403749143e-15 -1.0 -2.432023401424986e-30
  outer loop
    vertex -46.19387030894277 115.00000000000006 32.99999999999996
    vertex -11.699999999999735 115.00000000000004 -10.000000000000007
    vertex -11.642073904691152 115.00000000000004 -9.56000762332572
  endloop
endfacet
facet normal -1.4651120403749143e-15 -1.0 -2.432023401424986e-30
  outer loop
    vertex -46.19387030894277 115.00000000000006 32.99999999999996
    vertex -11.642073904691152 115.00000000000004 -9.56000762332572
    vertex -11.47224318643328 115.00000000000004 -9.150000000000006
  endloop
endfacet
facet normal -1.4651120403749143e-15 -1.0 -2.432023401424986e-30
  outer loop
    vertex -46.19387030894277 115.00000000000006 32.99999999999996
    vertex -11.47224318643328 115.00000000000004 -9.150000000000006
    vertex -11.202081528016866 115.00000000000004 -8.797918471982875
  endloop
endfacet
facet normal -1.4651120403749143e-15 -1.0 -2.432023401424986e-30
  outer loop
    vertex -46.19387030894277 115.00000000000006 32.99999999999996
    vertex -11.202081528016866 115.00000000000004 -8.797918471982875
    vertex -10.849999999999735 115.00000000000004 -8.52775681356646
  endloop
endfacet
facet normal -1.4651120403749143e-15 -1.0 -2.432023401424986e-30
  outer loop
    vertex -46.19387030894277 115.00000000000006 32.99999999999996
    vertex -10.849999999999735 115.00000000000004 -8.52775681356646
    vertex -10.43999237667402 115.00000000000004 -8.357926095308589
  endloop
endfacet
facet normal -1.4651120403749143e-15 -1.0 -2.432023401424986e-30
  outer loop
    vertex -46.19387030894277 115.00000000000006 32.99999999999996
    vertex -10.43999237667402 115.00000000000004 -8.357926095308589
    vertex -9.999999999999737 115.00000000000004 -8.300000000000006
  endloop
endfacet
facet normal 9.767413602499426e-16 -1.0349906388175299e-30 -1.0
  outer loop
    vertex -46.19387030894277 115.00000000000006 32.99999999999996
    vertex 4.5757331295853415e-14 0.0 33.0
    vertex -46.19387030894294 6.637643872314281e-14 32.99999999999996
  endloop
endfacet
facet normal 9.767413602499426e-16 -1.0349906388175299e-30 -1.0
  outer loop
    vertex 4.5757331295853415e-14 0.0 33.0
    vertex -46.19387030894277 115.00000000000006 32.99999999999996
    vertex 1.1468256066333848e-13 114.99999999999999 33.0
  endloop
endfacet
facet normal 1.4252374307775855e-15 1.0 -1.6562146245858637e-17
  outer loop
    vertex -46.19387030894294 6.637643872314281e-14 32.99999999999996
    vertex -19.999999999999964 2.7847169015160488e-14 22.999999999999982
    vertex -46.19387030894293 6.55642207192386e-14 22.999999999999957
  endloop
endfacet
facet normal 1.4252374307775855e-15 1.0 -1.6562146245858637e-17
  outer loop
    vertex -19.999999999999968 2.7847169015160488e-14 2.9999999999999813
    vertex 0.0 0.0 0.0
    vertex -19.999999999999968 2.7847169015160488e-14 -1.8179795830900256e-14
  endloop
endfacet
facet normal 1.4252374307775855e-15 1.0 -1.6562146245858637e-17
  outer loop
    vertex 0.0 0.0 0.0
    vertex -19.999999999999968 2.7847169015160488e-14 2.9999999999999813
    vertex 4.5757331295853415e-14 0.0 33.0
  endloop
endfacet
facet normal 1.4252374307775855e-15 1.0 -1.6562146245858637e-17
  outer loop
    vertex 4.5757331295853415e-14 0.0 33.0
    vertex -19.999999999999968 2.7847169015160488e-14 2.9999999999999813
    vertex -19.999999999999964 2.7847169015160488e-14 22.999999999999982
  endloop
endfacet
facet normal 1.4252374307775855e-15 1.0 -1.6562146245858637e-17
  outer loop
    vertex 4.5757331295853415e-14 0.0 33.0
    vertex -19.999999999999964 2.7847169015160488e-14 22.999999999999982
    vertex -46.19387030894294 6.637643872314281e-14 32.99999999999996
  endloop
endfacet
facet normal -1.0 1.3529472305733095e-15 4.138426822930119e-16
  outer loop
    vertex -19.999999999999968 -2.9999999999999716 2.9999999999999813
    vertex -19.999999999999986 -12.99999999999997 -1.8858525852039063e-14
    vertex -19.999999999999986 -12.99999999999997 2.999999999999981
  endloop
endfacet
facet normal -1.0 1.3529472305733095e-15 4.138426822930119e-16
  outer loop
    vertex -19.999999999999986 -12.99999999999997 -1.8858525852039063e-14
    vertex -19.999999999999968 -2.9999999999999716 2.9999999999999813
    vertex -19.999999999999968 2.7847169015160488e-14 -1.8179795830900256e-14
  endloop
endfacet
facet normal -1.0 1.3529472305733095e-15 4.138426822930119e-16
  outer loop
    vertex -19.999999999999968 2.7847169015160488e-14 -1.8179795830900256e-14
    vertex -19.999999999999968 -2.9999999999999716 2.9999999999999813
    vertex -19.999999999999968 2.7847169015160488e-14 2.9999999999999813
  endloop
endfacet
facet normal 0.9914448613738107 2.6567658717280875e-30 0.13052619222004985
  outer loop
    vertex -11.642073904691152 117.99999999999996 -10.439992376674292
    vertex -11.699999999999735 115.00000000000004 -10.000000000000007
    vertex -11.642073904691152 115.00000000000004 -10.439992376674292
  endloop
endfacet
facet normal 0.9914448613738107 2.6567658717280875e-30 0.13052619222004985
  outer loop
    vertex -11.699999999999735 115.00000000000004 -10.000000000000007
    vertex -11.642073904691152 117.99999999999996 -10.439992376674292
    vertex -11.699999999999735 117.99999999999996 -10.000000000000007
  endloop
endfacet
facet normal 0.9914448613738108 9.806868136343199e-31 -0.13052619222004946
  outer loop
    vertex -11.699999999999735 117.99999999999996 -10.000000000000007
    vertex -11.642073904691152 115.00000000000004 -9.56000762332572
    vertex -11.699999999999735 115.00000000000004 -10.000000000000007
  endloop
endfacet
facet normal 0.9914448613738108 9.806868136343199e-31 -0.13052619222004946
  outer loop
    vertex -11.642073904691152 115.00000000000004 -9.56000762332572
    vertex -11.699999999999735 117.99999999999996 -10.000000000000007
    vertex -11.642073904691152 117.99999999999996 -9.56000762332572
  endloop
endfacet
facet normal 0.9238795325112863 -7.622244301470848e-31 -0.3826834323650907
  outer loop
    vertex -11.642073904691152 117.99999999999996 -9.56000762332572
    vertex -11.47224318643328 115.00000000000004 -9.150000000000006
    vertex -11.642073904691152 115.00000000000004 -9.56000762332572
  endloop
endfacet
facet normal 0.9238795325112863 -7.622244301470848e-31 -0.3826834323650907
  outer loop
    vertex -11.47224318643328 115.00000000000004 -9.150000000000006
    vertex -11.642073904691152 117.99999999999996 -9.56000762332572
    vertex -11.47224318643328 117.99999999999996 -9.150000000000006
  endloop
endfacet
facet normal 0.7933533402912349 -2.453191338649368e-30 -0.6087614290087209
  outer loop
    vertex -11.47224318643328 117.99999999999996 -9.150000000000006
    vertex -11.202081528016866 115.00000000000004 -8.797918471982875
    vertex -11.47224318643328 115.00000000000004 -9.150000000000006
  endloop
endfacet
facet normal 0.7933533402912349 -2.453191338649368e-30 -0.6087614290087209
  outer loop
    vertex -11.202081528016866 115.00000000000004 -8.797918471982875
    vertex -11.47224318643328 117.99999999999996 -9.150000000000006
    vertex -11.202081528016866 117.99999999999996 -8.797918471982875
  endloop
endfacet
facet normal 0.6087614290087214 -3.9769773115130654e-30 -0.7933533402912346
  outer loop
    vertex -10.849999999999735 117.99999999999996 -8.52775681356646
    vertex -11.202081528016866 115.00000000000004 -8.797918471982875
    vertex -11.202081528016866 117.99999999999996 -8.797918471982875
  endloop
endfacet
facet normal 0.6087614290087214 -3.9769773115130654e-30 -0.7933533402912346
  outer loop
    vertex -11.202081528016866 115.00000000000004 -8.797918471982875
    vertex -10.849999999999735 117.99999999999996 -8.52775681356646
    vertex -10.849999999999735 115.00000000000004 -8.52775681356646
  endloop
endfacet
facet normal 0.3826834323650907 -5.2297388528629095e-30 -0.9238795325112863
  outer loop
    vertex -10.43999237667402 117.99999999999996 -8.357926095308589
    vertex -10.849999999999735 115.00000000000004 -8.52775681356646
    vertex -10.849999999999735 117.99999999999996 -8.52775681356646
  endloop
endfacet
facet normal 0.3826834323650907 -5.2297388528629095e-30 -0.9238795325112863
  outer loop
    vertex -10.849999999999735 115.00000000000004 -8.52775681356646
    vertex -10.43999237667402 117.99999999999996 -8.357926095308589
    vertex -10.43999237667402 115.00000000000004 -8.357926095308589
  endloop
endfacet
facet normal 0.13052619222005027 -6.126102333942242e-30 -0.9914448613738106
  outer loop
    vertex -9.999999999999737 117.99999999999996 -8.300000000000006
    vertex -10.43999237667402 115.00000000000004 -8.357926095308589
    vertex -10.43999237667402 117.99999999999996 -8.357926095308589
  endloop
endfacet
facet normal 0.13052619222005027 -6.126102333942242e-30 -0.9914448613738106
  outer loop
    vertex -10.43999237667402 115.00000000000004 -8.357926095308589
    vertex -9.999999999999737 117.99999999999996 -8.300000000000006
    vertex -9.999999999999737 115.00000000000004 -8.300000000000006
  endloop
endfacet
facet normal -0.13052619222004946 -6.604982064826179e-30 -0.9914448613738108
  outer loop
    vertex -9.560007623325449 117.99999999999996 -8.357926095308589
    vertex -9.999999999999737 115.00000000000004 -8.300000000000006
    vertex -9.999999999999737 117.99999999999996 -8.300000000000006
  endloop
endfacet
facet normal -0.13052619222004946 -6.604982064826179e-30 -0.9914448613738108
  outer loop
    vertex -9.999999999999737 115.00000000000004 -8.300000000000006
    vertex -9.560007623325449 117.99999999999996 -8.357926095308589
    vertex -9.560007623325449 115.00000000000004 -8.357926095308589
  endloop
endfacet
facet normal -0.3826834323650907 -6.633743183241166e-30 -0.9238795325112863
  outer loop
    vertex -9.149999999999736 117.99999999999996 -8.52775681356646
    vertex -9.560007623325449 115.00000000000004 -8.357926095308589
    vertex -9.560007623325449 117.99999999999996 -8.357926095308589
  endloop
endfacet
facet normal -0.3826834323650907 -6.633743183241166e-30 -0.9238795325112863
  outer loop
    vertex -9.560007623325449 115.00000000000004 -8.357926095308589
    vertex -9.149999999999736 117.99999999999996 -8.52775681356646
    vertex -9.149999999999736 115.00000000000004 -8.52775681356646
  endloop
endfacet
facet normal -0.6087614290087194 -6.210425666497224e-30 -0.7933533402912362
  outer loop
    vertex -8.797918471982603 117.99999999999996 -8.797918471982875
    vertex -9.149999999999736 115.00000000000004 -8.52775681356646
    vertex -9.149999999999736 117.99999999999996 -8.52775681356646
  endloop
endfacet
facet normal -0.6087614290087194 -6.210425666497224e-30 -0.7933533402912362
  outer loop
    vertex -9.149999999999736 115.00000000000004 -8.52775681356646
    vertex -8.797918471982603 117.99999999999996 -8.797918471982875
    vertex -8.797918471982603 115.00000000000004 -8.797918471982875
  endloop
endfacet
facet normal -0.7933533402912349 -5.363877903795163e-30 -0.6087614290087209
  outer loop
    vertex -8.797918471982603 117.99999999999996 -8.797918471982875
    vertex -8.527756813566189 115.00000000000004 -9.150000000000004
    vertex -8.797918471982603 115.00000000000004 -8.797918471982875
  endloop
endfacet
facet normal -0.7933533402912349 -5.363877903795163e-30 -0.6087614290087209
  outer loop
    vertex -8.527756813566189 115.00000000000004 -9.150000000000004
    vertex -8.797918471982603 117.99999999999996 -8.797918471982875
    vertex -8.527756813566189 117.99999999999996 -9.150000000000004
  endloop
endfacet
facet normal -0.923879532511287 -4.151790726176814e-30 -0.3826834323650897
  outer loop
    vertex -8.527756813566189 117.99999999999996 -9.150000000000004
    vertex -8.357926095308319 115.00000000000004 -9.56000762332572
    vertex -8.527756813566189 115.00000000000004 -9.150000000000004
  endloop
endfacet
facet normal -0.923879532511287 -4.151790726176814e-30 -0.3826834323650897
  outer loop
    vertex -8.357926095308319 115.00000000000004 -9.56000762332572
    vertex -8.527756813566189 117.99999999999996 -9.150000000000004
    vertex -8.357926095308319 117.99999999999996 -9.56000762332572
  endloop
endfacet
facet normal -0.9914448613738106 -2.6567658717280892e-30 -0.13052619222005027
  outer loop
    vertex -8.357926095308319 117.99999999999996 -9.56000762332572
    vertex -8.299999999999736 115.00000000000004 -10.000000000000004
    vertex -8.357926095308319 115.00000000000004 -9.56000762332572
  endloop
endfacet
facet normal -0.9914448613738106 -2.6567658717280892e-30 -0.13052619222005027
  outer loop
    vertex -8.299999999999736 115.00000000000004 -10.000000000000004
    vertex -8.357926095308319 117.99999999999996 -9.56000762332572
    vertex -8.299999999999736 117.99999999999996 -10.000000000000004
  endloop
endfacet
facet normal -0.9914448613738107 -9.806868136343171e-31 0.13052619222004985
  outer loop
    vertex -8.299999999999736 117.99999999999996 -10.000000000000004
    vertex -8.357926095308319 115.00000000000004 -10.43999237667429
    vertex -8.299999999999736 115.00000000000004 -10.000000000000004
  endloop
endfacet
facet normal -0.9914448613738107 -9.806868136343171e-31 0.13052619222004985
  outer loop
    vertex -8.357926095308319 115.00000000000004 -10.43999237667429
    vertex -8.299999999999736 117.99999999999996 -10.000000000000004
    vertex -8.357926095308319 117.99999999999996 -10.43999237667429
  endloop
endfacet
facet normal -0.923879532511287 7.6222443014707675e-31 0.3826834323650897
  outer loop
    vertex -8.357926095308319 117.99999999999996 -10.43999237667429
    vertex -8.527756813566189 115.00000000000004 -10.850000000000005
    vertex -8.357926095308319 115.00000000000004 -10.43999237667429
  endloop
endfacet
facet normal -0.923879532511287 7.6222443014707675e-31 0.3826834323650897
  outer loop
    vertex -8.527756813566189 115.00000000000004 -10.850000000000005
    vertex -8.357926095308319 117.99999999999996 -10.43999237667429
    vertex -8.527756813566189 117.99999999999996 -10.850000000000005
  endloop
endfacet
facet normal -0.7933533402912349 2.453191338649368e-30 0.6087614290087209
  outer loop
    vertex -8.527756813566189 117.99999999999996 -10.850000000000005
    vertex -8.797918471982603 115.00000000000004 -11.202081528017136
    vertex -8.527756813566189 115.00000000000004 -10.850000000000005
  endloop
endfacet
facet normal -0.7933533402912349 2.453191338649368e-30 0.6087614290087209
  outer loop
    vertex -8.797918471982603 115.00000000000004 -11.202081528017136
    vertex -8.527756813566189 117.99999999999996 -10.850000000000005
    vertex -8.797918471982603 117.99999999999996 -11.202081528017136
  endloop
endfacet
facet normal -0.608761429008723 3.976977311513056e-30 0.7933533402912335
  outer loop
    vertex -8.797918471982603 115.00000000000004 -11.202081528017136
    vertex -9.149999999999734 117.99999999999996 -11.472243186433552
    vertex -9.149999999999734 115.00000000000004 -11.472243186433552
  endloop
endfacet
facet normal -0.608761429008723 3.976977311513056e-30 0.7933533402912335
  outer loop
    vertex -9.149999999999734 117.99999999999996 -11.472243186433552
    vertex -8.797918471982603 115.00000000000004 -11.202081528017136
    vertex -8.797918471982603 117.99999999999996 -11.202081528017136
  endloop
endfacet
facet normal -0.3826834323650907 5.2297388528629095e-30 0.9238795325112863
  outer loop
    vertex -9.149999999999734 115.00000000000004 -11.472243186433552
    vertex -9.560007623325449 117.99999999999996 -11.642073904691422
    vertex -9.560007623325449 115.00000000000004 -11.642073904691422
  endloop
endfacet
facet normal -0.3826834323650907 5.2297388528629095e-30 0.9238795325112863
  outer loop
    vertex -9.560007623325449 117.99999999999996 -11.642073904691422
    vertex -9.149999999999734 115.00000000000004 -11.472243186433552
    vertex -9.149999999999734 117.99999999999996 -11.472243186433552
  endloop
endfacet
facet normal -0.13052619222004985 6.1261023339422444e-30 0.9914448613738107
  outer loop
    vertex -9.560007623325449 115.00000000000004 -11.642073904691422
    vertex -9.999999999999734 117.99999999999996 -11.700000000000005
    vertex -9.999999999999734 115.00000000000004 -11.700000000000005
  endloop
endfacet
facet normal -0.13052619222004985 6.1261023339422444e-30 0.9914448613738107
  outer loop
    vertex -9.999999999999734 117.99999999999996 -11.700000000000005
    vertex -9.560007623325449 115.00000000000004 -11.642073904691422
    vertex -9.560007623325449 117.99999999999996 -11.642073904691422
  endloop
endfacet
facet normal 0.13052619222004985 6.604982064826179e-30 0.9914448613738107
  outer loop
    vertex -9.999999999999734 115.00000000000004 -11.700000000000005
    vertex -10.439992376674018 117.99999999999996 -11.642073904691422
    vertex -10.439992376674018 115.00000000000004 -11.642073904691422
  endloop
endfacet
facet normal 0.13052619222004985 6.604982064826179e-30 0.9914448613738107
  outer loop
    vertex -10.439992376674018 117.99999999999996 -11.642073904691422
    vertex -9.999999999999734 115.00000000000004 -11.700000000000005
    vertex -9.999999999999734 117.99999999999996 -11.700000000000005
  endloop
endfacet
facet normal 0.3826834323650897 6.633743183241169e-30 0.923879532511287
  outer loop
    vertex -10.439992376674018 115.00000000000004 -11.642073904691422
    vertex -10.849999999999735 117.99999999999996 -11.472243186433552
    vertex -10.849999999999735 115.00000000000004 -11.472243186433552
  endloop
endfacet
facet normal 0.3826834323650897 6.633743183241169e-30 0.923879532511287
  outer loop
    vertex -10.849999999999735 117.99999999999996 -11.472243186433552
    vertex -10.439992376674018 115.00000000000004 -11.642073904691422
    vertex -10.439992376674018 117.99999999999996 -11.642073904691422
  endloop
endfacet
facet normal 0.6087614290087209 6.210425666497219e-30 0.7933533402912349
  outer loop
    vertex -10.849999999999735 115.00000000000004 -11.472243186433552
    vertex -11.202081528016866 117.99999999999996 -11.202081528017137
    vertex -11.202081528016866 115.00000000000004 -11.202081528017137
  endloop
endfacet
facet normal 0.6087614290087209 6.210425666497219e-30 0.7933533402912349
  outer loop
    vertex -11.202081528016866 117.99999999999996 -11.202081528017137
    vertex -10.849999999999735 115.00000000000004 -11.472243186433552
    vertex -10.849999999999735 117.99999999999996 -11.472243186433552
  endloop
endfacet
facet normal 0.7933533402912335 5.3638779037951735e-30 0.608761429008723
  outer loop
    vertex -11.202081528016866 117.99999999999996 -11.202081528017137
    vertex -11.47224318643328 115.00000000000004 -10.850000000000007
    vertex -11.202081528016866 115.00000000000004 -11.202081528017137
  endloop
endfacet
facet normal 0.7933533402912335 5.3638779037951735e-30 0.608761429008723
  outer loop
    vertex -11.47224318643328 115.00000000000004 -10.850000000000007
    vertex -11.202081528016866 117.99999999999996 -11.202081528017137
    vertex -11.47224318643328 117.99999999999996 -10.850000000000007
  endloop
endfacet
facet normal 0.9238795325112863 4.151790726176819e-30 0.3826834323650907
  outer loop
    vertex -11.47224318643328 117.99999999999996 -10.850000000000007
    vertex -11.642073904691152 115.00000000000004 -10.439992376674292
    vertex -11.47224318643328 115.00000000000004 -10.850000000000007
  endloop
endfacet
facet normal 0.9238795325112863 4.151790726176819e-30 0.3826834323650907
  outer loop
    vertex -11.642073904691152 115.00000000000004 -10.439992376674292
    vertex -11.47224318643328 117.99999999999996 -10.850000000000007
    vertex -11.642073904691152 117.99999999999996 -10.439992376674292
  endloop
endfacet
facet normal -1.5009624204299903e-15 -1.0 7.063221316012002e-17
  outer loop
    vertex 3.2722442096726616e-14 -3.0 3.0
    vertex -19.999999999999964 -2.999999999999971 22.999999999999982
    vertex -19.999999999999968 -2.9999999999999716 2.9999999999999813
  endloop
endfacet
facet normal -1.5009624204299903e-15 -1.0 7.063221316012002e-17
  outer loop
    vertex -19.999999999999964 -2.999999999999971 22.999999999999982
    vertex 3.2722442096726616e-14 -3.0 3.0
    vertex 6.371679405695528e-14 -3.0 36.0
  endloop
endfacet
facet normal -1.5009624204299903e-15 -1.0 7.063221316012002e-17
  outer loop
    vertex -19.999999999999964 -2.999999999999971 22.999999999999982
    vertex 6.371679405695528e-14 -3.0 36.0
    vertex -46.19387030894295 -2.9999999999999267 35.99999999999996
  endloop
endfacet
facet normal -1.5009624204299903e-15 -1.0 7.063221316012002e-17
  outer loop
    vertex -46.19387030894295 -2.9999999999999267 35.99999999999996
    vertex -46.19387030894293 -2.9999999999999334 22.999999999999957
    vertex -19.999999999999964 -2.999999999999971 22.999999999999982
  endloop
endfacet
facet normal 1.0 -1.4369100982277414e-15 9.2635167762489e-16
  outer loop
    vertex 2.816793639751064e-13 117.99999999999999 -19.999999999999996
    vertex 1.1468256066333848e-13 114.99999999999999 33.0
    vertex 2.346064488579728e-13 114.99999999999999 -19.999999999999996
  endloop
endfacet
facet normal 1.0 -1.4369100982277414e-15 9.2635167762489e-16
  outer loop
    vertex 0.0 0.0 0.0
    vertex 1.3565537226728082e-14 -12.999999999999998 3.0
    vertex 0.0 -12.999999999999998 0.0
  endloop
endfacet
facet normal 1.0 -1.4369100982277414e-15 9.2635167762489e-16
  outer loop
    vertex 1.3565537226728082e-14 -12.999999999999998 3.0
    vertex 0.0 0.0 0.0
    vertex 3.2722442096726616e-14 -3.0 3.0
  endloop
endfacet
facet normal 1.0 -1.4369100982277414e-15 9.2635167762489e-16
  outer loop
    vertex 3.2722442096726616e-14 -3.0 3.0
    vertex 0.0 0.0 0.0
    vertex 6.371679405695528e-14 -3.0 36.0
  endloop
endfacet
facet normal 1.0 -1.4369100982277414e-15 9.2635167762489e-16
  outer loop
    vertex 6.371679405695528e-14 -3.0 36.0
    vertex 0.0 0.0 0.0
    vertex 4.5757331295853415e-14 0.0 33.0
  endloop
endfacet
facet normal 1.0 -1.4369100982277414e-15 9.2635167762489e-16
  outer loop
    vertex 6.371679405695528e-14 -3.0 36.0
    vertex 4.5757331295853415e-14 0.0 33.0
    vertex 1.858315835372954e-13 117.99999999999999 36.0
  endloop
endfacet
facet normal 1.0 -1.4369100982277414e-15 9.2635167762489e-16
  outer loop
    vertex 1.858315835372954e-13 117.99999999999999 36.0
    vertex 4.5757331295853415e-14 0.0 33.0
    vertex 1.1468256066333848e-13 114.99999999999999 33.0
  endloop
endfacet
facet normal 1.0 -1.4369100982277414e-15 9.2635167762489e-16
  outer loop
    vertex 1.858315835372954e-13 117.99999999999999 36.0
    vertex 1.1468256066333848e-13 114.99999999999999 33.0
    vertex 2.816793639751064e-13 117.99999999999999 -19.999999999999996
  endloop
endfacet
facet normal 1.4651120403749125e-15 1.0 1.9370751185304875e-30
  outer loop
    vertex -46.19387030894272 118.00000000000006 -20.00000000000004
    vertex -11.202081528016866 117.99999999999996 -11.202081528017137
    vertex 2.816793639751064e-13 117.99999999999999 -19.999999999999996
  endloop
endfacet
facet normal 1.4651120403749125e-15 1.0 1.9370751185304875e-30
  outer loop
    vertex -11.202081528016866 117.99999999999996 -11.202081528017137
    vertex -46.19387030894272 118.00000000000006 -20.00000000000004
    vertex -11.47224318643328 117.99999999999996 -10.850000000000007
  endloop
endfacet
facet normal 1.4651120403749125e-15 1.0 1.9370751185304875e-30
  outer loop
    vertex -11.47224318643328 117.99999999999996 -10.850000000000007
    vertex -46.19387030894272 118.00000000000006 -20.00000000000004
    vertex -46.19387030894277 118.00000000000006 35.99999999999996
  endloop
endfacet
facet normal 1.4651120403749125e-15 1.0 1.9370751185304875e-30
  outer loop
    vertex 2.816793639751064e-13 117.99999999999999 -19.999999999999996
    vertex -11.202081528016866 117.99999999999996 -11.202081528017137
    vertex -10.849999999999735 117.99999999999996 -11.472243186433552
  endloop
endfacet
facet normal 1.4651120403749125e-15 1.0 1.9370751185304875e-30
  outer loop
    vertex 2.816793639751064e-13 117.99999999999999 -19.999999999999996
    vertex -10.849999999999735 117.99999999999996 -11.472243186433552
    vertex -10.439992376674018 117.99999999999996 -11.642073904691422
  endloop
endfacet
facet normal 1.4651120403749125e-15 1.0 1.9370751185304875e-30
  outer loop
    vertex 2.816793639751064e-13 117.99999999999999 -19.999999999999996
    vertex -10.439992376674018 117.99999999999996 -11.642073904691422
    vertex -9.999999999999734 117.99999999999996 -11.700000000000005
  endloop
endfacet
facet normal 1.4651120403749125e-15 1.0 1.9370751185304875e-30
  outer loop
    vertex -11.47224318643328 117.99999999999996 -10.850000000000007
    vertex -46.19387030894277 118.00000000000006 35.99999999999996
    vertex -11.642073904691152 117.99999999999996 -10.439992376674292
  endloop
endfacet
facet normal 1.4651120403749125e-15 1.0 1.9370751185304875e-30
  outer loop
    vertex -11.642073904691152 117.99999999999996 -10.439992376674292
    vertex -46.19387030894277 118.00000000000006 35.99999999999996
    vertex -11.699999999999735 117.99999999999996 -10.000000000000007
  endloop
endfacet
facet normal 1.4651120403749125e-15 1.0 1.9370751185304875e-30
  outer loop
    vertex -11.699999999999735 117.99999999999996 -10.000000000000007
    vertex -46.19387030894277 118.00000000000006 35.99999999999996
    vertex -11.642073904691152 117.99999999999996 -9.56000762332572
  endloop
endfacet
facet normal 1.4651120403749125e-15 1.0 1.9370751185304875e-30
  outer loop
    vertex -11.642073904691152 117.99999999999996 -9.56000762332572
    vertex -46.19387030894277 118.00000000000006 35.99999999999996
    vertex -11.47224318643328 117.99999999999996 -9.150000000000006
  endloop
endfacet
facet normal 1.4651120403749125e-15 1.0 1.9370751185304875e-30
  outer loop
    vertex -11.47224318643328 117.99999999999996 -9.150000000000006
    vertex -46.19387030894277 118.00000000000006 35.99999999999996
    vertex -11.202081528016866 117.99999999999996 -8.797918471982875
  endloop
endfacet
facet normal 1.4651120403749125e-15 1.0 1.9370751185304875e-30
  outer loop
    vertex -11.202081528016866 117.99999999999996 -8.797918471982875
    vertex -46.19387030894277 118.00000000000006 35.99999999999996
    vertex -10.849999999999735 117.99999999999996 -8.52775681356646
  endloop
endfacet
facet normal 1.4651120403749125e-15 1.0 1.9370751185304875e-30
  outer loop
    vertex -10.849999999999735 117.99999999999996 -8.52775681356646
    vertex -46.19387030894277 118.00000000000006 35.99999999999996
    vertex -10.43999237667402 117.99999999999996 -8.357926095308589
  endloop
endfacet
facet normal 1.4651120403749125e-15 1.0 1.9370751185304875e-30
  outer loop
    vertex -10.43999237667402 117.99999999999996 -8.357926095308589
    vertex -46.19387030894277 118.00000000000006 35.99999999999996
    vertex -9.999999999999737 117.99999999999996 -8.300000000000006
  endloop
endfacet
facet normal 1.4651120403749125e-15 1.0 1.9370751185304875e-30
  outer loop
    vertex 2.816793639751064e-13 117.99999999999999 -19.999999999999996
    vertex -8.357926095308319 117.99999999999996 -10.43999237667429
    vertex 1.858315835372954e-13 117.99999999999999 36.0
  endloop
endfacet
facet normal 1.4651120403749125e-15 1.0 1.9370751185304875e-30
  outer loop
    vertex -8.357926095308319 117.99999999999996 -10.43999237667429
    vertex 2.816793639751064e-13 117.99999999999999 -19.999999999999996
    vertex -8.527756813566189 117.99999999999996 -10.850000000000005
  endloop
endfacet
facet normal 1.4651120403749125e-15 1.0 1.9370751185304875e-30
  outer loop
    vertex -8.527756813566189 117.99999999999996 -10.850000000000005
    vertex 2.816793639751064e-13 117.99999999999999 -19.999999999999996
    vertex -8.797918471982603 117.99999999999996 -11.202081528017136
  endloop
endfacet
facet normal 1.4651120403749125e-15 1.0 1.9370751185304875e-30
  outer loop
    vertex -8.797918471982603 117.99999999999996 -11.202081528017136
    vertex 2.816793639751064e-13 117.99999999999999 -19.999999999999996
    vertex -9.149999999999734 117.99999999999996 -11.472243186433552
  endloop
endfacet
facet normal 1.4651120403749125e-15 1.0 1.9370751185304875e-30
  outer loop
    vertex -9.149999999999734 117.99999999999996 -11.472243186433552
    vertex 2.816793639751064e-13 117.99999999999999 -19.999999999999996
    vertex -9.560007623325449 117.99999999999996 -11.642073904691422
  endloop
endfacet
facet normal 1.4651120403749125e-15 1.0 1.9370751185304875e-30
  outer loop
    vertex -9.560007623325449 117.99999999999996 -11.642073904691422
    vertex 2.816793639751064e-13 117.99999999999999 -19.999999999999996
    vertex -9.999999999999734 117.99999999999996 -11.700000000000005
  endloop
endfacet
facet normal 1.4651120403749125e-15 1.0 1.9370751185304875e-30
  outer loop
    vertex 1.858315835372954e-13 117.99999999999999 36.0
    vertex -8.357926095308319 117.99999999999996 -10.43999237667429
    vertex -8.299999999999736 117.99999999999996 -10.000000000000004
  endloop
endfacet
facet normal 1.4651120403749125e-15 1.0 1.9370751185304875e-30
  outer loop
    vertex 1.858315835372954e-13 117.99999999999999 36.0
    vertex -8.299999999999736 117.99999999999996 -10.000000000000004
    vertex -8.357926095308319 117.99999999999996 -9.56000762332572
  endloop
endfacet
facet normal 1.4651120403749125e-15 1.0 1.9370751185304875e-30
  outer loop
    vertex 1.858315835372954e-13 117.99999999999999 36.0
    vertex -8.357926095308319 117.99999999999996 -9.56000762332572
    vertex -8.527756813566189 117.99999999999996 -9.150000000000004
  endloop
endfacet
facet normal 1.4651120403749125e-15 1.0 1.9370751185304875e-30
  outer loop
    vertex 1.858315835372954e-13 117.99999999999999 36.0
    vertex -8.527756813566189 117.99999999999996 -9.150000000000004
    vertex -8.797918471982603 117.99999999999996 -8.797918471982875
  endloop
endfacet
facet normal 1.4651120403749125e-15 1.0 1.9370751185304875e-30
  outer loop
    vertex 1.858315835372954e-13 117.99999999999999 36.0
    vertex -8.797918471982603 117.99999999999996 -8.797918471982875
    vertex -9.149999999999736 117.99999999999996 -8.52775681356646
  endloop
endfacet
facet normal 1.4651120403749125e-15 1.0 1.9370751185304875e-30
  outer loop
    vertex 1.858315835372954e-13 117.99999999999999 36.0
    vertex -9.149999999999736 117.99999999999996 -8.52775681356646
    vertex -9.560007623325449 117.99999999999996 -8.357926095308589
  endloop
endfacet
facet normal 1.4651120403749125e-15 1.0 1.9370751185304875e-30
  outer loop
    vertex 1.858315835372954e-13 117.99999999999999 36.0
    vertex -9.560007623325449 117.99999999999996 -8.357926095308589
    vertex -9.999999999999737 117.99999999999996 -8.300000000000006
  endloop
endfacet
facet normal 1.4651120403749125e-15 1.0 1.9370751185304875e-30
  outer loop
    vertex 1.858315835372954e-13 117.99999999999999 36.0
    vertex -9.999999999999737 117.99999999999996 -8.300000000000006
    vertex -46.19387030894277 118.00000000000006 35.99999999999996
  endloop
endfacet
facet normal -1.0 1.442871301131124e-15 -9.948305941286486e-16
  outer loop
    vertex -46.19387030894295 -2.9999999999999267 35.99999999999996
    vertex -46.19387030894293 6.55642207192386e-14 22.999999999999957
    vertex -46.19387030894293 -2.9999999999999334 22.999999999999957
  endloop
endfacet
facet normal -1.0 1.442871301131124e-15 -9.948305941286486e-16
  outer loop
    vertex -46.19387030894293 6.55642207192386e-14 22.999999999999957
    vertex -46.19387030894295 -2.9999999999999267 35.99999999999996
    vertex -46.19387030894294 6.637643872314281e-14 32.99999999999996
  endloop
endfacet
facet normal -1.0 1.442871301131124e-15 -9.948305941286486e-16
  outer loop
    vertex -46.19387030894294 6.637643872314281e-14 32.99999999999996
    vertex -46.19387030894295 -2.9999999999999267 35.99999999999996
    vertex -46.19387030894277 118.00000000000006 35.99999999999996
  endloop
endfacet
facet normal -1.0 1.442871301131124e-15 -9.948305941286486e-16
  outer loop
    vertex -46.19387030894294 6.637643872314281e-14 32.99999999999996
    vertex -46.19387030894277 118.00000000000006 35.99999999999996
    vertex -46.19387030894277 115.00000000000006 32.99999999999996
  endloop
endfacet
facet normal -1.0 1.442871301131124e-15 -9.948305941286486e-16
  outer loop
    vertex -46.19387030894277 115.00000000000006 32.99999999999996
    vertex -46.19387030894277 118.00000000000006 35.99999999999996
    vertex -46.193870308942714 115.00000000000006 -20.00000000000004
  endloop
endfacet
facet normal -1.0 1.442871301131124e-15 -9.948305941286486e-16
  outer loop
    vertex -46.193870308942714 115.00000000000006 -20.00000000000004
    vertex -46.19387030894277 118.00000000000006 35.99999999999996
    vertex -46.19387030894272 118.00000000000006 -20.00000000000004
  endloop
endfacet
endsolid board cover 2
