solid CablePipeToolHeadEnd
facet normal -2.0713671327993588e-16 1.0 1.4099832412739488e-16
  outer loop
    vertex -3.999999999999999 -7.000000000000004 9.999999999999995
    vertex 3.999999999999998 -7.0 6.261583435191781e-31
    vertex -3.999999999999999 -7.0 -6.261583435191781e-31
  endloop
endfacet
facet normal -2.0713671327993588e-16 1.0 1.4099832412739488e-16
  outer loop
    vertex 3.999999999999998 -7.0 6.261583435191781e-31
    vertex -3.999999999999999 -7.000000000000004 9.999999999999995
    vertex 3.999999999999997 -7.0 9.999999999999998
  endloop
endfacet
facet normal 0.0 0.0 -1.0
  outer loop
    vertex -4.999999999999999 8.660254037844386 0.0
    vertex -7.0 7.0 0.0
    vertex -7.071067811865475 7.071067811865475 0.0
  endloop
endfacet
facet normal 0.0 0.0 -1.0
  outer loop
    vertex -7.0 7.0 0.0
    vertex -4.999999999999999 8.660254037844386 0.0
    vertex -4.989907618662821 7.0 1.2689849171465539e-14
  endloop
endfacet
facet normal 0.0 0.0 -1.0
  outer loop
    vertex -4.989907618662821 7.0 1.2689849171465539e-14
    vertex -4.999999999999999 8.660254037844386 0.0
    vertex -2.5881904510252074 9.659258262890681 0.0
  endloop
endfacet
facet normal 0.0 0.0 -1.0
  outer loop
    vertex -4.989907618662821 7.0 1.2689849171465539e-14
    vertex -2.5881904510252074 9.659258262890681 0.0
    vertex -4.332634627150562 7.504343304857023 1.2689849171465539e-14
  endloop
endfacet
facet normal 0.0 0.0 -1.0
  outer loop
    vertex -4.332634627150562 7.504343304857023 1.2689849171465539e-14
    vertex -2.5881904510252074 9.659258262890681 0.0
    vertex -2.2427367139544465 8.37000736447808 1.2689849171465539e-14
  endloop
endfacet
facet normal 0.0 0.0 -1.0
  outer loop
    vertex -2.2427367139544465 8.37000736447808 1.2689849171465539e-14
    vertex -2.5881904510252074 9.659258262890681 0.0
    vertex 0.0 9.999999999999998 0.0
  endloop
endfacet
facet normal 0.0 0.0 -1.0
  outer loop
    vertex -2.2427367139544465 8.37000736447808 1.2689849171465539e-14
    vertex 0.0 9.999999999999998 0.0
    vertex 4.046455139346286e-15 8.665269254301132 1.2689849171465539e-14
  endloop
endfacet
facet normal 0.0 0.0 -1.0
  outer loop
    vertex 4.046455139346286e-15 8.665269254301132 1.2689849171465539e-14
    vertex 0.0 9.999999999999998 0.0
    vertex 2.5881904510252154 9.65925826289068 0.0
  endloop
endfacet
facet normal 0.0 0.0 -1.0
  outer loop
    vertex 4.046455139346286e-15 8.665269254301132 1.2689849171465539e-14
    vertex 2.5881904510252154 9.65925826289068 0.0
    vertex 2.242736713954454 8.370007364478077 1.2689849171465539e-14
  endloop
endfacet
facet normal 0.0 0.0 -1.0
  outer loop
    vertex 2.242736713954454 8.370007364478077 1.2689849171465539e-14
    vertex 2.5881904510252154 9.65925826289068 0.0
    vertex 4.332634627150568 7.5043433048570165 1.2689849171465539e-14
  endloop
endfacet
facet normal 0.0 0.0 -1.0
  outer loop
    vertex 4.332634627150568 7.5043433048570165 1.2689849171465539e-14
    vertex 2.5881904510252154 9.65925826289068 0.0
    vertex 5.000000000000004 8.660254037844382 0.0
  endloop
endfacet
facet normal 0.0 0.0 -1.0
  outer loop
    vertex 4.332634627150568 7.5043433048570165 1.2689849171465539e-14
    vertex 5.000000000000004 8.660254037844382 0.0
    vertex 4.98990761866282 7.0 1.5509815654013436e-14
  endloop
endfacet
facet normal 0.0 0.0 -1.0
  outer loop
    vertex 4.98990761866282 7.0 1.5509815654013436e-14
    vertex 5.000000000000004 8.660254037844382 0.0
    vertex 6.999999999999998 7.0 0.0
  endloop
endfacet
facet normal 0.0 0.0 -1.0
  outer loop
    vertex 6.999999999999998 7.0 0.0
    vertex 5.000000000000004 8.660254037844382 0.0
    vertex 7.071067811865477 7.071067811865473 0.0
  endloop
endfacet
facet normal 0.0 0.0 -1.0
  outer loop
    vertex 6.999999999999998 7.0 0.0
    vertex 7.071067811865477 7.071067811865473 0.0
    vertex 6.999999999999998 4.989907618662823 1.5509815654013436e-14
  endloop
endfacet
facet normal 0.0 0.0 -1.0
  outer loop
    vertex 6.999999999999998 4.989907618662823 1.5509815654013436e-14
    vertex 7.071067811865477 7.071067811865473 0.0
    vertex 6.999999999999998 -3.9999999999999996 1.940358860214034e-15
  endloop
endfacet
facet normal 0.0 0.0 -1.0
  outer loop
    vertex 6.999999999999998 -3.9999999999999996 1.940358860214034e-15
    vertex 7.071067811865477 7.071067811865473 0.0
    vertex 7.071067811865472 -7.071067811865477 0.0
  endloop
endfacet
facet normal 0.0 0.0 -1.0
  outer loop
    vertex 7.071067811865472 -7.071067811865477 0.0
    vertex 7.071067811865477 7.071067811865473 0.0
    vertex 8.660254037844384 -5.0000000000000036 0.0
  endloop
endfacet
facet normal 0.0 0.0 -1.0
  outer loop
    vertex 8.660254037844384 -5.0000000000000036 0.0
    vertex 7.071067811865477 7.071067811865473 0.0
    vertex 8.66025403784439 4.999999999999992 0.0
  endloop
endfacet
facet normal 0.0 0.0 -1.0
  outer loop
    vertex 8.660254037844384 -5.0000000000000036 0.0
    vertex 8.66025403784439 4.999999999999992 0.0
    vertex 9.659258262890681 -2.5881904510252145 0.0
  endloop
endfacet
facet normal 0.0 0.0 -1.0
  outer loop
    vertex 9.659258262890681 -2.5881904510252145 0.0
    vertex 8.66025403784439 4.999999999999992 0.0
    vertex 9.659258262890685 2.5881904510252025 0.0
  endloop
endfacet
facet normal 0.0 0.0 -1.0
  outer loop
    vertex 9.659258262890681 -2.5881904510252145 0.0
    vertex 9.659258262890685 2.5881904510252025 0.0
    vertex 10.0 -1.836970198721029e-15 0.0
  endloop
endfacet
facet normal 0.0 0.0 -1.0
  outer loop
    vertex -9.659258262890683 2.588190451025209 0.0
    vertex -9.659258262890683 -2.5881904510252056 0.0
    vertex -10.0 6.123233995736765e-16 0.0
  endloop
endfacet
facet normal 0.0 0.0 -1.0
  outer loop
    vertex -9.659258262890683 -2.5881904510252056 0.0
    vertex -9.659258262890683 2.588190451025209 0.0
    vertex -8.660254037844386 5.000000000000001 0.0
  endloop
endfacet
facet normal 0.0 0.0 -1.0
  outer loop
    vertex -9.659258262890683 -2.5881904510252056 0.0
    vertex -8.660254037844386 5.000000000000001 0.0
    vertex -8.660254037844389 -4.999999999999997 0.0
  endloop
endfacet
facet normal 0.0 0.0 -1.0
  outer loop
    vertex -8.660254037844389 -4.999999999999997 0.0
    vertex -8.660254037844386 5.000000000000001 0.0
    vertex -7.071067811865476 -7.071067811865473 0.0
  endloop
endfacet
facet normal 0.0 0.0 -1.0
  outer loop
    vertex -7.071067811865476 -7.071067811865473 0.0
    vertex -8.660254037844386 5.000000000000001 0.0
    vertex -7.071067811865475 7.071067811865475 0.0
  endloop
endfacet
facet normal 0.0 0.0 -1.0
  outer loop
    vertex -7.071067811865476 -7.071067811865473 0.0
    vertex -7.071067811865475 7.071067811865475 0.0
    vertex -6.999999999999998 -3.9999999999999996 1.5875663401751178e-15
  endloop
endfacet
facet normal 0.0 0.0 -1.0
  outer loop
    vertex -7.071067811865476 -7.071067811865473 0.0
    vertex -6.999999999999998 -3.9999999999999996 1.5875663401751178e-15
    vertex -6.97433458412143 -4.391578576660154 1.3176499165077455e-15
  endloop
endfacet
facet normal 0.0 0.0 -1.0
  outer loop
    vertex -7.071067811865476 -7.071067811865473 0.0
    vertex -6.97433458412143 -4.391578576660154 1.3176499165077455e-15
    vertex -6.897777478867205 -4.776457135307561 1.061147125203548e-15
  endloop
endfacet
facet normal 0.0 0.0 -1.0
  outer loop
    vertex -7.071067811865476 -7.071067811865473 0.0
    vertex -6.897777478867205 -4.776457135307561 1.061147125203548e-15
    vertex -6.77163859753386 -5.148050297095269 8.224468001377494e-16
  endloop
endfacet
facet normal 0.0 0.0 -1.0
  outer loop
    vertex -7.071067811865476 -7.071067811865473 0.0
    vertex -6.77163859753386 -5.148050297095269 8.224468001377494e-16
    vertex -6.598076211353316 -5.5 6.056331700524582e-16
  endloop
endfacet
facet normal 0.0 0.0 -1.0
  outer loop
    vertex -7.071067811865476 -7.071067811865473 0.0
    vertex -6.598076211353316 -5.5 6.056331700524582e-16
    vertex -5.0000000000000036 -8.660254037844384 0.0
  endloop
endfacet
facet normal 0.0 0.0 -1.0
  outer loop
    vertex -6.999999999999998 -3.9999999999999996 1.5875663401751178e-15
    vertex -7.071067811865475 7.071067811865475 0.0
    vertex -7.0 4.989907618662821 1.2689849171465539e-14
  endloop
endfacet
facet normal 0.0 0.0 -1.0
  outer loop
    vertex -7.0 4.989907618662821 1.2689849171465539e-14
    vertex -7.071067811865475 7.071067811865475 0.0
    vertex -7.0 7.0 0.0
  endloop
endfacet
facet normal 0.0 0.0 -1.0
  outer loop
    vertex -5.0000000000000036 -8.660254037844384 0.0
    vertex -6.598076211353316 -5.5 6.056331700524582e-16
    vertex -6.380060020873705 -5.826284287026161 4.144159762705295e-16
  endloop
endfacet
facet normal 0.0 0.0 -1.0
  outer loop
    vertex -5.0000000000000036 -8.660254037844384 0.0
    vertex -6.380060020873705 -5.826284287026161 4.144159762705295e-16
    vertex -6.121320343559642 -6.121320343559642 2.520669979929925e-16
  endloop
endfacet
facet normal 0.0 0.0 -1.0
  outer loop
    vertex -5.0000000000000036 -8.660254037844384 0.0
    vertex -6.121320343559642 -6.121320343559642 2.520669979929925e-16
    vertex -5.826284287026162 -6.380060020873705 1.2136407124981784e-16
  endloop
endfacet
facet normal 0.0 0.0 -1.0
  outer loop
    vertex -5.0000000000000036 -8.660254037844384 0.0
    vertex -5.826284287026162 -6.380060020873705 1.2136407124981784e-16
    vertex -5.5 -6.598076211353316 2.4543559355276916e-17
  endloop
endfacet
facet normal 0.0 0.0 -1.0
  outer loop
    vertex -5.0000000000000036 -8.660254037844384 0.0
    vertex -5.5 -6.598076211353316 2.4543559355276916e-17
    vertex -5.148050297095269 -6.77163859753386 -3.6737911888395586e-17
  endloop
endfacet
facet normal 0.0 0.0 -1.0
  outer loop
    vertex -5.0000000000000036 -8.660254037844384 0.0
    vertex -5.148050297095269 -6.77163859753386 -3.6737911888395586e-17
    vertex -4.776457135307561 -6.897777478867205 -6.143179951778792e-17
  endloop
endfacet
facet normal 0.0 0.0 -1.0
  outer loop
    vertex -5.0000000000000036 -8.660254037844384 0.0
    vertex -4.776457135307561 -6.897777478867205 -6.143179951778792e-17
    vertex -2.58819045102521 -9.659258262890681 0.0
  endloop
endfacet
facet normal 0.0 0.0 -1.0
  outer loop
    vertex -2.58819045102521 -9.659258262890681 0.0
    vertex -4.776457135307561 -6.897777478867205 -6.143179951778792e-17
    vertex -4.391578576660154 -6.97433458412143 -4.9115584269121e-17
  endloop
endfacet
facet normal 0.0 0.0 -1.0
  outer loop
    vertex -2.58819045102521 -9.659258262890681 0.0
    vertex -4.391578576660154 -6.97433458412143 -4.9115584269121e-17
    vertex -3.999999999999999 -7.0 -6.261583435191781e-31
  endloop
endfacet
facet normal 0.0 0.0 -1.0
  outer loop
    vertex -2.58819045102521 -9.659258262890681 0.0
    vertex -3.999999999999999 -7.0 -6.261583435191781e-31
    vertex 3.999999999999998 -7.0 6.261583435191781e-31
  endloop
endfacet
facet normal 0.0 0.0 -1.0
  outer loop
    vertex -2.58819045102521 -9.659258262890681 0.0
    vertex 3.999999999999998 -7.0 6.261583435191781e-31
    vertex -1.2246467991473533e-15 -9.999999999999998 0.0
  endloop
endfacet
facet normal 0.0 0.0 -1.0
  outer loop
    vertex -1.2246467991473533e-15 -9.999999999999998 0.0
    vertex 3.999999999999998 -7.0 6.261583435191781e-31
    vertex 2.5881904510252034 -9.659258262890683 0.0
  endloop
endfacet
facet normal 0.0 0.0 -1.0
  outer loop
    vertex 2.5881904510252034 -9.659258262890683 0.0
    vertex 3.999999999999998 -7.0 6.261583435191781e-31
    vertex 4.999999999999998 -8.660254037844387 0.0
  endloop
endfacet
facet normal 0.0 0.0 -1.0
  outer loop
    vertex 4.999999999999998 -8.660254037844387 0.0
    vertex 3.999999999999998 -7.0 6.261583435191781e-31
    vertex 4.3915785766601525 -6.97433458412143 -2.200675754968037e-16
  endloop
endfacet
facet normal 0.0 0.0 -1.0
  outer loop
    vertex 4.999999999999998 -8.660254037844387 0.0
    vertex 4.3915785766601525 -6.97433458412143 -2.200675754968037e-16
    vertex 4.77645713530756 -6.897777478867205 -3.6996957762785463e-16
  endloop
endfacet
facet normal 0.0 0.0 -1.0
  outer loop
    vertex 4.999999999999998 -8.660254037844387 0.0
    vertex 4.77645713530756 -6.897777478867205 -3.6996957762785463e-16
    vertex 5.148050297095268 -6.77163859753386 -4.471411415760011e-16
  endloop
endfacet
facet normal 0.0 0.0 -1.0
  outer loop
    vertex 4.999999999999998 -8.660254037844387 0.0
    vertex 5.148050297095268 -6.77163859753386 -4.471411415760011e-16
    vertex 7.071067811865472 -7.071067811865477 0.0
  endloop
endfacet
facet normal 0.0 0.0 -1.0
  outer loop
    vertex 7.071067811865472 -7.071067811865477 0.0
    vertex 5.148050297095268 -6.77163859753386 -4.471411415760011e-16
    vertex 5.499999999999998 -6.598076211353316 -4.502618404860922e-16
  endloop
endfacet
facet normal 0.0 0.0 -1.0
  outer loop
    vertex 7.071067811865472 -7.071067811865477 0.0
    vertex 5.499999999999998 -6.598076211353316 -4.502618404860922e-16
    vertex 5.82628428702616 -6.380060020873705 -3.7927827833455374e-16
  endloop
endfacet
facet normal 0.0 0.0 -1.0
  outer loop
    vertex 7.071067811865472 -7.071067811865477 0.0
    vertex 5.82628428702616 -6.380060020873705 -3.7927827833455374e-16
    vertex 6.121320343559641 -6.121320343559642 -2.3540500355016277e-16
  endloop
endfacet
facet normal 0.0 0.0 -1.0
  outer loop
    vertex 7.071067811865472 -7.071067811865477 0.0
    vertex 6.121320343559641 -6.121320343559642 -2.3540500355016277e-16
    vertex 6.380060020873703 -5.826284287026161 -2.110372775368408e-17
  endloop
endfacet
facet normal 0.0 0.0 -1.0
  outer loop
    vertex 7.071067811865472 -7.071067811865477 0.0
    vertex 6.380060020873703 -5.826284287026161 -2.110372775368408e-17
    vertex 6.598076211353314 -5.5 2.5995879481046306e-16
  endloop
endfacet
facet normal 0.0 0.0 -1.0
  outer loop
    vertex 7.071067811865472 -7.071067811865477 0.0
    vertex 6.598076211353314 -5.5 2.5995879481046306e-16
    vertex 6.771638597533858 -5.14805029709527 6.029735064559535e-16
  endloop
endfacet
facet normal 0.0 0.0 -1.0
  outer loop
    vertex 7.071067811865472 -7.071067811865477 0.0
    vertex 6.771638597533858 -5.14805029709527 6.029735064559535e-16
    vertex 6.897777478867203 -4.776457135307561 1.0020713303648897e-15
  endloop
endfacet
facet normal 0.0 0.0 -1.0
  outer loop
    vertex 7.071067811865472 -7.071067811865477 0.0
    vertex 6.897777478867203 -4.776457135307561 1.0020713303648897e-15
    vertex 6.974334584121429 -4.391578576660154 1.4504235921193663e-15
  endloop
endfacet
facet normal 0.0 0.0 -1.0
  outer loop
    vertex 7.071067811865472 -7.071067811865477 0.0
    vertex 6.974334584121429 -4.391578576660154 1.4504235921193663e-15
    vertex 6.999999999999998 -3.9999999999999996 1.940358860214034e-15
  endloop
endfacet
facet normal -1.0 0.0 0.0
  outer loop
    vertex 6.999999999999998 0.0 20.0
    vertex 6.999999999999998 -4.000000000000004 10.000000000000002
    vertex 6.999999999999998 -7.0 10.0
  endloop
endfacet
facet normal -1.0 0.0 0.0
  outer loop
    vertex 6.999999999999998 -4.000000000000004 10.000000000000002
    vertex 6.999999999999998 0.0 20.0
    vertex 6.999999999999998 -3.9999999999999996 1.940358860214034e-15
  endloop
endfacet
facet normal -1.0 0.0 0.0
  outer loop
    vertex 6.999999999999998 -3.9999999999999996 1.940358860214034e-15
    vertex 6.999999999999998 0.0 20.0
    vertex 6.999999999999998 4.989907618662823 1.5509815654013436e-14
  endloop
endfacet
facet normal -1.0 0.0 0.0
  outer loop
    vertex 6.999999999999998 4.989907618662823 1.5509815654013436e-14
    vertex 6.999999999999998 0.0 20.0
    vertex 6.999999999999998 4.989907618662823 20.0
  endloop
endfacet
facet normal -4.500996166398001e-15 -0.7708502458622759 0.6370164035988941
  outer loop
    vertex -9.999999999999996 1.8550092018010388e-14 20.0
    vertex -10.065073606274442 -2.7555440816990133 16.665530399434566
    vertex -6.999999999999998 0.0 20.0
  endloop
endfacet
facet normal 0.08504329755961962 -0.8050379051210547 0.5870959111239749
  outer loop
    vertex -6.999999999999998 0.0 20.0
    vertex -10.065073606274442 -2.7555440816990133 16.665530399434566
    vertex -9.061209815811527 -5.165349601183019 13.215741981867923
  endloop
endfacet
facet normal 0.17031239062589607 -0.8082667221893286 0.5636475808522656
  outer loop
    vertex -6.999999999999998 0.0 20.0
    vertex -9.061209815811527 -5.165349601183019 13.215741981867923
    vertex -7.125600061886465 -7.0 10.0
  endloop
endfacet
facet normal 6.493392193454075e-15 -6.493392193454074e-15 -1.0
  outer loop
    vertex -7.0 7.0 0.0
    vertex -6.127270650523626 6.12727065052363 1.2689849171465539e-14
    vertex -7.0 4.989907618662821 1.2689849171465539e-14
  endloop
endfacet
facet normal 6.493392193454075e-15 -6.493392193454074e-15 -1.0
  outer loop
    vertex -6.127270650523626 6.12727065052363 1.2689849171465539e-14
    vertex -7.0 7.0 0.0
    vertex -4.989907618662821 7.0 1.2689849171465539e-14
  endloop
endfacet
facet normal 0.7933533402912349 -0.6087614290087212 -1.0540892152821229e-33
  outer loop
    vertex -6.127270650523626 6.12727065052363 1.2689849171465539e-14
    vertex -7.0 4.989907618662821 20.0
    vertex -7.0 4.989907618662821 1.2689849171465539e-14
  endloop
endfacet
facet normal 0.7933533402912349 -0.6087614290087212 -1.0540892152821229e-33
  outer loop
    vertex -7.0 4.989907618662821 20.0
    vertex -6.127270650523626 6.12727065052363 1.2689849171465539e-14
    vertex -6.127270650523626 6.12727065052363 20.0
  endloop
endfacet
facet normal -7.936368236443871e-15 -7.93636823644388e-15 -1.0
  outer loop
    vertex 6.999999999999998 7.0 0.0
    vertex 6.12727065052363 6.127270650523626 1.5509815654013436e-14
    vertex 4.98990761866282 7.0 1.5509815654013436e-14
  endloop
endfacet
facet normal -7.936368236443871e-15 -7.93636823644388e-15 -1.0
  outer loop
    vertex 6.12727065052363 6.127270650523626 1.5509815654013436e-14
    vertex 6.999999999999998 7.0 0.0
    vertex 6.999999999999998 4.989907618662823 1.5509815654013436e-14
  endloop
endfacet
facet normal -0.6087614290087205 -0.7933533402912353 -3.443175070380406e-19
  outer loop
    vertex 6.12727065052363 6.127270650523626 20.0
    vertex 4.98990761866282 7.0 1.5509815654013436e-14
    vertex 6.12727065052363 6.127270650523626 1.5509815654013436e-14
  endloop
endfacet
facet normal -0.6087614290087205 -0.7933533402912353 -3.443175070380406e-19
  outer loop
    vertex 4.98990761866282 7.0 1.5509815654013436e-14
    vertex 4.332634627150568 7.5043433048570165 20.0
    vertex 4.332634627150568 7.5043433048570165 1.2689849171465539e-14
  endloop
endfacet
facet normal -0.6087614290087205 -0.7933533402912353 -3.443175070380406e-19
  outer loop
    vertex 4.332634627150568 7.5043433048570165 20.0
    vertex 4.98990761866282 7.0 1.5509815654013436e-14
    vertex 6.12727065052363 6.127270650523626 20.0
  endloop
endfacet
facet normal -0.6087614290087205 -0.7933533402912353 -3.443175070380406e-19
  outer loop
    vertex 4.332634627150568 7.5043433048570165 20.0
    vertex 6.12727065052363 6.127270650523626 20.0
    vertex 4.98990761866282 7.0 20.0
  endloop
endfacet
facet normal -0.7933533402912353 -0.6087614290087205 2.430258422024656e-33
  outer loop
    vertex 6.12727065052363 6.127270650523626 20.0
    vertex 6.999999999999998 4.989907618662823 1.5509815654013436e-14
    vertex 6.999999999999998 4.989907618662823 20.0
  endloop
endfacet
facet normal -0.7933533402912353 -0.6087614290087205 2.430258422024656e-33
  outer loop
    vertex 6.999999999999998 4.989907618662823 1.5509815654013436e-14
    vertex 6.12727065052363 6.127270650523626 20.0
    vertex 6.12727065052363 6.127270650523626 1.5509815654013436e-14
  endloop
endfacet
facet normal -0.3826834323650904 -0.9238795325112866 -0.0
  outer loop
    vertex 4.332634627150568 7.5043433048570165 20.0
    vertex 2.242736713954454 8.370007364478077 1.2689849171465539e-14
    vertex 4.332634627150568 7.5043433048570165 1.2689849171465539e-14
  endloop
endfacet
facet normal -0.3826834323650904 -0.9238795325112866 -0.0
  outer loop
    vertex 2.242736713954454 8.370007364478077 1.2689849171465539e-14
    vertex 4.332634627150568 7.5043433048570165 20.0
    vertex 2.242736713954454 8.370007364478077 20.0
  endloop
endfacet
facet normal -0.13052619222005216 -0.9914448613738104 -0.0
  outer loop
    vertex 2.242736713954454 8.370007364478077 20.0
    vertex 4.046455139346286e-15 8.665269254301132 1.2689849171465539e-14
    vertex 2.242736713954454 8.370007364478077 1.2689849171465539e-14
  endloop
endfacet
facet normal -0.13052619222005216 -0.9914448613738104 -0.0
  outer loop
    vertex 4.046455139346286e-15 8.665269254301132 1.2689849171465539e-14
    vertex 2.242736713954454 8.370007364478077 20.0
    vertex 4.046455139346286e-15 8.665269254301132 20.0
  endloop
endfacet
facet normal 0.13052619222005094 -0.9914448613738106 0.0
  outer loop
    vertex 4.046455139346286e-15 8.665269254301132 20.0
    vertex -2.2427367139544465 8.37000736447808 1.2689849171465539e-14
    vertex 4.046455139346286e-15 8.665269254301132 1.2689849171465539e-14
  endloop
endfacet
facet normal 0.13052619222005094 -0.9914448613738106 0.0
  outer loop
    vertex -2.2427367139544465 8.37000736447808 1.2689849171465539e-14
    vertex 4.046455139346286e-15 8.665269254301132 20.0
    vertex -2.2427367139544465 8.37000736447808 20.0
  endloop
endfacet
facet normal 0.38268343236508895 -0.9238795325112871 0.0
  outer loop
    vertex -2.2427367139544465 8.37000736447808 20.0
    vertex -4.332634627150562 7.504343304857023 1.2689849171465539e-14
    vertex -2.2427367139544465 8.37000736447808 1.2689849171465539e-14
  endloop
endfacet
facet normal 0.38268343236508895 -0.9238795325112871 0.0
  outer loop
    vertex -4.332634627150562 7.504343304857023 1.2689849171465539e-14
    vertex -2.2427367139544465 8.37000736447808 20.0
    vertex -4.332634627150562 7.504343304857023 20.0
  endloop
endfacet
facet normal 0.6087614290087208 -0.7933533402912352 -2.615351120167349e-18
  outer loop
    vertex -4.332634627150562 7.504343304857023 20.0
    vertex -4.989907618662821 7.0 1.2689849171465539e-14
    vertex -4.332634627150562 7.504343304857023 1.2689849171465539e-14
  endloop
endfacet
facet normal 0.6087614290087208 -0.7933533402912352 -2.615351120167349e-18
  outer loop
    vertex -4.989907618662821 7.0 1.2689849171465539e-14
    vertex -4.332634627150562 7.504343304857023 20.0
    vertex -6.127270650523626 6.12727065052363 1.2689849171465539e-14
  endloop
endfacet
facet normal 0.6087614290087208 -0.7933533402912352 -2.615351120167349e-18
  outer loop
    vertex -6.127270650523626 6.12727065052363 1.2689849171465539e-14
    vertex -4.332634627150562 7.504343304857023 20.0
    vertex -6.127270650523626 6.12727065052363 20.0
  endloop
endfacet
facet normal 0.6087614290087208 -0.7933533402912352 -2.615351120167349e-18
  outer loop
    vertex -6.127270650523626 6.12727065052363 20.0
    vertex -4.332634627150562 7.504343304857023 20.0
    vertex -4.989907618662821 7.0 20.0
  endloop
endfacet
facet normal 0.06540312923014452 0.9978589232386036 4.221071695288429e-16
  outer loop
    vertex -4.391578576660154 -6.974334584121435 9.999999999999995
    vertex -3.999999999999999 -7.0 -6.261583435191781e-31
    vertex -4.391578576660154 -6.97433458412143 -4.9115584269121e-17
  endloop
endfacet
facet normal 0.06540312923014452 0.9978589232386036 4.221071695288429e-16
  outer loop
    vertex -3.999999999999999 -7.0 -6.261583435191781e-31
    vertex -4.391578576660154 -6.974334584121435 9.999999999999995
    vertex -3.999999999999999 -7.000000000000004 9.999999999999995
  endloop
endfacet
facet normal 0.9978589232386037 0.06540312923014105 5.573214640945894e-17
  outer loop
    vertex -6.97433458412143 -4.391578576660154 1.3176499165077455e-15
    vertex -6.999999999999998 -4.0000000000000036 9.999999999999996
    vertex -6.97433458412143 -4.391578576660158 9.999999999999996
  endloop
endfacet
facet normal 0.9978589232386037 0.06540312923014105 5.573214640945894e-17
  outer loop
    vertex -6.999999999999998 -4.0000000000000036 9.999999999999996
    vertex -6.97433458412143 -4.391578576660154 1.3176499165077455e-15
    vertex -6.999999999999998 -3.9999999999999996 1.5875663401751178e-15
  endloop
endfacet
facet normal 0.9807852804032308 0.19509032201612717 1.2659820535060196e-16
  outer loop
    vertex -6.897777478867205 -4.776457135307561 1.061147125203548e-15
    vertex -6.97433458412143 -4.391578576660158 9.999999999999996
    vertex -6.897777478867205 -4.776457135307565 9.999999999999996
  endloop
endfacet
facet normal 0.9807852804032308 0.19509032201612717 1.2659820535060196e-16
  outer loop
    vertex -6.97433458412143 -4.391578576660158 9.999999999999996
    vertex -6.897777478867205 -4.776457135307561 1.061147125203548e-15
    vertex -6.97433458412143 -4.391578576660154 1.3176499165077455e-15
  endloop
endfacet
facet normal 0.9469301294951057 0.32143946530316175 1.952981338985427e-16
  outer loop
    vertex -6.77163859753386 -5.148050297095269 8.224468001377494e-16
    vertex -6.897777478867205 -4.776457135307565 9.999999999999996
    vertex -6.77163859753386 -5.148050297095272 9.999999999999996
  endloop
endfacet
facet normal 0.9469301294951057 0.32143946530316175 1.952981338985427e-16
  outer loop
    vertex -6.897777478867205 -4.776457135307565 9.999999999999996
    vertex -6.77163859753386 -5.148050297095269 8.224468001377494e-16
    vertex -6.897777478867205 -4.776457135307561 1.061147125203548e-15
  endloop
endfacet
facet normal 0.8968727415326887 0.4422886902190005 2.6065645722860594e-16
  outer loop
    vertex -6.598076211353316 -5.5 6.056331700524582e-16
    vertex -6.77163859753386 -5.148050297095272 9.999999999999996
    vertex -6.598076211353316 -5.5000000000000036 9.999999999999996
  endloop
endfacet
facet normal 0.8968727415326887 0.4422886902190005 2.6065645722860594e-16
  outer loop
    vertex -6.77163859753386 -5.148050297095272 9.999999999999996
    vertex -6.598076211353316 -5.5 6.056331700524582e-16
    vertex -6.77163859753386 -5.148050297095269 8.224468001377494e-16
  endloop
endfacet
facet normal 0.8314696123025441 0.5555702330196038 3.2155487630786657e-16
  outer loop
    vertex -6.380060020873705 -5.826284287026161 4.144159762705295e-16
    vertex -6.598076211353316 -5.5000000000000036 9.999999999999996
    vertex -6.380060020873705 -5.826284287026165 9.999999999999995
  endloop
endfacet
facet normal 0.8314696123025441 0.5555702330196038 3.2155487630786657e-16
  outer loop
    vertex -6.598076211353316 -5.5000000000000036 9.999999999999996
    vertex -6.380060020873705 -5.826284287026161 4.144159762705295e-16
    vertex -6.598076211353316 -5.5 6.056331700524582e-16
  endloop
endfacet
facet normal 0.7518398074789776 0.6593458151000687 3.769514023016429e-16
  outer loop
    vertex -6.121320343559642 -6.121320343559642 2.520669979929925e-16
    vertex -6.380060020873705 -5.826284287026165 9.999999999999995
    vertex -6.121320343559642 -6.1213203435596455 9.999999999999995
  endloop
endfacet
facet normal 0.7518398074789776 0.6593458151000687 3.769514023016429e-16
  outer loop
    vertex -6.380060020873705 -5.826284287026165 9.999999999999995
    vertex -6.121320343559642 -6.121320343559642 2.520669979929925e-16
    vertex -6.380060020873705 -5.826284287026161 4.144159762705295e-16
  endloop
endfacet
facet normal 0.6593458151000696 0.7518398074789767 4.258981852913657e-16
  outer loop
    vertex -6.121320343559642 -6.121320343559642 2.520669979929925e-16
    vertex -5.826284287026162 -6.380060020873709 9.999999999999995
    vertex -5.826284287026162 -6.380060020873705 1.2136407124981784e-16
  endloop
endfacet
facet normal 0.6593458151000696 0.7518398074789767 4.258981852913657e-16
  outer loop
    vertex -5.826284287026162 -6.380060020873709 9.999999999999995
    vertex -6.121320343559642 -6.121320343559642 2.520669979929925e-16
    vertex -6.121320343559642 -6.1213203435596455 9.999999999999995
  endloop
endfacet
facet normal 0.5555702330196031 0.8314696123025449 4.675577322494685e-16
  outer loop
    vertex -5.826284287026162 -6.380060020873705 1.2136407124981784e-16
    vertex -5.5 -6.5980762113533205 9.999999999999995
    vertex -5.5 -6.598076211353316 2.4543559355276916e-17
  endloop
endfacet
facet normal 0.5555702330196031 0.8314696123025449 4.675577322494685e-16
  outer loop
    vertex -5.5 -6.5980762113533205 9.999999999999995
    vertex -5.826284287026162 -6.380060020873705 1.2136407124981784e-16
    vertex -5.826284287026162 -6.380060020873709 9.999999999999995
  endloop
endfacet
facet normal 0.4422886902190005 0.8968727415326887 5.012172367772894e-16
  outer loop
    vertex -5.5 -6.598076211353316 2.4543559355276916e-17
    vertex -5.148050297095269 -6.771638597533864 9.999999999999995
    vertex -5.148050297095269 -6.77163859753386 -3.6737911888395586e-17
  endloop
endfacet
facet normal 0.4422886902190005 0.8968727415326887 5.012172367772894e-16
  outer loop
    vertex -5.148050297095269 -6.771638597533864 9.999999999999995
    vertex -5.5 -6.598076211353316 2.4543559355276916e-17
    vertex -5.5 -6.5980762113533205 9.999999999999995
  endloop
endfacet
facet normal 0.32143946530316175 0.9469301294951057 5.263007754201789e-16
  outer loop
    vertex -5.148050297095269 -6.77163859753386 -3.6737911888395586e-17
    vertex -4.776457135307561 -6.897777478867209 9.999999999999995
    vertex -4.776457135307561 -6.897777478867205 -6.143179951778792e-17
  endloop
endfacet
facet normal 0.32143946530316175 0.9469301294951057 5.263007754201789e-16
  outer loop
    vertex -4.776457135307561 -6.897777478867209 9.999999999999995
    vertex -5.148050297095269 -6.77163859753386 -3.6737911888395586e-17
    vertex -5.148050297095269 -6.771638597533864 9.999999999999995
  endloop
endfacet
facet normal 0.19509032201612717 0.9807852804032308 5.423791618774874e-16
  outer loop
    vertex -4.776457135307561 -6.897777478867209 9.999999999999995
    vertex -4.391578576660154 -6.97433458412143 -4.9115584269121e-17
    vertex -4.776457135307561 -6.897777478867205 -6.143179951778792e-17
  endloop
endfacet
facet normal 0.19509032201612717 0.9807852804032308 5.423791618774874e-16
  outer loop
    vertex -4.391578576660154 -6.97433458412143 -4.9115584269121e-17
    vertex -4.776457135307561 -6.897777478867209 9.999999999999995
    vertex -4.391578576660154 -6.974334584121435 9.999999999999995
  endloop
endfacet
facet normal -0.0654031292301445 0.9978589232386036 -4.666340286310203e-18
  outer loop
    vertex 3.999999999999998 -7.0 6.261583435191781e-31
    vertex 4.3915785766601525 -6.97433458412143 9.999999999999998
    vertex 4.3915785766601525 -6.97433458412143 -2.200675754968037e-16
  endloop
endfacet
facet normal -0.0654031292301445 0.9978589232386036 -4.666340286310203e-18
  outer loop
    vertex 4.3915785766601525 -6.97433458412143 9.999999999999998
    vertex 3.999999999999998 -7.0 6.261583435191781e-31
    vertex 3.999999999999997 -7.0 9.999999999999998
  endloop
endfacet
facet normal -0.19509032201612717 0.9807852804032308 7.225315058747644e-16
  outer loop
    vertex 4.3915785766601525 -6.97433458412143 -2.200675754968037e-16
    vertex 4.7764571353075596 -6.897777478867205 9.999999999999998
    vertex 4.77645713530756 -6.897777478867205 -3.6996957762785463e-16
  endloop
endfacet
facet normal -0.19509032201612717 0.9807852804032308 7.225315058747644e-16
  outer loop
    vertex 4.7764571353075596 -6.897777478867205 9.999999999999998
    vertex 4.3915785766601525 -6.97433458412143 -2.200675754968037e-16
    vertex 4.3915785766601525 -6.97433458412143 9.999999999999998
  endloop
endfacet
facet normal -0.3214394653031612 0.9469301294951058 7.075701208830521e-16
  outer loop
    vertex 4.77645713530756 -6.897777478867205 -3.6996957762785463e-16
    vertex 5.148050297095267 -6.77163859753386 9.999999999999998
    vertex 5.148050297095268 -6.77163859753386 -4.471411415760011e-16
  endloop
endfacet
facet normal -0.3214394653031612 0.9469301294951058 7.075701208830521e-16
  outer loop
    vertex 5.148050297095267 -6.77163859753386 9.999999999999998
    vertex 4.77645713530756 -6.897777478867205 -3.6996957762785463e-16
    vertex 4.7764571353075596 -6.897777478867205 9.999999999999998
  endloop
endfacet
facet normal -0.4422886902190013 0.8968727415326885 6.805020149475318e-16
  outer loop
    vertex 5.148050297095268 -6.77163859753386 -4.471411415760011e-16
    vertex 5.499999999999997 -6.598076211353316 9.999999999999998
    vertex 5.499999999999998 -6.598076211353316 -4.502618404860922e-16
  endloop
endfacet
facet normal -0.4422886902190013 0.8968727415326885 6.805020149475318e-16
  outer loop
    vertex 5.499999999999997 -6.598076211353316 9.999999999999998
    vertex 5.148050297095268 -6.77163859753386 -4.471411415760011e-16
    vertex 5.148050297095267 -6.77163859753386 9.999999999999998
  endloop
endfacet
facet normal -0.5555702330196031 0.8314696123025449 6.417903308654559e-16
  outer loop
    vertex 5.499999999999997 -6.598076211353316 9.999999999999998
    vertex 5.82628428702616 -6.380060020873705 -3.7927827833455374e-16
    vertex 5.499999999999998 -6.598076211353316 -4.502618404860922e-16
  endloop
endfacet
facet normal -0.5555702330196031 0.8314696123025449 6.417903308654559e-16
  outer loop
    vertex 5.82628428702616 -6.380060020873705 -3.7927827833455374e-16
    vertex 5.499999999999997 -6.598076211353316 9.999999999999998
    vertex 5.82628428702616 -6.380060020873705 9.999999999999998
  endloop
endfacet
facet normal -0.6593458151000687 0.7518398074789776 5.920974362843767e-16
  outer loop
    vertex 5.82628428702616 -6.380060020873705 9.999999999999998
    vertex 6.121320343559641 -6.121320343559642 -2.3540500355016277e-16
    vertex 5.82628428702616 -6.380060020873705 -3.7927827833455374e-16
  endloop
endfacet
facet normal -0.6593458151000687 0.7518398074789776 5.920974362843767e-16
  outer loop
    vertex 6.121320343559641 -6.121320343559642 -2.3540500355016277e-16
    vertex 5.82628428702616 -6.380060020873705 9.999999999999998
    vertex 6.12132034355964 -6.121320343559647 9.999999999999998
  endloop
endfacet
facet normal -0.7518398074789786 0.6593458151000677 5.322735904080479e-16
  outer loop
    vertex 6.380060020873703 -5.826284287026167 9.999999999999998
    vertex 6.121320343559641 -6.121320343559642 -2.3540500355016277e-16
    vertex 6.12132034355964 -6.121320343559647 9.999999999999998
  endloop
endfacet
facet normal -0.7518398074789786 0.6593458151000677 5.322735904080479e-16
  outer loop
    vertex 6.121320343559641 -6.121320343559642 -2.3540500355016277e-16
    vertex 6.380060020873703 -5.826284287026167 9.999999999999998
    vertex 6.380060020873703 -5.826284287026161 -2.110372775368408e-17
  endloop
endfacet
facet normal -0.8314696123025441 0.5555702330196038 4.633423958257203e-16
  outer loop
    vertex 6.598076211353314 -5.500000000000004 9.999999999999998
    vertex 6.380060020873703 -5.826284287026161 -2.110372775368408e-17
    vertex 6.380060020873703 -5.826284287026167 9.999999999999998
  endloop
endfacet
facet normal -0.8314696123025441 0.5555702330196038 4.633423958257203e-16
  outer loop
    vertex 6.380060020873703 -5.826284287026161 -2.110372775368408e-17
    vertex 6.598076211353314 -5.500000000000004 9.999999999999998
    vertex 6.598076211353314 -5.5 2.5995879481046306e-16
  endloop
endfacet
facet normal -0.8968727415326885 0.4422886902190013 3.8648328438803047e-16
  outer loop
    vertex 6.771638597533858 -5.148050297095274 9.999999999999998
    vertex 6.598076211353314 -5.5 2.5995879481046306e-16
    vertex 6.598076211353314 -5.500000000000004 9.999999999999998
  endloop
endfacet
facet normal -0.8968727415326885 0.4422886902190013 3.8648328438803047e-16
  outer loop
    vertex 6.598076211353314 -5.5 2.5995879481046306e-16
    vertex 6.771638597533858 -5.148050297095274 9.999999999999998
    vertex 6.771638597533858 -5.14805029709527 6.029735064559535e-16
  endloop
endfacet
facet normal -0.9469301294951058 0.3214394653031612 3.03011336801052e-16
  outer loop
    vertex 6.897777478867203 -4.776457135307567 9.999999999999998
    vertex 6.771638597533858 -5.14805029709527 6.029735064559535e-16
    vertex 6.771638597533858 -5.148050297095274 9.999999999999998
  endloop
endfacet
facet normal -0.9469301294951058 0.3214394653031612 3.03011336801052e-16
  outer loop
    vertex 6.771638597533858 -5.14805029709527 6.029735064559535e-16
    vertex 6.897777478867203 -4.776457135307567 9.999999999999998
    vertex 6.897777478867203 -4.776457135307561 1.0020713303648897e-15
  endloop
endfacet
facet normal -0.9807852804032308 0.19509032201612717 2.1435478123079323e-16
  outer loop
    vertex 6.974334584121429 -4.39157857666016 9.999999999999998
    vertex 6.897777478867203 -4.776457135307561 1.0020713303648897e-15
    vertex 6.897777478867203 -4.776457135307567 9.999999999999998
  endloop
endfacet
facet normal -0.9807852804032308 0.19509032201612717 2.1435478123079323e-16
  outer loop
    vertex 6.897777478867203 -4.776457135307561 1.0020713303648897e-15
    vertex 6.974334584121429 -4.39157857666016 9.999999999999998
    vertex 6.974334584121429 -4.391578576660154 1.4504235921193663e-15
  endloop
endfacet
facet normal -0.9978589232386035 0.06540312923014462 1.2203055592330497e-16
  outer loop
    vertex 6.999999999999998 -4.000000000000004 10.000000000000002
    vertex 6.974334584121429 -4.391578576660154 1.4504235921193663e-15
    vertex 6.974334584121429 -4.39157857666016 9.999999999999998
  endloop
endfacet
facet normal -0.9978589232386035 0.06540312923014462 1.2203055592330497e-16
  outer loop
    vertex 6.974334584121429 -4.391578576660154 1.4504235921193663e-15
    vertex 6.999999999999998 -4.000000000000004 10.000000000000002
    vertex 6.999999999999998 -3.9999999999999996 1.940358860214034e-15
  endloop
endfacet
facet normal 0.0 0.0 -1.0
  outer loop
    vertex -2.2427367139544465 8.37000736447808 20.0
    vertex -1.6420739046914177 4.139992376674285 20.000000000000004
    vertex -1.7000000000000015 3.7 20.000000000000004
  endloop
endfacet
facet normal 0.0 0.0 -1.0
  outer loop
    vertex -1.6420739046914177 4.139992376674285 20.000000000000004
    vertex -2.2427367139544465 8.37000736447808 20.0
    vertex 4.046455139346286e-15 8.665269254301132 20.0
  endloop
endfacet
facet normal 0.0 0.0 -1.0
  outer loop
    vertex -1.6420739046914177 4.139992376674285 20.000000000000004
    vertex 4.046455139346286e-15 8.665269254301132 20.0
    vertex -1.472243186433548 4.549999999999999 20.000000000000004
  endloop
endfacet
facet normal 0.0 0.0 -1.0
  outer loop
    vertex -1.472243186433548 4.549999999999999 20.000000000000004
    vertex 4.046455139346286e-15 8.665269254301132 20.0
    vertex -1.2020815280171324 4.90208152801713 20.000000000000004
  endloop
endfacet
facet normal 0.0 0.0 -1.0
  outer loop
    vertex -1.2020815280171324 4.90208152801713 20.000000000000004
    vertex 4.046455139346286e-15 8.665269254301132 20.0
    vertex -0.8500000000000022 5.172243186433545 20.000000000000004
  endloop
endfacet
facet normal 0.0 0.0 -1.0
  outer loop
    vertex -0.8500000000000022 5.172243186433545 20.000000000000004
    vertex 4.046455139346286e-15 8.665269254301132 20.0
    vertex -0.439992376674288 5.342073904691416 20.000000000000004
  endloop
endfacet
facet normal 0.0 0.0 -1.0
  outer loop
    vertex -0.439992376674288 5.342073904691416 20.000000000000004
    vertex 4.046455139346286e-15 8.665269254301132 20.0
    vertex -1.40998324127395e-15 5.4 20.000000000000004
  endloop
endfacet
facet normal 0.0 0.0 -1.0
  outer loop
    vertex -1.40998324127395e-15 5.4 20.000000000000004
    vertex 4.046455139346286e-15 8.665269254301132 20.0
    vertex 0.4399923766742838 5.342073904691417 20.000000000000004
  endloop
endfacet
facet normal 0.0 0.0 -1.0
  outer loop
    vertex 0.4399923766742838 5.342073904691417 20.000000000000004
    vertex 4.046455139346286e-15 8.665269254301132 20.0
    vertex 2.242736713954454 8.370007364478077 20.0
  endloop
endfacet
facet normal 0.0 0.0 -1.0
  outer loop
    vertex 0.4399923766742838 5.342073904691417 20.000000000000004
    vertex 2.242736713954454 8.370007364478077 20.0
    vertex 0.8499999999999984 5.172243186433546 20.000000000000004
  endloop
endfacet
facet normal 0.0 0.0 -1.0
  outer loop
    vertex 0.8499999999999984 5.172243186433546 20.000000000000004
    vertex 2.242736713954454 8.370007364478077 20.0
    vertex 1.2020815280171293 4.902081528017131 20.000000000000004
  endloop
endfacet
facet normal 0.0 0.0 -1.0
  outer loop
    vertex 1.2020815280171293 4.902081528017131 20.000000000000004
    vertex 2.242736713954454 8.370007364478077 20.0
    vertex 1.4722431864335443 4.55 20.000000000000004
  endloop
endfacet
facet normal 0.0 0.0 -1.0
  outer loop
    vertex 1.4722431864335443 4.55 20.000000000000004
    vertex 2.242736713954454 8.370007364478077 20.0
    vertex 1.6420739046914146 4.139992376674286 20.000000000000004
  endloop
endfacet
facet normal 0.0 0.0 -1.0
  outer loop
    vertex 1.6420739046914146 4.139992376674286 20.000000000000004
    vertex 2.242736713954454 8.370007364478077 20.0
    vertex 1.6999999999999986 3.7 20.000000000000004
  endloop
endfacet
facet normal 0.0 0.0 -1.0
  outer loop
    vertex -6.127270650523626 6.12727065052363 20.0
    vertex -6.999999999999998 0.0 20.0
    vertex -7.0 4.989907618662821 20.0
  endloop
endfacet
facet normal 0.0 0.0 -1.0
  outer loop
    vertex -6.999999999999998 0.0 20.0
    vertex -6.127270650523626 6.12727065052363 20.0
    vertex -0.8500000000000011 2.227756813566454 20.000000000000004
  endloop
endfacet
facet normal 0.0 0.0 -1.0
  outer loop
    vertex -6.999999999999998 0.0 20.0
    vertex -0.8500000000000011 2.227756813566454 20.000000000000004
    vertex -0.43999237667428603 2.057926095308584 20.000000000000004
  endloop
endfacet
facet normal 0.0 0.0 -1.0
  outer loop
    vertex -6.999999999999998 0.0 20.0
    vertex -0.43999237667428603 2.057926095308584 20.000000000000004
    vertex 6.999999999999998 0.0 20.0
  endloop
endfacet
facet normal 0.0 0.0 -1.0
  outer loop
    vertex -0.8500000000000011 2.227756813566454 20.000000000000004
    vertex -6.127270650523626 6.12727065052363 20.0
    vertex -1.2020815280171315 2.497918471982869 20.000000000000004
  endloop
endfacet
facet normal 0.0 0.0 -1.0
  outer loop
    vertex -1.2020815280171315 2.497918471982869 20.000000000000004
    vertex -6.127270650523626 6.12727065052363 20.0
    vertex -4.989907618662821 7.0 20.0
  endloop
endfacet
facet normal 0.0 0.0 -1.0
  outer loop
    vertex -1.2020815280171315 2.497918471982869 20.000000000000004
    vertex -4.989907618662821 7.0 20.0
    vertex -1.4722431864335466 2.8499999999999996 20.000000000000004
  endloop
endfacet
facet normal 0.0 0.0 -1.0
  outer loop
    vertex -1.4722431864335466 2.8499999999999996 20.000000000000004
    vertex -4.989907618662821 7.0 20.0
    vertex -4.332634627150562 7.504343304857023 20.0
  endloop
endfacet
facet normal 0.0 0.0 -1.0
  outer loop
    vertex -1.4722431864335466 2.8499999999999996 20.000000000000004
    vertex -4.332634627150562 7.504343304857023 20.0
    vertex -1.6420739046914172 3.2600076233257136 20.000000000000004
  endloop
endfacet
facet normal 0.0 0.0 -1.0
  outer loop
    vertex -1.6420739046914172 3.2600076233257136 20.000000000000004
    vertex -4.332634627150562 7.504343304857023 20.0
    vertex -1.7000000000000015 3.7 20.000000000000004
  endloop
endfacet
facet normal 0.0 0.0 -1.0
  outer loop
    vertex -1.7000000000000015 3.7 20.000000000000004
    vertex -4.332634627150562 7.504343304857023 20.0
    vertex -2.2427367139544465 8.37000736447808 20.0
  endloop
endfacet
facet normal 0.0 0.0 -1.0
  outer loop
    vertex 6.999999999999998 0.0 20.0
    vertex -0.43999237667428603 2.057926095308584 20.000000000000004
    vertex -1.2017932854189042e-15 2.0 20.000000000000004
  endloop
endfacet
facet normal 0.0 0.0 -1.0
  outer loop
    vertex 6.999999999999998 0.0 20.0
    vertex -1.2017932854189042e-15 2.0 20.000000000000004
    vertex 0.43999237667428437 2.0579260953085843 20.000000000000004
  endloop
endfacet
facet normal 0.0 0.0 -1.0
  outer loop
    vertex 6.999999999999998 0.0 20.0
    vertex 0.43999237667428437 2.0579260953085843 20.000000000000004
    vertex 0.8499999999999992 2.227756813566455 20.000000000000004
  endloop
endfacet
facet normal 0.0 0.0 -1.0
  outer loop
    vertex 6.999999999999998 0.0 20.0
    vertex 0.8499999999999992 2.227756813566455 20.000000000000004
    vertex 1.2020815280171295 2.4979184719828695 20.000000000000004
  endloop
endfacet
facet normal 0.0 0.0 -1.0
  outer loop
    vertex 6.999999999999998 0.0 20.0
    vertex 1.2020815280171295 2.4979184719828695 20.000000000000004
    vertex 1.4722431864335448 2.8500000000000005 20.000000000000004
  endloop
endfacet
facet normal 0.0 0.0 -1.0
  outer loop
    vertex 6.999999999999998 0.0 20.0
    vertex 1.4722431864335448 2.8500000000000005 20.000000000000004
    vertex 1.6420739046914148 3.260007623325715 20.000000000000004
  endloop
endfacet
facet normal 0.0 0.0 -1.0
  outer loop
    vertex 6.999999999999998 0.0 20.0
    vertex 1.6420739046914148 3.260007623325715 20.000000000000004
    vertex 1.6999999999999986 3.7 20.000000000000004
  endloop
endfacet
facet normal 0.0 0.0 -1.0
  outer loop
    vertex 6.999999999999998 0.0 20.0
    vertex 1.6999999999999986 3.7 20.000000000000004
    vertex 2.242736713954454 8.370007364478077 20.0
  endloop
endfacet
facet normal 0.0 0.0 -1.0
  outer loop
    vertex 6.999999999999998 0.0 20.0
    vertex 2.242736713954454 8.370007364478077 20.0
    vertex 4.332634627150568 7.5043433048570165 20.0
  endloop
endfacet
facet normal 0.0 0.0 -1.0
  outer loop
    vertex 6.999999999999998 0.0 20.0
    vertex 4.332634627150568 7.5043433048570165 20.0
    vertex 4.98990761866282 7.0 20.0
  endloop
endfacet
facet normal 0.0 0.0 -1.0
  outer loop
    vertex 6.999999999999998 0.0 20.0
    vertex 4.98990761866282 7.0 20.0
    vertex 6.12727065052363 6.127270650523626 20.0
  endloop
endfacet
facet normal 0.0 0.0 -1.0
  outer loop
    vertex 6.999999999999998 0.0 20.0
    vertex 6.12727065052363 6.127270650523626 20.0
    vertex 6.999999999999998 4.989907618662823 20.0
  endloop
endfacet
facet normal 9.187860720080863e-16 -1.591339344433196e-15 1.0
  outer loop
    vertex 10.000000000000004 -7.319119981198614e-15 23.999999999999925
    vertex -9.659258262890688 2.5881904510252105 24.0
    vertex -10.000000000000004 1.2541815831433677e-14 24.0
  endloop
endfacet
facet normal 9.187860720080863e-16 -1.591339344433196e-15 1.0
  outer loop
    vertex -9.659258262890688 2.5881904510252105 24.0
    vertex 10.000000000000004 -7.319119981198614e-15 23.999999999999925
    vertex -0.43999237667428603 2.057926095308584 24.0
  endloop
endfacet
facet normal 9.187860720080863e-16 -1.591339344433196e-15 1.0
  outer loop
    vertex -9.659258262890688 2.5881904510252105 24.0
    vertex -0.43999237667428603 2.057926095308584 24.0
    vertex -8.66025403784439 5.000000000000007 24.0
  endloop
endfacet
facet normal 9.187860720080863e-16 -1.591339344433196e-15 1.0
  outer loop
    vertex -8.66025403784439 5.000000000000007 24.0
    vertex -0.43999237667428603 2.057926095308584 24.0
    vertex -0.8500000000000011 2.227756813566454 24.0
  endloop
endfacet
facet normal 9.187860720080863e-16 -1.591339344433196e-15 1.0
  outer loop
    vertex -8.66025403784439 5.000000000000007 24.0
    vertex -0.8500000000000011 2.227756813566454 24.0
    vertex -1.2020815280171315 2.497918471982869 24.0
  endloop
endfacet
facet normal 9.187860720080863e-16 -1.591339344433196e-15 1.0
  outer loop
    vertex -8.66025403784439 5.000000000000007 24.0
    vertex -1.2020815280171315 2.497918471982869 24.0
    vertex -7.07106781186548 7.07106781186548 24.0
  endloop
endfacet
facet normal 9.187860720080863e-16 -1.591339344433196e-15 1.0
  outer loop
    vertex -7.07106781186548 7.07106781186548 24.0
    vertex -1.2020815280171315 2.497918471982869 24.0
    vertex -1.4722431864335466 2.8499999999999996 24.0
  endloop
endfacet
facet normal 9.187860720080863e-16 -1.591339344433196e-15 1.0
  outer loop
    vertex -7.07106781186548 7.07106781186548 24.0
    vertex -1.4722431864335466 2.8499999999999996 24.0
    vertex -5.000000000000004 8.66025403784439 24.0
  endloop
endfacet
facet normal 9.187860720080863e-16 -1.591339344433196e-15 1.0
  outer loop
    vertex -5.000000000000004 8.66025403784439 24.0
    vertex -1.4722431864335466 2.8499999999999996 24.0
    vertex -1.6420739046914172 3.2600076233257136 24.0
  endloop
endfacet
facet normal 9.187860720080863e-16 -1.591339344433196e-15 1.0
  outer loop
    vertex -5.000000000000004 8.66025403784439 24.0
    vertex -1.6420739046914172 3.2600076233257136 24.0
    vertex -2.58819045102521 9.659258262890686 24.0
  endloop
endfacet
facet normal 9.187860720080863e-16 -1.591339344433196e-15 1.0
  outer loop
    vertex -2.58819045102521 9.659258262890686 24.0
    vertex -1.6420739046914172 3.2600076233257136 24.0
    vertex -1.7000000000000015 3.7 24.0
  endloop
endfacet
facet normal 9.187860720080863e-16 -1.591339344433196e-15 1.0
  outer loop
    vertex -0.43999237667428603 2.057926095308584 24.0
    vertex 10.000000000000004 -7.319119981198614e-15 23.999999999999925
    vertex -1.2017932854188987e-15 2.0 24.0
  endloop
endfacet
facet normal 9.187860720080863e-16 -1.591339344433196e-15 1.0
  outer loop
    vertex -1.2017932854188987e-15 2.0 24.0
    vertex 10.000000000000004 -7.319119981198614e-15 23.999999999999925
    vertex 0.43999237667428437 2.0579260953085843 24.0
  endloop
endfacet
facet normal 9.187860720080863e-16 -1.591339344433196e-15 1.0
  outer loop
    vertex 0.43999237667428437 2.0579260953085843 24.0
    vertex 10.000000000000004 -7.319119981198614e-15 23.999999999999925
    vertex 0.8499999999999992 2.227756813566455 24.0
  endloop
endfacet
facet normal 9.187860720080863e-16 -1.591339344433196e-15 1.0
  outer loop
    vertex 0.8499999999999992 2.227756813566455 24.0
    vertex 10.000000000000004 -7.319119981198614e-15 23.999999999999925
    vertex 1.2020815280171295 2.4979184719828695 24.0
  endloop
endfacet
facet normal 9.187860720080863e-16 -1.591339344433196e-15 1.0
  outer loop
    vertex 1.2020815280171295 2.4979184719828695 24.0
    vertex 10.000000000000004 -7.319119981198614e-15 23.999999999999925
    vertex 1.4722431864335448 2.8500000000000005 24.0
  endloop
endfacet
facet normal 9.187860720080863e-16 -1.591339344433196e-15 1.0
  outer loop
    vertex 1.4722431864335448 2.8500000000000005 24.0
    vertex 10.000000000000004 -7.319119981198614e-15 23.999999999999925
    vertex 1.6420739046914148 3.260007623325715 24.0
  endloop
endfacet
facet normal 9.187860720080863e-16 -1.591339344433196e-15 1.0
  outer loop
    vertex 1.6420739046914148 3.260007623325715 24.0
    vertex 10.000000000000004 -7.319119981198614e-15 23.999999999999925
    vertex 1.6999999999999986 3.7 24.0
  endloop
endfacet
facet normal 9.187860720080863e-16 -1.591339344433196e-15 1.0
  outer loop
    vertex 1.6999999999999986 3.7 24.0
    vertex 10.000000000000004 -7.319119981198614e-15 23.999999999999925
    vertex 2.5881904510252127 9.659258262890685 24.0
  endloop
endfacet
facet normal 9.187860720080863e-16 -1.591339344433196e-15 1.0
  outer loop
    vertex 2.5881904510252127 9.659258262890685 24.0
    vertex 10.000000000000004 -7.319119981198614e-15 23.999999999999925
    vertex 4.999999999999999 8.660254037844387 24.0
  endloop
endfacet
facet normal 9.187860720080863e-16 -1.591339344433196e-15 1.0
  outer loop
    vertex 4.999999999999999 8.660254037844387 24.0
    vertex 10.000000000000004 -7.319119981198614e-15 23.999999999999925
    vertex 7.071067811865472 7.071067811865479 24.0
  endloop
endfacet
facet normal 9.187860720080863e-16 -1.591339344433196e-15 1.0
  outer loop
    vertex 7.071067811865472 7.071067811865479 24.0
    vertex 10.000000000000004 -7.319119981198614e-15 23.999999999999925
    vertex 8.660254037844386 4.999999999999998 24.0
  endloop
endfacet
facet normal 9.187860720080863e-16 -1.591339344433196e-15 1.0
  outer loop
    vertex 8.660254037844386 4.999999999999998 24.0
    vertex 10.000000000000004 -7.319119981198614e-15 23.999999999999925
    vertex 9.659258262890678 2.588190451025204 24.0
  endloop
endfacet
facet normal 9.187860720080863e-16 -1.591339344433196e-15 1.0
  outer loop
    vertex -2.58819045102521 9.659258262890686 24.0
    vertex -1.6420739046914177 4.139992376674285 24.0
    vertex 2.8092135550511094e-15 10.000000000000004 24.0
  endloop
endfacet
facet normal 9.187860720080863e-16 -1.591339344433196e-15 1.0
  outer loop
    vertex -1.6420739046914177 4.139992376674285 24.0
    vertex -2.58819045102521 9.659258262890686 24.0
    vertex -1.7000000000000015 3.7 24.0
  endloop
endfacet
facet normal 9.187860720080863e-16 -1.591339344433196e-15 1.0
  outer loop
    vertex 2.8092135550511094e-15 10.000000000000004 24.0
    vertex -1.6420739046914177 4.139992376674285 24.0
    vertex -1.472243186433548 4.549999999999999 24.0
  endloop
endfacet
facet normal 9.187860720080863e-16 -1.591339344433196e-15 1.0
  outer loop
    vertex 2.8092135550511094e-15 10.000000000000004 24.0
    vertex -1.472243186433548 4.549999999999999 24.0
    vertex -1.2020815280171324 4.90208152801713 24.0
  endloop
endfacet
facet normal 9.187860720080863e-16 -1.591339344433196e-15 1.0
  outer loop
    vertex 2.8092135550511094e-15 10.000000000000004 24.0
    vertex -1.2020815280171324 4.90208152801713 24.0
    vertex -0.8500000000000022 5.172243186433545 24.0
  endloop
endfacet
facet normal 9.187860720080863e-16 -1.591339344433196e-15 1.0
  outer loop
    vertex 2.8092135550511094e-15 10.000000000000004 24.0
    vertex -0.8500000000000022 5.172243186433545 24.0
    vertex -0.439992376674288 5.342073904691416 24.0
  endloop
endfacet
facet normal 9.187860720080863e-16 -1.591339344433196e-15 1.0
  outer loop
    vertex 2.8092135550511094e-15 10.000000000000004 24.0
    vertex -0.439992376674288 5.342073904691416 24.0
    vertex -1.4099832412739487e-15 5.4 24.0
  endloop
endfacet
facet normal 9.187860720080863e-16 -1.591339344433196e-15 1.0
  outer loop
    vertex 2.8092135550511094e-15 10.000000000000004 24.0
    vertex -1.4099832412739487e-15 5.4 24.0
    vertex 0.4399923766742838 5.342073904691417 24.0
  endloop
endfacet
facet normal 9.187860720080863e-16 -1.591339344433196e-15 1.0
  outer loop
    vertex 2.8092135550511094e-15 10.000000000000004 24.0
    vertex 0.4399923766742838 5.342073904691417 24.0
    vertex 2.5881904510252127 9.659258262890685 24.0
  endloop
endfacet
facet normal 9.187860720080863e-16 -1.591339344433196e-15 1.0
  outer loop
    vertex 2.5881904510252127 9.659258262890685 24.0
    vertex 0.4399923766742838 5.342073904691417 24.0
    vertex 0.8499999999999984 5.172243186433546 24.0
  endloop
endfacet
facet normal 9.187860720080863e-16 -1.591339344433196e-15 1.0
  outer loop
    vertex 2.5881904510252127 9.659258262890685 24.0
    vertex 0.8499999999999984 5.172243186433546 24.0
    vertex 1.2020815280171293 4.902081528017131 24.0
  endloop
endfacet
facet normal 9.187860720080863e-16 -1.591339344433196e-15 1.0
  outer loop
    vertex 2.5881904510252127 9.659258262890685 24.0
    vertex 1.2020815280171293 4.902081528017131 24.0
    vertex 1.4722431864335443 4.55 24.0
  endloop
endfacet
facet normal 9.187860720080863e-16 -1.591339344433196e-15 1.0
  outer loop
    vertex 2.5881904510252127 9.659258262890685 24.0
    vertex 1.4722431864335443 4.55 24.0
    vertex 1.6420739046914146 4.139992376674286 24.0
  endloop
endfacet
facet normal 9.187860720080863e-16 -1.591339344433196e-15 1.0
  outer loop
    vertex 2.5881904510252127 9.659258262890685 24.0
    vertex 1.6420739046914146 4.139992376674286 24.0
    vertex 1.6999999999999986 3.7 24.0
  endloop
endfacet
facet normal 0.13052619222005107 -0.9914448613738105 -7.1800189798910695e-31
  outer loop
    vertex -1.4099832412739487e-15 5.4 24.0
    vertex -0.439992376674288 5.342073904691416 20.000000000000004
    vertex -1.40998324127395e-15 5.4 20.000000000000004
  endloop
endfacet
facet normal 0.13052619222005107 -0.9914448613738105 -7.1800189798910695e-31
  outer loop
    vertex -0.439992376674288 5.342073904691416 20.000000000000004
    vertex -1.4099832412739487e-15 5.4 24.0
    vertex -0.439992376674288 5.342073904691416 24.0
  endloop
endfacet
facet normal 0.38268343236509106 -0.9238795325112863 -9.683710869978524e-31
  outer loop
    vertex -0.439992376674288 5.342073904691416 24.0
    vertex -0.8500000000000022 5.172243186433545 20.000000000000004
    vertex -0.439992376674288 5.342073904691416 20.000000000000004
  endloop
endfacet
facet normal 0.38268343236509106 -0.9238795325112863 -9.683710869978524e-31
  outer loop
    vertex -0.8500000000000022 5.172243186433545 20.000000000000004
    vertex -0.439992376674288 5.342073904691416 24.0
    vertex -0.8500000000000022 5.172243186433545 24.0
  endloop
endfacet
facet normal 0.6087614290087207 -0.7933533402912354 -1.152747386736578e-30
  outer loop
    vertex -0.8500000000000022 5.172243186433545 24.0
    vertex -1.2020815280171324 4.90208152801713 20.000000000000004
    vertex -0.8500000000000022 5.172243186433545 20.000000000000004
  endloop
endfacet
facet normal 0.6087614290087207 -0.7933533402912354 -1.152747386736578e-30
  outer loop
    vertex -1.2020815280171324 4.90208152801713 20.000000000000004
    vertex -0.8500000000000022 5.172243186433545 24.0
    vertex -1.2020815280171324 4.90208152801713 24.0
  endloop
endfacet
facet normal 0.7933533402912357 -0.6087614290087199 -1.2585658570743353e-30
  outer loop
    vertex -1.2020815280171324 4.90208152801713 20.000000000000004
    vertex -1.472243186433548 4.549999999999999 24.0
    vertex -1.472243186433548 4.549999999999999 20.000000000000004
  endloop
endfacet
facet normal 0.7933533402912357 -0.6087614290087199 -1.2585658570743353e-30
  outer loop
    vertex -1.472243186433548 4.549999999999999 24.0
    vertex -1.2020815280171324 4.90208152801713 20.000000000000004
    vertex -1.2020815280171324 4.90208152801713 24.0
  endloop
endfacet
facet normal 0.923879532511287 -0.3826834323650893 -1.2786151441308952e-30
  outer loop
    vertex -1.472243186433548 4.549999999999999 20.000000000000004
    vertex -1.6420739046914177 4.139992376674285 24.0
    vertex -1.6420739046914177 4.139992376674285 20.000000000000004
  endloop
endfacet
facet normal 0.923879532511287 -0.3826834323650893 -1.2786151441308952e-30
  outer loop
    vertex -1.6420739046914177 4.139992376674285 24.0
    vertex -1.472243186433548 4.549999999999999 20.000000000000004
    vertex -1.472243186433548 4.549999999999999 24.0
  endloop
endfacet
facet normal 0.9914448613738105 -0.13052619222005163 -1.2115289221263673e-30
  outer loop
    vertex -1.6420739046914177 4.139992376674285 20.000000000000004
    vertex -1.7000000000000015 3.7 24.0
    vertex -1.7000000000000015 3.7 20.000000000000004
  endloop
endfacet
facet normal 0.9914448613738105 -0.13052619222005163 -1.2115289221263673e-30
  outer loop
    vertex -1.7000000000000015 3.7 24.0
    vertex -1.6420739046914177 4.139992376674285 20.000000000000004
    vertex -1.6420739046914177 4.139992376674285 24.0
  endloop
endfacet
facet normal 0.9914448613738105 0.1305261922200518 -1.0618790062251358e-30
  outer loop
    vertex -1.7000000000000015 3.7 20.000000000000004
    vertex -1.6420739046914172 3.2600076233257136 24.0
    vertex -1.6420739046914172 3.2600076233257136 20.000000000000004
  endloop
endfacet
facet normal 0.9914448613738105 0.1305261922200518 -1.0618790062251358e-30
  outer loop
    vertex -1.6420739046914172 3.2600076233257136 24.0
    vertex -1.7000000000000015 3.7 20.000000000000004
    vertex -1.7000000000000015 3.7 24.0
  endloop
endfacet
facet normal 0.9238795325112864 0.38268343236509106 -8.398637908876894e-31
  outer loop
    vertex -1.6420739046914172 3.2600076233257136 20.000000000000004
    vertex -1.4722431864335466 2.8499999999999996 24.0
    vertex -1.4722431864335466 2.8499999999999996 20.000000000000004
  endloop
endfacet
facet normal 0.9238795325112864 0.38268343236509106 -8.398637908876894e-31
  outer loop
    vertex -1.4722431864335466 2.8499999999999996 24.0
    vertex -1.6420739046914172 3.2600076233257136 20.000000000000004
    vertex -1.6420739046914172 3.2600076233257136 24.0
  endloop
endfacet
facet normal 0.7933533402912349 0.6087614290087209 -5.606132461417875e-31
  outer loop
    vertex -1.4722431864335466 2.8499999999999996 20.000000000000004
    vertex -1.2020815280171315 2.497918471982869 24.0
    vertex -1.2020815280171315 2.497918471982869 20.000000000000004
  endloop
endfacet
facet normal 0.7933533402912349 0.6087614290087209 -5.606132461417875e-31
  outer loop
    vertex -1.2020815280171315 2.497918471982869 24.0
    vertex -1.4722431864335466 2.8499999999999996 20.000000000000004
    vertex -1.4722431864335466 2.8499999999999996 24.0
  endloop
endfacet
facet normal 0.6087614290087209 0.793353340291235 -2.4315783512851633e-31
  outer loop
    vertex -1.2020815280171315 2.497918471982869 24.0
    vertex -0.8500000000000011 2.227756813566454 20.000000000000004
    vertex -1.2020815280171315 2.497918471982869 20.000000000000004
  endloop
endfacet
facet normal 0.6087614290087209 0.793353340291235 -2.4315783512851633e-31
  outer loop
    vertex -0.8500000000000011 2.227756813566454 20.000000000000004
    vertex -1.2020815280171315 2.497918471982869 24.0
    vertex -0.8500000000000011 2.227756813566454 24.0
  endloop
endfacet
facet normal 0.38268343236508906 0.9238795325112872 9.086838051144325e-32
  outer loop
    vertex -0.8500000000000011 2.227756813566454 24.0
    vertex -0.43999237667428603 2.057926095308584 20.000000000000004
    vertex -0.8500000000000011 2.227756813566454 20.000000000000004
  endloop
endfacet
facet normal 0.38268343236508906 0.9238795325112872 9.086838051144325e-32
  outer loop
    vertex -0.43999237667428603 2.057926095308584 20.000000000000004
    vertex -0.8500000000000011 2.227756813566454 24.0
    vertex -0.43999237667428603 2.057926095308584 24.0
  endloop
endfacet
facet normal 0.13052619222005157 0.9914448613738105 4.187020661866447e-31
  outer loop
    vertex -0.43999237667428603 2.057926095308584 24.0
    vertex -1.2017932854189042e-15 2.0 20.000000000000004
    vertex -0.43999237667428603 2.057926095308584 20.000000000000004
  endloop
endfacet
facet normal 0.13052619222005157 0.9914448613738105 4.187020661866447e-31
  outer loop
    vertex -1.2017932854189042e-15 2.0 20.000000000000004
    vertex -0.43999237667428603 2.057926095308584 24.0
    vertex -1.2017932854188987e-15 2.0 24.0
  endloop
endfacet
facet normal -0.13052619222005213 0.9914448613738104 7.180018979891082e-31
  outer loop
    vertex -1.2017932854188987e-15 2.0 24.0
    vertex 0.43999237667428437 2.0579260953085843 20.000000000000004
    vertex -1.2017932854189042e-15 2.0 20.000000000000004
  endloop
endfacet
facet normal -0.13052619222005213 0.9914448613738104 7.180018979891082e-31
  outer loop
    vertex 0.43999237667428437 2.0579260953085843 20.000000000000004
    vertex -1.2017932854188987e-15 2.0 24.0
    vertex 0.43999237667428437 2.0579260953085843 24.0
  endloop
endfacet
facet normal -0.3826834323650899 0.9238795325112868 9.683710869978514e-31
  outer loop
    vertex 0.43999237667428437 2.0579260953085843 24.0
    vertex 0.8499999999999992 2.227756813566455 20.000000000000004
    vertex 0.43999237667428437 2.0579260953085843 20.000000000000004
  endloop
endfacet
facet normal -0.3826834323650899 0.9238795325112868 9.683710869978514e-31
  outer loop
    vertex 0.8499999999999992 2.227756813566455 20.000000000000004
    vertex 0.43999237667428437 2.0579260953085843 24.0
    vertex 0.8499999999999992 2.227756813566455 24.0
  endloop
endfacet
facet normal -0.6087614290087211 0.793353340291235 1.1527473867365783e-30
  outer loop
    vertex 0.8499999999999992 2.227756813566455 24.0
    vertex 1.2020815280171295 2.4979184719828695 20.000000000000004
    vertex 0.8499999999999992 2.227756813566455 20.000000000000004
  endloop
endfacet
facet normal -0.6087614290087211 0.793353340291235 1.1527473867365783e-30
  outer loop
    vertex 1.2020815280171295 2.4979184719828695 20.000000000000004
    vertex 0.8499999999999992 2.227756813566455 24.0
    vertex 1.2020815280171295 2.4979184719828695 24.0
  endloop
endfacet
facet normal -0.7933533402912348 0.6087614290087212 1.258565857074335e-30
  outer loop
    vertex 1.4722431864335448 2.8500000000000005 24.0
    vertex 1.2020815280171295 2.4979184719828695 20.000000000000004
    vertex 1.2020815280171295 2.4979184719828695 24.0
  endloop
endfacet
facet normal -0.7933533402912348 0.6087614290087212 1.258565857074335e-30
  outer loop
    vertex 1.2020815280171295 2.4979184719828695 20.000000000000004
    vertex 1.4722431864335448 2.8500000000000005 24.0
    vertex 1.4722431864335448 2.8500000000000005 20.000000000000004
  endloop
endfacet
facet normal -0.923879532511287 0.3826834323650894 1.2786151441308954e-30
  outer loop
    vertex 1.6420739046914148 3.260007623325715 24.0
    vertex 1.4722431864335448 2.8500000000000005 20.000000000000004
    vertex 1.4722431864335448 2.8500000000000005 24.0
  endloop
endfacet
facet normal -0.923879532511287 0.3826834323650894 1.2786151441308954e-30
  outer loop
    vertex 1.4722431864335448 2.8500000000000005 20.000000000000004
    vertex 1.6420739046914148 3.260007623325715 24.0
    vertex 1.6420739046914148 3.260007623325715 20.000000000000004
  endloop
endfacet
facet normal -0.9914448613738106 0.13052619222005143 1.2115289221263676e-30
  outer loop
    vertex 1.6999999999999986 3.7 24.0
    vertex 1.6420739046914148 3.260007623325715 20.000000000000004
    vertex 1.6420739046914148 3.260007623325715 24.0
  endloop
endfacet
facet normal -0.9914448613738106 0.13052619222005143 1.2115289221263676e-30
  outer loop
    vertex 1.6420739046914148 3.260007623325715 20.000000000000004
    vertex 1.6999999999999986 3.7 24.0
    vertex 1.6999999999999986 3.7 20.000000000000004
  endloop
endfacet
facet normal -0.9914448613738105 -0.1305261922200522 1.0618790062251355e-30
  outer loop
    vertex 1.6420739046914146 4.139992376674286 24.0
    vertex 1.6999999999999986 3.7 20.000000000000004
    vertex 1.6999999999999986 3.7 24.0
  endloop
endfacet
facet normal -0.9914448613738105 -0.1305261922200522 1.0618790062251355e-30
  outer loop
    vertex 1.6999999999999986 3.7 20.000000000000004
    vertex 1.6420739046914146 4.139992376674286 24.0
    vertex 1.6420739046914146 4.139992376674286 20.000000000000004
  endloop
endfacet
facet normal -0.923879532511287 -0.3826834323650894 8.39863790887691e-31
  outer loop
    vertex 1.4722431864335443 4.55 24.0
    vertex 1.6420739046914146 4.139992376674286 20.000000000000004
    vertex 1.6420739046914146 4.139992376674286 24.0
  endloop
endfacet
facet normal -0.923879532511287 -0.3826834323650894 8.39863790887691e-31
  outer loop
    vertex 1.6420739046914146 4.139992376674286 20.000000000000004
    vertex 1.4722431864335443 4.55 24.0
    vertex 1.4722431864335443 4.55 20.000000000000004
  endloop
endfacet
facet normal -0.7933533402912356 -0.6087614290087202 5.606132461417888e-31
  outer loop
    vertex 1.2020815280171293 4.902081528017131 24.0
    vertex 1.4722431864335443 4.55 20.000000000000004
    vertex 1.4722431864335443 4.55 24.0
  endloop
endfacet
facet normal -0.7933533402912356 -0.6087614290087202 5.606132461417888e-31
  outer loop
    vertex 1.4722431864335443 4.55 20.000000000000004
    vertex 1.2020815280171293 4.902081528017131 24.0
    vertex 1.2020815280171293 4.902081528017131 20.000000000000004
  endloop
endfacet
facet normal -0.60876142900872 -0.7933533402912358 2.4315783512851492e-31
  outer loop
    vertex 1.2020815280171293 4.902081528017131 24.0
    vertex 0.8499999999999984 5.172243186433546 20.000000000000004
    vertex 1.2020815280171293 4.902081528017131 20.000000000000004
  endloop
endfacet
facet normal -0.60876142900872 -0.7933533402912358 2.4315783512851492e-31
  outer loop
    vertex 0.8499999999999984 5.172243186433546 20.000000000000004
    vertex 1.2020815280171293 4.902081528017131 24.0
    vertex 0.8499999999999984 5.172243186433546 24.0
  endloop
endfacet
facet normal -0.3826834323650907 -0.9238795325112864 -9.086838051144093e-32
  outer loop
    vertex 0.8499999999999984 5.172243186433546 24.0
    vertex 0.4399923766742838 5.342073904691417 20.000000000000004
    vertex 0.8499999999999984 5.172243186433546 20.000000000000004
  endloop
endfacet
facet normal -0.3826834323650907 -0.9238795325112864 -9.086838051144093e-32
  outer loop
    vertex 0.4399923766742838 5.342073904691417 20.000000000000004
    vertex 0.8499999999999984 5.172243186433546 24.0
    vertex 0.4399923766742838 5.342073904691417 24.0
  endloop
endfacet
facet normal -0.13052619222004988 -0.9914448613738106 -4.187020661866466e-31
  outer loop
    vertex 0.4399923766742838 5.342073904691417 24.0
    vertex -1.40998324127395e-15 5.4 20.000000000000004
    vertex 0.4399923766742838 5.342073904691417 20.000000000000004
  endloop
endfacet
facet normal -0.13052619222004988 -0.9914448613738106 -4.187020661866466e-31
  outer loop
    vertex -1.40998324127395e-15 5.4 20.000000000000004
    vertex 0.4399923766742838 5.342073904691417 24.0
    vertex -1.4099832412739487e-15 5.4 24.0
  endloop
endfacet
facet normal 1.0 2.100924345865233e-17 -1.392440874674673e-17
  outer loop
    vertex -6.999999999999998 -4.0000000000000036 9.999999999999996
    vertex -6.999999999999998 0.0 20.0
    vertex -7.0 -7.0 10.0
  endloop
endfacet
facet normal 1.0 2.100924345865233e-17 -1.392440874674673e-17
  outer loop
    vertex -6.999999999999998 0.0 20.0
    vertex -6.999999999999998 -4.0000000000000036 9.999999999999996
    vertex -6.999999999999998 -3.9999999999999996 1.5875663401751178e-15
  endloop
endfacet
facet normal 1.0 2.100924345865233e-17 -1.392440874674673e-17
  outer loop
    vertex -6.999999999999998 0.0 20.0
    vertex -6.999999999999998 -3.9999999999999996 1.5875663401751178e-15
    vertex -7.0 4.989907618662821 1.2689849171465539e-14
  endloop
endfacet
facet normal 1.0 2.100924345865233e-17 -1.392440874674673e-17
  outer loop
    vertex -6.999999999999998 0.0 20.0
    vertex -7.0 4.989907618662821 1.2689849171465539e-14
    vertex -7.0 4.989907618662821 20.0
  endloop
endfacet
facet normal -0.3016235531823857 -0.7381766329930433 0.6034223153552465
  outer loop
    vertex 9.06191456985709 -5.163631381387954 13.21433665351276
    vertex 10.00000000000001 -1.3108437946218742e-15 19.99999999999993
    vertex 7.125600061886399 -7.000000000000178 9.999999999999895
  endloop
endfacet
facet normal -0.3016235531823857 -0.7381766329930433 0.6034223153552465
  outer loop
    vertex 10.00000000000001 -1.3108437946218742e-15 19.99999999999993
    vertex 9.06191456985709 -5.163631381387954 13.21433665351276
    vertex 10.06578690190631 -2.7538050371597826 16.66410803856497
  endloop
endfacet
facet normal 1.2137818346839851e-14 -0.8192319205190384 0.5734623443633313
  outer loop
    vertex 10.00000000000001 -1.3108437946218742e-15 19.99999999999993
    vertex 6.999999999999998 -7.0 10.0
    vertex 7.125600061886399 -7.000000000000178 9.999999999999895
  endloop
endfacet
facet normal 1.2137818346839851e-14 -0.8192319205190384 0.5734623443633313
  outer loop
    vertex 6.999999999999998 -7.0 10.0
    vertex 10.00000000000001 -1.3108437946218742e-15 19.99999999999993
    vertex 6.999999999999998 0.0 20.0
  endloop
endfacet
facet normal -7.714918465512455e-16 -1.0 -1.921914492872981e-16
  outer loop
    vertex 10.000000000000004 -7.319119981198614e-15 23.999999999999925
    vertex 6.999999999999998 0.0 20.0
    vertex 10.00000000000001 -1.3108437946218742e-15 19.99999999999993
  endloop
endfacet
facet normal -7.714918465512455e-16 -1.0 -1.921914492872981e-16
  outer loop
    vertex 6.999999999999998 0.0 20.0
    vertex 10.000000000000004 -7.319119981198614e-15 23.999999999999925
    vertex -6.999999999999998 0.0 20.0
  endloop
endfacet
facet normal -7.714918465512455e-16 -1.0 -1.921914492872981e-16
  outer loop
    vertex -6.999999999999998 0.0 20.0
    vertex 10.000000000000004 -7.319119981198614e-15 23.999999999999925
    vertex -9.999999999999996 1.8550092018010388e-14 20.0
  endloop
endfacet
facet normal -7.714918465512455e-16 -1.0 -1.921914492872981e-16
  outer loop
    vertex -9.999999999999996 1.8550092018010388e-14 20.0
    vertex 10.000000000000004 -7.319119981198614e-15 23.999999999999925
    vertex -10.000000000000004 1.2541815831433677e-14 24.0
  endloop
endfacet
facet normal -4.394136772735408e-15 -0.8192319205190405 0.5734623443633283
  outer loop
    vertex -6.999999999999998 0.0 20.0
    vertex -7.125600061886465 -7.0 10.0
    vertex -7.0 -7.0 10.0
  endloop
endfacet
facet normal -0.9383993469394607 -0.34399493315180596 -0.03277425253881783
  outer loop
    vertex -10.065073606274442 -2.7555440816990133 16.665530399434566
    vertex -8.660254037844389 -4.999999999999997 0.0
    vertex -9.061209815811527 -5.165349601183019 13.215741981867923
  endloop
endfacet
facet normal -0.7137569420792024 -0.6997330086006602 -0.03040960881719055
  outer loop
    vertex -8.660254037844389 -4.999999999999997 0.0
    vertex -7.125600061886465 -7.0 10.0
    vertex -9.061209815811527 -5.165349601183019 13.215741981867923
  endloop
endfacet
facet normal 0.6087614290087204 0.7933533402912353 0.0
  outer loop
    vertex 4.999999999999999 8.660254037844387 24.0
    vertex 7.071067811865477 7.071067811865473 0.0
    vertex 5.000000000000004 8.660254037844382 0.0
  endloop
endfacet
facet normal 0.6087614290087204 0.7933533402912353 0.0
  outer loop
    vertex 7.071067811865477 7.071067811865473 0.0
    vertex 4.999999999999999 8.660254037844387 24.0
    vertex 7.071067811865472 7.071067811865479 24.0
  endloop
endfacet
facet normal 0.38268343236509084 0.9238795325112865 0.0
  outer loop
    vertex 2.5881904510252127 9.659258262890685 24.0
    vertex 5.000000000000004 8.660254037844382 0.0
    vertex 2.5881904510252154 9.65925826289068 0.0
  endloop
endfacet
facet normal 0.38268343236509084 0.9238795325112865 0.0
  outer loop
    vertex 5.000000000000004 8.660254037844382 0.0
    vertex 2.5881904510252127 9.659258262890685 24.0
    vertex 4.999999999999999 8.660254037844387 24.0
  endloop
endfacet
facet normal 0.6087614290087207 -0.7933533402912354 0.0
  outer loop
    vertex 7.071067811865472 -7.071067811865477 10.0
    vertex 4.999999999999998 -8.660254037844387 0.0
    vertex 7.071067811865472 -7.071067811865477 0.0
  endloop
endfacet
facet normal 0.6087614290087207 -0.7933533402912354 0.0
  outer loop
    vertex 4.999999999999998 -8.660254037844387 0.0
    vertex 7.071067811865472 -7.071067811865477 10.0
    vertex 4.999999999999998 -8.660254037844387 10.0
  endloop
endfacet
facet normal 0.7933533402912358 0.6087614290087201 0.0
  outer loop
    vertex 7.071067811865477 7.071067811865473 0.0
    vertex 8.660254037844386 4.999999999999998 24.0
    vertex 8.66025403784439 4.999999999999992 0.0
  endloop
endfacet
facet normal 0.7933533402912358 0.6087614290087201 0.0
  outer loop
    vertex 8.660254037844386 4.999999999999998 24.0
    vertex 7.071067811865477 7.071067811865473 0.0
    vertex 7.071067811865472 7.071067811865479 24.0
  endloop
endfacet
facet normal 0.13052619222005138 -0.9914448613738105 0.0
  outer loop
    vertex 2.5881904510252034 -9.659258262890683 10.0
    vertex -1.2246467991473533e-15 -9.999999999999998 0.0
    vertex 2.5881904510252034 -9.659258262890683 0.0
  endloop
endfacet
facet normal 0.13052619222005138 -0.9914448613738105 0.0
  outer loop
    vertex -1.2246467991473533e-15 -9.999999999999998 0.0
    vertex 2.5881904510252034 -9.659258262890683 10.0
    vertex -1.2246467991473533e-15 -9.999999999999998 10.0
  endloop
endfacet
facet normal 0.38268343236508906 -0.9238795325112872 0.0
  outer loop
    vertex 4.999999999999998 -8.660254037844387 10.0
    vertex 2.5881904510252034 -9.659258262890683 0.0
    vertex 4.999999999999998 -8.660254037844387 0.0
  endloop
endfacet
facet normal 0.38268343236508906 -0.9238795325112872 0.0
  outer loop
    vertex 2.5881904510252034 -9.659258262890683 0.0
    vertex 4.999999999999998 -8.660254037844387 10.0
    vertex 2.5881904510252034 -9.659258262890683 10.0
  endloop
endfacet
facet normal 0.7933533402912345 -0.6087614290087217 -2.938807915955809e-15
  outer loop
    vertex 8.660254037844384 -5.0000000000000036 0.0
    vertex 7.071067811865472 -7.071067811865477 10.0
    vertex 7.071067811865472 -7.071067811865477 0.0
  endloop
endfacet
facet normal 0.7933533402912345 -0.6087614290087217 -2.938807915955809e-15
  outer loop
    vertex 7.071067811865472 -7.071067811865477 10.0
    vertex 8.660254037844384 -5.0000000000000036 0.0
    vertex 7.125600061886399 -7.000000000000178 9.999999999999895
  endloop
endfacet
facet normal -0.38268343236509006 -0.9238795325112866 -0.0
  outer loop
    vertex -2.58819045102521 -9.659258262890681 10.0
    vertex -5.0000000000000036 -8.660254037844384 0.0
    vertex -2.58819045102521 -9.659258262890681 0.0
  endloop
endfacet
facet normal -0.38268343236509006 -0.9238795325112866 -0.0
  outer loop
    vertex -5.0000000000000036 -8.660254037844384 0.0
    vertex -2.58819045102521 -9.659258262890681 10.0
    vertex -5.0000000000000036 -8.660254037844384 10.0
  endloop
endfacet
facet normal -0.6087614290087209 -0.793353340291235 -0.0
  outer loop
    vertex -5.0000000000000036 -8.660254037844384 10.0
    vertex -7.071067811865476 -7.071067811865473 0.0
    vertex -5.0000000000000036 -8.660254037844384 0.0
  endloop
endfacet
facet normal -0.6087614290087209 -0.793353340291235 -0.0
  outer loop
    vertex -7.071067811865476 -7.071067811865473 0.0
    vertex -5.0000000000000036 -8.660254037844384 10.0
    vertex -7.071067811865476 -7.071067811865473 10.0
  endloop
endfacet
facet normal 0.9238795325112871 0.3826834323650893 0.0
  outer loop
    vertex 8.66025403784439 4.999999999999992 0.0
    vertex 9.659258262890678 2.588190451025204 24.0
    vertex 9.659258262890685 2.5881904510252025 0.0
  endloop
endfacet
facet normal 0.9238795325112871 0.3826834323650893 0.0
  outer loop
    vertex 9.659258262890678 2.588190451025204 24.0
    vertex 8.66025403784439 4.999999999999992 0.0
    vertex 8.660254037844386 4.999999999999998 24.0
  endloop
endfacet
facet normal -0.9238795325112867 0.38268343236508995 0.0
  outer loop
    vertex -9.659258262890688 2.5881904510252105 24.0
    vertex -8.660254037844386 5.000000000000001 0.0
    vertex -9.659258262890683 2.588190451025209 0.0
  endloop
endfacet
facet normal -0.9238795325112867 0.38268343236508995 0.0
  outer loop
    vertex -8.660254037844386 5.000000000000001 0.0
    vertex -9.659258262890688 2.5881904510252105 24.0
    vertex -8.66025403784439 5.000000000000007 24.0
  endloop
endfacet
facet normal -0.7933533402912349 0.608761429008721 0.0
  outer loop
    vertex -8.66025403784439 5.000000000000007 24.0
    vertex -7.071067811865475 7.071067811865475 0.0
    vertex -8.660254037844386 5.000000000000001 0.0
  endloop
endfacet
facet normal -0.7933533402912349 0.608761429008721 0.0
  outer loop
    vertex -7.071067811865475 7.071067811865475 0.0
    vertex -8.66025403784439 5.000000000000007 24.0
    vertex -7.07106781186548 7.07106781186548 24.0
  endloop
endfacet
facet normal 0.9914448613738103 0.13052619222005324 -2.456989373473624e-16
  outer loop
    vertex 9.659258262890685 2.5881904510252025 0.0
    vertex 10.00000000000001 -1.3108437946218742e-15 19.99999999999993
    vertex 10.0 -1.836970198721029e-15 0.0
  endloop
endfacet
facet normal 0.9914448613738103 0.13052619222005324 -2.456989373473624e-16
  outer loop
    vertex 10.00000000000001 -1.3108437946218742e-15 19.99999999999993
    vertex 9.659258262890678 2.588190451025204 24.0
    vertex 10.000000000000004 -7.319119981198614e-15 23.999999999999925
  endloop
endfacet
facet normal 0.9914448613738103 0.13052619222005324 -2.456989373473624e-16
  outer loop
    vertex 9.659258262890678 2.588190451025204 24.0
    vertex 10.00000000000001 -1.3108437946218742e-15 19.99999999999993
    vertex 9.659258262890685 2.5881904510252025 0.0
  endloop
endfacet
facet normal -0.13052619222005168 -0.9914448613738105 -0.0
  outer loop
    vertex -1.2246467991473533e-15 -9.999999999999998 10.0
    vertex -2.58819045102521 -9.659258262890681 0.0
    vertex -1.2246467991473533e-15 -9.999999999999998 0.0
  endloop
endfacet
facet normal -0.13052619222005168 -0.9914448613738105 -0.0
  outer loop
    vertex -2.58819045102521 -9.659258262890681 0.0
    vertex -1.2246467991473533e-15 -9.999999999999998 10.0
    vertex -2.58819045102521 -9.659258262890681 10.0
  endloop
endfacet
facet normal -0.6087614290087208 0.7933533402912353 0.0
  outer loop
    vertex -7.07106781186548 7.07106781186548 24.0
    vertex -4.999999999999999 8.660254037844386 0.0
    vertex -7.071067811865475 7.071067811865475 0.0
  endloop
endfacet
facet normal -0.6087614290087208 0.7933533402912353 0.0
  outer loop
    vertex -4.999999999999999 8.660254037844386 0.0
    vertex -7.07106781186548 7.07106781186548 24.0
    vertex -5.000000000000004 8.66025403784439 24.0
  endloop
endfacet
facet normal -0.3826834323650893 0.9238795325112868 0.0
  outer loop
    vertex -5.000000000000004 8.66025403784439 24.0
    vertex -2.5881904510252074 9.659258262890681 0.0
    vertex -4.999999999999999 8.660254037844386 0.0
  endloop
endfacet
facet normal -0.3826834323650893 0.9238795325112868 0.0
  outer loop
    vertex -2.5881904510252074 9.659258262890681 0.0
    vertex -5.000000000000004 8.66025403784439 24.0
    vertex -2.58819045102521 9.659258262890686 24.0
  endloop
endfacet
facet normal 0.9997147690479699 0.023882641130423973 -4.937677720537639e-16
  outer loop
    vertex 10.00000000000001 -1.3108437946218742e-15 19.99999999999993
    vertex 10.06578690190631 -2.7538050371597826 16.66410803856497
    vertex 10.0 -1.836970198721029e-15 0.0
  endloop
endfacet
facet normal 0.13052619222005188 0.9914448613738104 0.0
  outer loop
    vertex 2.8092135550511094e-15 10.000000000000004 24.0
    vertex 2.5881904510252154 9.65925826289068 0.0
    vertex 0.0 9.999999999999998 0.0
  endloop
endfacet
facet normal 0.13052619222005188 0.9914448613738104 0.0
  outer loop
    vertex 2.5881904510252154 9.65925826289068 0.0
    vertex 2.8092135550511094e-15 10.000000000000004 24.0
    vertex 2.5881904510252127 9.659258262890685 24.0
  endloop
endfacet
facet normal -0.9914448613738105 0.1305261922200516 1.0917350623650955e-17
  outer loop
    vertex -9.659258262890688 2.5881904510252105 24.0
    vertex -9.999999999999996 1.8550092018010388e-14 20.0
    vertex -10.000000000000004 1.2541815831433677e-14 24.0
  endloop
endfacet
facet normal -0.9914448613738105 0.1305261922200516 1.0917350623650955e-17
  outer loop
    vertex -9.999999999999996 1.8550092018010388e-14 20.0
    vertex -9.659258262890688 2.5881904510252105 24.0
    vertex -9.659258262890683 2.588190451025209 0.0
  endloop
endfacet
facet normal -0.9914448613738105 0.1305261922200516 1.0917350623650955e-17
  outer loop
    vertex -9.659258262890683 2.588190451025209 0.0
    vertex -10.0 6.123233995736765e-16 0.0
    vertex -9.999999999999996 1.8550092018010388e-14 20.0
  endloop
endfacet
facet normal -0.9914448613738105 -0.1305261922200518 -1.5654259533755464e-18
  outer loop
    vertex -9.999999999999996 1.8550092018010388e-14 20.0
    vertex -10.0 6.123233995736765e-16 0.0
    vertex -9.659258262890683 -2.5881904510252056 0.0
  endloop
endfacet
facet normal -0.9235592104956787 -0.38255075064189725 -0.026330740436220232
  outer loop
    vertex -9.659258262890683 -2.5881904510252056 0.0
    vertex -8.660254037844389 -4.999999999999997 0.0
    vertex -10.065073606274442 -2.7555440816990133 16.665530399434566
  endloop
endfacet
facet normal -0.9983451017264259 0.05235795033814275 -0.02378450956486359
  outer loop
    vertex -9.999999999999996 1.8550092018010388e-14 20.0
    vertex -9.659258262890683 -2.5881904510252056 0.0
    vertex -10.065073606274442 -2.7555440816990133 16.665530399434566
  endloop
endfacet
facet normal -0.793353340291235 -0.6087614290087211 -2.0842609333019548e-17
  outer loop
    vertex -7.125600061886465 -7.0 10.0
    vertex -7.071067811865476 -7.071067811865473 0.0
    vertex -7.071067811865476 -7.071067811865473 10.0
  endloop
endfacet
facet normal -0.793353340291235 -0.6087614290087211 -2.0842609333019548e-17
  outer loop
    vertex -7.071067811865476 -7.071067811865473 0.0
    vertex -7.125600061886465 -7.0 10.0
    vertex -8.660254037844389 -4.999999999999997 0.0
  endloop
endfacet
facet normal -0.13052619222005174 0.9914448613738104 0.0
  outer loop
    vertex -2.58819045102521 9.659258262890686 24.0
    vertex 0.0 9.999999999999998 0.0
    vertex -2.5881904510252074 9.659258262890681 0.0
  endloop
endfacet
facet normal -0.13052619222005174 0.9914448613738104 0.0
  outer loop
    vertex 0.0 9.999999999999998 0.0
    vertex -2.58819045102521 9.659258262890686 24.0
    vertex 2.8092135550511094e-15 10.000000000000004 24.0
  endloop
endfacet
facet normal 0.9911230795117233 -0.1304838288342299 -0.02547570748689613
  outer loop
    vertex 10.0 -1.836970198721029e-15 0.0
    vertex 10.06578690190631 -2.7538050371597826 16.66410803856497
    vertex 9.659258262890681 -2.5881904510252145 0.0
  endloop
endfacet
facet normal 0.9356049446859654 -0.35206599011441786 -0.026323489205013012
  outer loop
    vertex 9.659258262890681 -2.5881904510252145 0.0
    vertex 10.06578690190631 -2.7538050371597826 16.66410803856497
    vertex 9.06191456985709 -5.163631381387954 13.21433665351276
  endloop
endfacet
facet normal 0.9233823306954944 -0.38247748462975306 -0.03280312653778271
  outer loop
    vertex 9.659258262890681 -2.5881904510252145 0.0
    vertex 9.06191456985709 -5.163631381387954 13.21433665351276
    vertex 8.660254037844384 -5.0000000000000036 0.0
  endloop
endfacet
facet normal 0.7138903615579744 -0.6995989430895568 -0.03036232044162105
  outer loop
    vertex 8.660254037844384 -5.0000000000000036 0.0
    vertex 9.06191456985709 -5.163631381387954 13.21433665351276
    vertex 7.125600061886399 -7.000000000000178 9.999999999999895
  endloop
endfacet
facet normal 3.490432343777425e-16 -1.13740693418987e-16 1.0
  outer loop
    vertex -7.071067811865476 -7.071067811865473 10.0
    vertex -7.0 -7.0 10.0
    vertex -7.125600061886465 -7.0 10.0
  endloop
endfacet
facet normal 3.490432343777425e-16 -1.13740693418987e-16 1.0
  outer loop
    vertex -7.0 -7.0 10.0
    vertex -7.071067811865476 -7.071067811865473 10.0
    vertex -5.0000000000000036 -8.660254037844384 10.0
  endloop
endfacet
facet normal 3.490432343777425e-16 -1.13740693418987e-16 1.0
  outer loop
    vertex -7.0 -7.0 10.0
    vertex -5.0000000000000036 -8.660254037844384 10.0
    vertex -6.598076211353316 -5.5000000000000036 9.999999999999996
  endloop
endfacet
facet normal 3.490432343777425e-16 -1.13740693418987e-16 1.0
  outer loop
    vertex -7.0 -7.0 10.0
    vertex -6.598076211353316 -5.5000000000000036 9.999999999999996
    vertex -6.77163859753386 -5.148050297095272 9.999999999999996
  endloop
endfacet
facet normal 3.490432343777425e-16 -1.13740693418987e-16 1.0
  outer loop
    vertex -7.0 -7.0 10.0
    vertex -6.77163859753386 -5.148050297095272 9.999999999999996
    vertex -6.897777478867205 -4.776457135307565 9.999999999999996
  endloop
endfacet
facet normal 3.490432343777425e-16 -1.13740693418987e-16 1.0
  outer loop
    vertex -7.0 -7.0 10.0
    vertex -6.897777478867205 -4.776457135307565 9.999999999999996
    vertex -6.97433458412143 -4.391578576660158 9.999999999999996
  endloop
endfacet
facet normal 3.490432343777425e-16 -1.13740693418987e-16 1.0
  outer loop
    vertex -7.0 -7.0 10.0
    vertex -6.97433458412143 -4.391578576660158 9.999999999999996
    vertex -6.999999999999998 -4.0000000000000036 9.999999999999996
  endloop
endfacet
facet normal 3.490432343777425e-16 -1.13740693418987e-16 1.0
  outer loop
    vertex -6.598076211353316 -5.5000000000000036 9.999999999999996
    vertex -5.0000000000000036 -8.660254037844384 10.0
    vertex -6.380060020873705 -5.826284287026165 9.999999999999995
  endloop
endfacet
facet normal 3.490432343777425e-16 -1.13740693418987e-16 1.0
  outer loop
    vertex -6.380060020873705 -5.826284287026165 9.999999999999995
    vertex -5.0000000000000036 -8.660254037844384 10.0
    vertex -6.121320343559642 -6.1213203435596455 9.999999999999995
  endloop
endfacet
facet normal 3.490432343777425e-16 -1.13740693418987e-16 1.0
  outer loop
    vertex -6.121320343559642 -6.1213203435596455 9.999999999999995
    vertex -5.0000000000000036 -8.660254037844384 10.0
    vertex -5.826284287026162 -6.380060020873709 9.999999999999995
  endloop
endfacet
facet normal 3.490432343777425e-16 -1.13740693418987e-16 1.0
  outer loop
    vertex -5.826284287026162 -6.380060020873709 9.999999999999995
    vertex -5.0000000000000036 -8.660254037844384 10.0
    vertex -5.5 -6.5980762113533205 9.999999999999995
  endloop
endfacet
facet normal 3.490432343777425e-16 -1.13740693418987e-16 1.0
  outer loop
    vertex -5.5 -6.5980762113533205 9.999999999999995
    vertex -5.0000000000000036 -8.660254037844384 10.0
    vertex -5.148050297095269 -6.771638597533864 9.999999999999995
  endloop
endfacet
facet normal 3.490432343777425e-16 -1.13740693418987e-16 1.0
  outer loop
    vertex -5.148050297095269 -6.771638597533864 9.999999999999995
    vertex -5.0000000000000036 -8.660254037844384 10.0
    vertex -4.776457135307561 -6.897777478867209 9.999999999999995
  endloop
endfacet
facet normal 3.490432343777425e-16 -1.13740693418987e-16 1.0
  outer loop
    vertex -4.776457135307561 -6.897777478867209 9.999999999999995
    vertex -5.0000000000000036 -8.660254037844384 10.0
    vertex -2.58819045102521 -9.659258262890681 10.0
  endloop
endfacet
facet normal 3.490432343777425e-16 -1.13740693418987e-16 1.0
  outer loop
    vertex -4.776457135307561 -6.897777478867209 9.999999999999995
    vertex -2.58819045102521 -9.659258262890681 10.0
    vertex -4.391578576660154 -6.974334584121435 9.999999999999995
  endloop
endfacet
facet normal 3.490432343777425e-16 -1.13740693418987e-16 1.0
  outer loop
    vertex -4.391578576660154 -6.974334584121435 9.999999999999995
    vertex -2.58819045102521 -9.659258262890681 10.0
    vertex -3.999999999999999 -7.000000000000004 9.999999999999995
  endloop
endfacet
facet normal 3.490432343777425e-16 -1.13740693418987e-16 1.0
  outer loop
    vertex -3.999999999999999 -7.000000000000004 9.999999999999995
    vertex -2.58819045102521 -9.659258262890681 10.0
    vertex 3.999999999999997 -7.0 9.999999999999998
  endloop
endfacet
facet normal 3.490432343777425e-16 -1.13740693418987e-16 1.0
  outer loop
    vertex 3.999999999999997 -7.0 9.999999999999998
    vertex -2.58819045102521 -9.659258262890681 10.0
    vertex -1.2246467991473533e-15 -9.999999999999998 10.0
  endloop
endfacet
facet normal 3.490432343777425e-16 -1.13740693418987e-16 1.0
  outer loop
    vertex 3.999999999999997 -7.0 9.999999999999998
    vertex -1.2246467991473533e-15 -9.999999999999998 10.0
    vertex 2.5881904510252034 -9.659258262890683 10.0
  endloop
endfacet
facet normal 3.490432343777425e-16 -1.13740693418987e-16 1.0
  outer loop
    vertex 3.999999999999997 -7.0 9.999999999999998
    vertex 2.5881904510252034 -9.659258262890683 10.0
    vertex 4.999999999999998 -8.660254037844387 10.0
  endloop
endfacet
facet normal 3.490432343777425e-16 -1.13740693418987e-16 1.0
  outer loop
    vertex 3.999999999999997 -7.0 9.999999999999998
    vertex 4.999999999999998 -8.660254037844387 10.0
    vertex 4.3915785766601525 -6.97433458412143 9.999999999999998
  endloop
endfacet
facet normal 3.490432343777425e-16 -1.13740693418987e-16 1.0
  outer loop
    vertex 4.3915785766601525 -6.97433458412143 9.999999999999998
    vertex 4.999999999999998 -8.660254037844387 10.0
    vertex 4.7764571353075596 -6.897777478867205 9.999999999999998
  endloop
endfacet
facet normal 3.490432343777425e-16 -1.13740693418987e-16 1.0
  outer loop
    vertex 4.7764571353075596 -6.897777478867205 9.999999999999998
    vertex 4.999999999999998 -8.660254037844387 10.0
    vertex 5.148050297095267 -6.77163859753386 9.999999999999998
  endloop
endfacet
facet normal 3.490432343777425e-16 -1.13740693418987e-16 1.0
  outer loop
    vertex 5.148050297095267 -6.77163859753386 9.999999999999998
    vertex 4.999999999999998 -8.660254037844387 10.0
    vertex 7.071067811865472 -7.071067811865477 10.0
  endloop
endfacet
facet normal 3.490432343777425e-16 -1.13740693418987e-16 1.0
  outer loop
    vertex 5.148050297095267 -6.77163859753386 9.999999999999998
    vertex 7.071067811865472 -7.071067811865477 10.0
    vertex 5.499999999999997 -6.598076211353316 9.999999999999998
  endloop
endfacet
facet normal 3.490432343777425e-16 -1.13740693418987e-16 1.0
  outer loop
    vertex 5.499999999999997 -6.598076211353316 9.999999999999998
    vertex 7.071067811865472 -7.071067811865477 10.0
    vertex 5.82628428702616 -6.380060020873705 9.999999999999998
  endloop
endfacet
facet normal 3.490432343777425e-16 -1.13740693418987e-16 1.0
  outer loop
    vertex 5.82628428702616 -6.380060020873705 9.999999999999998
    vertex 7.071067811865472 -7.071067811865477 10.0
    vertex 6.12132034355964 -6.121320343559647 9.999999999999998
  endloop
endfacet
facet normal 3.490432343777425e-16 -1.13740693418987e-16 1.0
  outer loop
    vertex 6.12132034355964 -6.121320343559647 9.999999999999998
    vertex 7.071067811865472 -7.071067811865477 10.0
    vertex 6.999999999999998 -7.0 10.0
  endloop
endfacet
facet normal 3.490432343777425e-16 -1.13740693418987e-16 1.0
  outer loop
    vertex 6.12132034355964 -6.121320343559647 9.999999999999998
    vertex 6.999999999999998 -7.0 10.0
    vertex 6.380060020873703 -5.826284287026167 9.999999999999998
  endloop
endfacet
facet normal 3.490432343777425e-16 -1.13740693418987e-16 1.0
  outer loop
    vertex 6.380060020873703 -5.826284287026167 9.999999999999998
    vertex 6.999999999999998 -7.0 10.0
    vertex 6.598076211353314 -5.500000000000004 9.999999999999998
  endloop
endfacet
facet normal 3.490432343777425e-16 -1.13740693418987e-16 1.0
  outer loop
    vertex 6.598076211353314 -5.500000000000004 9.999999999999998
    vertex 6.999999999999998 -7.0 10.0
    vertex 6.771638597533858 -5.148050297095274 9.999999999999998
  endloop
endfacet
facet normal 3.490432343777425e-16 -1.13740693418987e-16 1.0
  outer loop
    vertex 6.771638597533858 -5.148050297095274 9.999999999999998
    vertex 6.999999999999998 -7.0 10.0
    vertex 6.897777478867203 -4.776457135307567 9.999999999999998
  endloop
endfacet
facet normal 3.490432343777425e-16 -1.13740693418987e-16 1.0
  outer loop
    vertex 6.897777478867203 -4.776457135307567 9.999999999999998
    vertex 6.999999999999998 -7.0 10.0
    vertex 6.974334584121429 -4.39157857666016 9.999999999999998
  endloop
endfacet
facet normal 3.490432343777425e-16 -1.13740693418987e-16 1.0
  outer loop
    vertex 6.999999999999998 -7.0 10.0
    vertex 7.071067811865472 -7.071067811865477 10.0
    vertex 7.125600061886399 -7.000000000000178 9.999999999999895
  endloop
endfacet
facet normal 3.490432343777425e-16 -1.13740693418987e-16 1.0
  outer loop
    vertex 6.999999999999998 -4.000000000000004 10.000000000000002
    vertex 6.974334584121429 -4.39157857666016 9.999999999999998
    vertex 6.999999999999998 -7.0 10.0
  endloop
endfacet
endsolid CablePipeToolHeadEnd
