solid Carriage end stop clap
facet normal 0.0 1.0 0.0
  outer loop
    vertex -17.452142715454094 -18.94399642944336 0.9188958406448374
    vertex -14.58650406910694 -18.94399642944336 2.7688961982727065
    vertex 9.547857284545898 -18.94399642944336 0.9188958406448376
  endloop
endfacet
facet normal 0.0 1.0 0.0
  outer loop
    vertex -14.58650406910694 -18.94399642944336 2.7688961982727065
    vertex -17.452142715454094 -18.94399642944336 0.9188958406448374
    vertex -15.013555493526098 -18.94399642944336 2.8251185848957436
  endloop
endfacet
facet normal 0.0 1.0 0.0
  outer loop
    vertex -15.013555493526098 -18.94399642944336 2.8251185848957436
    vertex -17.452142715454094 -18.94399642944336 0.9188958406448374
    vertex -15.411504069106938 -18.94399642944336 2.989954282028383
  endloop
endfacet
facet normal 0.0 1.0 0.0
  outer loop
    vertex -15.411504069106938 -18.94399642944336 2.989954282028383
    vertex -17.452142715454094 -18.94399642944336 0.9188958406448374
    vertex -15.753230258064745 -18.94399642944336 3.252170009314903
  endloop
endfacet
facet normal 0.0 1.0 0.0
  outer loop
    vertex -15.753230258064745 -18.94399642944336 3.252170009314903
    vertex -17.452142715454094 -18.94399642944336 0.9188958406448374
    vertex -16.015445985351263 -18.94399642944336 3.593896198272706
  endloop
endfacet
facet normal 0.0 1.0 0.0
  outer loop
    vertex -16.015445985351263 -18.94399642944336 3.593896198272706
    vertex -17.452142715454094 -18.94399642944336 0.9188958406448374
    vertex -16.1802816824839 -18.94399642944336 3.991844773853547
  endloop
endfacet
facet normal 0.0 1.0 0.0
  outer loop
    vertex -16.1802816824839 -18.94399642944336 3.991844773853547
    vertex -17.452142715454094 -18.94399642944336 0.9188958406448374
    vertex -17.452142715454098 -18.94399642944336 9.90413919323202
  endloop
endfacet
facet normal 0.0 1.0 0.0
  outer loop
    vertex -16.1802816824839 -18.94399642944336 3.991844773853547
    vertex -17.452142715454098 -18.94399642944336 9.90413919323202
    vertex -16.23650406910694 -18.94399642944336 4.418896198272707
  endloop
endfacet
facet normal 0.0 1.0 0.0
  outer loop
    vertex -16.23650406910694 -18.94399642944336 4.418896198272707
    vertex -17.452142715454098 -18.94399642944336 9.90413919323202
    vertex -16.1802816824839 -18.94399642944336 4.845947622691865
  endloop
endfacet
facet normal 0.0 1.0 0.0
  outer loop
    vertex -16.1802816824839 -18.94399642944336 4.845947622691865
    vertex -17.452142715454098 -18.94399642944336 9.90413919323202
    vertex -16.015445985351263 -18.94399642944336 5.243896198272706
  endloop
endfacet
facet normal 0.0 1.0 0.0
  outer loop
    vertex -16.015445985351263 -18.94399642944336 5.243896198272706
    vertex -17.452142715454098 -18.94399642944336 9.90413919323202
    vertex -15.753230258064745 -18.94399642944336 5.585622387230509
  endloop
endfacet
facet normal 0.0 1.0 0.0
  outer loop
    vertex -15.753230258064745 -18.94399642944336 5.585622387230509
    vertex -17.452142715454098 -18.94399642944336 9.90413919323202
    vertex -15.411504069106941 -18.94399642944336 5.847838114517029
  endloop
endfacet
facet normal 0.0 1.0 0.0
  outer loop
    vertex -15.411504069106941 -18.94399642944336 5.847838114517029
    vertex -17.452142715454098 -18.94399642944336 9.90413919323202
    vertex -15.013555493526102 -18.94399642944336 6.012673811649669
  endloop
endfacet
facet normal 0.0 1.0 0.0
  outer loop
    vertex -15.013555493526102 -18.94399642944336 6.012673811649669
    vertex -17.452142715454098 -18.94399642944336 9.90413919323202
    vertex -14.58650406910694 -18.94399642944336 6.068896198272706
  endloop
endfacet
facet normal 0.0 1.0 0.0
  outer loop
    vertex -14.58650406910694 -18.94399642944336 6.068896198272706
    vertex -17.452142715454098 -18.94399642944336 9.90413919323202
    vertex 4.6822172113371865 -18.94399642944336 6.068896198272706
  endloop
endfacet
facet normal 0.0 1.0 0.0
  outer loop
    vertex 9.547857284545898 -18.94399642944336 0.9188958406448376
    vertex 6.11115912758151 -18.94399642944336 3.5938961982727067
    vertex 9.547857284545898 -18.94399642944336 9.91887689933191
  endloop
endfacet
facet normal 0.0 1.0 0.0
  outer loop
    vertex 6.11115912758151 -18.94399642944336 3.5938961982727067
    vertex 9.547857284545898 -18.94399642944336 0.9188958406448376
    vertex 5.848943400294989 -18.94399642944336 3.252170009314903
  endloop
endfacet
facet normal 0.0 1.0 0.0
  outer loop
    vertex 5.848943400294989 -18.94399642944336 3.252170009314903
    vertex 9.547857284545898 -18.94399642944336 0.9188958406448376
    vertex 5.507217211337186 -18.94399642944336 2.989954282028383
  endloop
endfacet
facet normal 0.0 1.0 0.0
  outer loop
    vertex 5.507217211337186 -18.94399642944336 2.989954282028383
    vertex 9.547857284545898 -18.94399642944336 0.9188958406448376
    vertex 5.1092686357563455 -18.94399642944336 2.825118584895744
  endloop
endfacet
facet normal 0.0 1.0 0.0
  outer loop
    vertex 5.1092686357563455 -18.94399642944336 2.825118584895744
    vertex 9.547857284545898 -18.94399642944336 0.9188958406448376
    vertex 4.6822172113371865 -18.94399642944336 2.7688961982727065
  endloop
endfacet
facet normal 0.0 1.0 0.0
  outer loop
    vertex 4.6822172113371865 -18.94399642944336 2.7688961982727065
    vertex 9.547857284545898 -18.94399642944336 0.9188958406448376
    vertex -14.58650406910694 -18.94399642944336 2.7688961982727065
  endloop
endfacet
facet normal 0.0 1.0 0.0
  outer loop
    vertex 9.547857284545898 -18.94399642944336 9.91887689933191
    vertex 6.11115912758151 -18.94399642944336 3.5938961982727067
    vertex 6.275994824714148 -18.94399642944336 3.991844773853547
  endloop
endfacet
facet normal 0.0 1.0 0.0
  outer loop
    vertex 9.547857284545898 -18.94399642944336 9.91887689933191
    vertex 6.275994824714148 -18.94399642944336 3.991844773853547
    vertex 6.332217211337186 -18.94399642944336 4.418896198272707
  endloop
endfacet
facet normal 0.0 1.0 0.0
  outer loop
    vertex 9.547857284545898 -18.94399642944336 9.91887689933191
    vertex 6.332217211337186 -18.94399642944336 4.418896198272707
    vertex 6.275994824714148 -18.94399642944336 4.845947622691868
  endloop
endfacet
facet normal 0.0 1.0 0.0
  outer loop
    vertex 9.547857284545898 -18.94399642944336 9.91887689933191
    vertex 6.275994824714148 -18.94399642944336 4.845947622691868
    vertex 6.111159127581509 -18.94399642944336 5.243896198272707
  endloop
endfacet
facet normal 0.0 1.0 0.0
  outer loop
    vertex 9.547857284545898 -18.94399642944336 9.91887689933191
    vertex 6.111159127581509 -18.94399642944336 5.243896198272707
    vertex 5.848943400294989 -18.94399642944336 5.58562238723051
  endloop
endfacet
facet normal 0.0 1.0 0.0
  outer loop
    vertex 9.547857284545898 -18.94399642944336 9.91887689933191
    vertex 5.848943400294989 -18.94399642944336 5.58562238723051
    vertex 5.507217211337185 -18.94399642944336 5.847838114517031
  endloop
endfacet
facet normal 0.0 1.0 0.0
  outer loop
    vertex 9.547857284545898 -18.94399642944336 9.91887689933191
    vertex 5.507217211337185 -18.94399642944336 5.847838114517031
    vertex 5.109268635756345 -18.94399642944336 6.012673811649669
  endloop
endfacet
facet normal 0.0 1.0 0.0
  outer loop
    vertex 9.547857284545898 -18.94399642944336 9.91887689933191
    vertex 5.109268635756345 -18.94399642944336 6.012673811649669
    vertex 4.6822172113371865 -18.94399642944336 6.068896198272706
  endloop
endfacet
facet normal 0.0 1.0 0.0
  outer loop
    vertex 9.547857284545898 -18.94399642944336 9.91887689933191
    vertex 4.6822172113371865 -18.94399642944336 6.068896198272706
    vertex -17.452142715454098 -18.94399642944336 9.90413919323202
  endloop
endfacet
facet normal 0.0 1.0 0.0
  outer loop
    vertex -14.159452644687782 -18.94399642944336 2.825118584895744
    vertex 4.6822172113371865 -18.94399642944336 2.7688961982727065
    vertex -14.58650406910694 -18.94399642944336 2.7688961982727065
  endloop
endfacet
facet normal 0.0 1.0 0.0
  outer loop
    vertex 4.6822172113371865 -18.94399642944336 2.7688961982727065
    vertex -14.159452644687782 -18.94399642944336 2.825118584895744
    vertex 4.2551657869180275 -18.94399642944336 2.8251185848957436
  endloop
endfacet
facet normal 0.0 1.0 0.0
  outer loop
    vertex 4.2551657869180275 -18.94399642944336 2.8251185848957436
    vertex -14.159452644687782 -18.94399642944336 2.825118584895744
    vertex 3.8572172113371863 -18.94399642944336 2.989954282028383
  endloop
endfacet
facet normal 0.0 1.0 0.0
  outer loop
    vertex 3.8572172113371863 -18.94399642944336 2.989954282028383
    vertex -14.159452644687782 -18.94399642944336 2.825118584895744
    vertex -13.76150406910694 -18.94399642944336 2.989954282028383
  endloop
endfacet
facet normal 0.0 1.0 0.0
  outer loop
    vertex 3.8572172113371863 -18.94399642944336 2.989954282028383
    vertex -13.76150406910694 -18.94399642944336 2.989954282028383
    vertex -13.419777880149136 -18.94399642944336 3.252170009314903
  endloop
endfacet
facet normal 0.0 1.0 0.0
  outer loop
    vertex 3.8572172113371863 -18.94399642944336 2.989954282028383
    vertex -13.419777880149136 -18.94399642944336 3.252170009314903
    vertex 3.5154910223793827 -18.94399642944336 3.252170009314903
  endloop
endfacet
facet normal 0.0 1.0 0.0
  outer loop
    vertex 3.5154910223793827 -18.94399642944336 3.252170009314903
    vertex -13.419777880149136 -18.94399642944336 3.252170009314903
    vertex -13.157562152862615 -18.94399642944336 3.5938961982727067
  endloop
endfacet
facet normal 0.0 1.0 0.0
  outer loop
    vertex 3.5154910223793827 -18.94399642944336 3.252170009314903
    vertex -13.157562152862615 -18.94399642944336 3.5938961982727067
    vertex 3.253275295092863 -18.94399642944336 3.593896198272706
  endloop
endfacet
facet normal 0.0 1.0 0.0
  outer loop
    vertex 3.253275295092863 -18.94399642944336 3.593896198272706
    vertex -13.157562152862615 -18.94399642944336 3.5938961982727067
    vertex 3.0884395979602237 -18.94399642944336 3.991844773853547
  endloop
endfacet
facet normal 0.0 1.0 0.0
  outer loop
    vertex 3.0884395979602237 -18.94399642944336 3.991844773853547
    vertex -13.157562152862615 -18.94399642944336 3.5938961982727067
    vertex -12.992726455729978 -18.94399642944336 3.991844773853547
  endloop
endfacet
facet normal 0.0 1.0 0.0
  outer loop
    vertex 3.0884395979602237 -18.94399642944336 3.991844773853547
    vertex -12.992726455729978 -18.94399642944336 3.991844773853547
    vertex -12.93650406910694 -18.94399642944336 4.418896198272707
  endloop
endfacet
facet normal 0.0 1.0 0.0
  outer loop
    vertex 3.0884395979602237 -18.94399642944336 3.991844773853547
    vertex -12.93650406910694 -18.94399642944336 4.418896198272707
    vertex 3.032217211337186 -18.94399642944336 4.418896198272707
  endloop
endfacet
facet normal 0.0 1.0 0.0
  outer loop
    vertex 3.032217211337186 -18.94399642944336 4.418896198272707
    vertex -12.93650406910694 -18.94399642944336 4.418896198272707
    vertex -12.992726455729978 -18.94399642944336 4.845947622691868
  endloop
endfacet
facet normal 0.0 1.0 0.0
  outer loop
    vertex 3.032217211337186 -18.94399642944336 4.418896198272707
    vertex -12.992726455729978 -18.94399642944336 4.845947622691868
    vertex 3.0884395979602233 -18.94399642944336 4.845947622691865
  endloop
endfacet
facet normal 0.0 1.0 0.0
  outer loop
    vertex 3.0884395979602233 -18.94399642944336 4.845947622691865
    vertex -12.992726455729978 -18.94399642944336 4.845947622691868
    vertex 3.2532752950928625 -18.94399642944336 5.243896198272706
  endloop
endfacet
facet normal 0.0 1.0 0.0
  outer loop
    vertex 3.2532752950928625 -18.94399642944336 5.243896198272706
    vertex -12.992726455729978 -18.94399642944336 4.845947622691868
    vertex -13.157562152862615 -18.94399642944336 5.243896198272707
  endloop
endfacet
facet normal 0.0 1.0 0.0
  outer loop
    vertex 3.2532752950928625 -18.94399642944336 5.243896198272706
    vertex -13.157562152862615 -18.94399642944336 5.243896198272707
    vertex 3.515491022379382 -18.94399642944336 5.585622387230509
  endloop
endfacet
facet normal 0.0 1.0 0.0
  outer loop
    vertex 3.515491022379382 -18.94399642944336 5.585622387230509
    vertex -13.157562152862615 -18.94399642944336 5.243896198272707
    vertex -13.419777880149136 -18.94399642944336 5.58562238723051
  endloop
endfacet
facet normal 0.0 1.0 0.0
  outer loop
    vertex 3.515491022379382 -18.94399642944336 5.585622387230509
    vertex -13.419777880149136 -18.94399642944336 5.58562238723051
    vertex 3.8572172113371854 -18.94399642944336 5.847838114517029
  endloop
endfacet
facet normal 0.0 1.0 0.0
  outer loop
    vertex 3.8572172113371854 -18.94399642944336 5.847838114517029
    vertex -13.419777880149136 -18.94399642944336 5.58562238723051
    vertex -13.761504069106941 -18.94399642944336 5.847838114517031
  endloop
endfacet
facet normal 0.0 1.0 0.0
  outer loop
    vertex 3.8572172113371854 -18.94399642944336 5.847838114517029
    vertex -13.761504069106941 -18.94399642944336 5.847838114517031
    vertex 4.255165786918026 -18.94399642944336 6.012673811649669
  endloop
endfacet
facet normal 0.0 1.0 0.0
  outer loop
    vertex 4.255165786918026 -18.94399642944336 6.012673811649669
    vertex -13.761504069106941 -18.94399642944336 5.847838114517031
    vertex -14.159452644687782 -18.94399642944336 6.012673811649669
  endloop
endfacet
facet normal 0.0 1.0 0.0
  outer loop
    vertex 4.255165786918026 -18.94399642944336 6.012673811649669
    vertex -14.159452644687782 -18.94399642944336 6.012673811649669
    vertex 4.6822172113371865 -18.94399642944336 6.068896198272706
  endloop
endfacet
facet normal 0.0 1.0 0.0
  outer loop
    vertex 4.6822172113371865 -18.94399642944336 6.068896198272706
    vertex -14.159452644687782 -18.94399642944336 6.012673811649669
    vertex -14.58650406910694 -18.94399642944336 6.068896198272706
  endloop
endfacet
facet normal 0.0 -1.0 0.0
  outer loop
    vertex 9.547857284545898 -20.943996429443356 -0.08110415935516212
    vertex 4.6822172113371865 -20.943996429443356 2.7688961982727065
    vertex -17.452142715454098 -20.943996429443356 -0.08110415935516212
  endloop
endfacet
facet normal 0.0 -1.0 0.0
  outer loop
    vertex 4.6822172113371865 -20.943996429443356 2.7688961982727065
    vertex 9.547857284545898 -20.943996429443356 -0.08110415935516212
    vertex 5.1092686357563455 -20.943996429443356 2.825118584895744
  endloop
endfacet
facet normal 0.0 -1.0 0.0
  outer loop
    vertex 5.1092686357563455 -20.943996429443356 2.825118584895744
    vertex 9.547857284545898 -20.943996429443356 -0.08110415935516212
    vertex 5.507217211337186 -20.943996429443356 2.989954282028383
  endloop
endfacet
facet normal 0.0 -1.0 0.0
  outer loop
    vertex 5.507217211337186 -20.943996429443356 2.989954282028383
    vertex 9.547857284545898 -20.943996429443356 -0.08110415935516212
    vertex 5.848943400294989 -20.943996429443356 3.252170009314903
  endloop
endfacet
facet normal 0.0 -1.0 0.0
  outer loop
    vertex 5.848943400294989 -20.943996429443356 3.252170009314903
    vertex 9.547857284545898 -20.943996429443356 -0.08110415935516212
    vertex 6.11115912758151 -20.943996429443356 3.5938961982727067
  endloop
endfacet
facet normal 0.0 -1.0 0.0
  outer loop
    vertex 6.11115912758151 -20.943996429443356 3.5938961982727067
    vertex 9.547857284545898 -20.943996429443356 -0.08110415935516212
    vertex 9.547857284545898 -20.943996429443356 9.91887689933191
  endloop
endfacet
facet normal 0.0 -1.0 0.0
  outer loop
    vertex 6.11115912758151 -20.943996429443356 3.5938961982727067
    vertex 9.547857284545898 -20.943996429443356 9.91887689933191
    vertex 6.275994824714148 -20.943996429443356 3.991844773853547
  endloop
endfacet
facet normal 0.0 -1.0 0.0
  outer loop
    vertex 6.275994824714148 -20.943996429443356 3.991844773853547
    vertex 9.547857284545898 -20.943996429443356 9.91887689933191
    vertex 6.332217211337186 -20.943996429443356 4.418896198272707
  endloop
endfacet
facet normal 0.0 -1.0 0.0
  outer loop
    vertex 6.332217211337186 -20.943996429443356 4.418896198272707
    vertex 9.547857284545898 -20.943996429443356 9.91887689933191
    vertex 6.275994824714148 -20.943996429443356 4.845947622691868
  endloop
endfacet
facet normal 0.0 -1.0 0.0
  outer loop
    vertex 6.275994824714148 -20.943996429443356 4.845947622691868
    vertex 9.547857284545898 -20.943996429443356 9.91887689933191
    vertex 6.111159127581509 -20.943996429443356 5.243896198272707
  endloop
endfacet
facet normal 0.0 -1.0 0.0
  outer loop
    vertex 6.111159127581509 -20.943996429443356 5.243896198272707
    vertex 9.547857284545898 -20.943996429443356 9.91887689933191
    vertex 5.848943400294989 -20.943996429443356 5.58562238723051
  endloop
endfacet
facet normal 0.0 -1.0 0.0
  outer loop
    vertex 5.848943400294989 -20.943996429443356 5.58562238723051
    vertex 9.547857284545898 -20.943996429443356 9.91887689933191
    vertex 5.507217211337185 -20.943996429443356 5.847838114517031
  endloop
endfacet
facet normal 0.0 -1.0 0.0
  outer loop
    vertex 5.507217211337185 -20.943996429443356 5.847838114517031
    vertex 9.547857284545898 -20.943996429443356 9.91887689933191
    vertex 5.109268635756345 -20.943996429443356 6.012673811649669
  endloop
endfacet
facet normal 0.0 -1.0 0.0
  outer loop
    vertex 5.109268635756345 -20.943996429443356 6.012673811649669
    vertex 9.547857284545898 -20.943996429443356 9.91887689933191
    vertex 4.6822172113371865 -20.943996429443356 6.068896198272706
  endloop
endfacet
facet normal 0.0 -1.0 0.0
  outer loop
    vertex 4.6822172113371865 -20.943996429443356 6.068896198272706
    vertex 9.547857284545898 -20.943996429443356 9.91887689933191
    vertex -14.58650406910694 -20.943996429443356 6.068896198272706
  endloop
endfacet
facet normal 0.0 -1.0 0.0
  outer loop
    vertex -14.58650406910694 -20.943996429443356 6.068896198272706
    vertex 9.547857284545898 -20.943996429443356 9.91887689933191
    vertex -17.452142715454098 -20.943996429443356 9.90413919323202
  endloop
endfacet
facet normal 0.0 -1.0 0.0
  outer loop
    vertex -17.452142715454098 -20.943996429443356 -0.08110415935516212
    vertex -16.1802816824839 -20.943996429443356 3.991844773853547
    vertex -17.452142715454098 -20.943996429443356 9.90413919323202
  endloop
endfacet
facet normal 0.0 -1.0 0.0
  outer loop
    vertex -16.1802816824839 -20.943996429443356 3.991844773853547
    vertex -17.452142715454098 -20.943996429443356 -0.08110415935516212
    vertex -16.015445985351263 -20.943996429443356 3.593896198272706
  endloop
endfacet
facet normal 0.0 -1.0 0.0
  outer loop
    vertex -16.015445985351263 -20.943996429443356 3.593896198272706
    vertex -17.452142715454098 -20.943996429443356 -0.08110415935516212
    vertex -15.753230258064745 -20.943996429443356 3.252170009314903
  endloop
endfacet
facet normal 0.0 -1.0 0.0
  outer loop
    vertex -15.753230258064745 -20.943996429443356 3.252170009314903
    vertex -17.452142715454098 -20.943996429443356 -0.08110415935516212
    vertex -15.411504069106938 -20.943996429443356 2.989954282028383
  endloop
endfacet
facet normal 0.0 -1.0 0.0
  outer loop
    vertex -15.411504069106938 -20.943996429443356 2.989954282028383
    vertex -17.452142715454098 -20.943996429443356 -0.08110415935516212
    vertex -15.013555493526098 -20.943996429443356 2.8251185848957436
  endloop
endfacet
facet normal 0.0 -1.0 0.0
  outer loop
    vertex -15.013555493526098 -20.943996429443356 2.8251185848957436
    vertex -17.452142715454098 -20.943996429443356 -0.08110415935516212
    vertex -14.58650406910694 -20.943996429443356 2.7688961982727065
  endloop
endfacet
facet normal 0.0 -1.0 0.0
  outer loop
    vertex -14.58650406910694 -20.943996429443356 2.7688961982727065
    vertex -17.452142715454098 -20.943996429443356 -0.08110415935516212
    vertex 4.6822172113371865 -20.943996429443356 2.7688961982727065
  endloop
endfacet
facet normal 0.0 -1.0 0.0
  outer loop
    vertex -17.452142715454098 -20.943996429443356 9.90413919323202
    vertex -16.1802816824839 -20.943996429443356 3.991844773853547
    vertex -16.23650406910694 -20.943996429443356 4.418896198272707
  endloop
endfacet
facet normal 0.0 -1.0 0.0
  outer loop
    vertex -17.452142715454098 -20.943996429443356 9.90413919323202
    vertex -16.23650406910694 -20.943996429443356 4.418896198272707
    vertex -16.1802816824839 -20.943996429443356 4.845947622691865
  endloop
endfacet
facet normal 0.0 -1.0 0.0
  outer loop
    vertex -17.452142715454098 -20.943996429443356 9.90413919323202
    vertex -16.1802816824839 -20.943996429443356 4.845947622691865
    vertex -16.015445985351263 -20.943996429443356 5.243896198272706
  endloop
endfacet
facet normal 0.0 -1.0 0.0
  outer loop
    vertex -17.452142715454098 -20.943996429443356 9.90413919323202
    vertex -16.015445985351263 -20.943996429443356 5.243896198272706
    vertex -15.753230258064745 -20.943996429443356 5.585622387230509
  endloop
endfacet
facet normal 0.0 -1.0 0.0
  outer loop
    vertex -17.452142715454098 -20.943996429443356 9.90413919323202
    vertex -15.753230258064745 -20.943996429443356 5.585622387230509
    vertex -15.411504069106941 -20.943996429443356 5.847838114517029
  endloop
endfacet
facet normal 0.0 -1.0 0.0
  outer loop
    vertex -17.452142715454098 -20.943996429443356 9.90413919323202
    vertex -15.411504069106941 -20.943996429443356 5.847838114517029
    vertex -15.013555493526102 -20.943996429443356 6.012673811649669
  endloop
endfacet
facet normal 0.0 -1.0 0.0
  outer loop
    vertex -17.452142715454098 -20.943996429443356 9.90413919323202
    vertex -15.013555493526102 -20.943996429443356 6.012673811649669
    vertex -14.58650406910694 -20.943996429443356 6.068896198272706
  endloop
endfacet
facet normal 0.0 -1.0 0.0
  outer loop
    vertex 4.2551657869180275 -20.943996429443356 2.8251185848957436
    vertex -14.58650406910694 -20.943996429443356 2.7688961982727065
    vertex 4.6822172113371865 -20.943996429443356 2.7688961982727065
  endloop
endfacet
facet normal 0.0 -1.0 0.0
  outer loop
    vertex -14.58650406910694 -20.943996429443356 2.7688961982727065
    vertex 4.2551657869180275 -20.943996429443356 2.8251185848957436
    vertex -14.159452644687782 -20.943996429443356 2.825118584895744
  endloop
endfacet
facet normal 0.0 -1.0 0.0
  outer loop
    vertex -14.159452644687782 -20.943996429443356 2.825118584895744
    vertex 4.2551657869180275 -20.943996429443356 2.8251185848957436
    vertex 3.8572172113371863 -20.943996429443356 2.989954282028383
  endloop
endfacet
facet normal 0.0 -1.0 0.0
  outer loop
    vertex -14.159452644687782 -20.943996429443356 2.825118584895744
    vertex 3.8572172113371863 -20.943996429443356 2.989954282028383
    vertex -13.76150406910694 -20.943996429443356 2.989954282028383
  endloop
endfacet
facet normal 0.0 -1.0 0.0
  outer loop
    vertex -13.76150406910694 -20.943996429443356 2.989954282028383
    vertex 3.8572172113371863 -20.943996429443356 2.989954282028383
    vertex 3.5154910223793827 -20.943996429443356 3.252170009314903
  endloop
endfacet
facet normal 0.0 -1.0 0.0
  outer loop
    vertex -13.76150406910694 -20.943996429443356 2.989954282028383
    vertex 3.5154910223793827 -20.943996429443356 3.252170009314903
    vertex -13.419777880149136 -20.943996429443356 3.252170009314903
  endloop
endfacet
facet normal 0.0 -1.0 0.0
  outer loop
    vertex -13.419777880149136 -20.943996429443356 3.252170009314903
    vertex 3.5154910223793827 -20.943996429443356 3.252170009314903
    vertex 3.253275295092863 -20.943996429443356 3.593896198272706
  endloop
endfacet
facet normal 0.0 -1.0 0.0
  outer loop
    vertex -13.419777880149136 -20.943996429443356 3.252170009314903
    vertex 3.253275295092863 -20.943996429443356 3.593896198272706
    vertex -13.157562152862615 -20.943996429443356 3.5938961982727067
  endloop
endfacet
facet normal 0.0 -1.0 0.0
  outer loop
    vertex -13.157562152862615 -20.943996429443356 3.5938961982727067
    vertex 3.253275295092863 -20.943996429443356 3.593896198272706
    vertex 3.0884395979602237 -20.943996429443356 3.991844773853547
  endloop
endfacet
facet normal 0.0 -1.0 0.0
  outer loop
    vertex -13.157562152862615 -20.943996429443356 3.5938961982727067
    vertex 3.0884395979602237 -20.943996429443356 3.991844773853547
    vertex -12.992726455729978 -20.943996429443356 3.991844773853547
  endloop
endfacet
facet normal 0.0 -1.0 0.0
  outer loop
    vertex -12.992726455729978 -20.943996429443356 3.991844773853547
    vertex 3.0884395979602237 -20.943996429443356 3.991844773853547
    vertex 3.032217211337186 -20.943996429443356 4.418896198272707
  endloop
endfacet
facet normal 0.0 -1.0 0.0
  outer loop
    vertex -12.992726455729978 -20.943996429443356 3.991844773853547
    vertex 3.032217211337186 -20.943996429443356 4.418896198272707
    vertex -12.93650406910694 -20.943996429443356 4.418896198272707
  endloop
endfacet
facet normal 0.0 -1.0 0.0
  outer loop
    vertex -12.93650406910694 -20.943996429443356 4.418896198272707
    vertex 3.032217211337186 -20.943996429443356 4.418896198272707
    vertex 3.0884395979602233 -20.943996429443356 4.845947622691865
  endloop
endfacet
facet normal 0.0 -1.0 0.0
  outer loop
    vertex -12.93650406910694 -20.943996429443356 4.418896198272707
    vertex 3.0884395979602233 -20.943996429443356 4.845947622691865
    vertex -12.992726455729978 -20.943996429443356 4.845947622691868
  endloop
endfacet
facet normal 0.0 -1.0 0.0
  outer loop
    vertex -12.992726455729978 -20.943996429443356 4.845947622691868
    vertex 3.0884395979602233 -20.943996429443356 4.845947622691865
    vertex 3.2532752950928625 -20.943996429443356 5.243896198272706
  endloop
endfacet
facet normal 0.0 -1.0 0.0
  outer loop
    vertex -12.992726455729978 -20.943996429443356 4.845947622691868
    vertex 3.2532752950928625 -20.943996429443356 5.243896198272706
    vertex -13.157562152862615 -20.943996429443356 5.243896198272707
  endloop
endfacet
facet normal 0.0 -1.0 0.0
  outer loop
    vertex -13.157562152862615 -20.943996429443356 5.243896198272707
    vertex 3.2532752950928625 -20.943996429443356 5.243896198272706
    vertex 3.515491022379382 -20.943996429443356 5.585622387230509
  endloop
endfacet
facet normal 0.0 -1.0 0.0
  outer loop
    vertex -13.157562152862615 -20.943996429443356 5.243896198272707
    vertex 3.515491022379382 -20.943996429443356 5.585622387230509
    vertex -13.419777880149136 -20.943996429443356 5.58562238723051
  endloop
endfacet
facet normal 0.0 -1.0 0.0
  outer loop
    vertex -13.419777880149136 -20.943996429443356 5.58562238723051
    vertex 3.515491022379382 -20.943996429443356 5.585622387230509
    vertex 3.8572172113371854 -20.943996429443356 5.847838114517029
  endloop
endfacet
facet normal 0.0 -1.0 0.0
  outer loop
    vertex -13.419777880149136 -20.943996429443356 5.58562238723051
    vertex 3.8572172113371854 -20.943996429443356 5.847838114517029
    vertex -13.761504069106941 -20.943996429443356 5.847838114517031
  endloop
endfacet
facet normal 0.0 -1.0 0.0
  outer loop
    vertex -13.761504069106941 -20.943996429443356 5.847838114517031
    vertex 3.8572172113371854 -20.943996429443356 5.847838114517029
    vertex 4.255165786918026 -20.943996429443356 6.012673811649669
  endloop
endfacet
facet normal 0.0 -1.0 0.0
  outer loop
    vertex -13.761504069106941 -20.943996429443356 5.847838114517031
    vertex 4.255165786918026 -20.943996429443356 6.012673811649669
    vertex -14.159452644687782 -20.943996429443356 6.012673811649669
  endloop
endfacet
facet normal 0.0 -1.0 0.0
  outer loop
    vertex -14.159452644687782 -20.943996429443356 6.012673811649669
    vertex 4.255165786918026 -20.943996429443356 6.012673811649669
    vertex 4.6822172113371865 -20.943996429443356 6.068896198272706
  endloop
endfacet
facet normal 0.0 -1.0 0.0
  outer loop
    vertex -14.159452644687782 -20.943996429443356 6.012673811649669
    vertex 4.6822172113371865 -20.943996429443356 6.068896198272706
    vertex -14.58650406910694 -20.943996429443356 6.068896198272706
  endloop
endfacet
facet normal 1.0 0.0 0.0
  outer loop
    vertex 9.547857284545898 -20.943996429443356 -0.08110415935516212
    vertex 9.547857284545898 -18.94399642944336 0.9188958406448376
    vertex 9.547857284545898 -20.943996429443356 9.91887689933191
  endloop
endfacet
facet normal 1.0 0.0 0.0
  outer loop
    vertex 9.547857284545898 -18.94399642944336 0.9188958406448376
    vertex 9.547857284545898 -20.943996429443356 -0.08110415935516212
    vertex 9.547857284545898 -16.94399642944336 -0.08110415935516212
  endloop
endfacet
facet normal 1.0 0.0 0.0
  outer loop
    vertex 9.547857284545898 -18.94399642944336 0.9188958406448376
    vertex 9.547857284545898 -16.94399642944336 -0.08110415935516212
    vertex 9.547857284545898 -16.94399642944336 0.9188958406448376
  endloop
endfacet
facet normal 1.0 0.0 0.0
  outer loop
    vertex 9.547857284545898 -18.94399642944336 9.91887689933191
    vertex 9.547857284545898 -20.943996429443356 9.91887689933191
    vertex 9.547857284545898 -18.94399642944336 0.9188958406448376
  endloop
endfacet
facet normal -0.0005458408853480164 0.0 0.9999998510288529
  outer loop
    vertex 9.547857284545898 -20.943996429443356 9.91887689933191
    vertex -17.452142715454098 -18.94399642944336 9.90413919323202
    vertex -17.452142715454098 -20.943996429443356 9.90413919323202
  endloop
endfacet
facet normal -0.0005458408853480164 0.0 0.9999998510288529
  outer loop
    vertex -17.452142715454098 -18.94399642944336 9.90413919323202
    vertex 9.547857284545898 -20.943996429443356 9.91887689933191
    vertex 9.547857284545898 -18.94399642944336 9.91887689933191
  endloop
endfacet
facet normal -1.0 -0.0 -0.0
  outer loop
    vertex -17.452142715454098 -18.94399642944336 9.90413919323202
    vertex -17.452142715454098 -20.943996429443356 -0.08110415935516212
    vertex -17.452142715454098 -20.943996429443356 9.90413919323202
  endloop
endfacet
facet normal -1.0 -0.0 -0.0
  outer loop
    vertex -17.452142715454098 -20.943996429443356 -0.08110415935516212
    vertex -17.452142715454098 -18.94399642944336 9.90413919323202
    vertex -17.452142715454094 -18.94399642944336 0.9188958406448374
  endloop
endfacet
facet normal -1.0 -0.0 -0.0
  outer loop
    vertex -17.452142715454098 -20.943996429443356 -0.08110415935516212
    vertex -17.452142715454094 -18.94399642944336 0.9188958406448374
    vertex -17.452142715454098 -16.94399642944336 -0.08110415935516212
  endloop
endfacet
facet normal -1.0 -0.0 -0.0
  outer loop
    vertex -17.452142715454098 -16.94399642944336 -0.08110415935516212
    vertex -17.452142715454094 -18.94399642944336 0.9188958406448374
    vertex -17.452142715454094 -16.94399642944336 0.9188958406448374
  endloop
endfacet
facet normal 0.0 0.0 -1.0
  outer loop
    vertex 9.547857284545898 -16.94399642944336 -0.08110415935516212
    vertex -17.452142715454098 -20.943996429443356 -0.08110415935516212
    vertex -17.452142715454098 -16.94399642944336 -0.08110415935516212
  endloop
endfacet
facet normal 0.0 0.0 -1.0
  outer loop
    vertex -17.452142715454098 -20.943996429443356 -0.08110415935516212
    vertex 9.547857284545898 -16.94399642944336 -0.08110415935516212
    vertex 9.547857284545898 -20.943996429443356 -0.08110415935516212
  endloop
endfacet
facet normal -0.9914448613738105 0.0 0.13052619222005107
  outer loop
    vertex -12.93650406910694 -18.94399642944336 4.418896198272707
    vertex -12.992726455729978 -20.943996429443356 3.991844773853547
    vertex -12.93650406910694 -20.943996429443356 4.418896198272707
  endloop
endfacet
facet normal -0.9914448613738105 0.0 0.13052619222005107
  outer loop
    vertex -12.992726455729978 -20.943996429443356 3.991844773853547
    vertex -12.93650406910694 -18.94399642944336 4.418896198272707
    vertex -12.992726455729978 -18.94399642944336 3.991844773853547
  endloop
endfacet
facet normal -0.9238795325112872 0.0 0.3826834323650888
  outer loop
    vertex -12.992726455729978 -18.94399642944336 3.991844773853547
    vertex -13.157562152862615 -20.943996429443356 3.5938961982727067
    vertex -12.992726455729978 -20.943996429443356 3.991844773853547
  endloop
endfacet
facet normal -0.9238795325112872 0.0 0.3826834323650888
  outer loop
    vertex -13.157562152862615 -20.943996429443356 3.5938961982727067
    vertex -12.992726455729978 -18.94399642944336 3.991844773853547
    vertex -13.157562152862615 -18.94399642944336 3.5938961982727067
  endloop
endfacet
facet normal -0.7933533402912353 0.0 0.6087614290087205
  outer loop
    vertex -13.157562152862615 -18.94399642944336 3.5938961982727067
    vertex -13.419777880149136 -20.943996429443356 3.252170009314903
    vertex -13.157562152862615 -20.943996429443356 3.5938961982727067
  endloop
endfacet
facet normal -0.7933533402912353 0.0 0.6087614290087205
  outer loop
    vertex -13.419777880149136 -20.943996429443356 3.252170009314903
    vertex -13.157562152862615 -18.94399642944336 3.5938961982727067
    vertex -13.419777880149136 -18.94399642944336 3.252170009314903
  endloop
endfacet
facet normal -0.6087614290087213 0.0 0.7933533402912348
  outer loop
    vertex -13.419777880149136 -20.943996429443356 3.252170009314903
    vertex -13.76150406910694 -18.94399642944336 2.989954282028383
    vertex -13.76150406910694 -20.943996429443356 2.989954282028383
  endloop
endfacet
facet normal -0.6087614290087213 0.0 0.7933533402912348
  outer loop
    vertex -13.76150406910694 -18.94399642944336 2.989954282028383
    vertex -13.419777880149136 -20.943996429443356 3.252170009314903
    vertex -13.419777880149136 -18.94399642944336 3.252170009314903
  endloop
endfacet
facet normal -0.38268343236508784 0.0 0.9238795325112877
  outer loop
    vertex -13.76150406910694 -20.943996429443356 2.989954282028383
    vertex -14.159452644687782 -18.94399642944336 2.825118584895744
    vertex -14.159452644687782 -20.943996429443356 2.825118584895744
  endloop
endfacet
facet normal -0.38268343236508784 0.0 0.9238795325112877
  outer loop
    vertex -14.159452644687782 -18.94399642944336 2.825118584895744
    vertex -13.76150406910694 -20.943996429443356 2.989954282028383
    vertex -13.76150406910694 -18.94399642944336 2.989954282028383
  endloop
endfacet
facet normal -0.1305261922200521 0.0 0.9914448613738104
  outer loop
    vertex -14.159452644687782 -20.943996429443356 2.825118584895744
    vertex -14.58650406910694 -18.94399642944336 2.7688961982727065
    vertex -14.58650406910694 -20.943996429443356 2.7688961982727065
  endloop
endfacet
facet normal -0.1305261922200521 0.0 0.9914448613738104
  outer loop
    vertex -14.58650406910694 -18.94399642944336 2.7688961982727065
    vertex -14.159452644687782 -20.943996429443356 2.825118584895744
    vertex -14.159452644687782 -18.94399642944336 2.825118584895744
  endloop
endfacet
facet normal 0.13052619222005132 0.0 0.9914448613738106
  outer loop
    vertex -14.58650406910694 -20.943996429443356 2.7688961982727065
    vertex -15.013555493526098 -18.94399642944336 2.8251185848957436
    vertex -15.013555493526098 -20.943996429443356 2.8251185848957436
  endloop
endfacet
facet normal 0.13052619222005132 0.0 0.9914448613738106
  outer loop
    vertex -15.013555493526098 -18.94399642944336 2.8251185848957436
    vertex -14.58650406910694 -20.943996429443356 2.7688961982727065
    vertex -14.58650406910694 -18.94399642944336 2.7688961982727065
  endloop
endfacet
facet normal 0.3826834323650908 0.0 0.9238795325112863
  outer loop
    vertex -15.013555493526098 -20.943996429443356 2.8251185848957436
    vertex -15.411504069106938 -18.94399642944336 2.989954282028383
    vertex -15.411504069106938 -20.943996429443356 2.989954282028383
  endloop
endfacet
facet normal 0.3826834323650908 0.0 0.9238795325112863
  outer loop
    vertex -15.411504069106938 -18.94399642944336 2.989954282028383
    vertex -15.013555493526098 -20.943996429443356 2.8251185848957436
    vertex -15.013555493526098 -18.94399642944336 2.8251185848957436
  endloop
endfacet
facet normal 0.6087614290087181 0.0 0.7933533402912372
  outer loop
    vertex -15.411504069106938 -20.943996429443356 2.989954282028383
    vertex -15.753230258064745 -18.94399642944336 3.252170009314903
    vertex -15.753230258064745 -20.943996429443356 3.252170009314903
  endloop
endfacet
facet normal 0.6087614290087181 0.0 0.7933533402912372
  outer loop
    vertex -15.753230258064745 -18.94399642944336 3.252170009314903
    vertex -15.411504069106938 -20.943996429443356 2.989954282028383
    vertex -15.411504069106938 -18.94399642944336 2.989954282028383
  endloop
endfacet
facet normal 0.7933533402912348 0.0 0.6087614290087213
  outer loop
    vertex -15.753230258064745 -18.94399642944336 3.252170009314903
    vertex -16.015445985351263 -20.943996429443356 3.593896198272706
    vertex -15.753230258064745 -20.943996429443356 3.252170009314903
  endloop
endfacet
facet normal 0.7933533402912348 0.0 0.6087614290087213
  outer loop
    vertex -16.015445985351263 -20.943996429443356 3.593896198272706
    vertex -15.753230258064745 -18.94399642944336 3.252170009314903
    vertex -16.015445985351263 -18.94399642944336 3.593896198272706
  endloop
endfacet
facet normal 0.9238795325112875 0.0 0.3826834323650883
  outer loop
    vertex -16.015445985351263 -18.94399642944336 3.593896198272706
    vertex -16.1802816824839 -20.943996429443356 3.991844773853547
    vertex -16.015445985351263 -20.943996429443356 3.593896198272706
  endloop
endfacet
facet normal 0.9238795325112875 0.0 0.3826834323650883
  outer loop
    vertex -16.1802816824839 -20.943996429443356 3.991844773853547
    vertex -16.015445985351263 -18.94399642944336 3.593896198272706
    vertex -16.1802816824839 -18.94399642944336 3.991844773853547
  endloop
endfacet
facet normal 0.9914448613738105 0.0 0.13052619222005107
  outer loop
    vertex -16.1802816824839 -18.94399642944336 3.991844773853547
    vertex -16.23650406910694 -20.943996429443356 4.418896198272707
    vertex -16.1802816824839 -20.943996429443356 3.991844773853547
  endloop
endfacet
facet normal 0.9914448613738105 0.0 0.13052619222005107
  outer loop
    vertex -16.23650406910694 -20.943996429443356 4.418896198272707
    vertex -16.1802816824839 -18.94399642944336 3.991844773853547
    vertex -16.23650406910694 -18.94399642944336 4.418896198272707
  endloop
endfacet
facet normal 0.9914448613738106 0.0 -0.13052619222005132
  outer loop
    vertex -16.23650406910694 -18.94399642944336 4.418896198272707
    vertex -16.1802816824839 -20.943996429443356 4.845947622691865
    vertex -16.23650406910694 -20.943996429443356 4.418896198272707
  endloop
endfacet
facet normal 0.9914448613738106 0.0 -0.13052619222005132
  outer loop
    vertex -16.1802816824839 -20.943996429443356 4.845947622691865
    vertex -16.23650406910694 -18.94399642944336 4.418896198272707
    vertex -16.1802816824839 -18.94399642944336 4.845947622691865
  endloop
endfacet
facet normal 0.9238795325112875 0.0 -0.3826834323650883
  outer loop
    vertex -16.1802816824839 -18.94399642944336 4.845947622691865
    vertex -16.015445985351263 -20.943996429443356 5.243896198272706
    vertex -16.1802816824839 -20.943996429443356 4.845947622691865
  endloop
endfacet
facet normal 0.9238795325112875 0.0 -0.3826834323650883
  outer loop
    vertex -16.015445985351263 -20.943996429443356 5.243896198272706
    vertex -16.1802816824839 -18.94399642944336 4.845947622691865
    vertex -16.015445985351263 -18.94399642944336 5.243896198272706
  endloop
endfacet
facet normal 0.7933533402912348 0.0 -0.6087614290087213
  outer loop
    vertex -16.015445985351263 -18.94399642944336 5.243896198272706
    vertex -15.753230258064745 -20.943996429443356 5.585622387230509
    vertex -16.015445985351263 -20.943996429443356 5.243896198272706
  endloop
endfacet
facet normal 0.7933533402912348 0.0 -0.6087614290087213
  outer loop
    vertex -15.753230258064745 -20.943996429443356 5.585622387230509
    vertex -16.015445985351263 -18.94399642944336 5.243896198272706
    vertex -15.753230258064745 -18.94399642944336 5.585622387230509
  endloop
endfacet
facet normal 0.6087614290087213 0.0 -0.7933533402912348
  outer loop
    vertex -15.411504069106941 -18.94399642944336 5.847838114517029
    vertex -15.753230258064745 -20.943996429443356 5.585622387230509
    vertex -15.753230258064745 -18.94399642944336 5.585622387230509
  endloop
endfacet
facet normal 0.6087614290087213 0.0 -0.7933533402912348
  outer loop
    vertex -15.753230258064745 -20.943996429443356 5.585622387230509
    vertex -15.411504069106941 -18.94399642944336 5.847838114517029
    vertex -15.411504069106941 -20.943996429443356 5.847838114517029
  endloop
endfacet
facet normal 0.3826834323650908 0.0 -0.9238795325112863
  outer loop
    vertex -15.013555493526102 -18.94399642944336 6.012673811649669
    vertex -15.411504069106941 -20.943996429443356 5.847838114517029
    vertex -15.411504069106941 -18.94399642944336 5.847838114517029
  endloop
endfacet
facet normal 0.3826834323650908 0.0 -0.9238795325112863
  outer loop
    vertex -15.411504069106941 -20.943996429443356 5.847838114517029
    vertex -15.013555493526102 -18.94399642944336 6.012673811649669
    vertex -15.013555493526102 -20.943996429443356 6.012673811649669
  endloop
endfacet
facet normal 0.13052619222005207 0.0 -0.9914448613738105
  outer loop
    vertex -14.58650406910694 -18.94399642944336 6.068896198272706
    vertex -15.013555493526102 -20.943996429443356 6.012673811649669
    vertex -15.013555493526102 -18.94399642944336 6.012673811649669
  endloop
endfacet
facet normal 0.13052619222005207 0.0 -0.9914448613738105
  outer loop
    vertex -15.013555493526102 -20.943996429443356 6.012673811649669
    vertex -14.58650406910694 -18.94399642944336 6.068896198272706
    vertex -14.58650406910694 -20.943996429443356 6.068896198272706
  endloop
endfacet
facet normal -0.13052619222005132 -0.0 -0.9914448613738106
  outer loop
    vertex -14.159452644687782 -18.94399642944336 6.012673811649669
    vertex -14.58650406910694 -20.943996429443356 6.068896198272706
    vertex -14.58650406910694 -18.94399642944336 6.068896198272706
  endloop
endfacet
facet normal -0.13052619222005132 -0.0 -0.9914448613738106
  outer loop
    vertex -14.58650406910694 -20.943996429443356 6.068896198272706
    vertex -14.159452644687782 -18.94399642944336 6.012673811649669
    vertex -14.159452644687782 -20.943996429443356 6.012673811649669
  endloop
endfacet
facet normal -0.38268343236508945 -0.0 -0.9238795325112871
  outer loop
    vertex -13.761504069106941 -18.94399642944336 5.847838114517031
    vertex -14.159452644687782 -20.943996429443356 6.012673811649669
    vertex -14.159452644687782 -18.94399642944336 6.012673811649669
  endloop
endfacet
facet normal -0.38268343236508945 -0.0 -0.9238795325112871
  outer loop
    vertex -14.159452644687782 -20.943996429443356 6.012673811649669
    vertex -13.761504069106941 -18.94399642944336 5.847838114517031
    vertex -13.761504069106941 -20.943996429443356 5.847838114517031
  endloop
endfacet
facet normal -0.6087614290087192 -0.0 -0.7933533402912365
  outer loop
    vertex -13.419777880149136 -18.94399642944336 5.58562238723051
    vertex -13.761504069106941 -20.943996429443356 5.847838114517031
    vertex -13.761504069106941 -18.94399642944336 5.847838114517031
  endloop
endfacet
facet normal -0.6087614290087192 -0.0 -0.7933533402912365
  outer loop
    vertex -13.761504069106941 -20.943996429443356 5.847838114517031
    vertex -13.419777880149136 -18.94399642944336 5.58562238723051
    vertex -13.419777880149136 -20.943996429443356 5.58562238723051
  endloop
endfacet
facet normal -0.7933533402912348 -0.0 -0.6087614290087213
  outer loop
    vertex -13.419777880149136 -18.94399642944336 5.58562238723051
    vertex -13.157562152862615 -20.943996429443356 5.243896198272707
    vertex -13.419777880149136 -20.943996429443356 5.58562238723051
  endloop
endfacet
facet normal -0.7933533402912348 -0.0 -0.6087614290087213
  outer loop
    vertex -13.157562152862615 -20.943996429443356 5.243896198272707
    vertex -13.419777880149136 -18.94399642944336 5.58562238723051
    vertex -13.157562152862615 -18.94399642944336 5.243896198272707
  endloop
endfacet
facet normal -0.9238795325112871 -0.0 -0.38268343236508945
  outer loop
    vertex -13.157562152862615 -18.94399642944336 5.243896198272707
    vertex -12.992726455729978 -20.943996429443356 4.845947622691868
    vertex -13.157562152862615 -20.943996429443356 5.243896198272707
  endloop
endfacet
facet normal -0.9238795325112871 -0.0 -0.38268343236508945
  outer loop
    vertex -12.992726455729978 -20.943996429443356 4.845947622691868
    vertex -13.157562152862615 -18.94399642944336 5.243896198272707
    vertex -12.992726455729978 -18.94399642944336 4.845947622691868
  endloop
endfacet
facet normal -0.9914448613738106 -0.0 -0.13052619222005066
  outer loop
    vertex -12.992726455729978 -18.94399642944336 4.845947622691868
    vertex -12.93650406910694 -20.943996429443356 4.418896198272707
    vertex -12.992726455729978 -20.943996429443356 4.845947622691868
  endloop
endfacet
facet normal -0.9914448613738106 -0.0 -0.13052619222005066
  outer loop
    vertex -12.93650406910694 -20.943996429443356 4.418896198272707
    vertex -12.992726455729978 -18.94399642944336 4.845947622691868
    vertex -12.93650406910694 -18.94399642944336 4.418896198272707
  endloop
endfacet
facet normal 0.7933533402912355 0.0 0.6087614290087202
  outer loop
    vertex 3.5154910223793827 -18.94399642944336 3.252170009314903
    vertex 3.253275295092863 -20.943996429443356 3.593896198272706
    vertex 3.5154910223793827 -20.943996429443356 3.252170009314903
  endloop
endfacet
facet normal 0.7933533402912355 0.0 0.6087614290087202
  outer loop
    vertex 3.253275295092863 -20.943996429443356 3.593896198272706
    vertex 3.5154910223793827 -18.94399642944336 3.252170009314903
    vertex 3.253275295092863 -18.94399642944336 3.593896198272706
  endloop
endfacet
facet normal 0.9238795325112866 0.0 0.38268343236509034
  outer loop
    vertex 3.253275295092863 -18.94399642944336 3.593896198272706
    vertex 3.0884395979602237 -20.943996429443356 3.991844773853547
    vertex 3.253275295092863 -20.943996429443356 3.593896198272706
  endloop
endfacet
facet normal 0.9238795325112866 0.0 0.38268343236509034
  outer loop
    vertex 3.0884395979602237 -20.943996429443356 3.991844773853547
    vertex 3.253275295092863 -18.94399642944336 3.593896198272706
    vertex 3.0884395979602237 -18.94399642944336 3.991844773853547
  endloop
endfacet
facet normal 0.9914448613738105 0.0 0.13052619222005188
  outer loop
    vertex 3.0884395979602237 -18.94399642944336 3.991844773853547
    vertex 3.032217211337186 -20.943996429443356 4.418896198272707
    vertex 3.0884395979602237 -20.943996429443356 3.991844773853547
  endloop
endfacet
facet normal 0.9914448613738105 0.0 0.13052619222005188
  outer loop
    vertex 3.032217211337186 -20.943996429443356 4.418896198272707
    vertex 3.0884395979602237 -18.94399642944336 3.991844773853547
    vertex 3.032217211337186 -18.94399642944336 4.418896198272707
  endloop
endfacet
facet normal 0.9914448613738106 0.0 -0.13052619222005132
  outer loop
    vertex 3.032217211337186 -18.94399642944336 4.418896198272707
    vertex 3.0884395979602233 -20.943996429443356 4.845947622691865
    vertex 3.032217211337186 -20.943996429443356 4.418896198272707
  endloop
endfacet
facet normal 0.9914448613738106 0.0 -0.13052619222005132
  outer loop
    vertex 3.0884395979602233 -20.943996429443356 4.845947622691865
    vertex 3.032217211337186 -18.94399642944336 4.418896198272707
    vertex 3.0884395979602233 -18.94399642944336 4.845947622691865
  endloop
endfacet
facet normal 0.923879532511287 0.0 -0.38268343236508967
  outer loop
    vertex 3.0884395979602233 -18.94399642944336 4.845947622691865
    vertex 3.2532752950928625 -20.943996429443356 5.243896198272706
    vertex 3.0884395979602233 -20.943996429443356 4.845947622691865
  endloop
endfacet
facet normal 0.923879532511287 0.0 -0.38268343236508967
  outer loop
    vertex 3.2532752950928625 -20.943996429443356 5.243896198272706
    vertex 3.0884395979602233 -18.94399642944336 4.845947622691865
    vertex 3.2532752950928625 -18.94399642944336 5.243896198272706
  endloop
endfacet
facet normal 0.7933533402912355 0.0 -0.6087614290087202
  outer loop
    vertex 3.2532752950928625 -18.94399642944336 5.243896198272706
    vertex 3.515491022379382 -20.943996429443356 5.585622387230509
    vertex 3.2532752950928625 -20.943996429443356 5.243896198272706
  endloop
endfacet
facet normal 0.7933533402912355 0.0 -0.6087614290087202
  outer loop
    vertex 3.515491022379382 -20.943996429443356 5.585622387230509
    vertex 3.2532752950928625 -18.94399642944336 5.243896198272706
    vertex 3.515491022379382 -18.94399642944336 5.585622387230509
  endloop
endfacet
facet normal 0.6087614290087205 0.0 -0.7933533402912353
  outer loop
    vertex 3.8572172113371854 -18.94399642944336 5.847838114517029
    vertex 3.515491022379382 -20.943996429443356 5.585622387230509
    vertex 3.515491022379382 -18.94399642944336 5.585622387230509
  endloop
endfacet
facet normal 0.6087614290087205 0.0 -0.7933533402912353
  outer loop
    vertex 3.515491022379382 -20.943996429443356 5.585622387230509
    vertex 3.8572172113371854 -18.94399642944336 5.847838114517029
    vertex 3.8572172113371854 -20.943996429443356 5.847838114517029
  endloop
endfacet
facet normal 0.3826834323650902 0.0 -0.9238795325112866
  outer loop
    vertex 4.255165786918026 -18.94399642944336 6.012673811649669
    vertex 3.8572172113371854 -20.943996429443356 5.847838114517029
    vertex 3.8572172113371854 -18.94399642944336 5.847838114517029
  endloop
endfacet
facet normal 0.3826834323650902 0.0 -0.9238795325112866
  outer loop
    vertex 3.8572172113371854 -20.943996429443356 5.847838114517029
    vertex 4.255165786918026 -18.94399642944336 6.012673811649669
    vertex 4.255165786918026 -20.943996429443356 6.012673811649669
  endloop
endfacet
facet normal 0.13052619222005246 0.0 -0.9914448613738103
  outer loop
    vertex 4.6822172113371865 -18.94399642944336 6.068896198272706
    vertex 4.255165786918026 -20.943996429443356 6.012673811649669
    vertex 4.255165786918026 -18.94399642944336 6.012673811649669
  endloop
endfacet
facet normal 0.13052619222005246 0.0 -0.9914448613738103
  outer loop
    vertex 4.255165786918026 -20.943996429443356 6.012673811649669
    vertex 4.6822172113371865 -18.94399642944336 6.068896198272706
    vertex 4.6822172113371865 -20.943996429443356 6.068896198272706
  endloop
endfacet
facet normal -0.13052619222005132 -0.0 -0.9914448613738106
  outer loop
    vertex 5.109268635756345 -18.94399642944336 6.012673811649669
    vertex 4.6822172113371865 -20.943996429443356 6.068896198272706
    vertex 4.6822172113371865 -18.94399642944336 6.068896198272706
  endloop
endfacet
facet normal -0.13052619222005132 -0.0 -0.9914448613738106
  outer loop
    vertex 4.6822172113371865 -20.943996429443356 6.068896198272706
    vertex 5.109268635756345 -18.94399642944336 6.012673811649669
    vertex 5.109268635756345 -20.943996429443356 6.012673811649669
  endloop
endfacet
facet normal -0.38268343236508945 -0.0 -0.9238795325112871
  outer loop
    vertex 5.507217211337185 -18.94399642944336 5.847838114517031
    vertex 5.109268635756345 -20.943996429443356 6.012673811649669
    vertex 5.109268635756345 -18.94399642944336 6.012673811649669
  endloop
endfacet
facet normal -0.38268343236508945 -0.0 -0.9238795325112871
  outer loop
    vertex 5.109268635756345 -20.943996429443356 6.012673811649669
    vertex 5.507217211337185 -18.94399642944336 5.847838114517031
    vertex 5.507217211337185 -20.943996429443356 5.847838114517031
  endloop
endfacet
facet normal -0.60876142900872 -0.0 -0.7933533402912357
  outer loop
    vertex 5.848943400294989 -18.94399642944336 5.58562238723051
    vertex 5.507217211337185 -20.943996429443356 5.847838114517031
    vertex 5.507217211337185 -18.94399642944336 5.847838114517031
  endloop
endfacet
facet normal -0.60876142900872 -0.0 -0.7933533402912357
  outer loop
    vertex 5.507217211337185 -20.943996429443356 5.847838114517031
    vertex 5.848943400294989 -18.94399642944336 5.58562238723051
    vertex 5.848943400294989 -20.943996429443356 5.58562238723051
  endloop
endfacet
facet normal -0.7933533402912355 -0.0 -0.6087614290087202
  outer loop
    vertex 5.848943400294989 -18.94399642944336 5.58562238723051
    vertex 6.111159127581509 -20.943996429443356 5.243896198272707
    vertex 5.848943400294989 -20.943996429443356 5.58562238723051
  endloop
endfacet
facet normal -0.7933533402912355 -0.0 -0.6087614290087202
  outer loop
    vertex 6.111159127581509 -20.943996429443356 5.243896198272707
    vertex 5.848943400294989 -18.94399642944336 5.58562238723051
    vertex 6.111159127581509 -18.94399642944336 5.243896198272707
  endloop
endfacet
facet normal -0.9238795325112863 -0.0 -0.3826834323650908
  outer loop
    vertex 6.111159127581509 -18.94399642944336 5.243896198272707
    vertex 6.275994824714148 -20.943996429443356 4.845947622691868
    vertex 6.111159127581509 -20.943996429443356 5.243896198272707
  endloop
endfacet
facet normal -0.9238795325112863 -0.0 -0.3826834323650908
  outer loop
    vertex 6.275994824714148 -20.943996429443356 4.845947622691868
    vertex 6.111159127581509 -18.94399642944336 5.243896198272707
    vertex 6.275994824714148 -18.94399642944336 4.845947622691868
  endloop
endfacet
facet normal -0.9914448613738105 -0.0 -0.1305261922200523
  outer loop
    vertex 6.275994824714148 -18.94399642944336 4.845947622691868
    vertex 6.332217211337186 -20.943996429443356 4.418896198272707
    vertex 6.275994824714148 -20.943996429443356 4.845947622691868
  endloop
endfacet
facet normal -0.9914448613738105 -0.0 -0.1305261922200523
  outer loop
    vertex 6.332217211337186 -20.943996429443356 4.418896198272707
    vertex 6.275994824714148 -18.94399642944336 4.845947622691868
    vertex 6.332217211337186 -18.94399642944336 4.418896198272707
  endloop
endfacet
facet normal -0.9914448613738105 0.0 0.13052619222005107
  outer loop
    vertex 6.332217211337186 -18.94399642944336 4.418896198272707
    vertex 6.275994824714148 -20.943996429443356 3.991844773853547
    vertex 6.332217211337186 -20.943996429443356 4.418896198272707
  endloop
endfacet
facet normal -0.9914448613738105 0.0 0.13052619222005107
  outer loop
    vertex 6.275994824714148 -20.943996429443356 3.991844773853547
    vertex 6.332217211337186 -18.94399642944336 4.418896198272707
    vertex 6.275994824714148 -18.94399642944336 3.991844773853547
  endloop
endfacet
facet normal -0.9238795325112866 0.0 0.3826834323650902
  outer loop
    vertex 6.275994824714148 -18.94399642944336 3.991844773853547
    vertex 6.11115912758151 -20.943996429443356 3.5938961982727067
    vertex 6.275994824714148 -20.943996429443356 3.991844773853547
  endloop
endfacet
facet normal -0.9238795325112866 0.0 0.3826834323650902
  outer loop
    vertex 6.11115912758151 -20.943996429443356 3.5938961982727067
    vertex 6.275994824714148 -18.94399642944336 3.991844773853547
    vertex 6.11115912758151 -18.94399642944336 3.5938961982727067
  endloop
endfacet
facet normal -0.7933533402912353 0.0 0.6087614290087205
  outer loop
    vertex 6.11115912758151 -18.94399642944336 3.5938961982727067
    vertex 5.848943400294989 -20.943996429443356 3.252170009314903
    vertex 6.11115912758151 -20.943996429443356 3.5938961982727067
  endloop
endfacet
facet normal -0.7933533402912353 0.0 0.6087614290087205
  outer loop
    vertex 5.848943400294989 -20.943996429443356 3.252170009314903
    vertex 6.11115912758151 -18.94399642944336 3.5938961982727067
    vertex 5.848943400294989 -18.94399642944336 3.252170009314903
  endloop
endfacet
facet normal -0.6087614290087205 0.0 0.7933533402912353
  outer loop
    vertex 5.848943400294989 -20.943996429443356 3.252170009314903
    vertex 5.507217211337186 -18.94399642944336 2.989954282028383
    vertex 5.507217211337186 -20.943996429443356 2.989954282028383
  endloop
endfacet
facet normal -0.6087614290087205 0.0 0.7933533402912353
  outer loop
    vertex 5.507217211337186 -18.94399642944336 2.989954282028383
    vertex 5.848943400294989 -20.943996429443356 3.252170009314903
    vertex 5.848943400294989 -18.94399642944336 3.252170009314903
  endloop
endfacet
facet normal -0.38268343236508945 0.0 0.9238795325112868
  outer loop
    vertex 5.507217211337186 -20.943996429443356 2.989954282028383
    vertex 5.1092686357563455 -18.94399642944336 2.825118584895744
    vertex 5.1092686357563455 -20.943996429443356 2.825118584895744
  endloop
endfacet
facet normal -0.38268343236508945 0.0 0.9238795325112868
  outer loop
    vertex 5.1092686357563455 -18.94399642944336 2.825118584895744
    vertex 5.507217211337186 -20.943996429443356 2.989954282028383
    vertex 5.507217211337186 -18.94399642944336 2.989954282028383
  endloop
endfacet
facet normal -0.13052619222005188 0.0 0.9914448613738105
  outer loop
    vertex 5.1092686357563455 -20.943996429443356 2.825118584895744
    vertex 4.6822172113371865 -18.94399642944336 2.7688961982727065
    vertex 4.6822172113371865 -20.943996429443356 2.7688961982727065
  endloop
endfacet
facet normal -0.13052619222005188 0.0 0.9914448613738105
  outer loop
    vertex 4.6822172113371865 -18.94399642944336 2.7688961982727065
    vertex 5.1092686357563455 -20.943996429443356 2.825118584895744
    vertex 5.1092686357563455 -18.94399642944336 2.825118584895744
  endloop
endfacet
facet normal 0.13052619222005132 0.0 0.9914448613738106
  outer loop
    vertex 4.6822172113371865 -20.943996429443356 2.7688961982727065
    vertex 4.2551657869180275 -18.94399642944336 2.8251185848957436
    vertex 4.2551657869180275 -20.943996429443356 2.8251185848957436
  endloop
endfacet
facet normal 0.13052619222005132 0.0 0.9914448613738106
  outer loop
    vertex 4.2551657869180275 -18.94399642944336 2.8251185848957436
    vertex 4.6822172113371865 -20.943996429443356 2.7688961982727065
    vertex 4.6822172113371865 -18.94399642944336 2.7688961982727065
  endloop
endfacet
facet normal 0.38268343236508967 0.0 0.923879532511287
  outer loop
    vertex 4.2551657869180275 -20.943996429443356 2.8251185848957436
    vertex 3.8572172113371863 -18.94399642944336 2.989954282028383
    vertex 3.8572172113371863 -20.943996429443356 2.989954282028383
  endloop
endfacet
facet normal 0.38268343236508967 0.0 0.923879532511287
  outer loop
    vertex 3.8572172113371863 -18.94399642944336 2.989954282028383
    vertex 4.2551657869180275 -20.943996429443356 2.8251185848957436
    vertex 4.2551657869180275 -18.94399642944336 2.8251185848957436
  endloop
endfacet
facet normal 0.6087614290087205 0.0 0.7933533402912353
  outer loop
    vertex 3.8572172113371863 -20.943996429443356 2.989954282028383
    vertex 3.5154910223793827 -18.94399642944336 3.252170009314903
    vertex 3.5154910223793827 -20.943996429443356 3.252170009314903
  endloop
endfacet
facet normal 0.6087614290087205 0.0 0.7933533402912353
  outer loop
    vertex 3.5154910223793827 -18.94399642944336 3.252170009314903
    vertex 3.8572172113371863 -20.943996429443356 2.989954282028383
    vertex 3.8572172113371863 -18.94399642944336 2.989954282028383
  endloop
endfacet
facet normal 0.0 1.0 0.0
  outer loop
    vertex -17.452142715454094 -16.94399642944336 0.9188958406448374
    vertex 9.547857284545898 -16.94399642944336 -0.08110415935516212
    vertex -17.452142715454098 -16.94399642944336 -0.08110415935516212
  endloop
endfacet
facet normal 0.0 1.0 0.0
  outer loop
    vertex 9.547857284545898 -16.94399642944336 -0.08110415935516212
    vertex -17.452142715454094 -16.94399642944336 0.9188958406448374
    vertex 9.547857284545898 -16.94399642944336 0.9188958406448376
  endloop
endfacet
facet normal -6.527700191083097e-18 0.0 1.0
  outer loop
    vertex 9.547857284545898 -18.94399642944336 0.9188958406448376
    vertex -17.452142715454094 -16.94399642944336 0.9188958406448374
    vertex -17.452142715454094 -18.94399642944336 0.9188958406448374
  endloop
endfacet
facet normal -6.527700191083097e-18 0.0 1.0
  outer loop
    vertex -17.452142715454094 -16.94399642944336 0.9188958406448374
    vertex 9.547857284545898 -18.94399642944336 0.9188958406448376
    vertex 9.547857284545898 -16.94399642944336 0.9188958406448376
  endloop
endfacet
endsolid Carriage end stop clap
