solid EndstopSpacer
facet normal -4.27472066749951e-31 1.0 1.2371232323370265e-14
  outer loop
    vertex -2.038188822629729 5.000000000000061 4.529308494732747
    vertex 2.060007623325713 4.999999999999881 5.6579260953086
    vertex 7.038188822629729 5.000000000000061 4.529308494732748
  endloop
endfacet
facet normal -4.27472066749951e-31 1.0 1.2371232323370265e-14
  outer loop
    vertex 2.060007623325713 4.999999999999881 5.6579260953086
    vertex -2.038188822629729 5.000000000000061 4.529308494732747
    vertex 1.649999999999997 4.999999999999971 5.8277568135665
  endloop
endfacet
facet normal -4.27472066749951e-31 1.0 1.2371232323370265e-14
  outer loop
    vertex 1.649999999999997 4.999999999999971 5.8277568135665
    vertex -2.038188822629729 5.000000000000061 4.529308494732747
    vertex -4.5 4.999999999999994 10.000000000000014
  endloop
endfacet
facet normal -4.27472066749951e-31 1.0 1.2371232323370265e-14
  outer loop
    vertex 7.038188822629729 5.000000000000061 4.529308494732748
    vertex 2.060007623325713 4.999999999999881 5.6579260953086
    vertex 2.5000000000000004 4.999999999999932 5.59999999999999
  endloop
endfacet
facet normal -4.27472066749951e-31 1.0 1.2371232323370265e-14
  outer loop
    vertex 1.649999999999997 4.999999999999971 5.8277568135665
    vertex -4.5 4.999999999999994 10.000000000000014
    vertex 1.2979184719828671 4.999999999999999 6.097918471982892
  endloop
endfacet
facet normal -4.27472066749951e-31 1.0 1.2371232323370265e-14
  outer loop
    vertex 1.2979184719828671 4.999999999999999 6.097918471982892
    vertex -4.5 4.999999999999994 10.000000000000014
    vertex 1.0277568135664512 5.0000000000000275 6.450000000000022
  endloop
endfacet
facet normal -4.27472066749951e-31 1.0 1.2371232323370265e-14
  outer loop
    vertex 1.0277568135664512 5.0000000000000275 6.450000000000022
    vertex -4.5 4.999999999999994 10.000000000000014
    vertex 0.8579260953085802 4.999999999999954 6.860007623325741
  endloop
endfacet
facet normal -4.27472066749951e-31 1.0 1.2371232323370265e-14
  outer loop
    vertex 0.8579260953085802 4.999999999999954 6.860007623325741
    vertex -4.5 4.999999999999994 10.000000000000014
    vertex 0.7999999999999985 5.000000000000044 7.300000000000018
  endloop
endfacet
facet normal -4.27472066749951e-31 1.0 1.2371232323370265e-14
  outer loop
    vertex 0.7999999999999985 5.000000000000044 7.300000000000018
    vertex -4.5 4.999999999999994 10.000000000000014
    vertex 0.8579260953085802 5.000000000000016 7.739992376674299
  endloop
endfacet
facet normal -4.27472066749951e-31 1.0 1.2371232323370265e-14
  outer loop
    vertex 0.8579260953085802 5.000000000000016 7.739992376674299
    vertex -4.5 4.999999999999994 10.000000000000014
    vertex 1.0277568135664512 5.000000000000011 8.150000000000004
  endloop
endfacet
facet normal -4.27472066749951e-31 1.0 1.2371232323370265e-14
  outer loop
    vertex 1.0277568135664512 5.000000000000011 8.150000000000004
    vertex -4.5 4.999999999999994 10.000000000000014
    vertex 1.2979184719828643 4.999999999999926 8.502081528017138
  endloop
endfacet
facet normal -4.27472066749951e-31 1.0 1.2371232323370265e-14
  outer loop
    vertex 1.2979184719828643 4.999999999999926 8.502081528017138
    vertex -4.5 4.999999999999994 10.000000000000014
    vertex 1.649999999999997 5.000000000000022 8.77224318643354
  endloop
endfacet
facet normal -4.27472066749951e-31 1.0 1.2371232323370265e-14
  outer loop
    vertex 1.649999999999997 5.000000000000022 8.77224318643354
    vertex -4.5 4.999999999999994 10.000000000000014
    vertex 2.0600076233257103 5.000000000000016 8.942073904691428
  endloop
endfacet
facet normal -4.27472066749951e-31 1.0 1.2371232323370265e-14
  outer loop
    vertex 2.0600076233257103 5.000000000000016 8.942073904691428
    vertex -4.5 4.999999999999994 10.000000000000014
    vertex 2.5000000000000004 4.999999999999982 9.000000000000018
  endloop
endfacet
facet normal -4.27472066749951e-31 1.0 1.2371232323370265e-14
  outer loop
    vertex 7.038188822629729 5.000000000000061 4.529308494732748
    vertex 3.3499999999999983 4.999999999999971 5.8277568135665
    vertex 9.499999999999996 4.999999999999994 10.000000000000014
  endloop
endfacet
facet normal -4.27472066749951e-31 1.0 1.2371232323370265e-14
  outer loop
    vertex 3.3499999999999983 4.999999999999971 5.8277568135665
    vertex 7.038188822629729 5.000000000000061 4.529308494732748
    vertex 2.9399923766742844 4.999999999999881 5.657926095308601
  endloop
endfacet
facet normal -4.27472066749951e-31 1.0 1.2371232323370265e-14
  outer loop
    vertex 2.9399923766742844 4.999999999999881 5.657926095308601
    vertex 7.038188822629729 5.000000000000061 4.529308494732748
    vertex 2.5000000000000004 4.999999999999932 5.59999999999999
  endloop
endfacet
facet normal -4.27472066749951e-31 1.0 1.2371232323370265e-14
  outer loop
    vertex 9.499999999999996 4.999999999999994 10.000000000000014
    vertex 3.3499999999999983 4.999999999999971 5.8277568135665
    vertex 3.7020815280171293 5.000000000000005 6.097918471982894
  endloop
endfacet
facet normal -4.27472066749951e-31 1.0 1.2371232323370265e-14
  outer loop
    vertex 9.499999999999996 4.999999999999994 10.000000000000014
    vertex 3.7020815280171293 5.000000000000005 6.097918471982894
    vertex 3.9722431864335435 5.0000000000000275 6.450000000000022
  endloop
endfacet
facet normal -4.27472066749951e-31 1.0 1.2371232323370265e-14
  outer loop
    vertex 9.499999999999996 4.999999999999994 10.000000000000014
    vertex 3.9722431864335435 5.0000000000000275 6.450000000000022
    vertex 4.142073904691413 4.999999999999954 6.860007623325741
  endloop
endfacet
facet normal -4.27472066749951e-31 1.0 1.2371232323370265e-14
  outer loop
    vertex 9.499999999999996 4.999999999999994 10.000000000000014
    vertex 4.142073904691413 4.999999999999954 6.860007623325741
    vertex 4.199999999999998 5.000000000000044 7.300000000000018
  endloop
endfacet
facet normal -4.27472066749951e-31 1.0 1.2371232323370265e-14
  outer loop
    vertex 9.499999999999996 4.999999999999994 10.000000000000014
    vertex 4.199999999999998 5.000000000000044 7.300000000000018
    vertex 4.142073904691413 5.000000000000016 7.7399923766743015
  endloop
endfacet
facet normal -4.27472066749951e-31 1.0 1.2371232323370265e-14
  outer loop
    vertex 9.499999999999996 4.999999999999994 10.000000000000014
    vertex 4.142073904691413 5.000000000000016 7.7399923766743015
    vertex 3.9722431864335435 5.000000000000011 8.150000000000006
  endloop
endfacet
facet normal -4.27472066749951e-31 1.0 1.2371232323370265e-14
  outer loop
    vertex 9.499999999999996 4.999999999999994 10.000000000000014
    vertex 3.9722431864335435 5.000000000000011 8.150000000000006
    vertex 3.7020815280171293 4.999999999999926 8.502081528017138
  endloop
endfacet
facet normal -4.27472066749951e-31 1.0 1.2371232323370265e-14
  outer loop
    vertex 9.499999999999996 4.999999999999994 10.000000000000014
    vertex 3.7020815280171293 4.999999999999926 8.502081528017138
    vertex 3.3499999999999983 5.000000000000022 8.77224318643354
  endloop
endfacet
facet normal -4.27472066749951e-31 1.0 1.2371232323370265e-14
  outer loop
    vertex 9.499999999999996 4.999999999999994 10.000000000000014
    vertex 3.3499999999999983 5.000000000000022 8.77224318643354
    vertex 2.9399923766742844 5.000000000000016 8.942073904691428
  endloop
endfacet
facet normal -4.27472066749951e-31 1.0 1.2371232323370265e-14
  outer loop
    vertex 9.499999999999996 4.999999999999994 10.000000000000014
    vertex 2.9399923766742844 5.000000000000016 8.942073904691428
    vertex 2.5000000000000004 4.999999999999982 9.000000000000018
  endloop
endfacet
facet normal -4.27472066749951e-31 1.0 1.2371232323370265e-14
  outer loop
    vertex 9.499999999999996 4.999999999999994 10.000000000000014
    vertex 2.5000000000000004 4.999999999999982 9.000000000000018
    vertex -4.5 4.999999999999994 10.000000000000014
  endloop
endfacet
facet normal 0.0 -4.7318081656312175e-15 1.0
  outer loop
    vertex 4.999999999999997 -7.049916206369744e-15 9.99999999999999
    vertex 0.0 0.9999999999999932 9.999999999999996
    vertex 0.0 -7.049916206369744e-15 9.99999999999999
  endloop
endfacet
facet normal 0.0 -4.7318081656312175e-15 1.0
  outer loop
    vertex 0.0 0.9999999999999932 9.999999999999996
    vertex -4.5 4.999999999999994 10.000000000000014
    vertex -4.5 0.9999999999999932 9.999999999999996
  endloop
endfacet
facet normal 0.0 -4.7318081656312175e-15 1.0
  outer loop
    vertex -4.5 4.999999999999994 10.000000000000014
    vertex 0.0 0.9999999999999932 9.999999999999996
    vertex 9.499999999999996 4.999999999999994 10.000000000000014
  endloop
endfacet
facet normal 0.0 -4.7318081656312175e-15 1.0
  outer loop
    vertex 9.499999999999996 4.999999999999994 10.000000000000014
    vertex 0.0 0.9999999999999932 9.999999999999996
    vertex 4.999999999999997 0.9999999999999932 9.999999999999996
  endloop
endfacet
facet normal 0.0 -4.7318081656312175e-15 1.0
  outer loop
    vertex 4.999999999999997 0.9999999999999932 9.999999999999996
    vertex 0.0 0.9999999999999932 9.999999999999996
    vertex 4.999999999999997 -7.049916206369744e-15 9.99999999999999
  endloop
endfacet
facet normal 0.0 -4.7318081656312175e-15 1.0
  outer loop
    vertex 9.499999999999996 4.999999999999994 10.000000000000014
    vertex 4.999999999999997 0.9999999999999932 9.999999999999996
    vertex 9.499999999999996 0.9999999999999932 9.999999999999996
  endloop
endfacet
facet normal -0.9119215051751067 0.0 -0.41036467732879767
  outer loop
    vertex -4.5 4.999999999999994 10.000000000000014
    vertex 0.0 0.9999999999999989 -3.877453913503359e-15
    vertex -4.5 0.9999999999999932 9.999999999999996
  endloop
endfacet
facet normal -0.9119215051751067 0.0 -0.41036467732879767
  outer loop
    vertex 0.0 0.9999999999999989 -3.877453913503359e-15
    vertex -4.5 4.999999999999994 10.000000000000014
    vertex -2.038188822629729 5.000000000000061 4.529308494732747
  endloop
endfacet
facet normal -0.9119215051751067 0.0 -0.41036467732879767
  outer loop
    vertex 0.0 0.9999999999999989 -3.877453913503359e-15
    vertex -2.038188822629729 5.000000000000061 4.529308494732747
    vertex 0.0 8.000000000000048 -1.1984857550828564e-14
  endloop
endfacet
facet normal -0.9119215051751067 0.0 -0.41036467732879767
  outer loop
    vertex 0.0 8.000000000000048 -1.1984857550828564e-14
    vertex -2.038188822629729 5.000000000000061 4.529308494732747
    vertex -2.038188822629729 8.000000000000002 4.529308494732727
  endloop
endfacet
facet normal -1.2130465350102187e-47 -1.3728784191351515e-15 -1.0
  outer loop
    vertex 4.999999999999997 8.000000000000048 -1.1984857550828564e-14
    vertex 0.0 0.9999999999999989 -3.877453913503359e-15
    vertex 0.0 8.000000000000048 -1.1984857550828564e-14
  endloop
endfacet
facet normal -1.2130465350102187e-47 -1.3728784191351515e-15 -1.0
  outer loop
    vertex 0.0 0.9999999999999989 -3.877453913503359e-15
    vertex 4.999999999999997 8.000000000000048 -1.1984857550828564e-14
    vertex 0.0 0.0 0.0
  endloop
endfacet
facet normal -1.2130465350102187e-47 -1.3728784191351515e-15 -1.0
  outer loop
    vertex 0.0 0.0 0.0
    vertex 4.999999999999997 8.000000000000048 -1.1984857550828564e-14
    vertex 4.999999999999997 0.0 0.0
  endloop
endfacet
facet normal -1.2130465350102187e-47 -1.3728784191351515e-15 -1.0
  outer loop
    vertex 4.999999999999997 0.0 0.0
    vertex 4.999999999999997 8.000000000000048 -1.1984857550828564e-14
    vertex 4.999999999999997 0.9999999999999989 -3.877453913503359e-15
  endloop
endfacet
facet normal 0.9119215051751067 -3.526286736450156e-17 -0.4103646773287974
  outer loop
    vertex 4.999999999999997 0.9999999999999989 -3.877453913503359e-15
    vertex 9.499999999999996 4.999999999999994 10.000000000000014
    vertex 9.499999999999996 0.9999999999999932 9.999999999999996
  endloop
endfacet
facet normal 0.9119215051751067 -3.526286736450156e-17 -0.4103646773287974
  outer loop
    vertex 9.499999999999996 4.999999999999994 10.000000000000014
    vertex 4.999999999999997 0.9999999999999989 -3.877453913503359e-15
    vertex 7.038188822629729 5.000000000000061 4.529308494732748
  endloop
endfacet
facet normal 0.9119215051751067 -3.526286736450156e-17 -0.4103646773287974
  outer loop
    vertex 7.038188822629729 5.000000000000061 4.529308494732748
    vertex 4.999999999999997 0.9999999999999989 -3.877453913503359e-15
    vertex 4.999999999999997 8.000000000000048 -1.1984857550828564e-14
  endloop
endfacet
facet normal 0.9119215051751067 -3.526286736450156e-17 -0.4103646773287974
  outer loop
    vertex 7.038188822629729 5.000000000000061 4.529308494732748
    vertex 4.999999999999997 8.000000000000048 -1.1984857550828564e-14
    vertex 7.038188822629729 8.000000000000002 4.52930849473273
  endloop
endfacet
facet normal -0.13052619222007214 3.075568163394224e-15 -0.9914448613738077
  outer loop
    vertex 2.9399923766742844 5.000000000000016 8.942073904691428
    vertex 2.5000000000000004 -7.049916206369744e-15 9.000000000000005
    vertex 2.5000000000000004 4.999999999999982 9.000000000000018
  endloop
endfacet
facet normal -0.13052619222007214 3.075568163394224e-15 -0.9914448613738077
  outer loop
    vertex 2.5000000000000004 -7.049916206369744e-15 9.000000000000005
    vertex 2.9399923766742844 5.000000000000016 8.942073904691428
    vertex 2.9399923766742844 -3.101963130802687e-14 8.942073904691409
  endloop
endfacet
facet normal -0.38268343236509555 6.518011503808423e-16 -0.9238795325112844
  outer loop
    vertex 3.3499999999999983 5.000000000000022 8.77224318643354
    vertex 2.9399923766742844 -3.101963130802687e-14 8.942073904691409
    vertex 2.9399923766742844 5.000000000000016 8.942073904691428
  endloop
endfacet
facet normal -0.38268343236509555 6.518011503808423e-16 -0.9238795325112844
  outer loop
    vertex 2.9399923766742844 -3.101963130802687e-14 8.942073904691409
    vertex 3.3499999999999983 5.000000000000022 8.77224318643354
    vertex 3.3499999999999983 -1.127986593019159e-14 8.772243186433553
  endloop
endfacet
facet normal -0.6087614290086995 -2.2383228012607523e-15 -0.7933533402912515
  outer loop
    vertex 3.7020815280171293 4.999999999999926 8.502081528017138
    vertex 3.3499999999999983 -1.127986593019159e-14 8.772243186433553
    vertex 3.3499999999999983 5.000000000000022 8.77224318643354
  endloop
endfacet
facet normal -0.6087614290086995 -2.2383228012607523e-15 -0.7933533402912515
  outer loop
    vertex 3.3499999999999983 -1.127986593019159e-14 8.772243186433553
    vertex 3.7020815280171293 4.999999999999926 8.502081528017138
    vertex 3.7020815280171293 -1.5509815654013436e-14 8.502081528017154
  endloop
endfacet
facet normal -0.7933533402912409 -1.28742341724045e-15 -0.608761429008713
  outer loop
    vertex 3.7020815280171293 -1.5509815654013436e-14 8.502081528017154
    vertex 3.9722431864335435 5.000000000000011 8.150000000000006
    vertex 3.9722431864335435 -2.8199664825478976e-14 8.150000000000011
  endloop
endfacet
facet normal -0.7933533402912409 -1.28742341724045e-15 -0.608761429008713
  outer loop
    vertex 3.9722431864335435 5.000000000000011 8.150000000000006
    vertex 3.7020815280171293 -1.5509815654013436e-14 8.502081528017154
    vertex 3.7020815280171293 4.999999999999926 8.502081528017138
  endloop
endfacet
facet normal -0.9238795325112823 -7.568808870815967e-16 -0.3826834323651006
  outer loop
    vertex 3.9722431864335435 5.000000000000011 8.150000000000006
    vertex 4.142073904691413 -1.5509815654013436e-14 7.739992376674316
    vertex 3.9722431864335435 -2.8199664825478976e-14 8.150000000000011
  endloop
endfacet
facet normal -0.9238795325112823 -7.568808870815967e-16 -0.3826834323651006
  outer loop
    vertex 4.142073904691413 -1.5509815654013436e-14 7.739992376674316
    vertex 3.9722431864335435 5.000000000000011 8.150000000000006
    vertex 4.142073904691413 5.000000000000016 7.7399923766743015
  endloop
endfacet
facet normal -0.9914448613738103 -1.6561304794551394e-16 -0.1305261922200527
  outer loop
    vertex 4.142073904691413 5.000000000000016 7.7399923766743015
    vertex 4.199999999999998 3.101963130802687e-14 7.300000000000016
    vertex 4.142073904691413 -1.5509815654013436e-14 7.739992376674316
  endloop
endfacet
facet normal -0.9914448613738103 -1.6561304794551394e-16 -0.1305261922200527
  outer loop
    vertex 4.199999999999998 3.101963130802687e-14 7.300000000000016
    vertex 4.142073904691413 5.000000000000016 7.7399923766743015
    vertex 4.199999999999998 5.000000000000044 7.300000000000018
  endloop
endfacet
facet normal -0.99144486137381 -1.467632546542714e-16 0.1305261922200558
  outer loop
    vertex 4.199999999999998 3.101963130802687e-14 7.300000000000016
    vertex 4.142073904691413 4.999999999999954 6.860007623325741
    vertex 4.142073904691413 2.6789681584205025e-14 6.860007623325731
  endloop
endfacet
facet normal -0.99144486137381 -1.467632546542714e-16 0.1305261922200558
  outer loop
    vertex 4.142073904691413 4.999999999999954 6.860007623325741
    vertex 4.199999999999998 3.101963130802687e-14 7.300000000000016
    vertex 4.199999999999998 5.000000000000044 7.300000000000018
  endloop
endfacet
facet normal -0.9238795325112849 5.4517751841821386e-17 0.3826834323650944
  outer loop
    vertex 4.142073904691413 2.6789681584205025e-14 6.860007623325731
    vertex 3.9722431864335435 5.0000000000000275 6.450000000000022
    vertex 3.9722431864335435 -1.8329782136561334e-14 6.450000000000033
  endloop
endfacet
facet normal -0.9238795325112849 5.4517751841821386e-17 0.3826834323650944
  outer loop
    vertex 3.9722431864335435 5.0000000000000275 6.450000000000022
    vertex 4.142073904691413 2.6789681584205025e-14 6.860007623325731
    vertex 4.142073904691413 4.999999999999954 6.860007623325741
  endloop
endfacet
facet normal -0.7933533402912409 4.271813768390277e-16 0.6087614290087131
  outer loop
    vertex 3.9722431864335435 -1.8329782136561334e-14 6.450000000000033
    vertex 3.7020815280171293 5.000000000000005 6.097918471982894
    vertex 3.7020815280171293 -2.8199664825478976e-14 6.097918471982889
  endloop
endfacet
facet normal -0.7933533402912409 4.271813768390277e-16 0.6087614290087131
  outer loop
    vertex 3.7020815280171293 5.000000000000005 6.097918471982894
    vertex 3.9722431864335435 -1.8329782136561334e-14 6.450000000000033
    vertex 3.9722431864335435 5.0000000000000275 6.450000000000022
  endloop
endfacet
facet normal -0.6087614290087134 -3.3542092827085814e-15 0.7933533402912408
  outer loop
    vertex 3.7020815280171293 -2.8199664825478976e-14 6.097918471982889
    vertex 3.3499999999999983 4.999999999999971 5.8277568135665
    vertex 3.3499999999999983 -9.86988268891764e-15 5.827756813566462
  endloop
endfacet
facet normal -0.6087614290087134 -3.3542092827085814e-15 0.7933533402912408
  outer loop
    vertex 3.3499999999999983 4.999999999999971 5.8277568135665
    vertex 3.7020815280171293 -2.8199664825478976e-14 6.097918471982889
    vertex 3.7020815280171293 5.000000000000005 6.097918471982894
  endloop
endfacet
facet normal -0.3826834323651279 -5.34076018294796e-15 0.923879532511271
  outer loop
    vertex 3.3499999999999983 -9.86988268891764e-15 5.827756813566462
    vertex 2.9399923766742844 4.999999999999881 5.657926095308601
    vertex 2.9399923766742844 -2.5379698342931078e-14 5.657926095308581
  endloop
endfacet
facet normal -0.3826834323651279 -5.34076018294796e-15 0.923879532511271
  outer loop
    vertex 2.9399923766742844 4.999999999999881 5.657926095308601
    vertex 3.3499999999999983 -9.86988268891764e-15 5.827756813566462
    vertex 3.3499999999999983 4.999999999999971 5.8277568135665
  endloop
endfacet
facet normal -0.13052619222007686 -6.989980614288566e-16 0.9914448613738073
  outer loop
    vertex 2.9399923766742844 -2.5379698342931078e-14 5.657926095308581
    vertex 2.5000000000000004 4.999999999999932 5.59999999999999
    vertex 2.5000000000000004 -1.127986593019159e-14 5.600000000000002
  endloop
endfacet
facet normal -0.13052619222007686 -6.989980614288566e-16 0.9914448613738073
  outer loop
    vertex 2.5000000000000004 4.999999999999932 5.59999999999999
    vertex 2.9399923766742844 -2.5379698342931078e-14 5.657926095308581
    vertex 2.9399923766742844 4.999999999999881 5.657926095308601
  endloop
endfacet
facet normal 0.13052619222007422 -5.58911123625599e-16 0.9914448613738075
  outer loop
    vertex 2.5000000000000004 -1.127986593019159e-14 5.600000000000002
    vertex 2.060007623325713 4.999999999999881 5.6579260953086
    vertex 2.060007623325713 -2.5379698342931078e-14 5.657926095308581
  endloop
endfacet
facet normal 0.13052619222007422 -5.58911123625599e-16 0.9914448613738075
  outer loop
    vertex 2.060007623325713 4.999999999999881 5.6579260953086
    vertex 2.5000000000000004 -1.127986593019159e-14 5.600000000000002
    vertex 2.5000000000000004 4.999999999999932 5.59999999999999
  endloop
endfacet
facet normal 0.38268343236512764 -5.2102199384513884e-15 0.9238795325112712
  outer loop
    vertex 2.060007623325713 -2.5379698342931078e-14 5.657926095308581
    vertex 1.649999999999997 4.999999999999971 5.8277568135665
    vertex 1.649999999999997 -9.86988268891764e-15 5.827756813566462
  endloop
endfacet
facet normal 0.38268343236512764 -5.2102199384513884e-15 0.9238795325112712
  outer loop
    vertex 1.649999999999997 4.999999999999971 5.8277568135665
    vertex 2.060007623325713 -2.5379698342931078e-14 5.657926095308581
    vertex 2.060007623325713 4.999999999999881 5.6579260953086
  endloop
endfacet
facet normal 0.6087614290087142 -3.2448700474221976e-15 0.7933533402912402
  outer loop
    vertex 1.649999999999997 -9.86988268891764e-15 5.827756813566462
    vertex 1.2979184719828671 4.999999999999999 6.097918471982892
    vertex 1.2979184719828671 -2.8199664825478976e-14 6.097918471982889
  endloop
endfacet
facet normal 0.6087614290087142 -3.2448700474221976e-15 0.7933533402912402
  outer loop
    vertex 1.2979184719828671 4.999999999999999 6.097918471982892
    vertex 1.649999999999997 -9.86988268891764e-15 5.827756813566462
    vertex 1.649999999999997 4.999999999999971 5.8277568135665
  endloop
endfacet
facet normal 0.7933533402912389 4.3307139910936263e-16 0.608761429008716
  outer loop
    vertex 1.2979184719828671 4.999999999999999 6.097918471982892
    vertex 1.0277568135664512 -1.5509815654013436e-14 6.450000000000032
    vertex 1.2979184719828671 -2.8199664825478976e-14 6.097918471982889
  endloop
endfacet
facet normal 0.7933533402912389 4.3307139910936263e-16 0.608761429008716
  outer loop
    vertex 1.0277568135664512 -1.5509815654013436e-14 6.450000000000032
    vertex 1.2979184719828671 4.999999999999999 6.097918471982892
    vertex 1.0277568135664512 5.0000000000000275 6.450000000000022
  endloop
endfacet
facet normal 0.9238795325112839 -1.6254781028197374e-16 0.38268343236509733
  outer loop
    vertex 1.0277568135664512 5.0000000000000275 6.450000000000022
    vertex 0.8579260953085802 2.255973186038318e-14 6.8600076233257266
    vertex 1.0277568135664512 -1.5509815654013436e-14 6.450000000000032
  endloop
endfacet
facet normal 0.9238795325112839 -1.6254781028197374e-16 0.38268343236509733
  outer loop
    vertex 0.8579260953085802 2.255973186038318e-14 6.8600076233257266
    vertex 1.0277568135664512 5.0000000000000275 6.450000000000022
    vertex 0.8579260953085802 4.999999999999954 6.860007623325741
  endloop
endfacet
facet normal 0.9914448613738109 -2.021489407061608e-16 0.13052619222004735
  outer loop
    vertex 0.8579260953085802 4.999999999999954 6.860007623325741
    vertex 0.7999999999999985 3.101963130802687e-14 7.300000000000016
    vertex 0.8579260953085802 2.255973186038318e-14 6.8600076233257266
  endloop
endfacet
facet normal 0.9914448613738109 -2.021489407061608e-16 0.13052619222004735
  outer loop
    vertex 0.7999999999999985 3.101963130802687e-14 7.300000000000016
    vertex 0.8579260953085802 4.999999999999954 6.860007623325741
    vertex 0.7999999999999985 5.000000000000044 7.300000000000018
  endloop
endfacet
facet normal 0.9914448613738112 -1.6526629809945276e-16 -0.13052619222004572
  outer loop
    vertex 0.7999999999999985 3.101963130802687e-14 7.300000000000016
    vertex 0.8579260953085802 5.000000000000016 7.739992376674299
    vertex 0.8579260953085802 -1.5509815654013436e-14 7.739992376674313
  endloop
endfacet
facet normal 0.9914448613738112 -1.6526629809945276e-16 -0.13052619222004572
  outer loop
    vertex 0.8579260953085802 5.000000000000016 7.739992376674299
    vertex 0.7999999999999985 3.101963130802687e-14 7.300000000000016
    vertex 0.7999999999999985 5.000000000000044 7.300000000000018
  endloop
endfacet
facet normal 0.9238795325112816 -7.564754258523122e-16 -0.3826834323651023
  outer loop
    vertex 0.8579260953085802 -1.5509815654013436e-14 7.739992376674313
    vertex 1.0277568135664512 5.000000000000011 8.150000000000004
    vertex 1.0277568135664512 -2.6789681584205025e-14 8.15000000000001
  endloop
endfacet
facet normal 0.9238795325112816 -7.564754258523122e-16 -0.3826834323651023
  outer loop
    vertex 1.0277568135664512 5.000000000000011 8.150000000000004
    vertex 0.8579260953085802 -1.5509815654013436e-14 7.739992376674313
    vertex 0.8579260953085802 5.000000000000016 7.739992376674299
  endloop
endfacet
facet normal 0.7933533402912442 -1.2858739884587675e-15 -0.608761429008709
  outer loop
    vertex 1.0277568135664512 5.000000000000011 8.150000000000004
    vertex 1.2979184719828643 -1.5509815654013436e-14 8.502081528017154
    vertex 1.0277568135664512 -2.6789681584205025e-14 8.15000000000001
  endloop
endfacet
facet normal 0.7933533402912442 -1.2858739884587675e-15 -0.608761429008709
  outer loop
    vertex 1.2979184719828643 -1.5509815654013436e-14 8.502081528017154
    vertex 1.0277568135664512 5.000000000000011 8.150000000000004
    vertex 1.2979184719828643 4.999999999999926 8.502081528017138
  endloop
endfacet
facet normal 0.608761429008698 -2.2383228012607535e-15 -0.7933533402912526
  outer loop
    vertex 1.649999999999997 5.000000000000022 8.77224318643354
    vertex 1.2979184719828643 -1.5509815654013436e-14 8.502081528017154
    vertex 1.2979184719828643 4.999999999999926 8.502081528017138
  endloop
endfacet
facet normal 0.608761429008698 -2.2383228012607535e-15 -0.7933533402912526
  outer loop
    vertex 1.2979184719828643 -1.5509815654013436e-14 8.502081528017154
    vertex 1.649999999999997 5.000000000000022 8.77224318643354
    vertex 1.649999999999997 -1.127986593019159e-14 8.772243186433553
  endloop
endfacet
facet normal 0.382683432365096 6.518011503808425e-16 -0.9238795325112843
  outer loop
    vertex 2.0600076233257103 5.000000000000016 8.942073904691428
    vertex 1.649999999999997 -1.127986593019159e-14 8.772243186433553
    vertex 1.649999999999997 5.000000000000022 8.77224318643354
  endloop
endfacet
facet normal 0.382683432365096 6.518011503808425e-16 -0.9238795325112843
  outer loop
    vertex 1.649999999999997 -1.127986593019159e-14 8.772243186433553
    vertex 2.0600076233257103 5.000000000000016 8.942073904691428
    vertex 2.0600076233257103 -3.101963130802687e-14 8.942073904691409
  endloop
endfacet
facet normal 0.13052619222007028 3.0755681633942247e-15 -0.9914448613738079
  outer loop
    vertex 2.5000000000000004 4.999999999999982 9.000000000000018
    vertex 2.0600076233257103 -3.101963130802687e-14 8.942073904691409
    vertex 2.0600076233257103 5.000000000000016 8.942073904691428
  endloop
endfacet
facet normal 0.13052619222007028 3.0755681633942247e-15 -0.9914448613738079
  outer loop
    vertex 2.0600076233257103 -3.101963130802687e-14 8.942073904691409
    vertex 2.5000000000000004 4.999999999999982 9.000000000000018
    vertex 2.5000000000000004 -7.049916206369744e-15 9.000000000000005
  endloop
endfacet
facet normal 0.7933533402912506 -3.8900607383742196e-16 0.6087614290087009
  outer loop
    vertex 1.3686291501015186 2.5379698342931078e-14 0.968629150101525
    vertex 1.1143593539448933 7.999999999999951 1.3000000000000227
    vertex 1.1143593539448933 1.973976537783528e-14 1.3000000000000143
  endloop
endfacet
facet normal 0.7933533402912506 -3.8900607383742196e-16 0.6087614290087009
  outer loop
    vertex 1.1143593539448933 7.999999999999951 1.3000000000000227
    vertex 1.3686291501015186 2.5379698342931078e-14 0.968629150101525
    vertex 1.3686291501015186 7.999999999999957 0.9686291501015266
  endloop
endfacet
facet normal 0.1305261922200766 -3.189067327610742e-15 0.9914448613738073
  outer loop
    vertex 2.5000000000000004 2.9609648066752924e-14 0.5000000000000037
    vertex 2.0858895278359637 7.999999999999946 0.5545186779375313
    vertex 2.0858895278359637 1.6919798895287383e-14 0.5545186779375038
  endloop
endfacet
facet normal 0.1305261922200766 -3.189067327610742e-15 0.9914448613738073
  outer loop
    vertex 2.0858895278359637 7.999999999999946 0.5545186779375313
    vertex 2.5000000000000004 2.9609648066752924e-14 0.5000000000000037
    vertex 2.5000000000000004 7.999999999999974 0.5000000000000276
  endloop
endfacet
facet normal 0.9238795325112905 2.5181196115430223e-16 0.3826834323650809
  outer loop
    vertex 1.1143593539448933 1.973976537783528e-14 1.3000000000000143
    vertex 0.954518677937488 7.999999999999991 1.6858895278359811
    vertex 0.954518677937488 -4.088951399694451e-14 1.6858895278360002
  endloop
endfacet
facet normal 0.9238795325112905 2.5181196115430223e-16 0.3826834323650809
  outer loop
    vertex 0.954518677937488 7.999999999999991 1.6858895278359811
    vertex 1.1143593539448933 1.973976537783528e-14 1.3000000000000143
    vertex 1.1143593539448933 7.999999999999951 1.3000000000000227
  endloop
endfacet
facet normal 0.9914448613738105 -4.8933126027187296e-17 0.13052619222005085
  outer loop
    vertex 0.954518677937488 7.999999999999991 1.6858895278359811
    vertex 0.8999999999999984 -1.127986593019159e-14 2.100000000000006
    vertex 0.954518677937488 -4.088951399694451e-14 1.6858895278360002
  endloop
endfacet
facet normal 0.9914448613738105 -4.8933126027187296e-17 0.13052619222005085
  outer loop
    vertex 0.8999999999999984 -1.127986593019159e-14 2.100000000000006
    vertex 0.954518677937488 7.999999999999991 1.6858895278359811
    vertex 0.8999999999999984 7.999999999999968 2.1000000000000307
  endloop
endfacet
facet normal 0.99144486137381 6.613553192896223e-17 -0.13052619222005415
  outer loop
    vertex 0.8999999999999984 -1.127986593019159e-14 2.100000000000006
    vertex 0.954518677937488 7.999999999999968 2.5141104721640266
    vertex 0.954518677937488 -1.4099832412739488e-14 2.5141104721640435
  endloop
endfacet
facet normal 0.99144486137381 6.613553192896223e-17 -0.13052619222005415
  outer loop
    vertex 0.954518677937488 7.999999999999968 2.5141104721640266
    vertex 0.8999999999999984 -1.127986593019159e-14 2.100000000000006
    vertex 0.8999999999999984 7.999999999999968 2.1000000000000307
  endloop
endfacet
facet normal 0.9238795325112877 -7.413249083078868e-16 -0.3826834323650879
  outer loop
    vertex 0.954518677937488 -1.4099832412739488e-14 2.5141104721640435
    vertex 1.1143593539448962 8.000000000000036 2.899999999999999
    vertex 1.1143593539448962 -2.9609648066752924e-14 2.9000000000000132
  endloop
endfacet
facet normal 0.9238795325112877 -7.413249083078868e-16 -0.3826834323650879
  outer loop
    vertex 1.1143593539448962 8.000000000000036 2.899999999999999
    vertex 0.954518677937488 -1.4099832412739488e-14 2.5141104721640435
    vertex 0.954518677937488 7.999999999999968 2.5141104721640266
  endloop
endfacet
facet normal 0.7933533402912525 -2.428455027711732e-16 -0.6087614290086982
  outer loop
    vertex 1.1143593539448962 8.000000000000036 2.899999999999999
    vertex 1.3686291501015215 -1.973976537783528e-14 3.231370849898497
    vertex 1.1143593539448962 -2.9609648066752924e-14 2.9000000000000132
  endloop
endfacet
facet normal 0.7933533402912525 -2.428455027711732e-16 -0.6087614290086982
  outer loop
    vertex 1.3686291501015215 -1.973976537783528e-14 3.231370849898497
    vertex 1.1143593539448962 8.000000000000036 2.899999999999999
    vertex 1.3686291501015215 8.000000000000007 3.231370849898505
  endloop
endfacet
facet normal 0.6087614290087038 -9.77983541888817e-16 -0.7933533402912482
  outer loop
    vertex 1.6999999999999968 7.999999999999968 3.485640646055101
    vertex 1.3686291501015215 -1.973976537783528e-14 3.231370849898497
    vertex 1.3686291501015215 8.000000000000007 3.231370849898505
  endloop
endfacet
facet normal 0.6087614290087038 -9.77983541888817e-16 -0.7933533402912482
  outer loop
    vertex 1.3686291501015215 -1.973976537783528e-14 3.231370849898497
    vertex 1.6999999999999968 7.999999999999968 3.485640646055101
    vertex 1.6999999999999968 -7.049916206369744e-15 3.4856406460551286
  endloop
endfacet
facet normal 0.38268343236511915 3.669292283531998e-16 -0.9238795325112747
  outer loop
    vertex 2.0858895278359637 7.999999999999917 3.6454813220625537
    vertex 1.6999999999999968 -7.049916206369744e-15 3.4856406460551286
    vertex 1.6999999999999968 7.999999999999968 3.485640646055101
  endloop
endfacet
facet normal 0.38268343236511915 3.669292283531998e-16 -0.9238795325112747
  outer loop
    vertex 1.6999999999999968 -7.049916206369744e-15 3.4856406460551286
    vertex 2.0858895278359637 7.999999999999917 3.6454813220625537
    vertex 2.0858895278359637 -2.255973186038318e-14 3.64548132206252
  endloop
endfacet
facet normal 0.13052619222005712 3.2761456311212733e-15 -0.9914448613738098
  outer loop
    vertex 2.5000000000000004 7.999999999999946 3.7000000000000397
    vertex 2.0858895278359637 -2.255973186038318e-14 3.64548132206252
    vertex 2.0858895278359637 7.999999999999917 3.6454813220625537
  endloop
endfacet
facet normal 0.13052619222005712 3.2761456311212733e-15 -0.9914448613738098
  outer loop
    vertex 2.0858895278359637 -2.255973186038318e-14 3.64548132206252
    vertex 2.5000000000000004 7.999999999999946 3.7000000000000397
    vertex 2.5000000000000004 4.229949723821846e-15 3.7000000000000206
  endloop
endfacet
facet normal -0.1305261922200593 3.2767162621621494e-15 -0.9914448613738094
  outer loop
    vertex 2.91411047216403 7.999999999999917 3.6454813220625537
    vertex 2.5000000000000004 4.229949723821846e-15 3.7000000000000206
    vertex 2.5000000000000004 7.999999999999946 3.7000000000000397
  endloop
endfacet
facet normal -0.1305261922200593 3.2767162621621494e-15 -0.9914448613738094
  outer loop
    vertex 2.5000000000000004 4.229949723821846e-15 3.7000000000000206
    vertex 2.91411047216403 7.999999999999917 3.6454813220625537
    vertex 2.91411047216403 -2.255973186038318e-14 3.64548132206252
  endloop
endfacet
facet normal -0.38268343236511787 3.6692922835319953e-16 -0.9238795325112752
  outer loop
    vertex 3.299999999999998 7.999999999999968 3.485640646055101
    vertex 2.91411047216403 -2.255973186038318e-14 3.64548132206252
    vertex 2.91411047216403 7.999999999999917 3.6454813220625537
  endloop
endfacet
facet normal -0.38268343236511787 3.6692922835319953e-16 -0.9238795325112752
  outer loop
    vertex 2.91411047216403 -2.255973186038318e-14 3.64548132206252
    vertex 3.299999999999998 7.999999999999968 3.485640646055101
    vertex 3.299999999999998 -7.049916206369744e-15 3.4856406460551286
  endloop
endfacet
facet normal -0.6087614290087022 -9.07749218020565e-16 -0.7933533402912493
  outer loop
    vertex 3.631370849898476 8.000000000000007 3.231370849898505
    vertex 3.299999999999998 -7.049916206369744e-15 3.4856406460551286
    vertex 3.299999999999998 7.999999999999968 3.485640646055101
  endloop
endfacet
facet normal -0.6087614290087022 -9.07749218020565e-16 -0.7933533402912493
  outer loop
    vertex 3.299999999999998 -7.049916206369744e-15 3.4856406460551286
    vertex 3.631370849898476 8.000000000000007 3.231370849898505
    vertex 3.631370849898476 -1.973976537783528e-14 3.2313708498984957
  endloop
endfacet
facet normal -0.7933533402912527 -1.0804294616563056e-16 -0.6087614290086979
  outer loop
    vertex 3.631370849898476 -1.973976537783528e-14 3.2313708498984957
    vertex 3.8856406460551014 8.000000000000036 2.899999999999999
    vertex 3.8856406460551014 -2.8199664825478976e-14 2.900000000000011
  endloop
endfacet
facet normal -0.7933533402912527 -1.0804294616563056e-16 -0.6087614290086979
  outer loop
    vertex 3.8856406460551014 8.000000000000036 2.899999999999999
    vertex 3.631370849898476 -1.973976537783528e-14 3.2313708498984957
    vertex 3.631370849898476 8.000000000000007 3.231370849898505
  endloop
endfacet
facet normal -0.9238795325112905 -6.57674630297388e-16 -0.3826834323650804
  outer loop
    vertex 3.8856406460551014 8.000000000000036 2.899999999999999
    vertex 4.045481322062505 -1.2689849171465539e-14 2.514110472164042
    vertex 3.8856406460551014 -2.8199664825478976e-14 2.900000000000011
  endloop
endfacet
facet normal -0.9238795325112905 -6.57674630297388e-16 -0.3826834323650804
  outer loop
    vertex 4.045481322062505 -1.2689849171465539e-14 2.514110472164042
    vertex 3.8856406460551014 8.000000000000036 2.899999999999999
    vertex 4.045481322062505 7.999999999999968 2.5141104721640266
  endloop
endfacet
facet normal -0.9914448613738092 7.757698715294951e-17 -0.13052619222006095
  outer loop
    vertex 4.045481322062505 7.999999999999968 2.5141104721640266
    vertex 4.099999999999998 -1.127986593019159e-14 2.100000000000006
    vertex 4.045481322062505 -1.2689849171465539e-14 2.514110472164042
  endloop
endfacet
facet normal -0.9914448613738092 7.757698715294951e-17 -0.13052619222006095
  outer loop
    vertex 4.099999999999998 -1.127986593019159e-14 2.100000000000006
    vertex 4.045481322062505 7.999999999999968 2.5141104721640266
    vertex 4.099999999999998 7.999999999999968 2.1000000000000307
  endloop
endfacet
facet normal -0.9914448613738098 -4.5964633197087733e-17 0.13052619222005704
  outer loop
    vertex 4.099999999999998 -1.127986593019159e-14 2.100000000000006
    vertex 4.045481322062505 7.9999999999999964 1.6858895278359793
    vertex 4.045481322062505 -4.088951399694451e-14 1.6858895278359989
  endloop
endfacet
facet normal -0.9914448613738098 -4.5964633197087733e-17 0.13052619222005704
  outer loop
    vertex 4.045481322062505 7.9999999999999964 1.6858895278359793
    vertex 4.099999999999998 -1.127986593019159e-14 2.100000000000006
    vertex 4.099999999999998 7.999999999999968 2.1000000000000307
  endloop
endfacet
facet normal -0.9238795325112918 3.4316400958397064e-16 0.38268343236507807
  outer loop
    vertex 4.045481322062505 7.9999999999999964 1.6858895278359793
    vertex 3.8856406460551014 1.973976537783528e-14 1.300000000000013
    vertex 4.045481322062505 -4.088951399694451e-14 1.6858895278359989
  endloop
endfacet
facet normal -0.9238795325112918 3.4316400958397064e-16 0.38268343236507807
  outer loop
    vertex 3.8856406460551014 1.973976537783528e-14 1.300000000000013
    vertex 4.045481322062505 7.9999999999999964 1.6858895278359793
    vertex 3.8856406460551014 7.999999999999957 1.300000000000018
  endloop
endfacet
facet normal 0.3826834323651 -7.939830596346342e-16 0.9238795325112825
  outer loop
    vertex 2.0858895278359637 1.6919798895287383e-14 0.5545186779375038
    vertex 1.6999999999999968 7.999999999999917 0.714359353944923
    vertex 1.6999999999999968 -8.036904475261508e-14 0.7143593539449368
  endloop
endfacet
facet normal 0.3826834323651 -7.939830596346342e-16 0.9238795325112825
  outer loop
    vertex 1.6999999999999968 7.999999999999917 0.714359353944923
    vertex 2.0858895278359637 1.6919798895287383e-14 0.5545186779375038
    vertex 2.0858895278359637 7.999999999999946 0.5545186779375313
  endloop
endfacet
facet normal -0.7933533402912478 -2.601701343852324e-16 0.6087614290087042
  outer loop
    vertex 3.8856406460551014 7.999999999999957 1.300000000000018
    vertex 3.631370849898476 2.5379698342931078e-14 0.968629150101525
    vertex 3.8856406460551014 1.973976537783528e-14 1.300000000000013
  endloop
endfacet
facet normal -0.7933533402912478 -2.601701343852324e-16 0.6087614290087042
  outer loop
    vertex 3.631370849898476 2.5379698342931078e-14 0.968629150101525
    vertex 3.8856406460551014 7.999999999999957 1.300000000000018
    vertex 3.631370849898476 7.999999999999957 0.9686291501015266
  endloop
endfacet
facet normal -0.6087614290086738 5.934590790149131e-16 0.7933533402912711
  outer loop
    vertex 3.631370849898476 2.5379698342931078e-14 0.968629150101525
    vertex 3.299999999999998 7.999999999999917 0.714359353944923
    vertex 3.299999999999998 -8.036904475261508e-14 0.7143593539449368
  endloop
endfacet
facet normal -0.6087614290086738 5.934590790149131e-16 0.7933533402912711
  outer loop
    vertex 3.299999999999998 7.999999999999917 0.714359353944923
    vertex 3.631370849898476 2.5379698342931078e-14 0.968629150101525
    vertex 3.631370849898476 7.999999999999957 0.9686291501015266
  endloop
endfacet
facet normal -0.38268343236509894 -7.939830596346342e-16 0.9238795325112832
  outer loop
    vertex 3.299999999999998 -8.036904475261508e-14 0.7143593539449368
    vertex 2.91411047216403 7.999999999999946 0.5545186779375313
    vertex 2.91411047216403 1.6919798895287383e-14 0.5545186779375038
  endloop
endfacet
facet normal -0.38268343236509894 -7.939830596346342e-16 0.9238795325112832
  outer loop
    vertex 2.91411047216403 7.999999999999946 0.5545186779375313
    vertex 3.299999999999998 -8.036904475261508e-14 0.7143593539449368
    vertex 3.299999999999998 7.999999999999917 0.714359353944923
  endloop
endfacet
facet normal -0.13052619222007877 -3.189352643131181e-15 0.991444861373807
  outer loop
    vertex 2.91411047216403 1.6919798895287383e-14 0.5545186779375038
    vertex 2.5000000000000004 7.999999999999974 0.5000000000000276
    vertex 2.5000000000000004 2.9609648066752924e-14 0.5000000000000037
  endloop
endfacet
facet normal -0.13052619222007877 -3.189352643131181e-15 0.991444861373807
  outer loop
    vertex 2.5000000000000004 7.999999999999974 0.5000000000000276
    vertex 2.91411047216403 1.6919798895287383e-14 0.5545186779375038
    vertex 2.91411047216403 7.999999999999946 0.5545186779375313
  endloop
endfacet
facet normal -2.3301970726345477e-16 6.344924585732894e-15 1.0
  outer loop
    vertex 7.038188822629729 5.000000000000061 4.529308494732748
    vertex -2.038188822629729 8.000000000000002 4.529308494732727
    vertex -2.038188822629729 5.000000000000061 4.529308494732747
  endloop
endfacet
facet normal -2.3301970726345477e-16 6.344924585732894e-15 1.0
  outer loop
    vertex -2.038188822629729 8.000000000000002 4.529308494732727
    vertex 7.038188822629729 5.000000000000061 4.529308494732748
    vertex 7.038188822629729 8.000000000000002 4.52930849473273
  endloop
endfacet
facet normal -2.433738497738646e-30 1.0 9.961667166905731e-15
  outer loop
    vertex 0.0 8.000000000000048 -1.1984857550828564e-14
    vertex 2.0858895278359637 7.999999999999946 0.5545186779375313
    vertex 4.999999999999997 8.000000000000048 -1.1984857550828564e-14
  endloop
endfacet
facet normal -2.433738497738646e-30 1.0 9.961667166905731e-15
  outer loop
    vertex 2.0858895278359637 7.999999999999946 0.5545186779375313
    vertex 0.0 8.000000000000048 -1.1984857550828564e-14
    vertex 1.6999999999999968 7.999999999999917 0.714359353944923
  endloop
endfacet
facet normal -2.433738497738646e-30 1.0 9.961667166905731e-15
  outer loop
    vertex 1.6999999999999968 7.999999999999917 0.714359353944923
    vertex 0.0 8.000000000000048 -1.1984857550828564e-14
    vertex 1.3686291501015186 7.999999999999957 0.9686291501015266
  endloop
endfacet
facet normal -2.433738497738646e-30 1.0 9.961667166905731e-15
  outer loop
    vertex 1.3686291501015186 7.999999999999957 0.9686291501015266
    vertex 0.0 8.000000000000048 -1.1984857550828564e-14
    vertex -2.038188822629729 8.000000000000002 4.529308494732727
  endloop
endfacet
facet normal -2.433738497738646e-30 1.0 9.961667166905731e-15
  outer loop
    vertex 4.999999999999997 8.000000000000048 -1.1984857550828564e-14
    vertex 2.0858895278359637 7.999999999999946 0.5545186779375313
    vertex 2.5000000000000004 7.999999999999974 0.5000000000000276
  endloop
endfacet
facet normal -2.433738497738646e-30 1.0 9.961667166905731e-15
  outer loop
    vertex 1.3686291501015186 7.999999999999957 0.9686291501015266
    vertex -2.038188822629729 8.000000000000002 4.529308494732727
    vertex 1.1143593539448933 7.999999999999951 1.3000000000000227
  endloop
endfacet
facet normal -2.433738497738646e-30 1.0 9.961667166905731e-15
  outer loop
    vertex 1.1143593539448933 7.999999999999951 1.3000000000000227
    vertex -2.038188822629729 8.000000000000002 4.529308494732727
    vertex 0.954518677937488 7.999999999999991 1.6858895278359811
  endloop
endfacet
facet normal -2.433738497738646e-30 1.0 9.961667166905731e-15
  outer loop
    vertex 0.954518677937488 7.999999999999991 1.6858895278359811
    vertex -2.038188822629729 8.000000000000002 4.529308494732727
    vertex 0.8999999999999984 7.999999999999968 2.1000000000000307
  endloop
endfacet
facet normal -2.433738497738646e-30 1.0 9.961667166905731e-15
  outer loop
    vertex 0.8999999999999984 7.999999999999968 2.1000000000000307
    vertex -2.038188822629729 8.000000000000002 4.529308494732727
    vertex 0.954518677937488 7.999999999999968 2.5141104721640266
  endloop
endfacet
facet normal -2.433738497738646e-30 1.0 9.961667166905731e-15
  outer loop
    vertex 0.954518677937488 7.999999999999968 2.5141104721640266
    vertex -2.038188822629729 8.000000000000002 4.529308494732727
    vertex 1.1143593539448962 8.000000000000036 2.899999999999999
  endloop
endfacet
facet normal -2.433738497738646e-30 1.0 9.961667166905731e-15
  outer loop
    vertex 1.1143593539448962 8.000000000000036 2.899999999999999
    vertex -2.038188822629729 8.000000000000002 4.529308494732727
    vertex 1.3686291501015215 8.000000000000007 3.231370849898505
  endloop
endfacet
facet normal -2.433738497738646e-30 1.0 9.961667166905731e-15
  outer loop
    vertex 1.3686291501015215 8.000000000000007 3.231370849898505
    vertex -2.038188822629729 8.000000000000002 4.529308494732727
    vertex 1.6999999999999968 7.999999999999968 3.485640646055101
  endloop
endfacet
facet normal -2.433738497738646e-30 1.0 9.961667166905731e-15
  outer loop
    vertex 1.6999999999999968 7.999999999999968 3.485640646055101
    vertex -2.038188822629729 8.000000000000002 4.529308494732727
    vertex 2.0858895278359637 7.999999999999917 3.6454813220625537
  endloop
endfacet
facet normal -2.433738497738646e-30 1.0 9.961667166905731e-15
  outer loop
    vertex 2.0858895278359637 7.999999999999917 3.6454813220625537
    vertex -2.038188822629729 8.000000000000002 4.529308494732727
    vertex 2.5000000000000004 7.999999999999946 3.7000000000000397
  endloop
endfacet
facet normal -2.433738497738646e-30 1.0 9.961667166905731e-15
  outer loop
    vertex 4.999999999999997 8.000000000000048 -1.1984857550828564e-14
    vertex 3.631370849898476 7.999999999999957 0.9686291501015266
    vertex 7.038188822629729 8.000000000000002 4.52930849473273
  endloop
endfacet
facet normal -2.433738497738646e-30 1.0 9.961667166905731e-15
  outer loop
    vertex 3.631370849898476 7.999999999999957 0.9686291501015266
    vertex 4.999999999999997 8.000000000000048 -1.1984857550828564e-14
    vertex 3.299999999999998 7.999999999999917 0.714359353944923
  endloop
endfacet
facet normal -2.433738497738646e-30 1.0 9.961667166905731e-15
  outer loop
    vertex 3.299999999999998 7.999999999999917 0.714359353944923
    vertex 4.999999999999997 8.000000000000048 -1.1984857550828564e-14
    vertex 2.91411047216403 7.999999999999946 0.5545186779375313
  endloop
endfacet
facet normal -2.433738497738646e-30 1.0 9.961667166905731e-15
  outer loop
    vertex 2.91411047216403 7.999999999999946 0.5545186779375313
    vertex 4.999999999999997 8.000000000000048 -1.1984857550828564e-14
    vertex 2.5000000000000004 7.999999999999974 0.5000000000000276
  endloop
endfacet
facet normal -2.433738497738646e-30 1.0 9.961667166905731e-15
  outer loop
    vertex 7.038188822629729 8.000000000000002 4.52930849473273
    vertex 3.631370849898476 7.999999999999957 0.9686291501015266
    vertex 3.8856406460551014 7.999999999999957 1.300000000000018
  endloop
endfacet
facet normal -2.433738497738646e-30 1.0 9.961667166905731e-15
  outer loop
    vertex 7.038188822629729 8.000000000000002 4.52930849473273
    vertex 3.8856406460551014 7.999999999999957 1.300000000000018
    vertex 4.045481322062505 7.9999999999999964 1.6858895278359793
  endloop
endfacet
facet normal -2.433738497738646e-30 1.0 9.961667166905731e-15
  outer loop
    vertex 7.038188822629729 8.000000000000002 4.52930849473273
    vertex 4.045481322062505 7.9999999999999964 1.6858895278359793
    vertex 4.099999999999998 7.999999999999968 2.1000000000000307
  endloop
endfacet
facet normal -2.433738497738646e-30 1.0 9.961667166905731e-15
  outer loop
    vertex 7.038188822629729 8.000000000000002 4.52930849473273
    vertex 4.099999999999998 7.999999999999968 2.1000000000000307
    vertex 4.045481322062505 7.999999999999968 2.5141104721640266
  endloop
endfacet
facet normal -2.433738497738646e-30 1.0 9.961667166905731e-15
  outer loop
    vertex 7.038188822629729 8.000000000000002 4.52930849473273
    vertex 4.045481322062505 7.999999999999968 2.5141104721640266
    vertex 3.8856406460551014 8.000000000000036 2.899999999999999
  endloop
endfacet
facet normal -2.433738497738646e-30 1.0 9.961667166905731e-15
  outer loop
    vertex 7.038188822629729 8.000000000000002 4.52930849473273
    vertex 3.8856406460551014 8.000000000000036 2.899999999999999
    vertex 3.631370849898476 8.000000000000007 3.231370849898505
  endloop
endfacet
facet normal -2.433738497738646e-30 1.0 9.961667166905731e-15
  outer loop
    vertex 7.038188822629729 8.000000000000002 4.52930849473273
    vertex 3.631370849898476 8.000000000000007 3.231370849898505
    vertex 3.299999999999998 7.999999999999968 3.485640646055101
  endloop
endfacet
facet normal -2.433738497738646e-30 1.0 9.961667166905731e-15
  outer loop
    vertex 7.038188822629729 8.000000000000002 4.52930849473273
    vertex 3.299999999999998 7.999999999999968 3.485640646055101
    vertex 2.91411047216403 7.999999999999917 3.6454813220625537
  endloop
endfacet
facet normal -2.433738497738646e-30 1.0 9.961667166905731e-15
  outer loop
    vertex 7.038188822629729 8.000000000000002 4.52930849473273
    vertex 2.91411047216403 7.999999999999917 3.6454813220625537
    vertex 2.5000000000000004 7.999999999999946 3.7000000000000397
  endloop
endfacet
facet normal -2.433738497738646e-30 1.0 9.961667166905731e-15
  outer loop
    vertex 7.038188822629729 8.000000000000002 4.52930849473273
    vertex 2.5000000000000004 7.999999999999946 3.7000000000000397
    vertex -2.038188822629729 8.000000000000002 4.529308494732727
  endloop
endfacet
facet normal 0.6087614290086732 5.934590790149131e-16 0.7933533402912716
  outer loop
    vertex 1.6999999999999968 -8.036904475261508e-14 0.7143593539449368
    vertex 1.3686291501015186 7.999999999999957 0.9686291501015266
    vertex 1.3686291501015186 2.5379698342931078e-14 0.968629150101525
  endloop
endfacet
facet normal 0.6087614290086732 5.934590790149131e-16 0.7933533402912716
  outer loop
    vertex 1.3686291501015186 7.999999999999957 0.9686291501015266
    vertex 1.6999999999999968 -8.036904475261508e-14 0.7143593539449368
    vertex 1.6999999999999968 7.999999999999917 0.714359353944923
  endloop
endfacet
facet normal 2.375207604023786e-31 -1.0 -5.639932965095794e-16
  outer loop
    vertex 4.999999999999997 0.9999999999999932 9.999999999999996
    vertex 4.999999999999997 0.9999999999999989 -3.877453913503359e-15
    vertex 9.499999999999996 0.9999999999999932 9.999999999999996
  endloop
endfacet
facet normal -2.3752076040237853e-31 -1.0 -5.639932965095795e-16
  outer loop
    vertex -4.5 0.9999999999999932 9.999999999999996
    vertex 0.0 0.9999999999999989 -3.877453913503359e-15
    vertex 0.0 0.9999999999999932 9.999999999999996
  endloop
endfacet
facet normal -1.0 0.0 0.0
  outer loop
    vertex 0.0 0.9999999999999932 9.999999999999996
    vertex 0.0 0.0 0.0
    vertex 0.0 -7.049916206369744e-15 9.99999999999999
  endloop
endfacet
facet normal -1.0 0.0 0.0
  outer loop
    vertex 0.0 0.0 0.0
    vertex 0.0 0.9999999999999932 9.999999999999996
    vertex 0.0 0.9999999999999989 -3.877453913503359e-15
  endloop
endfacet
facet normal 0.0 -1.0 -7.049916206369752e-16
  outer loop
    vertex 4.999999999999997 0.0 0.0
    vertex 2.91411047216403 1.6919798895287383e-14 0.5545186779375038
    vertex 0.0 0.0 0.0
  endloop
endfacet
facet normal 0.0 -1.0 -7.049916206369752e-16
  outer loop
    vertex 2.91411047216403 1.6919798895287383e-14 0.5545186779375038
    vertex 4.999999999999997 0.0 0.0
    vertex 3.299999999999998 -8.036904475261508e-14 0.7143593539449368
  endloop
endfacet
facet normal 0.0 -1.0 -7.049916206369752e-16
  outer loop
    vertex 3.299999999999998 -8.036904475261508e-14 0.7143593539449368
    vertex 4.999999999999997 0.0 0.0
    vertex 3.631370849898476 2.5379698342931078e-14 0.968629150101525
  endloop
endfacet
facet normal 0.0 -1.0 -7.049916206369752e-16
  outer loop
    vertex 3.631370849898476 2.5379698342931078e-14 0.968629150101525
    vertex 4.999999999999997 0.0 0.0
    vertex 3.8856406460551014 1.973976537783528e-14 1.300000000000013
  endloop
endfacet
facet normal 0.0 -1.0 -7.049916206369752e-16
  outer loop
    vertex 3.8856406460551014 1.973976537783528e-14 1.300000000000013
    vertex 4.999999999999997 0.0 0.0
    vertex 4.045481322062505 -4.088951399694451e-14 1.6858895278359989
  endloop
endfacet
facet normal 0.0 -1.0 -7.049916206369752e-16
  outer loop
    vertex 4.045481322062505 -4.088951399694451e-14 1.6858895278359989
    vertex 4.999999999999997 0.0 0.0
    vertex 4.099999999999998 -1.127986593019159e-14 2.100000000000006
  endloop
endfacet
facet normal 0.0 -1.0 -7.049916206369752e-16
  outer loop
    vertex 4.099999999999998 -1.127986593019159e-14 2.100000000000006
    vertex 4.999999999999997 0.0 0.0
    vertex 4.999999999999997 -7.049916206369744e-15 9.99999999999999
  endloop
endfacet
facet normal 0.0 -1.0 -7.049916206369752e-16
  outer loop
    vertex 0.0 0.0 0.0
    vertex 2.91411047216403 1.6919798895287383e-14 0.5545186779375038
    vertex 2.5000000000000004 2.9609648066752924e-14 0.5000000000000037
  endloop
endfacet
facet normal 0.0 -1.0 -7.049916206369752e-16
  outer loop
    vertex 4.099999999999998 -1.127986593019159e-14 2.100000000000006
    vertex 4.999999999999997 -7.049916206369744e-15 9.99999999999999
    vertex 4.045481322062505 -1.2689849171465539e-14 2.514110472164042
  endloop
endfacet
facet normal 0.0 -1.0 -7.049916206369752e-16
  outer loop
    vertex 4.045481322062505 -1.2689849171465539e-14 2.514110472164042
    vertex 4.999999999999997 -7.049916206369744e-15 9.99999999999999
    vertex 3.8856406460551014 -2.8199664825478976e-14 2.900000000000011
  endloop
endfacet
facet normal 0.0 -1.0 -7.049916206369752e-16
  outer loop
    vertex 3.8856406460551014 -2.8199664825478976e-14 2.900000000000011
    vertex 4.999999999999997 -7.049916206369744e-15 9.99999999999999
    vertex 3.631370849898476 -1.973976537783528e-14 3.2313708498984957
  endloop
endfacet
facet normal 0.0 -1.0 -7.049916206369752e-16
  outer loop
    vertex 3.631370849898476 -1.973976537783528e-14 3.2313708498984957
    vertex 4.999999999999997 -7.049916206369744e-15 9.99999999999999
    vertex 3.299999999999998 -7.049916206369744e-15 3.4856406460551286
  endloop
endfacet
facet normal 0.0 -1.0 -7.049916206369752e-16
  outer loop
    vertex 3.299999999999998 -7.049916206369744e-15 3.4856406460551286
    vertex 4.999999999999997 -7.049916206369744e-15 9.99999999999999
    vertex 4.142073904691413 2.6789681584205025e-14 6.860007623325731
  endloop
endfacet
facet normal 0.0 -1.0 -7.049916206369752e-16
  outer loop
    vertex 3.299999999999998 -7.049916206369744e-15 3.4856406460551286
    vertex 4.142073904691413 2.6789681584205025e-14 6.860007623325731
    vertex 2.91411047216403 -2.255973186038318e-14 3.64548132206252
  endloop
endfacet
facet normal 0.0 -1.0 -7.049916206369752e-16
  outer loop
    vertex 2.91411047216403 -2.255973186038318e-14 3.64548132206252
    vertex 4.142073904691413 2.6789681584205025e-14 6.860007623325731
    vertex 3.9722431864335435 -1.8329782136561334e-14 6.450000000000033
  endloop
endfacet
facet normal 0.0 -1.0 -7.049916206369752e-16
  outer loop
    vertex 2.91411047216403 -2.255973186038318e-14 3.64548132206252
    vertex 3.9722431864335435 -1.8329782136561334e-14 6.450000000000033
    vertex 2.5000000000000004 4.229949723821846e-15 3.7000000000000206
  endloop
endfacet
facet normal 0.0 -1.0 -7.049916206369752e-16
  outer loop
    vertex 2.5000000000000004 4.229949723821846e-15 3.7000000000000206
    vertex 3.9722431864335435 -1.8329782136561334e-14 6.450000000000033
    vertex 3.7020815280171293 -2.8199664825478976e-14 6.097918471982889
  endloop
endfacet
facet normal 0.0 -1.0 -7.049916206369752e-16
  outer loop
    vertex 2.5000000000000004 4.229949723821846e-15 3.7000000000000206
    vertex 3.7020815280171293 -2.8199664825478976e-14 6.097918471982889
    vertex 3.3499999999999983 -9.86988268891764e-15 5.827756813566462
  endloop
endfacet
facet normal 0.0 -1.0 -7.049916206369752e-16
  outer loop
    vertex 2.5000000000000004 4.229949723821846e-15 3.7000000000000206
    vertex 3.3499999999999983 -9.86988268891764e-15 5.827756813566462
    vertex 2.9399923766742844 -2.5379698342931078e-14 5.657926095308581
  endloop
endfacet
facet normal 0.0 -1.0 -7.049916206369752e-16
  outer loop
    vertex 2.5000000000000004 4.229949723821846e-15 3.7000000000000206
    vertex 2.9399923766742844 -2.5379698342931078e-14 5.657926095308581
    vertex 2.5000000000000004 -1.127986593019159e-14 5.600000000000002
  endloop
endfacet
facet normal 0.0 -1.0 -7.049916206369752e-16
  outer loop
    vertex 4.142073904691413 2.6789681584205025e-14 6.860007623325731
    vertex 4.999999999999997 -7.049916206369744e-15 9.99999999999999
    vertex 4.199999999999998 3.101963130802687e-14 7.300000000000016
  endloop
endfacet
facet normal 0.0 -1.0 -7.049916206369752e-16
  outer loop
    vertex 4.199999999999998 3.101963130802687e-14 7.300000000000016
    vertex 4.999999999999997 -7.049916206369744e-15 9.99999999999999
    vertex 4.142073904691413 -1.5509815654013436e-14 7.739992376674316
  endloop
endfacet
facet normal 0.0 -1.0 -7.049916206369752e-16
  outer loop
    vertex 4.142073904691413 -1.5509815654013436e-14 7.739992376674316
    vertex 4.999999999999997 -7.049916206369744e-15 9.99999999999999
    vertex 3.9722431864335435 -2.8199664825478976e-14 8.150000000000011
  endloop
endfacet
facet normal 0.0 -1.0 -7.049916206369752e-16
  outer loop
    vertex 3.9722431864335435 -2.8199664825478976e-14 8.150000000000011
    vertex 4.999999999999997 -7.049916206369744e-15 9.99999999999999
    vertex 3.7020815280171293 -1.5509815654013436e-14 8.502081528017154
  endloop
endfacet
facet normal 0.0 -1.0 -7.049916206369752e-16
  outer loop
    vertex 3.7020815280171293 -1.5509815654013436e-14 8.502081528017154
    vertex 4.999999999999997 -7.049916206369744e-15 9.99999999999999
    vertex 3.3499999999999983 -1.127986593019159e-14 8.772243186433553
  endloop
endfacet
facet normal 0.0 -1.0 -7.049916206369752e-16
  outer loop
    vertex 3.3499999999999983 -1.127986593019159e-14 8.772243186433553
    vertex 4.999999999999997 -7.049916206369744e-15 9.99999999999999
    vertex 2.9399923766742844 -3.101963130802687e-14 8.942073904691409
  endloop
endfacet
facet normal 0.0 -1.0 -7.049916206369752e-16
  outer loop
    vertex 2.9399923766742844 -3.101963130802687e-14 8.942073904691409
    vertex 4.999999999999997 -7.049916206369744e-15 9.99999999999999
    vertex 2.5000000000000004 -7.049916206369744e-15 9.000000000000005
  endloop
endfacet
facet normal 0.0 -1.0 -7.049916206369752e-16
  outer loop
    vertex 0.0 0.0 0.0
    vertex 0.8999999999999984 -1.127986593019159e-14 2.100000000000006
    vertex 0.0 -7.049916206369744e-15 9.99999999999999
  endloop
endfacet
facet normal 0.0 -1.0 -7.049916206369752e-16
  outer loop
    vertex 0.8999999999999984 -1.127986593019159e-14 2.100000000000006
    vertex 0.0 0.0 0.0
    vertex 0.954518677937488 -4.088951399694451e-14 1.6858895278360002
  endloop
endfacet
facet normal 0.0 -1.0 -7.049916206369752e-16
  outer loop
    vertex 0.954518677937488 -4.088951399694451e-14 1.6858895278360002
    vertex 0.0 0.0 0.0
    vertex 1.1143593539448933 1.973976537783528e-14 1.3000000000000143
  endloop
endfacet
facet normal 0.0 -1.0 -7.049916206369752e-16
  outer loop
    vertex 1.1143593539448933 1.973976537783528e-14 1.3000000000000143
    vertex 0.0 0.0 0.0
    vertex 1.3686291501015186 2.5379698342931078e-14 0.968629150101525
  endloop
endfacet
facet normal 0.0 -1.0 -7.049916206369752e-16
  outer loop
    vertex 1.3686291501015186 2.5379698342931078e-14 0.968629150101525
    vertex 0.0 0.0 0.0
    vertex 1.6999999999999968 -8.036904475261508e-14 0.7143593539449368
  endloop
endfacet
facet normal 0.0 -1.0 -7.049916206369752e-16
  outer loop
    vertex 1.6999999999999968 -8.036904475261508e-14 0.7143593539449368
    vertex 0.0 0.0 0.0
    vertex 2.0858895278359637 1.6919798895287383e-14 0.5545186779375038
  endloop
endfacet
facet normal 0.0 -1.0 -7.049916206369752e-16
  outer loop
    vertex 2.0858895278359637 1.6919798895287383e-14 0.5545186779375038
    vertex 0.0 0.0 0.0
    vertex 2.5000000000000004 2.9609648066752924e-14 0.5000000000000037
  endloop
endfacet
facet normal 0.0 -1.0 -7.049916206369752e-16
  outer loop
    vertex 0.0 -7.049916206369744e-15 9.99999999999999
    vertex 0.8999999999999984 -1.127986593019159e-14 2.100000000000006
    vertex 0.954518677937488 -1.4099832412739488e-14 2.5141104721640435
  endloop
endfacet
facet normal 0.0 -1.0 -7.049916206369752e-16
  outer loop
    vertex 0.0 -7.049916206369744e-15 9.99999999999999
    vertex 0.954518677937488 -1.4099832412739488e-14 2.5141104721640435
    vertex 1.1143593539448962 -2.9609648066752924e-14 2.9000000000000132
  endloop
endfacet
facet normal 0.0 -1.0 -7.049916206369752e-16
  outer loop
    vertex 0.0 -7.049916206369744e-15 9.99999999999999
    vertex 1.1143593539448962 -2.9609648066752924e-14 2.9000000000000132
    vertex 1.3686291501015215 -1.973976537783528e-14 3.231370849898497
  endloop
endfacet
facet normal 0.0 -1.0 -7.049916206369752e-16
  outer loop
    vertex 0.0 -7.049916206369744e-15 9.99999999999999
    vertex 1.3686291501015215 -1.973976537783528e-14 3.231370849898497
    vertex 1.6999999999999968 -7.049916206369744e-15 3.4856406460551286
  endloop
endfacet
facet normal 0.0 -1.0 -7.049916206369752e-16
  outer loop
    vertex 0.0 -7.049916206369744e-15 9.99999999999999
    vertex 1.6999999999999968 -7.049916206369744e-15 3.4856406460551286
    vertex 0.8579260953085802 2.255973186038318e-14 6.8600076233257266
  endloop
endfacet
facet normal 0.0 -1.0 -7.049916206369752e-16
  outer loop
    vertex 0.8579260953085802 2.255973186038318e-14 6.8600076233257266
    vertex 1.6999999999999968 -7.049916206369744e-15 3.4856406460551286
    vertex 2.0858895278359637 -2.255973186038318e-14 3.64548132206252
  endloop
endfacet
facet normal 0.0 -1.0 -7.049916206369752e-16
  outer loop
    vertex 0.8579260953085802 2.255973186038318e-14 6.8600076233257266
    vertex 2.0858895278359637 -2.255973186038318e-14 3.64548132206252
    vertex 1.0277568135664512 -1.5509815654013436e-14 6.450000000000032
  endloop
endfacet
facet normal 0.0 -1.0 -7.049916206369752e-16
  outer loop
    vertex 1.0277568135664512 -1.5509815654013436e-14 6.450000000000032
    vertex 2.0858895278359637 -2.255973186038318e-14 3.64548132206252
    vertex 2.5000000000000004 4.229949723821846e-15 3.7000000000000206
  endloop
endfacet
facet normal 0.0 -1.0 -7.049916206369752e-16
  outer loop
    vertex 1.0277568135664512 -1.5509815654013436e-14 6.450000000000032
    vertex 2.5000000000000004 4.229949723821846e-15 3.7000000000000206
    vertex 1.2979184719828671 -2.8199664825478976e-14 6.097918471982889
  endloop
endfacet
facet normal 0.0 -1.0 -7.049916206369752e-16
  outer loop
    vertex 1.2979184719828671 -2.8199664825478976e-14 6.097918471982889
    vertex 2.5000000000000004 4.229949723821846e-15 3.7000000000000206
    vertex 1.649999999999997 -9.86988268891764e-15 5.827756813566462
  endloop
endfacet
facet normal 0.0 -1.0 -7.049916206369752e-16
  outer loop
    vertex 1.649999999999997 -9.86988268891764e-15 5.827756813566462
    vertex 2.5000000000000004 4.229949723821846e-15 3.7000000000000206
    vertex 2.060007623325713 -2.5379698342931078e-14 5.657926095308581
  endloop
endfacet
facet normal 0.0 -1.0 -7.049916206369752e-16
  outer loop
    vertex 2.060007623325713 -2.5379698342931078e-14 5.657926095308581
    vertex 2.5000000000000004 4.229949723821846e-15 3.7000000000000206
    vertex 2.5000000000000004 -1.127986593019159e-14 5.600000000000002
  endloop
endfacet
facet normal 0.0 -1.0 -7.049916206369752e-16
  outer loop
    vertex 0.0 -7.049916206369744e-15 9.99999999999999
    vertex 0.8579260953085802 2.255973186038318e-14 6.8600076233257266
    vertex 0.7999999999999985 3.101963130802687e-14 7.300000000000016
  endloop
endfacet
facet normal 0.0 -1.0 -7.049916206369752e-16
  outer loop
    vertex 0.0 -7.049916206369744e-15 9.99999999999999
    vertex 0.7999999999999985 3.101963130802687e-14 7.300000000000016
    vertex 0.8579260953085802 -1.5509815654013436e-14 7.739992376674313
  endloop
endfacet
facet normal 0.0 -1.0 -7.049916206369752e-16
  outer loop
    vertex 0.0 -7.049916206369744e-15 9.99999999999999
    vertex 0.8579260953085802 -1.5509815654013436e-14 7.739992376674313
    vertex 1.0277568135664512 -2.6789681584205025e-14 8.15000000000001
  endloop
endfacet
facet normal 0.0 -1.0 -7.049916206369752e-16
  outer loop
    vertex 0.0 -7.049916206369744e-15 9.99999999999999
    vertex 1.0277568135664512 -2.6789681584205025e-14 8.15000000000001
    vertex 1.2979184719828643 -1.5509815654013436e-14 8.502081528017154
  endloop
endfacet
facet normal 0.0 -1.0 -7.049916206369752e-16
  outer loop
    vertex 0.0 -7.049916206369744e-15 9.99999999999999
    vertex 1.2979184719828643 -1.5509815654013436e-14 8.502081528017154
    vertex 1.649999999999997 -1.127986593019159e-14 8.772243186433553
  endloop
endfacet
facet normal 0.0 -1.0 -7.049916206369752e-16
  outer loop
    vertex 0.0 -7.049916206369744e-15 9.99999999999999
    vertex 1.649999999999997 -1.127986593019159e-14 8.772243186433553
    vertex 2.0600076233257103 -3.101963130802687e-14 8.942073904691409
  endloop
endfacet
facet normal 0.0 -1.0 -7.049916206369752e-16
  outer loop
    vertex 0.0 -7.049916206369744e-15 9.99999999999999
    vertex 2.0600076233257103 -3.101963130802687e-14 8.942073904691409
    vertex 2.5000000000000004 -7.049916206369744e-15 9.000000000000005
  endloop
endfacet
facet normal 0.0 -1.0 -7.049916206369752e-16
  outer loop
    vertex 0.0 -7.049916206369744e-15 9.99999999999999
    vertex 2.5000000000000004 -7.049916206369744e-15 9.000000000000005
    vertex 4.999999999999997 -7.049916206369744e-15 9.99999999999999
  endloop
endfacet
facet normal 1.0 0.0 0.0
  outer loop
    vertex 4.999999999999997 0.0 0.0
    vertex 4.999999999999997 0.9999999999999932 9.999999999999996
    vertex 4.999999999999997 -7.049916206369744e-15 9.99999999999999
  endloop
endfacet
facet normal 1.0 0.0 0.0
  outer loop
    vertex 4.999999999999997 0.9999999999999932 9.999999999999996
    vertex 4.999999999999997 0.0 0.0
    vertex 4.999999999999997 0.9999999999999989 -3.877453913503359e-15
  endloop
endfacet
endsolid EndstopSpacer
