solid Power_Bracket
facet normal 0.0 0.0 -1.0
  outer loop
    vertex 93.0 20.0 0.0
    vertex -5.0 0.0 0.0
    vertex -5.0 20.0 0.0
  endloop
endfacet
facet normal 0.0 0.0 -1.0
  outer loop
    vertex -5.0 0.0 0.0
    vertex 93.0 20.0 0.0
    vertex 0.0 0.0 0.0
  endloop
endfacet
facet normal 0.0 0.0 -1.0
  outer loop
    vertex 0.0 0.0 0.0
    vertex 93.0 20.0 0.0
    vertex 93.0 0.0 0.0
  endloop
endfacet
facet normal -0.0 -0.0 1.0
  outer loop
    vertex 88.0 0.0 5.0
    vertex 0.0 20.0 5.0
    vertex 0.0 0.0 5.0
  endloop
endfacet
facet normal -0.0 -0.0 1.0
  outer loop
    vertex 0.0 20.0 5.0
    vertex 88.0 0.0 5.0
    vertex 88.0 20.0 5.0
  endloop
endfacet
facet normal 0.0 -1.0 0.0
  outer loop
    vertex 108.0 0.0 50.00000000000001
    vertex 93.0 0.0 45.0
    vertex 108.0 0.0 45.0
  endloop
endfacet
facet normal 0.0 -1.0 0.0
  outer loop
    vertex 93.0 0.0 0.0
    vertex 88.0 0.0 5.0
    vertex 0.0 0.0 0.0
  endloop
endfacet
facet normal 0.0 -1.0 0.0
  outer loop
    vertex 88.0 0.0 5.0
    vertex 93.0 0.0 0.0
    vertex 93.0 0.0 45.0
  endloop
endfacet
facet normal 0.0 -1.0 0.0
  outer loop
    vertex 88.0 0.0 5.0
    vertex 93.0 0.0 45.0
    vertex 88.0 0.0 50.00000000000001
  endloop
endfacet
facet normal 0.0 -1.0 0.0
  outer loop
    vertex 88.0 0.0 50.00000000000001
    vertex 93.0 0.0 45.0
    vertex 108.0 0.0 50.00000000000001
  endloop
endfacet
facet normal 0.0 -1.0 0.0
  outer loop
    vertex 0.0 0.0 5.0
    vertex 0.0 0.0 0.0
    vertex 88.0 0.0 5.0
  endloop
endfacet
facet normal 1.0 -0.0 -0.0
  outer loop
    vertex 93.0 20.0 0.0
    vertex 93.0 0.0 45.0
    vertex 93.0 0.0 0.0
  endloop
endfacet
facet normal 1.0 -0.0 -0.0
  outer loop
    vertex 93.0 0.0 45.0
    vertex 93.0 20.0 0.0
    vertex 93.0 20.0 45.0
  endloop
endfacet
facet normal -0.0 -0.0 1.0
  outer loop
    vertex 108.0 0.0 50.00000000000001
    vertex 88.0 20.0 50.00000000000001
    vertex 88.0 0.0 50.00000000000001
  endloop
endfacet
facet normal -0.0 -0.0 1.0
  outer loop
    vertex 88.0 20.0 50.00000000000001
    vertex 108.0 0.0 50.00000000000001
    vertex 99.33327381104222 8.833273811042206 50.0
  endloop
endfacet
facet normal -0.0 -0.0 1.0
  outer loop
    vertex 88.0 20.0 50.00000000000001
    vertex 99.33327381104222 8.833273811042206 50.0
    vertex 99.07105808375569 9.175000000000011 50.0
  endloop
endfacet
facet normal -0.0 -0.0 1.0
  outer loop
    vertex 88.0 20.0 50.00000000000001
    vertex 99.07105808375569 9.175000000000011 50.0
    vertex 98.90622238662306 9.572948575580853 50.0
  endloop
endfacet
facet normal -0.0 -0.0 1.0
  outer loop
    vertex 88.0 20.0 50.00000000000001
    vertex 98.90622238662306 9.572948575580853 50.0
    vertex 98.85000000000002 10.000000000000012 50.0
  endloop
endfacet
facet normal -0.0 -0.0 1.0
  outer loop
    vertex 99.33327381104222 8.833273811042206 50.0
    vertex 108.0 0.0 50.00000000000001
    vertex 99.67500000000001 8.571058083755684 50.0
  endloop
endfacet
facet normal -0.0 -0.0 1.0
  outer loop
    vertex 99.67500000000001 8.571058083755684 50.0
    vertex 108.0 0.0 50.00000000000001
    vertex 100.07294857558085 8.406222386623043 50.0
  endloop
endfacet
facet normal -0.0 -0.0 1.0
  outer loop
    vertex 100.07294857558085 8.406222386623043 50.0
    vertex 108.0 0.0 50.00000000000001
    vertex 100.50000000000001 8.350000000000003 50.0
  endloop
endfacet
facet normal -0.0 -0.0 1.0
  outer loop
    vertex 100.50000000000001 8.350000000000003 50.0
    vertex 108.0 0.0 50.00000000000001
    vertex 100.92705142441916 8.406222386623039 50.0
  endloop
endfacet
facet normal -0.0 -0.0 1.0
  outer loop
    vertex 100.92705142441916 8.406222386623039 50.0
    vertex 108.0 0.0 50.00000000000001
    vertex 101.32500000000002 8.571058083755675 50.0
  endloop
endfacet
facet normal -0.0 -0.0 1.0
  outer loop
    vertex 101.32500000000002 8.571058083755675 50.0
    vertex 108.0 0.0 50.00000000000001
    vertex 101.66672618895782 8.833273811042194 50.0
  endloop
endfacet
facet normal -0.0 -0.0 1.0
  outer loop
    vertex 101.66672618895782 8.833273811042194 50.0
    vertex 108.0 0.0 50.00000000000001
    vertex 101.92894191624433 9.174999999999995 50.0
  endloop
endfacet
facet normal -0.0 -0.0 1.0
  outer loop
    vertex 101.92894191624433 9.174999999999995 50.0
    vertex 108.0 0.0 50.00000000000001
    vertex 102.09377761337699 9.572948575580837 50.0
  endloop
endfacet
facet normal -0.0 -0.0 1.0
  outer loop
    vertex 102.09377761337699 9.572948575580837 50.0
    vertex 108.0 0.0 50.00000000000001
    vertex 102.15000000000003 9.999999999999995 50.0
  endloop
endfacet
facet normal -0.0 -0.0 1.0
  outer loop
    vertex 88.0 20.0 50.00000000000001
    vertex 99.33327381104223 11.166726188957812 50.0
    vertex 108.0 20.0 50.00000000000001
  endloop
endfacet
facet normal -0.0 -0.0 1.0
  outer loop
    vertex 99.33327381104223 11.166726188957812 50.0
    vertex 88.0 20.0 50.00000000000001
    vertex 99.07105808375569 10.825000000000012 50.0
  endloop
endfacet
facet normal -0.0 -0.0 1.0
  outer loop
    vertex 99.07105808375569 10.825000000000012 50.0
    vertex 88.0 20.0 50.00000000000001
    vertex 98.90622238662306 10.42705142441917 50.0
  endloop
endfacet
facet normal -0.0 -0.0 1.0
  outer loop
    vertex 98.90622238662306 10.42705142441917 50.0
    vertex 88.0 20.0 50.00000000000001
    vertex 98.85000000000002 10.000000000000012 50.0
  endloop
endfacet
facet normal -0.0 -0.0 1.0
  outer loop
    vertex 108.0 20.0 50.00000000000001
    vertex 99.33327381104223 11.166726188957812 50.0
    vertex 99.67500000000003 11.428941916244332 50.0
  endloop
endfacet
facet normal -0.0 -0.0 1.0
  outer loop
    vertex 108.0 20.0 50.00000000000001
    vertex 99.67500000000003 11.428941916244332 50.0
    vertex 100.07294857558087 11.593777613376966 50.0
  endloop
endfacet
facet normal -0.0 -0.0 1.0
  outer loop
    vertex 108.0 20.0 50.00000000000001
    vertex 100.07294857558087 11.593777613376966 50.0
    vertex 100.50000000000003 11.650000000000002 50.0
  endloop
endfacet
facet normal -0.0 -0.0 1.0
  outer loop
    vertex 108.0 20.0 50.00000000000001
    vertex 100.50000000000003 11.650000000000002 50.0
    vertex 100.92705142441919 11.593777613376963 50.0
  endloop
endfacet
facet normal -0.0 -0.0 1.0
  outer loop
    vertex 108.0 20.0 50.00000000000001
    vertex 100.92705142441919 11.593777613376963 50.0
    vertex 101.32500000000002 11.428941916244321 50.0
  endloop
endfacet
facet normal -0.0 -0.0 1.0
  outer loop
    vertex 108.0 20.0 50.00000000000001
    vertex 101.32500000000002 11.428941916244321 50.0
    vertex 101.66672618895782 11.1667261889578 50.0
  endloop
endfacet
facet normal -0.0 -0.0 1.0
  outer loop
    vertex 108.0 20.0 50.00000000000001
    vertex 101.66672618895782 11.1667261889578 50.0
    vertex 101.92894191624436 10.824999999999996 50.0
  endloop
endfacet
facet normal -0.0 -0.0 1.0
  outer loop
    vertex 108.0 20.0 50.00000000000001
    vertex 101.92894191624436 10.824999999999996 50.0
    vertex 102.09377761337699 10.427051424419155 50.0
  endloop
endfacet
facet normal -0.0 -0.0 1.0
  outer loop
    vertex 108.0 20.0 50.00000000000001
    vertex 102.09377761337699 10.427051424419155 50.0
    vertex 102.15000000000003 9.999999999999995 50.0
  endloop
endfacet
facet normal -0.0 -0.0 1.0
  outer loop
    vertex 108.0 20.0 50.00000000000001
    vertex 102.15000000000003 9.999999999999995 50.0
    vertex 108.0 0.0 50.00000000000001
  endloop
endfacet
facet normal -1.0 0.0 0.0
  outer loop
    vertex 88.0 20.0 50.00000000000001
    vertex 88.0 0.0 5.0
    vertex 88.0 0.0 50.00000000000001
  endloop
endfacet
facet normal -1.0 0.0 0.0
  outer loop
    vertex 88.0 0.0 5.0
    vertex 88.0 20.0 50.00000000000001
    vertex 88.0 20.0 5.0
  endloop
endfacet
facet normal -0.0 1.0 -0.0
  outer loop
    vertex -20.0 20.0 50.00000000000001
    vertex -5.0 20.0 45.0
    vertex -20.0 20.0 45.0
  endloop
endfacet
facet normal -0.0 1.0 -0.0
  outer loop
    vertex -5.0 20.0 0.0
    vertex 0.0 20.0 5.0
    vertex 93.0 20.0 0.0
  endloop
endfacet
facet normal -0.0 1.0 -0.0
  outer loop
    vertex 0.0 20.0 5.0
    vertex -5.0 20.0 0.0
    vertex -5.0 20.0 45.0
  endloop
endfacet
facet normal -0.0 1.0 -0.0
  outer loop
    vertex 0.0 20.0 5.0
    vertex -5.0 20.0 45.0
    vertex 0.0 20.0 50.00000000000001
  endloop
endfacet
facet normal -0.0 1.0 -0.0
  outer loop
    vertex 0.0 20.0 50.00000000000001
    vertex -5.0 20.0 45.0
    vertex -20.0 20.0 50.00000000000001
  endloop
endfacet
facet normal -0.0 1.0 -0.0
  outer loop
    vertex 93.0 20.0 0.0
    vertex 88.0 20.0 5.0
    vertex 93.0 20.0 45.0
  endloop
endfacet
facet normal -0.0 1.0 -0.0
  outer loop
    vertex 88.0 20.0 5.0
    vertex 93.0 20.0 0.0
    vertex 0.0 20.0 5.0
  endloop
endfacet
facet normal -0.0 1.0 -0.0
  outer loop
    vertex 93.0 20.0 45.0
    vertex 88.0 20.0 5.0
    vertex 88.0 20.0 50.00000000000001
  endloop
endfacet
facet normal -0.0 1.0 -0.0
  outer loop
    vertex 93.0 20.0 45.0
    vertex 88.0 20.0 50.00000000000001
    vertex 108.0 20.0 45.0
  endloop
endfacet
facet normal -0.0 1.0 -0.0
  outer loop
    vertex 108.0 20.0 45.0
    vertex 88.0 20.0 50.00000000000001
    vertex 108.0 20.0 50.00000000000001
  endloop
endfacet
facet normal 1.0 0.0 0.0
  outer loop
    vertex 108.0 20.0 45.0
    vertex 108.0 0.0 50.00000000000001
    vertex 108.0 0.0 45.0
  endloop
endfacet
facet normal 1.0 0.0 0.0
  outer loop
    vertex 108.0 0.0 50.00000000000001
    vertex 108.0 20.0 45.0
    vertex 108.0 20.0 50.00000000000001
  endloop
endfacet
facet normal 0.0 0.0 -1.0
  outer loop
    vertex 93.0 20.0 45.0
    vertex 99.07105808375569 10.825000000000012 44.999999999999986
    vertex 93.0 0.0 45.0
  endloop
endfacet
facet normal 0.0 0.0 -1.0
  outer loop
    vertex 99.07105808375569 10.825000000000012 44.999999999999986
    vertex 93.0 20.0 45.0
    vertex 99.33327381104223 11.166726188957812 44.999999999999986
  endloop
endfacet
facet normal 0.0 0.0 -1.0
  outer loop
    vertex 99.33327381104223 11.166726188957812 44.999999999999986
    vertex 93.0 20.0 45.0
    vertex 108.0 20.0 45.0
  endloop
endfacet
facet normal 0.0 0.0 -1.0
  outer loop
    vertex 93.0 0.0 45.0
    vertex 99.07105808375569 10.825000000000012 44.999999999999986
    vertex 98.90622238662306 10.42705142441917 44.999999999999986
  endloop
endfacet
facet normal 0.0 0.0 -1.0
  outer loop
    vertex 93.0 0.0 45.0
    vertex 98.90622238662306 10.42705142441917 44.999999999999986
    vertex 98.85000000000002 10.000000000000012 44.999999999999986
  endloop
endfacet
facet normal 0.0 0.0 -1.0
  outer loop
    vertex 99.33327381104223 11.166726188957812 44.999999999999986
    vertex 108.0 20.0 45.0
    vertex 99.67500000000003 11.428941916244332 44.999999999999986
  endloop
endfacet
facet normal 0.0 0.0 -1.0
  outer loop
    vertex 99.67500000000003 11.428941916244332 44.999999999999986
    vertex 108.0 20.0 45.0
    vertex 100.07294857558087 11.593777613376966 44.999999999999986
  endloop
endfacet
facet normal 0.0 0.0 -1.0
  outer loop
    vertex 100.07294857558087 11.593777613376966 44.999999999999986
    vertex 108.0 20.0 45.0
    vertex 100.50000000000003 11.650000000000002 44.999999999999986
  endloop
endfacet
facet normal 0.0 0.0 -1.0
  outer loop
    vertex 100.50000000000003 11.650000000000002 44.999999999999986
    vertex 108.0 20.0 45.0
    vertex 100.92705142441919 11.593777613376963 44.999999999999986
  endloop
endfacet
facet normal 0.0 0.0 -1.0
  outer loop
    vertex 100.92705142441919 11.593777613376963 44.999999999999986
    vertex 108.0 20.0 45.0
    vertex 101.32500000000002 11.428941916244321 44.999999999999986
  endloop
endfacet
facet normal 0.0 0.0 -1.0
  outer loop
    vertex 101.32500000000002 11.428941916244321 44.999999999999986
    vertex 108.0 20.0 45.0
    vertex 101.66672618895782 11.1667261889578 44.999999999999986
  endloop
endfacet
facet normal 0.0 0.0 -1.0
  outer loop
    vertex 101.66672618895782 11.1667261889578 44.999999999999986
    vertex 108.0 20.0 45.0
    vertex 101.92894191624436 10.824999999999996 44.999999999999986
  endloop
endfacet
facet normal 0.0 0.0 -1.0
  outer loop
    vertex 101.92894191624436 10.824999999999996 44.999999999999986
    vertex 108.0 20.0 45.0
    vertex 102.09377761337699 10.427051424419155 44.999999999999986
  endloop
endfacet
facet normal 0.0 0.0 -1.0
  outer loop
    vertex 102.09377761337699 10.427051424419155 44.999999999999986
    vertex 108.0 20.0 45.0
    vertex 102.15000000000003 9.999999999999995 44.999999999999986
  endloop
endfacet
facet normal 0.0 0.0 -1.0
  outer loop
    vertex 93.0 0.0 45.0
    vertex 99.33327381104222 8.833273811042206 44.999999999999986
    vertex 108.0 0.0 45.0
  endloop
endfacet
facet normal 0.0 0.0 -1.0
  outer loop
    vertex 99.33327381104222 8.833273811042206 44.999999999999986
    vertex 93.0 0.0 45.0
    vertex 99.07105808375569 9.175000000000011 44.999999999999986
  endloop
endfacet
facet normal 0.0 0.0 -1.0
  outer loop
    vertex 99.07105808375569 9.175000000000011 44.999999999999986
    vertex 93.0 0.0 45.0
    vertex 98.90622238662306 9.572948575580853 44.999999999999986
  endloop
endfacet
facet normal 0.0 0.0 -1.0
  outer loop
    vertex 98.90622238662306 9.572948575580853 44.999999999999986
    vertex 93.0 0.0 45.0
    vertex 98.85000000000002 10.000000000000012 44.999999999999986
  endloop
endfacet
facet normal 0.0 0.0 -1.0
  outer loop
    vertex 108.0 0.0 45.0
    vertex 99.33327381104222 8.833273811042206 44.999999999999986
    vertex 99.67500000000001 8.571058083755684 44.999999999999986
  endloop
endfacet
facet normal 0.0 0.0 -1.0
  outer loop
    vertex 108.0 0.0 45.0
    vertex 99.67500000000001 8.571058083755684 44.999999999999986
    vertex 100.07294857558085 8.406222386623043 44.999999999999986
  endloop
endfacet
facet normal 0.0 0.0 -1.0
  outer loop
    vertex 108.0 0.0 45.0
    vertex 100.07294857558085 8.406222386623043 44.999999999999986
    vertex 100.50000000000001 8.350000000000003 44.999999999999986
  endloop
endfacet
facet normal 0.0 0.0 -1.0
  outer loop
    vertex 108.0 0.0 45.0
    vertex 100.50000000000001 8.350000000000003 44.999999999999986
    vertex 100.92705142441916 8.406222386623039 44.999999999999986
  endloop
endfacet
facet normal 0.0 0.0 -1.0
  outer loop
    vertex 108.0 0.0 45.0
    vertex 100.92705142441916 8.406222386623039 44.999999999999986
    vertex 101.32500000000002 8.571058083755675 44.999999999999986
  endloop
endfacet
facet normal 0.0 0.0 -1.0
  outer loop
    vertex 108.0 0.0 45.0
    vertex 101.32500000000002 8.571058083755675 44.999999999999986
    vertex 101.66672618895782 8.833273811042194 44.999999999999986
  endloop
endfacet
facet normal 0.0 0.0 -1.0
  outer loop
    vertex 108.0 0.0 45.0
    vertex 101.66672618895782 8.833273811042194 44.999999999999986
    vertex 101.92894191624433 9.174999999999995 44.999999999999986
  endloop
endfacet
facet normal 0.0 0.0 -1.0
  outer loop
    vertex 108.0 0.0 45.0
    vertex 101.92894191624433 9.174999999999995 44.999999999999986
    vertex 102.09377761337699 9.572948575580837 44.999999999999986
  endloop
endfacet
facet normal 0.0 0.0 -1.0
  outer loop
    vertex 108.0 0.0 45.0
    vertex 102.09377761337699 9.572948575580837 44.999999999999986
    vertex 102.15000000000003 9.999999999999995 44.999999999999986
  endloop
endfacet
facet normal 0.0 0.0 -1.0
  outer loop
    vertex 108.0 0.0 45.0
    vertex 102.15000000000003 9.999999999999995 44.999999999999986
    vertex 108.0 20.0 45.0
  endloop
endfacet
facet normal -1.0 0.0 0.0
  outer loop
    vertex -5.0 20.0 45.0
    vertex -5.0 0.0 0.0
    vertex -5.0 0.0 45.0
  endloop
endfacet
facet normal -1.0 0.0 0.0
  outer loop
    vertex -5.0 0.0 0.0
    vertex -5.0 20.0 45.0
    vertex -5.0 20.0 0.0
  endloop
endfacet
facet normal -0.0 -0.0 1.0
  outer loop
    vertex -20.0 0.0 50.00000000000001
    vertex -13.928941916244325 9.175000000000002 50.00000000000001
    vertex -20.0 20.0 50.00000000000001
  endloop
endfacet
facet normal -0.0 -0.0 1.0
  outer loop
    vertex -13.928941916244325 9.175000000000002 50.00000000000001
    vertex -20.0 0.0 50.00000000000001
    vertex -13.666726188957803 8.833273811042199 50.00000000000001
  endloop
endfacet
facet normal -0.0 -0.0 1.0
  outer loop
    vertex -13.666726188957803 8.833273811042199 50.00000000000001
    vertex -20.0 0.0 50.00000000000001
    vertex -13.324999999999998 8.571058083755679 50.00000000000001
  endloop
endfacet
facet normal -0.0 -0.0 1.0
  outer loop
    vertex -13.324999999999998 8.571058083755679 50.00000000000001
    vertex -20.0 0.0 50.00000000000001
    vertex 0.0 0.0 50.00000000000001
  endloop
endfacet
facet normal -0.0 -0.0 1.0
  outer loop
    vertex -20.0 20.0 50.00000000000001
    vertex -13.928941916244325 9.175000000000002 50.00000000000001
    vertex -14.093777613376963 9.572948575580844 50.00000000000001
  endloop
endfacet
facet normal -0.0 -0.0 1.0
  outer loop
    vertex -20.0 20.0 50.00000000000001
    vertex -14.093777613376963 9.572948575580844 50.00000000000001
    vertex -14.149999999999999 10.000000000000004 50.00000000000001
  endloop
endfacet
facet normal -0.0 -0.0 1.0
  outer loop
    vertex -13.324999999999998 8.571058083755679 50.00000000000001
    vertex 0.0 0.0 50.00000000000001
    vertex -12.927051424419158 8.40622238662304 50.00000000000001
  endloop
endfacet
facet normal -0.0 -0.0 1.0
  outer loop
    vertex -12.927051424419158 8.40622238662304 50.00000000000001
    vertex 0.0 0.0 50.00000000000001
    vertex -12.5 8.350000000000003 50.00000000000001
  endloop
endfacet
facet normal -0.0 -0.0 1.0
  outer loop
    vertex -12.5 8.350000000000003 50.00000000000001
    vertex 0.0 0.0 50.00000000000001
    vertex -12.07294857558084 8.40622238662304 50.00000000000001
  endloop
endfacet
facet normal -0.0 -0.0 1.0
  outer loop
    vertex -12.07294857558084 8.40622238662304 50.00000000000001
    vertex 0.0 0.0 50.00000000000001
    vertex -11.674999999999999 8.57105808375568 50.00000000000001
  endloop
endfacet
facet normal -0.0 -0.0 1.0
  outer loop
    vertex -11.674999999999999 8.57105808375568 50.00000000000001
    vertex 0.0 0.0 50.00000000000001
    vertex -11.333273811042195 8.8332738110422 50.00000000000001
  endloop
endfacet
facet normal -0.0 -0.0 1.0
  outer loop
    vertex -11.333273811042195 8.8332738110422 50.00000000000001
    vertex 0.0 0.0 50.00000000000001
    vertex -11.071058083755675 9.175000000000002 50.00000000000001
  endloop
endfacet
facet normal -0.0 -0.0 1.0
  outer loop
    vertex -11.071058083755675 9.175000000000002 50.00000000000001
    vertex 0.0 0.0 50.00000000000001
    vertex -10.906222386623037 9.572948575580844 50.00000000000001
  endloop
endfacet
facet normal -0.0 -0.0 1.0
  outer loop
    vertex -10.906222386623037 9.572948575580844 50.00000000000001
    vertex 0.0 0.0 50.00000000000001
    vertex -10.85 10.000000000000004 50.00000000000001
  endloop
endfacet
facet normal -0.0 -0.0 1.0
  outer loop
    vertex -20.0 20.0 50.00000000000001
    vertex -13.324999999999998 11.428941916244327 50.00000000000001
    vertex 0.0 20.0 50.00000000000001
  endloop
endfacet
facet normal -0.0 -0.0 1.0
  outer loop
    vertex -13.324999999999998 11.428941916244327 50.00000000000001
    vertex -20.0 20.0 50.00000000000001
    vertex -13.666726188957803 11.166726188957805 50.00000000000001
  endloop
endfacet
facet normal -0.0 -0.0 1.0
  outer loop
    vertex -13.666726188957803 11.166726188957805 50.00000000000001
    vertex -20.0 20.0 50.00000000000001
    vertex -13.928941916244325 10.825000000000003 50.00000000000001
  endloop
endfacet
facet normal -0.0 -0.0 1.0
  outer loop
    vertex -13.928941916244325 10.825000000000003 50.00000000000001
    vertex -20.0 20.0 50.00000000000001
    vertex -14.093777613376963 10.427051424419162 50.00000000000001
  endloop
endfacet
facet normal -0.0 -0.0 1.0
  outer loop
    vertex -14.093777613376963 10.427051424419162 50.00000000000001
    vertex -20.0 20.0 50.00000000000001
    vertex -14.149999999999999 10.000000000000004 50.00000000000001
  endloop
endfacet
facet normal -0.0 -0.0 1.0
  outer loop
    vertex 0.0 20.0 50.00000000000001
    vertex -13.324999999999998 11.428941916244327 50.00000000000001
    vertex -12.927051424419158 11.593777613376966 50.00000000000001
  endloop
endfacet
facet normal -0.0 -0.0 1.0
  outer loop
    vertex 0.0 20.0 50.00000000000001
    vertex -12.927051424419158 11.593777613376966 50.00000000000001
    vertex -12.5 11.650000000000002 50.00000000000001
  endloop
endfacet
facet normal -0.0 -0.0 1.0
  outer loop
    vertex 0.0 20.0 50.00000000000001
    vertex -12.5 11.650000000000002 50.00000000000001
    vertex -12.072948575580842 11.593777613376966 50.00000000000001
  endloop
endfacet
facet normal -0.0 -0.0 1.0
  outer loop
    vertex 0.0 20.0 50.00000000000001
    vertex -12.072948575580842 11.593777613376966 50.00000000000001
    vertex -11.674999999999999 11.428941916244327 50.00000000000001
  endloop
endfacet
facet normal -0.0 -0.0 1.0
  outer loop
    vertex 0.0 20.0 50.00000000000001
    vertex -11.674999999999999 11.428941916244327 50.00000000000001
    vertex -11.333273811042197 11.166726188957805 50.00000000000001
  endloop
endfacet
facet normal -0.0 -0.0 1.0
  outer loop
    vertex 0.0 20.0 50.00000000000001
    vertex -11.333273811042197 11.166726188957805 50.00000000000001
    vertex -11.071058083755677 10.825000000000003 50.00000000000001
  endloop
endfacet
facet normal -0.0 -0.0 1.0
  outer loop
    vertex 0.0 20.0 50.00000000000001
    vertex -11.071058083755677 10.825000000000003 50.00000000000001
    vertex -10.906222386623037 10.427051424419163 50.00000000000001
  endloop
endfacet
facet normal -0.0 -0.0 1.0
  outer loop
    vertex 0.0 20.0 50.00000000000001
    vertex -10.906222386623037 10.427051424419163 50.00000000000001
    vertex -10.85 10.000000000000004 50.00000000000001
  endloop
endfacet
facet normal -0.0 -0.0 1.0
  outer loop
    vertex 0.0 20.0 50.00000000000001
    vertex -10.85 10.000000000000004 50.00000000000001
    vertex 0.0 0.0 50.00000000000001
  endloop
endfacet
facet normal 1.0 -0.0 -0.0
  outer loop
    vertex 0.0 20.0 5.0
    vertex 0.0 0.0 50.00000000000001
    vertex 0.0 0.0 5.0
  endloop
endfacet
facet normal 1.0 -0.0 -0.0
  outer loop
    vertex 0.0 0.0 50.00000000000001
    vertex 0.0 20.0 5.0
    vertex 0.0 20.0 50.00000000000001
  endloop
endfacet
facet normal 0.0 -1.0 0.0
  outer loop
    vertex 0.0 0.0 5.0
    vertex -5.0 0.0 0.0
    vertex 0.0 0.0 0.0
  endloop
endfacet
facet normal 0.0 -1.0 0.0
  outer loop
    vertex -5.0 0.0 0.0
    vertex 0.0 0.0 5.0
    vertex -5.0 0.0 45.0
  endloop
endfacet
facet normal 0.0 -1.0 0.0
  outer loop
    vertex -5.0 0.0 45.0
    vertex 0.0 0.0 5.0
    vertex 0.0 0.0 50.00000000000001
  endloop
endfacet
facet normal 0.0 -1.0 0.0
  outer loop
    vertex -5.0 0.0 45.0
    vertex 0.0 0.0 50.00000000000001
    vertex -20.0 0.0 45.0
  endloop
endfacet
facet normal 0.0 -1.0 0.0
  outer loop
    vertex -20.0 0.0 45.0
    vertex 0.0 0.0 50.00000000000001
    vertex -20.0 0.0 50.00000000000001
  endloop
endfacet
facet normal -1.0 0.0 0.0
  outer loop
    vertex -20.0 20.0 50.00000000000001
    vertex -20.0 0.0 45.0
    vertex -20.0 0.0 50.00000000000001
  endloop
endfacet
facet normal -1.0 0.0 0.0
  outer loop
    vertex -20.0 0.0 45.0
    vertex -20.0 20.0 50.00000000000001
    vertex -20.0 20.0 45.0
  endloop
endfacet
facet normal -0.0 -0.0 -1.0
  outer loop
    vertex -20.0 20.0 45.0
    vertex -13.928941916244325 10.825000000000003 45.00000000000001
    vertex -20.0 0.0 45.0
  endloop
endfacet
facet normal -0.0 -0.0 -1.0
  outer loop
    vertex -13.928941916244325 10.825000000000003 45.00000000000001
    vertex -20.0 20.0 45.0
    vertex -13.666726188957803 11.166726188957805 45.00000000000001
  endloop
endfacet
facet normal -0.0 -0.0 -1.0
  outer loop
    vertex -13.666726188957803 11.166726188957805 45.00000000000001
    vertex -20.0 20.0 45.0
    vertex -5.0 20.0 45.0
  endloop
endfacet
facet normal -0.0 -0.0 -1.0
  outer loop
    vertex -20.0 0.0 45.0
    vertex -13.928941916244325 10.825000000000003 45.00000000000001
    vertex -14.093777613376963 10.427051424419162 45.00000000000001
  endloop
endfacet
facet normal -0.0 -0.0 -1.0
  outer loop
    vertex -20.0 0.0 45.0
    vertex -14.093777613376963 10.427051424419162 45.00000000000001
    vertex -14.149999999999999 10.000000000000004 45.00000000000001
  endloop
endfacet
facet normal -0.0 -0.0 -1.0
  outer loop
    vertex -13.666726188957803 11.166726188957805 45.00000000000001
    vertex -5.0 20.0 45.0
    vertex -13.324999999999998 11.428941916244327 45.00000000000001
  endloop
endfacet
facet normal -0.0 -0.0 -1.0
  outer loop
    vertex -13.324999999999998 11.428941916244327 45.00000000000001
    vertex -5.0 20.0 45.0
    vertex -12.927051424419158 11.593777613376966 45.00000000000001
  endloop
endfacet
facet normal -0.0 -0.0 -1.0
  outer loop
    vertex -12.927051424419158 11.593777613376966 45.00000000000001
    vertex -5.0 20.0 45.0
    vertex -12.5 11.650000000000002 45.00000000000001
  endloop
endfacet
facet normal -0.0 -0.0 -1.0
  outer loop
    vertex -12.5 11.650000000000002 45.00000000000001
    vertex -5.0 20.0 45.0
    vertex -12.072948575580842 11.593777613376966 45.00000000000001
  endloop
endfacet
facet normal -0.0 -0.0 -1.0
  outer loop
    vertex -12.072948575580842 11.593777613376966 45.00000000000001
    vertex -5.0 20.0 45.0
    vertex -11.674999999999999 11.428941916244327 45.00000000000001
  endloop
endfacet
facet normal -0.0 -0.0 -1.0
  outer loop
    vertex -11.674999999999999 11.428941916244327 45.00000000000001
    vertex -5.0 20.0 45.0
    vertex -11.333273811042197 11.166726188957805 45.00000000000001
  endloop
endfacet
facet normal -0.0 -0.0 -1.0
  outer loop
    vertex -11.333273811042197 11.166726188957805 45.00000000000001
    vertex -5.0 20.0 45.0
    vertex -11.071058083755677 10.825000000000003 45.00000000000001
  endloop
endfacet
facet normal -0.0 -0.0 -1.0
  outer loop
    vertex -11.071058083755677 10.825000000000003 45.00000000000001
    vertex -5.0 20.0 45.0
    vertex -10.906222386623037 10.427051424419163 45.00000000000001
  endloop
endfacet
facet normal -0.0 -0.0 -1.0
  outer loop
    vertex -10.906222386623037 10.427051424419163 45.00000000000001
    vertex -5.0 20.0 45.0
    vertex -10.85 10.000000000000004 45.00000000000001
  endloop
endfacet
facet normal -0.0 -0.0 -1.0
  outer loop
    vertex -20.0 0.0 45.0
    vertex -13.666726188957803 8.833273811042199 45.00000000000001
    vertex -5.0 0.0 45.0
  endloop
endfacet
facet normal -0.0 -0.0 -1.0
  outer loop
    vertex -13.666726188957803 8.833273811042199 45.00000000000001
    vertex -20.0 0.0 45.0
    vertex -13.928941916244325 9.175000000000002 45.00000000000001
  endloop
endfacet
facet normal -0.0 -0.0 -1.0
  outer loop
    vertex -13.928941916244325 9.175000000000002 45.00000000000001
    vertex -20.0 0.0 45.0
    vertex -14.093777613376963 9.572948575580844 45.00000000000001
  endloop
endfacet
facet normal -0.0 -0.0 -1.0
  outer loop
    vertex -14.093777613376963 9.572948575580844 45.00000000000001
    vertex -20.0 0.0 45.0
    vertex -14.149999999999999 10.000000000000004 45.00000000000001
  endloop
endfacet
facet normal -0.0 -0.0 -1.0
  outer loop
    vertex -5.0 0.0 45.0
    vertex -13.666726188957803 8.833273811042199 45.00000000000001
    vertex -13.324999999999998 8.571058083755679 45.00000000000001
  endloop
endfacet
facet normal -0.0 -0.0 -1.0
  outer loop
    vertex -5.0 0.0 45.0
    vertex -13.324999999999998 8.571058083755679 45.00000000000001
    vertex -12.927051424419158 8.40622238662304 45.00000000000001
  endloop
endfacet
facet normal -0.0 -0.0 -1.0
  outer loop
    vertex -5.0 0.0 45.0
    vertex -12.927051424419158 8.40622238662304 45.00000000000001
    vertex -12.5 8.350000000000003 45.00000000000001
  endloop
endfacet
facet normal -0.0 -0.0 -1.0
  outer loop
    vertex -5.0 0.0 45.0
    vertex -12.5 8.350000000000003 45.00000000000001
    vertex -12.07294857558084 8.40622238662304 45.00000000000001
  endloop
endfacet
facet normal -0.0 -0.0 -1.0
  outer loop
    vertex -5.0 0.0 45.0
    vertex -12.07294857558084 8.40622238662304 45.00000000000001
    vertex -11.674999999999999 8.57105808375568 45.00000000000001
  endloop
endfacet
facet normal -0.0 -0.0 -1.0
  outer loop
    vertex -5.0 0.0 45.0
    vertex -11.674999999999999 8.57105808375568 45.00000000000001
    vertex -11.333273811042195 8.8332738110422 45.00000000000001
  endloop
endfacet
facet normal -0.0 -0.0 -1.0
  outer loop
    vertex -5.0 0.0 45.0
    vertex -11.333273811042195 8.8332738110422 45.00000000000001
    vertex -11.071058083755675 9.175000000000002 45.00000000000001
  endloop
endfacet
facet normal -0.0 -0.0 -1.0
  outer loop
    vertex -5.0 0.0 45.0
    vertex -11.071058083755675 9.175000000000002 45.00000000000001
    vertex -10.906222386623037 9.572948575580844 45.00000000000001
  endloop
endfacet
facet normal -0.0 -0.0 -1.0
  outer loop
    vertex -5.0 0.0 45.0
    vertex -10.906222386623037 9.572948575580844 45.00000000000001
    vertex -10.85 10.000000000000004 45.00000000000001
  endloop
endfacet
facet normal -0.0 -0.0 -1.0
  outer loop
    vertex -5.0 0.0 45.0
    vertex -10.85 10.000000000000004 45.00000000000001
    vertex -5.0 20.0 45.0
  endloop
endfacet
facet normal -0.9238795325112875 0.3826834323650883 -0.0
  outer loop
    vertex -10.906222386623037 9.572948575580844 50.00000000000001
    vertex -11.071058083755675 9.175000000000002 45.00000000000001
    vertex -11.071058083755675 9.175000000000002 50.00000000000001
  endloop
endfacet
facet normal -0.9238795325112875 0.3826834323650883 -0.0
  outer loop
    vertex -11.071058083755675 9.175000000000002 45.00000000000001
    vertex -10.906222386623037 9.572948575580844 50.00000000000001
    vertex -10.906222386623037 9.572948575580844 45.00000000000001
  endloop
endfacet
facet normal -0.9914448613738106 0.13052619222005132 -0.0
  outer loop
    vertex -10.85 10.000000000000004 50.00000000000001
    vertex -10.906222386623037 9.572948575580844 45.00000000000001
    vertex -10.906222386623037 9.572948575580844 50.00000000000001
  endloop
endfacet
facet normal -0.9914448613738106 0.13052619222005132 -0.0
  outer loop
    vertex -10.906222386623037 9.572948575580844 45.00000000000001
    vertex -10.85 10.000000000000004 50.00000000000001
    vertex -10.85 10.000000000000004 45.00000000000001
  endloop
endfacet
facet normal -0.9914448613738105 -0.13052619222005085 -0.0
  outer loop
    vertex -10.906222386623037 10.427051424419163 50.00000000000001
    vertex -10.85 10.000000000000004 45.00000000000001
    vertex -10.85 10.000000000000004 50.00000000000001
  endloop
endfacet
facet normal -0.9914448613738105 -0.13052619222005085 -0.0
  outer loop
    vertex -10.85 10.000000000000004 45.00000000000001
    vertex -10.906222386623037 10.427051424419163 50.00000000000001
    vertex -10.906222386623037 10.427051424419163 45.00000000000001
  endloop
endfacet
facet normal -0.923879532511286 -0.3826834323650923 -0.0
  outer loop
    vertex -11.071058083755677 10.825000000000003 50.00000000000001
    vertex -10.906222386623037 10.427051424419163 45.00000000000001
    vertex -10.906222386623037 10.427051424419163 50.00000000000001
  endloop
endfacet
facet normal -0.923879532511286 -0.3826834323650923 -0.0
  outer loop
    vertex -10.906222386623037 10.427051424419163 45.00000000000001
    vertex -11.071058083755677 10.825000000000003 50.00000000000001
    vertex -11.071058083755677 10.825000000000003 45.00000000000001
  endloop
endfacet
facet normal -0.7933533402912348 -0.6087614290087213 -0.0
  outer loop
    vertex -11.333273811042197 11.166726188957805 50.00000000000001
    vertex -11.071058083755677 10.825000000000003 45.00000000000001
    vertex -11.071058083755677 10.825000000000003 50.00000000000001
  endloop
endfacet
facet normal -0.7933533402912348 -0.6087614290087213 -0.0
  outer loop
    vertex -11.071058083755677 10.825000000000003 45.00000000000001
    vertex -11.333273811042197 11.166726188957805 50.00000000000001
    vertex -11.333273811042197 11.166726188957805 45.00000000000001
  endloop
endfacet
facet normal -0.6087614290087233 -0.7933533402912333 -0.0
  outer loop
    vertex -11.333273811042197 11.166726188957805 50.00000000000001
    vertex -11.674999999999999 11.428941916244327 45.00000000000001
    vertex -11.333273811042197 11.166726188957805 45.00000000000001
  endloop
endfacet
facet normal -0.6087614290087233 -0.7933533402912333 -0.0
  outer loop
    vertex -11.674999999999999 11.428941916244327 45.00000000000001
    vertex -11.333273811042197 11.166726188957805 50.00000000000001
    vertex -11.674999999999999 11.428941916244327 50.00000000000001
  endloop
endfacet
facet normal -0.3826834323650883 -0.9238795325112875 -0.0
  outer loop
    vertex -11.674999999999999 11.428941916244327 50.00000000000001
    vertex -12.072948575580842 11.593777613376966 45.00000000000001
    vertex -11.674999999999999 11.428941916244327 45.00000000000001
  endloop
endfacet
facet normal -0.3826834323650883 -0.9238795325112875 -0.0
  outer loop
    vertex -12.072948575580842 11.593777613376966 45.00000000000001
    vertex -11.674999999999999 11.428941916244327 50.00000000000001
    vertex -12.072948575580842 11.593777613376966 50.00000000000001
  endloop
endfacet
facet normal -0.13052619222005132 -0.9914448613738106 -0.0
  outer loop
    vertex -12.072948575580842 11.593777613376966 50.00000000000001
    vertex -12.5 11.650000000000002 45.00000000000001
    vertex -12.072948575580842 11.593777613376966 45.00000000000001
  endloop
endfacet
facet normal -0.13052619222005132 -0.9914448613738106 -0.0
  outer loop
    vertex -12.5 11.650000000000002 45.00000000000001
    vertex -12.072948575580842 11.593777613376966 50.00000000000001
    vertex -12.5 11.650000000000002 50.00000000000001
  endloop
endfacet
facet normal 0.13052619222005132 -0.9914448613738106 -0.0
  outer loop
    vertex -12.5 11.650000000000002 50.00000000000001
    vertex -12.927051424419158 11.593777613376966 45.00000000000001
    vertex -12.5 11.650000000000002 45.00000000000001
  endloop
endfacet
facet normal 0.13052619222005132 -0.9914448613738106 -0.0
  outer loop
    vertex -12.927051424419158 11.593777613376966 45.00000000000001
    vertex -12.5 11.650000000000002 50.00000000000001
    vertex -12.927051424419158 11.593777613376966 50.00000000000001
  endloop
endfacet
facet normal 0.3826834323650923 -0.923879532511286 -0.0
  outer loop
    vertex -12.927051424419158 11.593777613376966 50.00000000000001
    vertex -13.324999999999998 11.428941916244327 45.00000000000001
    vertex -12.927051424419158 11.593777613376966 45.00000000000001
  endloop
endfacet
facet normal 0.3826834323650923 -0.923879532511286 -0.0
  outer loop
    vertex -13.324999999999998 11.428941916244327 45.00000000000001
    vertex -12.927051424419158 11.593777613376966 50.00000000000001
    vertex -13.324999999999998 11.428941916244327 50.00000000000001
  endloop
endfacet
facet normal 0.6087614290087181 -0.7933533402912372 -0.0
  outer loop
    vertex -13.324999999999998 11.428941916244327 50.00000000000001
    vertex -13.666726188957803 11.166726188957805 45.00000000000001
    vertex -13.324999999999998 11.428941916244327 45.00000000000001
  endloop
endfacet
facet normal 0.6087614290087181 -0.7933533402912372 -0.0
  outer loop
    vertex -13.666726188957803 11.166726188957805 45.00000000000001
    vertex -13.324999999999998 11.428941916244327 50.00000000000001
    vertex -13.666726188957803 11.166726188957805 50.00000000000001
  endloop
endfacet
facet normal 0.7933533402912348 -0.6087614290087213 -0.0
  outer loop
    vertex -13.666726188957803 11.166726188957805 45.00000000000001
    vertex -13.928941916244325 10.825000000000003 50.00000000000001
    vertex -13.928941916244325 10.825000000000003 45.00000000000001
  endloop
endfacet
facet normal 0.7933533402912348 -0.6087614290087213 -0.0
  outer loop
    vertex -13.928941916244325 10.825000000000003 50.00000000000001
    vertex -13.666726188957803 11.166726188957805 45.00000000000001
    vertex -13.666726188957803 11.166726188957805 50.00000000000001
  endloop
endfacet
facet normal 0.9238795325112875 -0.3826834323650883 -0.0
  outer loop
    vertex -13.928941916244325 10.825000000000003 45.00000000000001
    vertex -14.093777613376963 10.427051424419162 50.00000000000001
    vertex -14.093777613376963 10.427051424419162 45.00000000000001
  endloop
endfacet
facet normal 0.9238795325112875 -0.3826834323650883 -0.0
  outer loop
    vertex -14.093777613376963 10.427051424419162 50.00000000000001
    vertex -13.928941916244325 10.825000000000003 45.00000000000001
    vertex -13.928941916244325 10.825000000000003 50.00000000000001
  endloop
endfacet
facet normal 0.9914448613738106 -0.13052619222005132 -0.0
  outer loop
    vertex -14.093777613376963 10.427051424419162 45.00000000000001
    vertex -14.149999999999999 10.000000000000004 50.00000000000001
    vertex -14.149999999999999 10.000000000000004 45.00000000000001
  endloop
endfacet
facet normal 0.9914448613738106 -0.13052619222005132 -0.0
  outer loop
    vertex -14.149999999999999 10.000000000000004 50.00000000000001
    vertex -14.093777613376963 10.427051424419162 45.00000000000001
    vertex -14.093777613376963 10.427051424419162 50.00000000000001
  endloop
endfacet
facet normal 0.9914448613738105 0.13052619222005085 0.0
  outer loop
    vertex -14.149999999999999 10.000000000000004 45.00000000000001
    vertex -14.093777613376963 9.572948575580844 50.00000000000001
    vertex -14.093777613376963 9.572948575580844 45.00000000000001
  endloop
endfacet
facet normal 0.9914448613738105 0.13052619222005085 0.0
  outer loop
    vertex -14.093777613376963 9.572948575580844 50.00000000000001
    vertex -14.149999999999999 10.000000000000004 45.00000000000001
    vertex -14.149999999999999 10.000000000000004 50.00000000000001
  endloop
endfacet
facet normal 0.9238795325112871 0.38268343236508945 0.0
  outer loop
    vertex -14.093777613376963 9.572948575580844 45.00000000000001
    vertex -13.928941916244325 9.175000000000002 50.00000000000001
    vertex -13.928941916244325 9.175000000000002 45.00000000000001
  endloop
endfacet
facet normal 0.9238795325112871 0.38268343236508945 0.0
  outer loop
    vertex -13.928941916244325 9.175000000000002 50.00000000000001
    vertex -14.093777613376963 9.572948575580844 45.00000000000001
    vertex -14.093777613376963 9.572948575580844 50.00000000000001
  endloop
endfacet
facet normal 0.793353340291236 0.6087614290087198 0.0
  outer loop
    vertex -13.928941916244325 9.175000000000002 45.00000000000001
    vertex -13.666726188957803 8.833273811042199 50.00000000000001
    vertex -13.666726188957803 8.833273811042199 45.00000000000001
  endloop
endfacet
facet normal 0.793353340291236 0.6087614290087198 0.0
  outer loop
    vertex -13.666726188957803 8.833273811042199 50.00000000000001
    vertex -13.928941916244325 9.175000000000002 45.00000000000001
    vertex -13.928941916244325 9.175000000000002 50.00000000000001
  endloop
endfacet
facet normal 0.6087614290087181 0.7933533402912372 0.0
  outer loop
    vertex -13.666726188957803 8.833273811042199 50.00000000000001
    vertex -13.324999999999998 8.571058083755679 45.00000000000001
    vertex -13.666726188957803 8.833273811042199 45.00000000000001
  endloop
endfacet
facet normal 0.6087614290087181 0.7933533402912372 0.0
  outer loop
    vertex -13.324999999999998 8.571058083755679 45.00000000000001
    vertex -13.666726188957803 8.833273811042199 50.00000000000001
    vertex -13.324999999999998 8.571058083755679 50.00000000000001
  endloop
endfacet
facet normal 0.38268343236508945 0.9238795325112871 0.0
  outer loop
    vertex -13.324999999999998 8.571058083755679 50.00000000000001
    vertex -12.927051424419158 8.40622238662304 45.00000000000001
    vertex -13.324999999999998 8.571058083755679 45.00000000000001
  endloop
endfacet
facet normal 0.38268343236508945 0.9238795325112871 0.0
  outer loop
    vertex -12.927051424419158 8.40622238662304 45.00000000000001
    vertex -13.324999999999998 8.571058083755679 50.00000000000001
    vertex -12.927051424419158 8.40622238662304 50.00000000000001
  endloop
endfacet
facet normal 0.13052619222005132 0.9914448613738106 0.0
  outer loop
    vertex -12.927051424419158 8.40622238662304 50.00000000000001
    vertex -12.5 8.350000000000003 45.00000000000001
    vertex -12.927051424419158 8.40622238662304 45.00000000000001
  endloop
endfacet
facet normal 0.13052619222005132 0.9914448613738106 0.0
  outer loop
    vertex -12.5 8.350000000000003 45.00000000000001
    vertex -12.927051424419158 8.40622238662304 50.00000000000001
    vertex -12.5 8.350000000000003 50.00000000000001
  endloop
endfacet
facet normal -0.1305261922200541 0.9914448613738103 -0.0
  outer loop
    vertex -12.5 8.350000000000003 50.00000000000001
    vertex -12.07294857558084 8.40622238662304 45.00000000000001
    vertex -12.5 8.350000000000003 45.00000000000001
  endloop
endfacet
facet normal -0.1305261922200541 0.9914448613738103 -0.0
  outer loop
    vertex -12.07294857558084 8.40622238662304 45.00000000000001
    vertex -12.5 8.350000000000003 50.00000000000001
    vertex -12.07294857558084 8.40622238662304 50.00000000000001
  endloop
endfacet
facet normal -0.38268343236508945 0.9238795325112871 -0.0
  outer loop
    vertex -12.07294857558084 8.40622238662304 50.00000000000001
    vertex -11.674999999999999 8.57105808375568 45.00000000000001
    vertex -12.07294857558084 8.40622238662304 45.00000000000001
  endloop
endfacet
facet normal -0.38268343236508945 0.9238795325112871 -0.0
  outer loop
    vertex -11.674999999999999 8.57105808375568 45.00000000000001
    vertex -12.07294857558084 8.40622238662304 50.00000000000001
    vertex -11.674999999999999 8.57105808375568 50.00000000000001
  endloop
endfacet
facet normal -0.6087614290087198 0.793353340291236 -0.0
  outer loop
    vertex -11.674999999999999 8.57105808375568 50.00000000000001
    vertex -11.333273811042195 8.8332738110422 45.00000000000001
    vertex -11.674999999999999 8.57105808375568 45.00000000000001
  endloop
endfacet
facet normal -0.6087614290087198 0.793353340291236 -0.0
  outer loop
    vertex -11.333273811042195 8.8332738110422 45.00000000000001
    vertex -11.674999999999999 8.57105808375568 50.00000000000001
    vertex -11.333273811042195 8.8332738110422 50.00000000000001
  endloop
endfacet
facet normal -0.7933533402912348 0.6087614290087213 -0.0
  outer loop
    vertex -11.071058083755675 9.175000000000002 50.00000000000001
    vertex -11.333273811042195 8.8332738110422 45.00000000000001
    vertex -11.333273811042195 8.8332738110422 50.00000000000001
  endloop
endfacet
facet normal -0.7933533402912348 0.6087614290087213 -0.0
  outer loop
    vertex -11.333273811042195 8.8332738110422 45.00000000000001
    vertex -11.071058083755675 9.175000000000002 50.00000000000001
    vertex -11.071058083755675 9.175000000000002 45.00000000000001
  endloop
endfacet
facet normal 0.1305261922200577 0.9914448613738096 0.0
  outer loop
    vertex 100.07294857558085 8.406222386623043 50.0
    vertex 100.50000000000001 8.350000000000003 44.999999999999986
    vertex 100.07294857558085 8.406222386623043 44.999999999999986
  endloop
endfacet
facet normal 0.1305261922200577 0.9914448613738096 0.0
  outer loop
    vertex 100.50000000000001 8.350000000000003 44.999999999999986
    vertex 100.07294857558085 8.406222386623043 50.0
    vertex 100.50000000000001 8.350000000000003 50.0
  endloop
endfacet
facet normal -0.13052619222004808 0.9914448613738109 -0.0
  outer loop
    vertex 100.50000000000001 8.350000000000003 50.0
    vertex 100.92705142441916 8.406222386623039 44.999999999999986
    vertex 100.50000000000001 8.350000000000003 44.999999999999986
  endloop
endfacet
facet normal -0.13052619222004808 0.9914448613738109 -0.0
  outer loop
    vertex 100.92705142441916 8.406222386623039 44.999999999999986
    vertex 100.50000000000001 8.350000000000003 50.0
    vertex 100.92705142441916 8.406222386623039 50.0
  endloop
endfacet
facet normal -0.3826834323650819 0.92387953251129 -0.0
  outer loop
    vertex 100.92705142441916 8.406222386623039 50.0
    vertex 101.32500000000002 8.571058083755675 44.999999999999986
    vertex 100.92705142441916 8.406222386623039 44.999999999999986
  endloop
endfacet
facet normal -0.3826834323650819 0.92387953251129 -0.0
  outer loop
    vertex 101.32500000000002 8.571058083755675 44.999999999999986
    vertex 100.92705142441916 8.406222386623039 50.0
    vertex 101.32500000000002 8.571058083755675 50.0
  endloop
endfacet
facet normal -0.6087614290087077 0.7933533402912452 -0.0
  outer loop
    vertex 101.32500000000002 8.571058083755675 50.0
    vertex 101.66672618895782 8.833273811042194 44.999999999999986
    vertex 101.32500000000002 8.571058083755675 44.999999999999986
  endloop
endfacet
facet normal -0.6087614290087077 0.7933533402912452 -0.0
  outer loop
    vertex 101.66672618895782 8.833273811042194 44.999999999999986
    vertex 101.32500000000002 8.571058083755675 50.0
    vertex 101.66672618895782 8.833273811042194 50.0
  endloop
endfacet
facet normal -0.7933533402912474 0.6087614290087048 -0.0
  outer loop
    vertex 101.92894191624433 9.174999999999995 50.0
    vertex 101.66672618895782 8.833273811042194 44.999999999999986
    vertex 101.66672618895782 8.833273811042194 50.0
  endloop
endfacet
facet normal -0.7933533402912474 0.6087614290087048 -0.0
  outer loop
    vertex 101.66672618895782 8.833273811042194 44.999999999999986
    vertex 101.92894191624433 9.174999999999995 50.0
    vertex 101.92894191624433 9.174999999999995 44.999999999999986
  endloop
endfacet
facet normal -0.9238795325112779 0.3826834323651118 -0.0
  outer loop
    vertex 102.09377761337699 9.572948575580837 50.0
    vertex 101.92894191624433 9.174999999999995 44.999999999999986
    vertex 101.92894191624433 9.174999999999995 50.0
  endloop
endfacet
facet normal -0.9238795325112779 0.3826834323651118 -0.0
  outer loop
    vertex 101.92894191624433 9.174999999999995 44.999999999999986
    vertex 102.09377761337699 9.572948575580837 50.0
    vertex 102.09377761337699 9.572948575580837 44.999999999999986
  endloop
endfacet
facet normal -0.991444861373808 0.1305261922200706 -0.0
  outer loop
    vertex 102.15000000000003 9.999999999999995 50.0
    vertex 102.09377761337699 9.572948575580837 44.999999999999986
    vertex 102.09377761337699 9.572948575580837 50.0
  endloop
endfacet
facet normal -0.991444861373808 0.1305261922200706 -0.0
  outer loop
    vertex 102.09377761337699 9.572948575580837 44.999999999999986
    vertex 102.15000000000003 9.999999999999995 50.0
    vertex 102.15000000000003 9.999999999999995 44.999999999999986
  endloop
endfacet
facet normal -0.991444861373808 -0.13052619222007017 -0.0
  outer loop
    vertex 102.09377761337699 10.427051424419155 50.0
    vertex 102.15000000000003 9.999999999999995 44.999999999999986
    vertex 102.15000000000003 9.999999999999995 50.0
  endloop
endfacet
facet normal -0.991444861373808 -0.13052619222007017 -0.0
  outer loop
    vertex 102.15000000000003 9.999999999999995 44.999999999999986
    vertex 102.09377761337699 10.427051424419155 50.0
    vertex 102.09377761337699 10.427051424419155 44.999999999999986
  endloop
endfacet
facet normal -0.9238795325112968 -0.38268343236506597 -0.0
  outer loop
    vertex 101.92894191624436 10.824999999999996 50.0
    vertex 102.09377761337699 10.427051424419155 44.999999999999986
    vertex 102.09377761337699 10.427051424419155 50.0
  endloop
endfacet
facet normal -0.9238795325112968 -0.38268343236506597 -0.0
  outer loop
    vertex 102.09377761337699 10.427051424419155 44.999999999999986
    vertex 101.92894191624436 10.824999999999996 50.0
    vertex 101.92894191624436 10.824999999999996 44.999999999999986
  endloop
endfacet
facet normal -0.7933533402912234 -0.6087614290087362 -0.0
  outer loop
    vertex 101.66672618895782 11.1667261889578 50.0
    vertex 101.92894191624436 10.824999999999996 44.999999999999986
    vertex 101.92894191624436 10.824999999999996 50.0
  endloop
endfacet
facet normal -0.7933533402912234 -0.6087614290087362 -0.0
  outer loop
    vertex 101.92894191624436 10.824999999999996 44.999999999999986
    vertex 101.66672618895782 11.1667261889578 50.0
    vertex 101.66672618895782 11.1667261889578 44.999999999999986
  endloop
endfacet
facet normal -0.6087614290087265 -0.7933533402912307 -0.0
  outer loop
    vertex 101.66672618895782 11.1667261889578 50.0
    vertex 101.32500000000002 11.428941916244321 44.999999999999986
    vertex 101.66672618895782 11.1667261889578 44.999999999999986
  endloop
endfacet
facet normal -0.6087614290087265 -0.7933533402912307 -0.0
  outer loop
    vertex 101.32500000000002 11.428941916244321 44.999999999999986
    vertex 101.66672618895782 11.1667261889578 50.0
    vertex 101.32500000000002 11.428941916244321 50.0
  endloop
endfacet
facet normal -0.3826834323650996 -0.9238795325112827 -0.0
  outer loop
    vertex 101.32500000000002 11.428941916244321 50.0
    vertex 100.92705142441919 11.593777613376963 44.999999999999986
    vertex 101.32500000000002 11.428941916244321 44.999999999999986
  endloop
endfacet
facet normal -0.3826834323650996 -0.9238795325112827 -0.0
  outer loop
    vertex 100.92705142441919 11.593777613376963 44.999999999999986
    vertex 101.32500000000002 11.428941916244321 50.0
    vertex 100.92705142441919 11.593777613376963 50.0
  endloop
endfacet
facet normal -0.1305261922200577 -0.9914448613738096 -0.0
  outer loop
    vertex 100.92705142441919 11.593777613376963 50.0
    vertex 100.50000000000003 11.650000000000002 44.999999999999986
    vertex 100.92705142441919 11.593777613376963 44.999999999999986
  endloop
endfacet
facet normal -0.1305261922200577 -0.9914448613738096 -0.0
  outer loop
    vertex 100.50000000000003 11.650000000000002 44.999999999999986
    vertex 100.92705142441919 11.593777613376963 50.0
    vertex 100.50000000000003 11.650000000000002 50.0
  endloop
endfacet
facet normal 0.13052619222004808 -0.9914448613738109 -0.0
  outer loop
    vertex 100.50000000000003 11.650000000000002 50.0
    vertex 100.07294857558087 11.593777613376966 44.999999999999986
    vertex 100.50000000000003 11.650000000000002 44.999999999999986
  endloop
endfacet
facet normal 0.13052619222004808 -0.9914448613738109 -0.0
  outer loop
    vertex 100.07294857558087 11.593777613376966 44.999999999999986
    vertex 100.50000000000003 11.650000000000002 50.0
    vertex 100.07294857558087 11.593777613376966 50.0
  endloop
endfacet
facet normal 0.38268343236507923 -0.9238795325112913 -0.0
  outer loop
    vertex 100.07294857558087 11.593777613376966 50.0
    vertex 99.67500000000003 11.428941916244332 44.999999999999986
    vertex 100.07294857558087 11.593777613376966 44.999999999999986
  endloop
endfacet
facet normal 0.38268343236507923 -0.9238795325112913 -0.0
  outer loop
    vertex 99.67500000000003 11.428941916244332 44.999999999999986
    vertex 100.07294857558087 11.593777613376966 50.0
    vertex 99.67500000000003 11.428941916244332 50.0
  endloop
endfacet
facet normal 0.6087614290087223 -0.7933533402912338 -0.0
  outer loop
    vertex 99.67500000000003 11.428941916244332 50.0
    vertex 99.33327381104223 11.166726188957812 44.999999999999986
    vertex 99.67500000000003 11.428941916244332 44.999999999999986
  endloop
endfacet
facet normal 0.6087614290087223 -0.7933533402912338 -0.0
  outer loop
    vertex 99.33327381104223 11.166726188957812 44.999999999999986
    vertex 99.67500000000003 11.428941916244332 50.0
    vertex 99.33327381104223 11.166726188957812 50.0
  endloop
endfacet
facet normal 0.7933533402912208 -0.6087614290087393 -0.0
  outer loop
    vertex 99.33327381104223 11.166726188957812 44.999999999999986
    vertex 99.07105808375569 10.825000000000012 50.0
    vertex 99.07105808375569 10.825000000000012 44.999999999999986
  endloop
endfacet
facet normal 0.7933533402912208 -0.6087614290087393 -0.0
  outer loop
    vertex 99.07105808375569 10.825000000000012 50.0
    vertex 99.33327381104223 11.166726188957812 44.999999999999986
    vertex 99.33327381104223 11.166726188957812 50.0
  endloop
endfacet
facet normal 0.9238795325112871 -0.38268343236508945 -0.0
  outer loop
    vertex 99.07105808375569 10.825000000000012 44.999999999999986
    vertex 98.90622238662306 10.42705142441917 50.0
    vertex 98.90622238662306 10.42705142441917 44.999999999999986
  endloop
endfacet
facet normal 0.9238795325112871 -0.38268343236508945 -0.0
  outer loop
    vertex 98.90622238662306 10.42705142441917 50.0
    vertex 99.07105808375569 10.825000000000012 44.999999999999986
    vertex 99.07105808375569 10.825000000000012 50.0
  endloop
endfacet
facet normal 0.9914448613738113 -0.13052619222004486 -0.0
  outer loop
    vertex 98.90622238662306 10.42705142441917 44.999999999999986
    vertex 98.85000000000002 10.000000000000012 50.0
    vertex 98.85000000000002 10.000000000000012 44.999999999999986
  endloop
endfacet
facet normal 0.9914448613738113 -0.13052619222004486 -0.0
  outer loop
    vertex 98.85000000000002 10.000000000000012 50.0
    vertex 98.90622238662306 10.42705142441917 44.999999999999986
    vertex 98.90622238662306 10.42705142441917 50.0
  endloop
endfacet
facet normal 0.9914448613738115 0.13052619222004444 0.0
  outer loop
    vertex 98.85000000000002 10.000000000000012 44.999999999999986
    vertex 98.90622238662306 9.572948575580853 50.0
    vertex 98.90622238662306 9.572948575580853 44.999999999999986
  endloop
endfacet
facet normal 0.9914448613738115 0.13052619222004444 0.0
  outer loop
    vertex 98.90622238662306 9.572948575580853 50.0
    vertex 98.85000000000002 10.000000000000012 44.999999999999986
    vertex 98.85000000000002 10.000000000000012 50.0
  endloop
endfacet
facet normal 0.9238795325112875 0.3826834323650883 0.0
  outer loop
    vertex 98.90622238662306 9.572948575580853 44.999999999999986
    vertex 99.07105808375569 9.175000000000011 50.0
    vertex 99.07105808375569 9.175000000000011 44.999999999999986
  endloop
endfacet
facet normal 0.9238795325112875 0.3826834323650883 0.0
  outer loop
    vertex 99.07105808375569 9.175000000000011 50.0
    vertex 98.90622238662306 9.572948575580853 44.999999999999986
    vertex 98.90622238662306 9.572948575580853 50.0
  endloop
endfacet
facet normal 0.7933533402912372 0.6087614290087181 0.0
  outer loop
    vertex 99.07105808375569 9.175000000000011 44.999999999999986
    vertex 99.33327381104222 8.833273811042206 50.0
    vertex 99.33327381104222 8.833273811042206 44.999999999999986
  endloop
endfacet
facet normal 0.7933533402912372 0.6087614290087181 0.0
  outer loop
    vertex 99.33327381104222 8.833273811042206 50.0
    vertex 99.07105808375569 9.175000000000011 44.999999999999986
    vertex 99.07105808375569 9.175000000000011 50.0
  endloop
endfacet
facet normal 0.6087614290087265 0.7933533402912307 0.0
  outer loop
    vertex 99.33327381104222 8.833273811042206 50.0
    vertex 99.67500000000001 8.571058083755684 44.999999999999986
    vertex 99.33327381104222 8.833273811042206 44.999999999999986
  endloop
endfacet
facet normal 0.6087614290087265 0.7933533402912307 0.0
  outer loop
    vertex 99.67500000000001 8.571058083755684 44.999999999999986
    vertex 99.33327381104222 8.833273811042206 50.0
    vertex 99.67500000000001 8.571058083755684 50.0
  endloop
endfacet
facet normal 0.3826834323650996 0.9238795325112827 0.0
  outer loop
    vertex 99.67500000000001 8.571058083755684 50.0
    vertex 100.07294857558085 8.406222386623043 44.999999999999986
    vertex 99.67500000000001 8.571058083755684 44.999999999999986
  endloop
endfacet
facet normal 0.3826834323650996 0.9238795325112827 0.0
  outer loop
    vertex 100.07294857558085 8.406222386623043 44.999999999999986
    vertex 99.67500000000001 8.571058083755684 50.0
    vertex 100.07294857558085 8.406222386623043 50.0
  endloop
endfacet
endsolid Power_Bracket
