solid spacer
facet normal 0.0 0.0 -1.0
  outer loop
    vertex -1.7324116139070411 1.7324116139070413 0.0
    vertex -1.5454813220625092 0.4141104721640337 0.0
    vertex -1.5999999999999999 1.9594348786357655e-16 0.0
  endloop
endfacet
facet normal 0.0 0.0 -1.0
  outer loop
    vertex -1.5454813220625092 0.4141104721640337 0.0
    vertex -1.7324116139070411 1.7324116139070413 0.0
    vertex -1.2249999999999994 2.121762239271875 0.0
  endloop
endfacet
facet normal 0.0 0.0 -1.0
  outer loop
    vertex -1.5454813220625092 0.4141104721640337 0.0
    vertex -1.2249999999999994 2.121762239271875 0.0
    vertex -1.3856406460551016 0.8000000000000006 0.0
  endloop
endfacet
facet normal 0.0 0.0 -1.0
  outer loop
    vertex -1.3856406460551016 0.8000000000000006 0.0
    vertex -1.2249999999999994 2.121762239271875 0.0
    vertex -1.131370849898476 1.1313708498984762 0.0
  endloop
endfacet
facet normal 0.0 0.0 -1.0
  outer loop
    vertex -1.131370849898476 1.1313708498984762 0.0
    vertex -1.2249999999999994 2.121762239271875 0.0
    vertex -0.6341066605011755 2.3665182744082176 0.0
  endloop
endfacet
facet normal 0.0 0.0 -1.0
  outer loop
    vertex -1.131370849898476 1.1313708498984762 0.0
    vertex -0.6341066605011755 2.3665182744082176 0.0
    vertex -0.7999999999999996 1.3856406460551023 0.0
  endloop
endfacet
facet normal 0.0 0.0 -1.0
  outer loop
    vertex -0.7999999999999996 1.3856406460551023 0.0
    vertex -0.6341066605011755 2.3665182744082176 0.0
    vertex -0.41411047216403296 1.5454813220625094 0.0
  endloop
endfacet
facet normal 0.0 0.0 -1.0
  outer loop
    vertex -0.41411047216403296 1.5454813220625094 0.0
    vertex -0.6341066605011755 2.3665182744082176 0.0
    vertex 1.5001923289555074e-16 2.45 0.0
  endloop
endfacet
facet normal 0.0 0.0 -1.0
  outer loop
    vertex -0.41411047216403296 1.5454813220625094 0.0
    vertex 1.5001923289555074e-16 2.45 0.0
    vertex 9.797174393178826e-17 1.6000000000000003 0.0
  endloop
endfacet
facet normal 0.0 0.0 -1.0
  outer loop
    vertex 9.797174393178826e-17 1.6000000000000003 0.0
    vertex 1.5001923289555074e-16 2.45 0.0
    vertex 0.4141104721640335 1.5454813220625094 0.0
  endloop
endfacet
facet normal 0.0 0.0 -1.0
  outer loop
    vertex 0.4141104721640335 1.5454813220625094 0.0
    vertex 1.5001923289555074e-16 2.45 0.0
    vertex 0.6341066605011763 2.366518274408217 0.0
  endloop
endfacet
facet normal 0.0 0.0 -1.0
  outer loop
    vertex 0.4141104721640335 1.5454813220625094 0.0
    vertex 0.6341066605011763 2.366518274408217 0.0
    vertex 0.8000000000000002 1.3856406460551018 0.0
  endloop
endfacet
facet normal 0.0 0.0 -1.0
  outer loop
    vertex 0.8000000000000002 1.3856406460551018 0.0
    vertex 0.6341066605011763 2.366518274408217 0.0
    vertex 1.2250000000000003 2.1217622392718747 0.0
  endloop
endfacet
facet normal 0.0 0.0 -1.0
  outer loop
    vertex 0.8000000000000002 1.3856406460551018 0.0
    vertex 1.2250000000000003 2.1217622392718747 0.0
    vertex 1.1313708498984762 1.1313708498984762 0.0
  endloop
endfacet
facet normal 0.0 0.0 -1.0
  outer loop
    vertex 1.1313708498984762 1.1313708498984762 0.0
    vertex 1.2250000000000003 2.1217622392718747 0.0
    vertex 1.3856406460551018 0.7999999999999999 0.0
  endloop
endfacet
facet normal 0.0 0.0 -1.0
  outer loop
    vertex 1.3856406460551018 0.7999999999999999 0.0
    vertex 1.2250000000000003 2.1217622392718747 0.0
    vertex 1.7324116139070411 1.7324116139070413 0.0
  endloop
endfacet
facet normal 0.0 0.0 -1.0
  outer loop
    vertex 1.3856406460551018 0.7999999999999999 0.0
    vertex 1.7324116139070411 1.7324116139070413 0.0
    vertex 1.5454813220625094 0.41411047216403324 0.0
  endloop
endfacet
facet normal 0.0 0.0 -1.0
  outer loop
    vertex 1.5454813220625094 0.41411047216403324 0.0
    vertex 1.7324116139070411 1.7324116139070413 0.0
    vertex 1.5999999999999999 0.0 0.0
  endloop
endfacet
facet normal 0.0 0.0 -1.0
  outer loop
    vertex -2.3665182744082167 0.6341066605011765 0.0
    vertex -2.3665182744082176 -0.6341066605011748 0.0
    vertex -2.4499999999999997 3.0003846579110154e-16 0.0
  endloop
endfacet
facet normal 0.0 0.0 -1.0
  outer loop
    vertex -2.3665182744082176 -0.6341066605011748 0.0
    vertex -2.3665182744082167 0.6341066605011765 0.0
    vertex -2.1217622392718747 -1.2249999999999994 0.0
  endloop
endfacet
facet normal 0.0 0.0 -1.0
  outer loop
    vertex -2.1217622392718747 -1.2249999999999994 0.0
    vertex -2.3665182744082167 0.6341066605011765 0.0
    vertex -2.1217622392718742 1.225000000000001 0.0
  endloop
endfacet
facet normal 0.0 0.0 -1.0
  outer loop
    vertex -2.1217622392718747 -1.2249999999999994 0.0
    vertex -2.1217622392718742 1.225000000000001 0.0
    vertex -1.7324116139070422 -1.7324116139070405 0.0
  endloop
endfacet
facet normal 0.0 0.0 -1.0
  outer loop
    vertex -1.7324116139070422 -1.7324116139070405 0.0
    vertex -2.1217622392718742 1.225000000000001 0.0
    vertex -1.7324116139070411 1.7324116139070413 0.0
  endloop
endfacet
facet normal 0.0 0.0 -1.0
  outer loop
    vertex -1.7324116139070422 -1.7324116139070405 0.0
    vertex -1.7324116139070411 1.7324116139070413 0.0
    vertex -1.5999999999999999 1.9594348786357655e-16 0.0
  endloop
endfacet
facet normal 0.0 0.0 -1.0
  outer loop
    vertex -1.7324116139070422 -1.7324116139070405 0.0
    vertex -1.5999999999999999 1.9594348786357655e-16 0.0
    vertex -1.5454813220625094 -0.41411047216403263 0.0
  endloop
endfacet
facet normal 0.0 0.0 -1.0
  outer loop
    vertex -1.7324116139070422 -1.7324116139070405 0.0
    vertex -1.5454813220625094 -0.41411047216403263 0.0
    vertex -1.225000000000001 -2.1217622392718742 0.0
  endloop
endfacet
facet normal 0.0 0.0 -1.0
  outer loop
    vertex -1.225000000000001 -2.1217622392718742 0.0
    vertex -1.5454813220625094 -0.41411047216403263 0.0
    vertex -1.385640646055102 -0.7999999999999998 0.0
  endloop
endfacet
facet normal 0.0 0.0 -1.0
  outer loop
    vertex -1.225000000000001 -2.1217622392718742 0.0
    vertex -1.385640646055102 -0.7999999999999998 0.0
    vertex -1.1313708498984767 -1.1313708498984756 0.0
  endloop
endfacet
facet normal 0.0 0.0 -1.0
  outer loop
    vertex -1.225000000000001 -2.1217622392718742 0.0
    vertex -1.1313708498984767 -1.1313708498984756 0.0
    vertex -0.6341066605011775 -2.3665182744082167 0.0
  endloop
endfacet
facet normal 0.0 0.0 -1.0
  outer loop
    vertex -0.6341066605011775 -2.3665182744082167 0.0
    vertex -1.1313708498984767 -1.1313708498984756 0.0
    vertex -0.8000000000000006 -1.3856406460551016 0.0
  endloop
endfacet
facet normal 0.0 0.0 -1.0
  outer loop
    vertex -0.6341066605011775 -2.3665182744082167 0.0
    vertex -0.8000000000000006 -1.3856406460551016 0.0
    vertex -0.4141104721640343 -1.5454813220625092 0.0
  endloop
endfacet
facet normal 0.0 0.0 -1.0
  outer loop
    vertex -0.6341066605011775 -2.3665182744082167 0.0
    vertex -0.4141104721640343 -1.5454813220625092 0.0
    vertex -4.500576986866523e-16 -2.45 0.0
  endloop
endfacet
facet normal 0.0 0.0 -1.0
  outer loop
    vertex -4.500576986866523e-16 -2.45 0.0
    vertex -0.4141104721640343 -1.5454813220625092 0.0
    vertex -2.9391523179536476e-16 -1.6000000000000003 0.0
  endloop
endfacet
facet normal 0.0 0.0 -1.0
  outer loop
    vertex -4.500576986866523e-16 -2.45 0.0
    vertex -2.9391523179536476e-16 -1.6000000000000003 0.0
    vertex 0.6341066605011747 -2.3665182744082176 0.0
  endloop
endfacet
facet normal 0.0 0.0 -1.0
  outer loop
    vertex 0.6341066605011747 -2.3665182744082176 0.0
    vertex -2.9391523179536476e-16 -1.6000000000000003 0.0
    vertex 0.41411047216403246 -1.5454813220625097 0.0
  endloop
endfacet
facet normal 0.0 0.0 -1.0
  outer loop
    vertex 0.6341066605011747 -2.3665182744082176 0.0
    vertex 0.41411047216403246 -1.5454813220625097 0.0
    vertex 0.7999999999999987 -1.3856406460551025 0.0
  endloop
endfacet
facet normal 0.0 0.0 -1.0
  outer loop
    vertex 0.6341066605011747 -2.3665182744082176 0.0
    vertex 0.7999999999999987 -1.3856406460551025 0.0
    vertex 1.224999999999998 -2.121762239271876 0.0
  endloop
endfacet
facet normal 0.0 0.0 -1.0
  outer loop
    vertex 1.224999999999998 -2.121762239271876 0.0
    vertex 0.7999999999999987 -1.3856406460551025 0.0
    vertex 1.131370849898476 -1.1313708498984765 0.0
  endloop
endfacet
facet normal 0.0 0.0 -1.0
  outer loop
    vertex 1.224999999999998 -2.121762239271876 0.0
    vertex 1.131370849898476 -1.1313708498984765 0.0
    vertex 1.3856406460551014 -0.8000000000000008 0.0
  endloop
endfacet
facet normal 0.0 0.0 -1.0
  outer loop
    vertex 1.224999999999998 -2.121762239271876 0.0
    vertex 1.3856406460551014 -0.8000000000000008 0.0
    vertex 1.7324116139070411 -1.7324116139070418 0.0
  endloop
endfacet
facet normal 0.0 0.0 -1.0
  outer loop
    vertex 1.7324116139070411 -1.7324116139070418 0.0
    vertex 1.3856406460551014 -0.8000000000000008 0.0
    vertex 1.545481322062509 -0.41411047216403446 0.0
  endloop
endfacet
facet normal 0.0 0.0 -1.0
  outer loop
    vertex 1.7324116139070411 -1.7324116139070418 0.0
    vertex 1.545481322062509 -0.41411047216403446 0.0
    vertex 1.5999999999999999 0.0 0.0
  endloop
endfacet
facet normal 0.0 0.0 -1.0
  outer loop
    vertex 1.7324116139070411 -1.7324116139070418 0.0
    vertex 1.5999999999999999 0.0 0.0
    vertex 1.7324116139070411 1.7324116139070413 0.0
  endloop
endfacet
facet normal 0.0 0.0 -1.0
  outer loop
    vertex 1.7324116139070411 -1.7324116139070418 0.0
    vertex 1.7324116139070411 1.7324116139070413 0.0
    vertex 2.1217622392718742 1.2249999999999999 0.0
  endloop
endfacet
facet normal 0.0 0.0 -1.0
  outer loop
    vertex 1.7324116139070411 -1.7324116139070418 0.0
    vertex 2.1217622392718742 1.2249999999999999 0.0
    vertex 2.121762239271874 -1.2250000000000012 0.0
  endloop
endfacet
facet normal 0.0 0.0 -1.0
  outer loop
    vertex 2.121762239271874 -1.2250000000000012 0.0
    vertex 2.1217622392718742 1.2249999999999999 0.0
    vertex 2.3665182744082163 -0.6341066605011777 0.0
  endloop
endfacet
facet normal 0.0 0.0 -1.0
  outer loop
    vertex 2.3665182744082163 -0.6341066605011777 0.0
    vertex 2.1217622392718742 1.2249999999999999 0.0
    vertex 2.366518274408217 0.6341066605011758 0.0
  endloop
endfacet
facet normal 0.0 0.0 -1.0
  outer loop
    vertex 2.3665182744082163 -0.6341066605011777 0.0
    vertex 2.366518274408217 0.6341066605011758 0.0
    vertex 2.4499999999999997 0.0 0.0
  endloop
endfacet
facet normal -0.0 -0.0 1.0
  outer loop
    vertex -2.3665182744082176 -0.6341066605011748 7.999999999999999
    vertex -2.3665182744082167 0.6341066605011765 7.999999999999999
    vertex -2.4499999999999997 3.0003846579110154e-16 7.999999999999999
  endloop
endfacet
facet normal -0.0 -0.0 1.0
  outer loop
    vertex -2.3665182744082167 0.6341066605011765 7.999999999999999
    vertex -2.3665182744082176 -0.6341066605011748 7.999999999999999
    vertex -2.1217622392718747 -1.2249999999999994 7.999999999999999
  endloop
endfacet
facet normal -0.0 -0.0 1.0
  outer loop
    vertex -2.3665182744082167 0.6341066605011765 7.999999999999999
    vertex -2.1217622392718747 -1.2249999999999994 7.999999999999999
    vertex -2.1217622392718742 1.225000000000001 7.999999999999999
  endloop
endfacet
facet normal -0.0 -0.0 1.0
  outer loop
    vertex -2.1217622392718742 1.225000000000001 7.999999999999999
    vertex -2.1217622392718747 -1.2249999999999994 7.999999999999999
    vertex -1.7324116139070422 -1.7324116139070405 7.999999999999999
  endloop
endfacet
facet normal -0.0 -0.0 1.0
  outer loop
    vertex -2.1217622392718742 1.225000000000001 7.999999999999999
    vertex -1.7324116139070422 -1.7324116139070405 7.999999999999999
    vertex -1.7324116139070411 1.7324116139070413 7.999999999999999
  endloop
endfacet
facet normal -0.0 -0.0 1.0
  outer loop
    vertex -1.7324116139070411 1.7324116139070413 7.999999999999999
    vertex -1.7324116139070422 -1.7324116139070405 7.999999999999999
    vertex -1.5999999999999999 1.9594348786357655e-16 7.999999999999999
  endloop
endfacet
facet normal -0.0 -0.0 1.0
  outer loop
    vertex -1.5999999999999999 1.9594348786357655e-16 7.999999999999999
    vertex -1.7324116139070422 -1.7324116139070405 7.999999999999999
    vertex -1.5454813220625094 -0.41411047216403263 7.999999999999999
  endloop
endfacet
facet normal -0.0 -0.0 1.0
  outer loop
    vertex -1.5454813220625094 -0.41411047216403263 7.999999999999999
    vertex -1.7324116139070422 -1.7324116139070405 7.999999999999999
    vertex -1.225000000000001 -2.1217622392718742 7.999999999999999
  endloop
endfacet
facet normal -0.0 -0.0 1.0
  outer loop
    vertex -1.5454813220625094 -0.41411047216403263 7.999999999999999
    vertex -1.225000000000001 -2.1217622392718742 7.999999999999999
    vertex -1.385640646055102 -0.7999999999999998 7.999999999999999
  endloop
endfacet
facet normal -0.0 -0.0 1.0
  outer loop
    vertex -1.385640646055102 -0.7999999999999998 7.999999999999999
    vertex -1.225000000000001 -2.1217622392718742 7.999999999999999
    vertex -1.1313708498984767 -1.1313708498984756 7.999999999999999
  endloop
endfacet
facet normal -0.0 -0.0 1.0
  outer loop
    vertex -1.1313708498984767 -1.1313708498984756 7.999999999999999
    vertex -1.225000000000001 -2.1217622392718742 7.999999999999999
    vertex -0.6341066605011775 -2.3665182744082167 7.999999999999999
  endloop
endfacet
facet normal -0.0 -0.0 1.0
  outer loop
    vertex -1.1313708498984767 -1.1313708498984756 7.999999999999999
    vertex -0.6341066605011775 -2.3665182744082167 7.999999999999999
    vertex -0.8000000000000006 -1.3856406460551016 7.999999999999999
  endloop
endfacet
facet normal -0.0 -0.0 1.0
  outer loop
    vertex -0.8000000000000006 -1.3856406460551016 7.999999999999999
    vertex -0.6341066605011775 -2.3665182744082167 7.999999999999999
    vertex -0.4141104721640343 -1.5454813220625092 7.999999999999999
  endloop
endfacet
facet normal -0.0 -0.0 1.0
  outer loop
    vertex -0.4141104721640343 -1.5454813220625092 7.999999999999999
    vertex -0.6341066605011775 -2.3665182744082167 7.999999999999999
    vertex -4.500576986866523e-16 -2.45 7.999999999999999
  endloop
endfacet
facet normal -0.0 -0.0 1.0
  outer loop
    vertex -0.4141104721640343 -1.5454813220625092 7.999999999999999
    vertex -4.500576986866523e-16 -2.45 7.999999999999999
    vertex -2.9391523179536476e-16 -1.6000000000000003 7.999999999999999
  endloop
endfacet
facet normal -0.0 -0.0 1.0
  outer loop
    vertex -2.9391523179536476e-16 -1.6000000000000003 7.999999999999999
    vertex -4.500576986866523e-16 -2.45 7.999999999999999
    vertex 0.6341066605011747 -2.3665182744082176 7.999999999999999
  endloop
endfacet
facet normal -0.0 -0.0 1.0
  outer loop
    vertex -2.9391523179536476e-16 -1.6000000000000003 7.999999999999999
    vertex 0.6341066605011747 -2.3665182744082176 7.999999999999999
    vertex 0.41411047216403246 -1.5454813220625097 7.999999999999999
  endloop
endfacet
facet normal -0.0 -0.0 1.0
  outer loop
    vertex 0.41411047216403246 -1.5454813220625097 7.999999999999999
    vertex 0.6341066605011747 -2.3665182744082176 7.999999999999999
    vertex 0.7999999999999987 -1.3856406460551025 7.999999999999999
  endloop
endfacet
facet normal -0.0 -0.0 1.0
  outer loop
    vertex 0.7999999999999987 -1.3856406460551025 7.999999999999999
    vertex 0.6341066605011747 -2.3665182744082176 7.999999999999999
    vertex 1.224999999999998 -2.121762239271876 7.999999999999999
  endloop
endfacet
facet normal -0.0 -0.0 1.0
  outer loop
    vertex 0.7999999999999987 -1.3856406460551025 7.999999999999999
    vertex 1.224999999999998 -2.121762239271876 7.999999999999999
    vertex 1.131370849898476 -1.1313708498984765 7.999999999999999
  endloop
endfacet
facet normal -0.0 -0.0 1.0
  outer loop
    vertex 1.131370849898476 -1.1313708498984765 7.999999999999999
    vertex 1.224999999999998 -2.121762239271876 7.999999999999999
    vertex 1.3856406460551014 -0.8000000000000008 7.999999999999999
  endloop
endfacet
facet normal -0.0 -0.0 1.0
  outer loop
    vertex 1.3856406460551014 -0.8000000000000008 7.999999999999999
    vertex 1.224999999999998 -2.121762239271876 7.999999999999999
    vertex 1.7324116139070411 -1.7324116139070418 7.999999999999999
  endloop
endfacet
facet normal -0.0 -0.0 1.0
  outer loop
    vertex 1.3856406460551014 -0.8000000000000008 7.999999999999999
    vertex 1.7324116139070411 -1.7324116139070418 7.999999999999999
    vertex 1.545481322062509 -0.41411047216403446 7.999999999999999
  endloop
endfacet
facet normal -0.0 -0.0 1.0
  outer loop
    vertex 1.545481322062509 -0.41411047216403446 7.999999999999999
    vertex 1.7324116139070411 -1.7324116139070418 7.999999999999999
    vertex 1.5999999999999999 0.0 7.999999999999999
  endloop
endfacet
facet normal -0.0 -0.0 1.0
  outer loop
    vertex -1.7324116139070411 1.7324116139070413 7.999999999999999
    vertex -1.5454813220625092 0.4141104721640337 7.999999999999999
    vertex -1.2249999999999994 2.121762239271875 7.999999999999999
  endloop
endfacet
facet normal -0.0 -0.0 1.0
  outer loop
    vertex -1.5454813220625092 0.4141104721640337 7.999999999999999
    vertex -1.7324116139070411 1.7324116139070413 7.999999999999999
    vertex -1.5999999999999999 1.9594348786357655e-16 7.999999999999999
  endloop
endfacet
facet normal -0.0 -0.0 1.0
  outer loop
    vertex -1.2249999999999994 2.121762239271875 7.999999999999999
    vertex -1.5454813220625092 0.4141104721640337 7.999999999999999
    vertex -1.3856406460551016 0.8000000000000006 7.999999999999999
  endloop
endfacet
facet normal -0.0 -0.0 1.0
  outer loop
    vertex -1.2249999999999994 2.121762239271875 7.999999999999999
    vertex -1.3856406460551016 0.8000000000000006 7.999999999999999
    vertex -1.131370849898476 1.1313708498984762 7.999999999999999
  endloop
endfacet
facet normal -0.0 -0.0 1.0
  outer loop
    vertex -1.2249999999999994 2.121762239271875 7.999999999999999
    vertex -1.131370849898476 1.1313708498984762 7.999999999999999
    vertex -0.6341066605011755 2.3665182744082176 7.999999999999999
  endloop
endfacet
facet normal -0.0 -0.0 1.0
  outer loop
    vertex -0.6341066605011755 2.3665182744082176 7.999999999999999
    vertex -1.131370849898476 1.1313708498984762 7.999999999999999
    vertex -0.7999999999999996 1.3856406460551023 7.999999999999999
  endloop
endfacet
facet normal -0.0 -0.0 1.0
  outer loop
    vertex -0.6341066605011755 2.3665182744082176 7.999999999999999
    vertex -0.7999999999999996 1.3856406460551023 7.999999999999999
    vertex -0.41411047216403296 1.5454813220625094 7.999999999999999
  endloop
endfacet
facet normal -0.0 -0.0 1.0
  outer loop
    vertex -0.6341066605011755 2.3665182744082176 7.999999999999999
    vertex -0.41411047216403296 1.5454813220625094 7.999999999999999
    vertex 1.5001923289555074e-16 2.45 7.999999999999999
  endloop
endfacet
facet normal -0.0 -0.0 1.0
  outer loop
    vertex 1.5001923289555074e-16 2.45 7.999999999999999
    vertex -0.41411047216403296 1.5454813220625094 7.999999999999999
    vertex 9.797174393178826e-17 1.6000000000000003 7.999999999999999
  endloop
endfacet
facet normal -0.0 -0.0 1.0
  outer loop
    vertex 1.5001923289555074e-16 2.45 7.999999999999999
    vertex 9.797174393178826e-17 1.6000000000000003 7.999999999999999
    vertex 0.4141104721640335 1.5454813220625094 7.999999999999999
  endloop
endfacet
facet normal -0.0 -0.0 1.0
  outer loop
    vertex 1.5001923289555074e-16 2.45 7.999999999999999
    vertex 0.4141104721640335 1.5454813220625094 7.999999999999999
    vertex 0.6341066605011763 2.366518274408217 7.999999999999999
  endloop
endfacet
facet normal -0.0 -0.0 1.0
  outer loop
    vertex 0.6341066605011763 2.366518274408217 7.999999999999999
    vertex 0.4141104721640335 1.5454813220625094 7.999999999999999
    vertex 0.8000000000000002 1.3856406460551018 7.999999999999999
  endloop
endfacet
facet normal -0.0 -0.0 1.0
  outer loop
    vertex 0.6341066605011763 2.366518274408217 7.999999999999999
    vertex 0.8000000000000002 1.3856406460551018 7.999999999999999
    vertex 1.2250000000000003 2.1217622392718747 7.999999999999999
  endloop
endfacet
facet normal -0.0 -0.0 1.0
  outer loop
    vertex 1.2250000000000003 2.1217622392718747 7.999999999999999
    vertex 0.8000000000000002 1.3856406460551018 7.999999999999999
    vertex 1.1313708498984762 1.1313708498984762 7.999999999999999
  endloop
endfacet
facet normal -0.0 -0.0 1.0
  outer loop
    vertex 1.2250000000000003 2.1217622392718747 7.999999999999999
    vertex 1.1313708498984762 1.1313708498984762 7.999999999999999
    vertex 1.3856406460551018 0.7999999999999999 7.999999999999999
  endloop
endfacet
facet normal -0.0 -0.0 1.0
  outer loop
    vertex 1.2250000000000003 2.1217622392718747 7.999999999999999
    vertex 1.3856406460551018 0.7999999999999999 7.999999999999999
    vertex 1.7324116139070411 1.7324116139070413 7.999999999999999
  endloop
endfacet
facet normal -0.0 -0.0 1.0
  outer loop
    vertex 1.7324116139070411 1.7324116139070413 7.999999999999999
    vertex 1.3856406460551018 0.7999999999999999 7.999999999999999
    vertex 1.5454813220625094 0.41411047216403324 7.999999999999999
  endloop
endfacet
facet normal -0.0 -0.0 1.0
  outer loop
    vertex 1.7324116139070411 1.7324116139070413 7.999999999999999
    vertex 1.5454813220625094 0.41411047216403324 7.999999999999999
    vertex 1.5999999999999999 0.0 7.999999999999999
  endloop
endfacet
facet normal -0.0 -0.0 1.0
  outer loop
    vertex 1.7324116139070411 1.7324116139070413 7.999999999999999
    vertex 1.5999999999999999 0.0 7.999999999999999
    vertex 1.7324116139070411 -1.7324116139070418 7.999999999999999
  endloop
endfacet
facet normal -0.0 -0.0 1.0
  outer loop
    vertex 1.7324116139070411 1.7324116139070413 7.999999999999999
    vertex 1.7324116139070411 -1.7324116139070418 7.999999999999999
    vertex 2.121762239271874 -1.2250000000000012 7.999999999999999
  endloop
endfacet
facet normal -0.0 -0.0 1.0
  outer loop
    vertex 1.7324116139070411 1.7324116139070413 7.999999999999999
    vertex 2.121762239271874 -1.2250000000000012 7.999999999999999
    vertex 2.1217622392718742 1.2249999999999999 7.999999999999999
  endloop
endfacet
facet normal -0.0 -0.0 1.0
  outer loop
    vertex 2.1217622392718742 1.2249999999999999 7.999999999999999
    vertex 2.121762239271874 -1.2250000000000012 7.999999999999999
    vertex 2.3665182744082163 -0.6341066605011777 7.999999999999999
  endloop
endfacet
facet normal -0.0 -0.0 1.0
  outer loop
    vertex 2.1217622392718742 1.2249999999999999 7.999999999999999
    vertex 2.3665182744082163 -0.6341066605011777 7.999999999999999
    vertex 2.366518274408217 0.6341066605011758 7.999999999999999
  endloop
endfacet
facet normal -0.0 -0.0 1.0
  outer loop
    vertex 2.366518274408217 0.6341066605011758 7.999999999999999
    vertex 2.3665182744082163 -0.6341066605011777 7.999999999999999
    vertex 2.4499999999999997 0.0 7.999999999999999
  endloop
endfacet
facet normal 0.9238795325112867 0.3826834323650899 0.0
  outer loop
    vertex 2.1217622392718742 1.2249999999999999 0.0
    vertex 2.366518274408217 0.6341066605011758 7.999999999999999
    vertex 2.366518274408217 0.6341066605011758 0.0
  endloop
endfacet
facet normal 0.9238795325112867 0.3826834323650899 0.0
  outer loop
    vertex 2.366518274408217 0.6341066605011758 7.999999999999999
    vertex 2.1217622392718742 1.2249999999999999 0.0
    vertex 2.1217622392718742 1.2249999999999999 7.999999999999999
  endloop
endfacet
facet normal 0.9914448613738104 0.13052619222005155 0.0
  outer loop
    vertex 2.366518274408217 0.6341066605011758 0.0
    vertex 2.4499999999999997 0.0 7.999999999999999
    vertex 2.4499999999999997 0.0 0.0
  endloop
endfacet
facet normal 0.9914448613738104 0.13052619222005155 0.0
  outer loop
    vertex 2.4499999999999997 0.0 7.999999999999999
    vertex 2.366518274408217 0.6341066605011758 0.0
    vertex 2.366518274408217 0.6341066605011758 7.999999999999999
  endloop
endfacet
facet normal 0.9914448613738104 -0.13052619222005224 0.0
  outer loop
    vertex 2.4499999999999997 0.0 0.0
    vertex 2.3665182744082163 -0.6341066605011777 7.999999999999999
    vertex 2.3665182744082163 -0.6341066605011777 0.0
  endloop
endfacet
facet normal 0.9914448613738104 -0.13052619222005224 0.0
  outer loop
    vertex 2.3665182744082163 -0.6341066605011777 7.999999999999999
    vertex 2.4499999999999997 0.0 0.0
    vertex 2.4499999999999997 0.0 7.999999999999999
  endloop
endfacet
facet normal 0.9238795325112866 -0.38268343236509034 0.0
  outer loop
    vertex 2.3665182744082163 -0.6341066605011777 0.0
    vertex 2.121762239271874 -1.2250000000000012 7.999999999999999
    vertex 2.121762239271874 -1.2250000000000012 0.0
  endloop
endfacet
facet normal 0.9238795325112866 -0.38268343236509034 0.0
  outer loop
    vertex 2.121762239271874 -1.2250000000000012 7.999999999999999
    vertex 2.3665182744082163 -0.6341066605011777 0.0
    vertex 2.3665182744082163 -0.6341066605011777 7.999999999999999
  endloop
endfacet
facet normal 0.7933533402912353 -0.6087614290087205 0.0
  outer loop
    vertex 2.121762239271874 -1.2250000000000012 0.0
    vertex 1.7324116139070411 -1.7324116139070418 7.999999999999999
    vertex 1.7324116139070411 -1.7324116139070418 0.0
  endloop
endfacet
facet normal 0.7933533402912353 -0.6087614290087205 0.0
  outer loop
    vertex 1.7324116139070411 -1.7324116139070418 7.999999999999999
    vertex 2.121762239271874 -1.2250000000000012 0.0
    vertex 2.121762239271874 -1.2250000000000012 7.999999999999999
  endloop
endfacet
facet normal 0.6087614290087202 -0.7933533402912355 0.0
  outer loop
    vertex 1.7324116139070411 -1.7324116139070418 7.999999999999999
    vertex 1.224999999999998 -2.121762239271876 0.0
    vertex 1.7324116139070411 -1.7324116139070418 0.0
  endloop
endfacet
facet normal 0.6087614290087202 -0.7933533402912355 0.0
  outer loop
    vertex 1.224999999999998 -2.121762239271876 0.0
    vertex 1.7324116139070411 -1.7324116139070418 7.999999999999999
    vertex 1.224999999999998 -2.121762239271876 7.999999999999999
  endloop
endfacet
facet normal 0.3826834323650893 -0.923879532511287 0.0
  outer loop
    vertex 1.224999999999998 -2.121762239271876 7.999999999999999
    vertex 0.6341066605011747 -2.3665182744082176 0.0
    vertex 1.224999999999998 -2.121762239271876 0.0
  endloop
endfacet
facet normal 0.3826834323650893 -0.923879532511287 0.0
  outer loop
    vertex 0.6341066605011747 -2.3665182744082176 0.0
    vertex 1.224999999999998 -2.121762239271876 7.999999999999999
    vertex 0.6341066605011747 -2.3665182744082176 7.999999999999999
  endloop
endfacet
facet normal 0.13052619222005116 -0.9914448613738105 0.0
  outer loop
    vertex 0.6341066605011747 -2.3665182744082176 7.999999999999999
    vertex -4.500576986866523e-16 -2.45 0.0
    vertex 0.6341066605011747 -2.3665182744082176 0.0
  endloop
endfacet
facet normal 0.13052619222005116 -0.9914448613738105 0.0
  outer loop
    vertex -4.500576986866523e-16 -2.45 0.0
    vertex 0.6341066605011747 -2.3665182744082176 7.999999999999999
    vertex -4.500576986866523e-16 -2.45 7.999999999999999
  endloop
endfacet
facet normal -0.13052619222005238 -0.9914448613738104 -0.0
  outer loop
    vertex -4.500576986866523e-16 -2.45 7.999999999999999
    vertex -0.6341066605011775 -2.3665182744082167 0.0
    vertex -4.500576986866523e-16 -2.45 0.0
  endloop
endfacet
facet normal -0.13052619222005238 -0.9914448613738104 -0.0
  outer loop
    vertex -0.6341066605011775 -2.3665182744082167 0.0
    vertex -4.500576986866523e-16 -2.45 7.999999999999999
    vertex -0.6341066605011775 -2.3665182744082167 7.999999999999999
  endloop
endfacet
facet normal -0.3826834323650902 -0.9238795325112866 -0.0
  outer loop
    vertex -0.6341066605011775 -2.3665182744082167 7.999999999999999
    vertex -1.225000000000001 -2.1217622392718742 0.0
    vertex -0.6341066605011775 -2.3665182744082167 0.0
  endloop
endfacet
facet normal -0.3826834323650902 -0.9238795325112866 -0.0
  outer loop
    vertex -1.225000000000001 -2.1217622392718742 0.0
    vertex -0.6341066605011775 -2.3665182744082167 7.999999999999999
    vertex -1.225000000000001 -2.1217622392718742 7.999999999999999
  endloop
endfacet
facet normal -0.6087614290087212 -0.7933533402912347 -0.0
  outer loop
    vertex -1.225000000000001 -2.1217622392718742 7.999999999999999
    vertex -1.7324116139070422 -1.7324116139070405 0.0
    vertex -1.225000000000001 -2.1217622392718742 0.0
  endloop
endfacet
facet normal -0.6087614290087212 -0.7933533402912347 -0.0
  outer loop
    vertex -1.7324116139070422 -1.7324116139070405 0.0
    vertex -1.225000000000001 -2.1217622392718742 7.999999999999999
    vertex -1.7324116139070422 -1.7324116139070405 7.999999999999999
  endloop
endfacet
facet normal -0.7933533402912354 -0.6087614290087204 -0.0
  outer loop
    vertex -2.1217622392718747 -1.2249999999999994 7.999999999999999
    vertex -1.7324116139070422 -1.7324116139070405 0.0
    vertex -1.7324116139070422 -1.7324116139070405 7.999999999999999
  endloop
endfacet
facet normal -0.7933533402912354 -0.6087614290087204 -0.0
  outer loop
    vertex -1.7324116139070422 -1.7324116139070405 0.0
    vertex -2.1217622392718747 -1.2249999999999994 7.999999999999999
    vertex -2.1217622392718747 -1.2249999999999994 0.0
  endloop
endfacet
facet normal -0.9238795325112868 -0.38268343236508956 -0.0
  outer loop
    vertex -2.3665182744082176 -0.6341066605011748 7.999999999999999
    vertex -2.1217622392718747 -1.2249999999999994 0.0
    vertex -2.1217622392718747 -1.2249999999999994 7.999999999999999
  endloop
endfacet
facet normal -0.9238795325112868 -0.38268343236508956 -0.0
  outer loop
    vertex -2.1217622392718747 -1.2249999999999994 0.0
    vertex -2.3665182744082176 -0.6341066605011748 7.999999999999999
    vertex -2.3665182744082176 -0.6341066605011748 0.0
  endloop
endfacet
facet normal -0.9914448613738105 -0.13052619222005116 -0.0
  outer loop
    vertex -2.4499999999999997 3.0003846579110154e-16 7.999999999999999
    vertex -2.3665182744082176 -0.6341066605011748 0.0
    vertex -2.3665182744082176 -0.6341066605011748 7.999999999999999
  endloop
endfacet
facet normal -0.9914448613738105 -0.13052619222005116 -0.0
  outer loop
    vertex -2.3665182744082176 -0.6341066605011748 0.0
    vertex -2.4499999999999997 3.0003846579110154e-16 7.999999999999999
    vertex -2.4499999999999997 3.0003846579110154e-16 0.0
  endloop
endfacet
facet normal -0.9914448613738104 0.130526192220052 0.0
  outer loop
    vertex -2.3665182744082167 0.6341066605011765 7.999999999999999
    vertex -2.4499999999999997 3.0003846579110154e-16 0.0
    vertex -2.4499999999999997 3.0003846579110154e-16 7.999999999999999
  endloop
endfacet
facet normal -0.9914448613738104 0.130526192220052 0.0
  outer loop
    vertex -2.4499999999999997 3.0003846579110154e-16 0.0
    vertex -2.3665182744082167 0.6341066605011765 7.999999999999999
    vertex -2.3665182744082167 0.6341066605011765 0.0
  endloop
endfacet
facet normal -0.923879532511287 0.3826834323650898 0.0
  outer loop
    vertex -2.1217622392718742 1.225000000000001 7.999999999999999
    vertex -2.3665182744082167 0.6341066605011765 0.0
    vertex -2.3665182744082167 0.6341066605011765 7.999999999999999
  endloop
endfacet
facet normal -0.923879532511287 0.3826834323650898 0.0
  outer loop
    vertex -2.3665182744082167 0.6341066605011765 0.0
    vertex -2.1217622392718742 1.225000000000001 7.999999999999999
    vertex -2.1217622392718742 1.225000000000001 0.0
  endloop
endfacet
facet normal -0.793353340291235 0.6087614290087211 0.0
  outer loop
    vertex -1.7324116139070411 1.7324116139070413 7.999999999999999
    vertex -2.1217622392718742 1.225000000000001 0.0
    vertex -2.1217622392718742 1.225000000000001 7.999999999999999
  endloop
endfacet
facet normal -0.793353340291235 0.6087614290087211 0.0
  outer loop
    vertex -2.1217622392718742 1.225000000000001 0.0
    vertex -1.7324116139070411 1.7324116139070413 7.999999999999999
    vertex -1.7324116139070411 1.7324116139070413 0.0
  endloop
endfacet
facet normal -0.6087614290087208 0.793353340291235 0.0
  outer loop
    vertex -1.7324116139070411 1.7324116139070413 7.999999999999999
    vertex -1.2249999999999994 2.121762239271875 0.0
    vertex -1.7324116139070411 1.7324116139070413 0.0
  endloop
endfacet
facet normal -0.6087614290087208 0.793353340291235 0.0
  outer loop
    vertex -1.2249999999999994 2.121762239271875 0.0
    vertex -1.7324116139070411 1.7324116139070413 7.999999999999999
    vertex -1.2249999999999994 2.121762239271875 7.999999999999999
  endloop
endfacet
facet normal -0.38268343236508956 0.923879532511287 0.0
  outer loop
    vertex -1.2249999999999994 2.121762239271875 7.999999999999999
    vertex -0.6341066605011755 2.3665182744082176 0.0
    vertex -1.2249999999999994 2.121762239271875 0.0
  endloop
endfacet
facet normal -0.38268343236508956 0.923879532511287 0.0
  outer loop
    vertex -0.6341066605011755 2.3665182744082176 0.0
    vertex -1.2249999999999994 2.121762239271875 7.999999999999999
    vertex -0.6341066605011755 2.3665182744082176 7.999999999999999
  endloop
endfacet
facet normal -0.13052619222005157 0.9914448613738105 0.0
  outer loop
    vertex -0.6341066605011755 2.3665182744082176 7.999999999999999
    vertex 1.5001923289555074e-16 2.45 0.0
    vertex -0.6341066605011755 2.3665182744082176 0.0
  endloop
endfacet
facet normal -0.13052619222005157 0.9914448613738105 0.0
  outer loop
    vertex 1.5001923289555074e-16 2.45 0.0
    vertex -0.6341066605011755 2.3665182744082176 7.999999999999999
    vertex 1.5001923289555074e-16 2.45 7.999999999999999
  endloop
endfacet
facet normal 0.13052619222005205 0.9914448613738105 0.0
  outer loop
    vertex 1.5001923289555074e-16 2.45 7.999999999999999
    vertex 0.6341066605011763 2.366518274408217 0.0
    vertex 1.5001923289555074e-16 2.45 0.0
  endloop
endfacet
facet normal 0.13052619222005205 0.9914448613738105 0.0
  outer loop
    vertex 0.6341066605011763 2.366518274408217 0.0
    vertex 1.5001923289555074e-16 2.45 7.999999999999999
    vertex 0.6341066605011763 2.366518274408217 7.999999999999999
  endloop
endfacet
facet normal 0.3826834323650895 0.923879532511287 0.0
  outer loop
    vertex 0.6341066605011763 2.366518274408217 7.999999999999999
    vertex 1.2250000000000003 2.1217622392718747 0.0
    vertex 0.6341066605011763 2.366518274408217 0.0
  endloop
endfacet
facet normal 0.3826834323650895 0.923879532511287 0.0
  outer loop
    vertex 1.2250000000000003 2.1217622392718747 0.0
    vertex 0.6341066605011763 2.366518274408217 7.999999999999999
    vertex 1.2250000000000003 2.1217622392718747 7.999999999999999
  endloop
endfacet
facet normal 0.6087614290087211 0.7933533402912348 0.0
  outer loop
    vertex 1.2250000000000003 2.1217622392718747 7.999999999999999
    vertex 1.7324116139070411 1.7324116139070413 0.0
    vertex 1.2250000000000003 2.1217622392718747 0.0
  endloop
endfacet
facet normal 0.6087614290087211 0.7933533402912348 0.0
  outer loop
    vertex 1.7324116139070411 1.7324116139070413 0.0
    vertex 1.2250000000000003 2.1217622392718747 7.999999999999999
    vertex 1.7324116139070411 1.7324116139070413 7.999999999999999
  endloop
endfacet
facet normal 0.7933533402912354 0.6087614290087207 0.0
  outer loop
    vertex 1.7324116139070411 1.7324116139070413 0.0
    vertex 2.1217622392718742 1.2249999999999999 7.999999999999999
    vertex 2.1217622392718742 1.2249999999999999 0.0
  endloop
endfacet
facet normal 0.7933533402912354 0.6087614290087207 0.0
  outer loop
    vertex 2.1217622392718742 1.2249999999999999 7.999999999999999
    vertex 1.7324116139070411 1.7324116139070413 0.0
    vertex 1.7324116139070411 1.7324116139070413 7.999999999999999
  endloop
endfacet
facet normal 0.38268343236508967 -0.923879532511287 0.0
  outer loop
    vertex -0.41411047216403296 1.5454813220625094 7.999999999999999
    vertex -0.7999999999999996 1.3856406460551023 0.0
    vertex -0.41411047216403296 1.5454813220625094 0.0
  endloop
endfacet
facet normal 0.38268343236508967 -0.923879532511287 0.0
  outer loop
    vertex -0.7999999999999996 1.3856406460551023 0.0
    vertex -0.41411047216403296 1.5454813220625094 7.999999999999999
    vertex -0.7999999999999996 1.3856406460551023 7.999999999999999
  endloop
endfacet
facet normal 0.6087614290087203 -0.7933533402912354 0.0
  outer loop
    vertex -0.7999999999999996 1.3856406460551023 7.999999999999999
    vertex -1.131370849898476 1.1313708498984762 0.0
    vertex -0.7999999999999996 1.3856406460551023 0.0
  endloop
endfacet
facet normal 0.6087614290087203 -0.7933533402912354 0.0
  outer loop
    vertex -1.131370849898476 1.1313708498984762 0.0
    vertex -0.7999999999999996 1.3856406460551023 7.999999999999999
    vertex -1.131370849898476 1.1313708498984762 7.999999999999999
  endloop
endfacet
facet normal 0.7933533402912352 -0.6087614290087207 0.0
  outer loop
    vertex -1.131370849898476 1.1313708498984762 0.0
    vertex -1.3856406460551016 0.8000000000000006 7.999999999999999
    vertex -1.3856406460551016 0.8000000000000006 0.0
  endloop
endfacet
facet normal 0.7933533402912352 -0.6087614290087207 0.0
  outer loop
    vertex -1.3856406460551016 0.8000000000000006 7.999999999999999
    vertex -1.131370849898476 1.1313708498984762 0.0
    vertex -1.131370849898476 1.1313708498984762 7.999999999999999
  endloop
endfacet
facet normal 0.9238795325112867 -0.38268343236509 0.0
  outer loop
    vertex -1.3856406460551016 0.8000000000000006 0.0
    vertex -1.5454813220625092 0.4141104721640337 7.999999999999999
    vertex -1.5454813220625092 0.4141104721640337 0.0
  endloop
endfacet
facet normal 0.9238795325112867 -0.38268343236509 0.0
  outer loop
    vertex -1.5454813220625092 0.4141104721640337 7.999999999999999
    vertex -1.3856406460551016 0.8000000000000006 0.0
    vertex -1.3856406460551016 0.8000000000000006 7.999999999999999
  endloop
endfacet
facet normal 0.9914448613738105 -0.1305261922200515 0.0
  outer loop
    vertex -1.5454813220625092 0.4141104721640337 0.0
    vertex -1.5999999999999999 1.9594348786357655e-16 7.999999999999999
    vertex -1.5999999999999999 1.9594348786357655e-16 0.0
  endloop
endfacet
facet normal 0.9914448613738105 -0.1305261922200515 0.0
  outer loop
    vertex -1.5999999999999999 1.9594348786357655e-16 7.999999999999999
    vertex -1.5454813220625092 0.4141104721640337 0.0
    vertex -1.5454813220625092 0.4141104721640337 7.999999999999999
  endloop
endfacet
facet normal 0.9914448613738106 0.13052619222005088 0.0
  outer loop
    vertex -1.5999999999999999 1.9594348786357655e-16 0.0
    vertex -1.5454813220625094 -0.41411047216403263 7.999999999999999
    vertex -1.5454813220625094 -0.41411047216403263 0.0
  endloop
endfacet
facet normal 0.9914448613738106 0.13052619222005088 0.0
  outer loop
    vertex -1.5454813220625094 -0.41411047216403263 7.999999999999999
    vertex -1.5999999999999999 1.9594348786357655e-16 0.0
    vertex -1.5999999999999999 1.9594348786357655e-16 7.999999999999999
  endloop
endfacet
facet normal 0.9238795325112868 0.38268343236508945 0.0
  outer loop
    vertex -1.5454813220625094 -0.41411047216403263 0.0
    vertex -1.385640646055102 -0.7999999999999998 7.999999999999999
    vertex -1.385640646055102 -0.7999999999999998 0.0
  endloop
endfacet
facet normal 0.9238795325112868 0.38268343236508945 0.0
  outer loop
    vertex -1.385640646055102 -0.7999999999999998 7.999999999999999
    vertex -1.5454813220625094 -0.41411047216403263 0.0
    vertex -1.5454813220625094 -0.41411047216403263 7.999999999999999
  endloop
endfacet
facet normal 0.7933533402912356 0.6087614290087202 0.0
  outer loop
    vertex -1.385640646055102 -0.7999999999999998 0.0
    vertex -1.1313708498984767 -1.1313708498984756 7.999999999999999
    vertex -1.1313708498984767 -1.1313708498984756 0.0
  endloop
endfacet
facet normal 0.7933533402912356 0.6087614290087202 0.0
  outer loop
    vertex -1.1313708498984767 -1.1313708498984756 7.999999999999999
    vertex -1.385640646055102 -0.7999999999999998 0.0
    vertex -1.385640646055102 -0.7999999999999998 7.999999999999999
  endloop
endfacet
facet normal 0.6087614290087209 0.7933533402912352 0.0
  outer loop
    vertex -1.1313708498984767 -1.1313708498984756 7.999999999999999
    vertex -0.8000000000000006 -1.3856406460551016 0.0
    vertex -1.1313708498984767 -1.1313708498984756 0.0
  endloop
endfacet
facet normal 0.6087614290087209 0.7933533402912352 0.0
  outer loop
    vertex -0.8000000000000006 -1.3856406460551016 0.0
    vertex -1.1313708498984767 -1.1313708498984756 7.999999999999999
    vertex -0.8000000000000006 -1.3856406460551016 7.999999999999999
  endloop
endfacet
facet normal 0.3826834323650906 0.9238795325112866 0.0
  outer loop
    vertex -0.8000000000000006 -1.3856406460551016 7.999999999999999
    vertex -0.4141104721640343 -1.5454813220625092 0.0
    vertex -0.8000000000000006 -1.3856406460551016 0.0
  endloop
endfacet
facet normal 0.3826834323650906 0.9238795325112866 0.0
  outer loop
    vertex -0.4141104721640343 -1.5454813220625092 0.0
    vertex -0.8000000000000006 -1.3856406460551016 7.999999999999999
    vertex -0.4141104721640343 -1.5454813220625092 7.999999999999999
  endloop
endfacet
facet normal 0.13052619222005216 0.9914448613738105 0.0
  outer loop
    vertex -0.4141104721640343 -1.5454813220625092 7.999999999999999
    vertex -2.9391523179536476e-16 -1.6000000000000003 0.0
    vertex -0.4141104721640343 -1.5454813220625092 0.0
  endloop
endfacet
facet normal 0.13052619222005216 0.9914448613738105 0.0
  outer loop
    vertex -2.9391523179536476e-16 -1.6000000000000003 0.0
    vertex -0.4141104721640343 -1.5454813220625092 7.999999999999999
    vertex -2.9391523179536476e-16 -1.6000000000000003 7.999999999999999
  endloop
endfacet
facet normal -0.13052619222005135 0.9914448613738106 0.0
  outer loop
    vertex -2.9391523179536476e-16 -1.6000000000000003 7.999999999999999
    vertex 0.41411047216403246 -1.5454813220625097 0.0
    vertex -2.9391523179536476e-16 -1.6000000000000003 0.0
  endloop
endfacet
facet normal -0.13052619222005135 0.9914448613738106 0.0
  outer loop
    vertex 0.41411047216403246 -1.5454813220625097 0.0
    vertex -2.9391523179536476e-16 -1.6000000000000003 7.999999999999999
    vertex 0.41411047216403246 -1.5454813220625097 7.999999999999999
  endloop
endfacet
facet normal -0.3826834323650895 0.9238795325112868 0.0
  outer loop
    vertex 0.41411047216403246 -1.5454813220625097 7.999999999999999
    vertex 0.7999999999999987 -1.3856406460551025 0.0
    vertex 0.41411047216403246 -1.5454813220625097 0.0
  endloop
endfacet
facet normal -0.3826834323650895 0.9238795325112868 0.0
  outer loop
    vertex 0.7999999999999987 -1.3856406460551025 0.0
    vertex 0.41411047216403246 -1.5454813220625097 7.999999999999999
    vertex 0.7999999999999987 -1.3856406460551025 7.999999999999999
  endloop
endfacet
facet normal -0.6087614290087197 0.793353340291236 0.0
  outer loop
    vertex 0.7999999999999987 -1.3856406460551025 7.999999999999999
    vertex 1.131370849898476 -1.1313708498984765 0.0
    vertex 0.7999999999999987 -1.3856406460551025 0.0
  endloop
endfacet
facet normal -0.6087614290087197 0.793353340291236 0.0
  outer loop
    vertex 1.131370849898476 -1.1313708498984765 0.0
    vertex 0.7999999999999987 -1.3856406460551025 7.999999999999999
    vertex 1.131370849898476 -1.1313708498984765 7.999999999999999
  endloop
endfacet
facet normal -0.7933533402912354 0.6087614290087203 0.0
  outer loop
    vertex 1.3856406460551014 -0.8000000000000008 7.999999999999999
    vertex 1.131370849898476 -1.1313708498984765 0.0
    vertex 1.131370849898476 -1.1313708498984765 7.999999999999999
  endloop
endfacet
facet normal -0.7933533402912354 0.6087614290087203 0.0
  outer loop
    vertex 1.131370849898476 -1.1313708498984765 0.0
    vertex 1.3856406460551014 -0.8000000000000008 7.999999999999999
    vertex 1.3856406460551014 -0.8000000000000008 0.0
  endloop
endfacet
facet normal -0.9238795325112866 0.3826834323650906 0.0
  outer loop
    vertex 1.545481322062509 -0.41411047216403446 7.999999999999999
    vertex 1.3856406460551014 -0.8000000000000008 0.0
    vertex 1.3856406460551014 -0.8000000000000008 7.999999999999999
  endloop
endfacet
facet normal -0.9238795325112866 0.3826834323650906 0.0
  outer loop
    vertex 1.3856406460551014 -0.8000000000000008 0.0
    vertex 1.545481322062509 -0.41411047216403446 7.999999999999999
    vertex 1.545481322062509 -0.41411047216403446 0.0
  endloop
endfacet
facet normal -0.9914448613738105 0.1305261922200516 0.0
  outer loop
    vertex 1.5999999999999999 0.0 7.999999999999999
    vertex 1.545481322062509 -0.41411047216403446 0.0
    vertex 1.545481322062509 -0.41411047216403446 7.999999999999999
  endloop
endfacet
facet normal -0.9914448613738105 0.1305261922200516 0.0
  outer loop
    vertex 1.545481322062509 -0.41411047216403446 0.0
    vertex 1.5999999999999999 0.0 7.999999999999999
    vertex 1.5999999999999999 0.0 0.0
  endloop
endfacet
facet normal -0.9914448613738106 -0.13052619222005118 -0.0
  outer loop
    vertex 1.5454813220625094 0.41411047216403324 7.999999999999999
    vertex 1.5999999999999999 0.0 0.0
    vertex 1.5999999999999999 0.0 7.999999999999999
  endloop
endfacet
facet normal -0.9914448613738106 -0.13052619222005118 -0.0
  outer loop
    vertex 1.5999999999999999 0.0 0.0
    vertex 1.5454813220625094 0.41411047216403324 7.999999999999999
    vertex 1.5454813220625094 0.41411047216403324 0.0
  endloop
endfacet
facet normal -0.9238795325112867 -0.3826834323650899 -0.0
  outer loop
    vertex 1.3856406460551018 0.7999999999999999 7.999999999999999
    vertex 1.5454813220625094 0.41411047216403324 0.0
    vertex 1.5454813220625094 0.41411047216403324 7.999999999999999
  endloop
endfacet
facet normal -0.9238795325112867 -0.3826834323650899 -0.0
  outer loop
    vertex 1.5454813220625094 0.41411047216403324 0.0
    vertex 1.3856406460551018 0.7999999999999999 7.999999999999999
    vertex 1.3856406460551018 0.7999999999999999 0.0
  endloop
endfacet
facet normal -0.7933533402912354 -0.6087614290087203 -0.0
  outer loop
    vertex 1.1313708498984762 1.1313708498984762 7.999999999999999
    vertex 1.3856406460551018 0.7999999999999999 0.0
    vertex 1.3856406460551018 0.7999999999999999 7.999999999999999
  endloop
endfacet
facet normal -0.7933533402912354 -0.6087614290087203 -0.0
  outer loop
    vertex 1.3856406460551018 0.7999999999999999 0.0
    vertex 1.1313708498984762 1.1313708498984762 7.999999999999999
    vertex 1.1313708498984762 1.1313708498984762 0.0
  endloop
endfacet
facet normal -0.6087614290087205 -0.7933533402912354 -0.0
  outer loop
    vertex 1.1313708498984762 1.1313708498984762 7.999999999999999
    vertex 0.8000000000000002 1.3856406460551018 0.0
    vertex 1.1313708498984762 1.1313708498984762 0.0
  endloop
endfacet
facet normal -0.6087614290087205 -0.7933533402912354 -0.0
  outer loop
    vertex 0.8000000000000002 1.3856406460551018 0.0
    vertex 1.1313708498984762 1.1313708498984762 7.999999999999999
    vertex 0.8000000000000002 1.3856406460551018 7.999999999999999
  endloop
endfacet
facet normal -0.38268343236508995 -0.9238795325112867 -0.0
  outer loop
    vertex 0.8000000000000002 1.3856406460551018 7.999999999999999
    vertex 0.4141104721640335 1.5454813220625094 0.0
    vertex 0.8000000000000002 1.3856406460551018 0.0
  endloop
endfacet
facet normal -0.38268343236508995 -0.9238795325112867 -0.0
  outer loop
    vertex 0.4141104721640335 1.5454813220625094 0.0
    vertex 0.8000000000000002 1.3856406460551018 7.999999999999999
    vertex 0.4141104721640335 1.5454813220625094 7.999999999999999
  endloop
endfacet
facet normal -0.13052619222005193 -0.9914448613738104 -0.0
  outer loop
    vertex 0.4141104721640335 1.5454813220625094 7.999999999999999
    vertex 9.797174393178826e-17 1.6000000000000003 0.0
    vertex 0.4141104721640335 1.5454813220625094 0.0
  endloop
endfacet
facet normal -0.13052619222005193 -0.9914448613738104 -0.0
  outer loop
    vertex 9.797174393178826e-17 1.6000000000000003 0.0
    vertex 0.4141104721640335 1.5454813220625094 7.999999999999999
    vertex 9.797174393178826e-17 1.6000000000000003 7.999999999999999
  endloop
endfacet
facet normal 0.13052619222005163 -0.9914448613738105 0.0
  outer loop
    vertex 9.797174393178826e-17 1.6000000000000003 7.999999999999999
    vertex -0.41411047216403296 1.5454813220625094 0.0
    vertex 9.797174393178826e-17 1.6000000000000003 0.0
  endloop
endfacet
facet normal 0.13052619222005163 -0.9914448613738105 0.0
  outer loop
    vertex -0.41411047216403296 1.5454813220625094 0.0
    vertex 9.797174393178826e-17 1.6000000000000003 7.999999999999999
    vertex -0.41411047216403296 1.5454813220625094 7.999999999999999
  endloop
endfacet
endsolid spacer
