solid x endstop tip
facet normal -0.7071112075456848 -0.7071023547997021 -2.415464041440954e-18
  outer loop
    vertex -1.100000023841858 -2.0928900241851807 -1.75
    vertex -0.9428920149803162 -2.2499999999999996 -1.75
    vertex -1.100000023841858 -2.0928900241851807 1.75
  endloop
endfacet
facet normal 0.7071112075456847 -0.7071023547997021 0.0
  outer loop
    vertex 1.100000023841858 -2.0928900241851807 -1.75
    vertex 0.9428920149803162 -2.2499999999999996 4.542890071868892
    vertex 0.9428920149803162 -2.2499999999999996 -1.75
  endloop
endfacet
facet normal 0.7071112075456847 -0.7071023547997021 0.0
  outer loop
    vertex 0.9428920149803162 -2.2499999999999996 4.542890071868892
    vertex 1.100000023841858 -2.0928900241851807 -1.75
    vertex 1.100000023841858 -2.0928900241851807 4.542890071868892
  endloop
endfacet
facet normal -0.7071112075456848 0.7071023547997021 6.73138264121568e-19
  outer loop
    vertex -0.9428920149803162 2.2499999999999996 4.542890071868896
    vertex -1.100000023841858 2.0928900241851807 -1.75
    vertex -1.100000023841858 2.0928900241851807 4.542890071868896
  endloop
endfacet
facet normal -0.7071112075456848 0.7071023547997021 6.73138264121568e-19
  outer loop
    vertex -1.100000023841858 2.0928900241851807 -1.75
    vertex -0.9428920149803162 2.2499999999999996 4.542890071868896
    vertex -0.9428920149803162 2.2499999999999996 -1.75
  endloop
endfacet
facet normal 0.7071112075456848 0.707102354799702 -4.830928082881908e-18
  outer loop
    vertex 0.9428920149803162 2.2499999999999996 -1.75
    vertex 1.100000023841858 2.0928900241851807 4.542890071868896
    vertex 1.100000023841858 2.0928900241851807 1.75
  endloop
endfacet
facet normal 0.7071112075456848 0.707102354799702 -4.830928082881908e-18
  outer loop
    vertex 1.100000023841858 2.0928900241851807 4.542890071868896
    vertex 0.9428920149803162 2.2499999999999996 -1.75
    vertex 0.9428920149803162 2.2499999999999996 4.542890071868896
  endloop
endfacet
facet normal 0.7071112075456848 0.7071023547997021 -2.415464041440954e-18
  outer loop
    vertex 0.9428920149803162 2.2499999999999996 -1.75
    vertex 1.100000023841858 2.0928900241851807 1.75
    vertex 1.100000023841858 2.0928900241851807 -1.75
  endloop
endfacet
facet normal 0.0 1.0 0.0
  outer loop
    vertex -0.9428920149803162 2.2499999999999996 4.542890071868896
    vertex 0.9428920149803162 2.2499999999999996 -1.75
    vertex -0.9428920149803162 2.2499999999999996 -1.75
  endloop
endfacet
facet normal 0.0 1.0 0.0
  outer loop
    vertex 0.9428920149803162 2.2499999999999996 -1.75
    vertex -0.9428920149803162 2.2499999999999996 4.542890071868896
    vertex 0.9428920149803162 2.2499999999999996 4.542890071868896
  endloop
endfacet
facet normal 0.0 0.0 -1.0
  outer loop
    vertex 1.100000023841858 -2.0928900241851807 -1.75
    vertex 0.9428920149803162 -2.2499999999999996 -1.75
    vertex -1.100000023841858 -2.0928900241851807 -1.75
  endloop
endfacet
facet normal 0.0 0.0 -1.0
  outer loop
    vertex 1.100000023841858 -2.0928900241851807 -1.75
    vertex -1.100000023841858 -2.0928900241851807 -1.75
    vertex 1.100000023841858 2.0928900241851807 -1.75
  endloop
endfacet
facet normal 0.0 0.0 -1.0
  outer loop
    vertex 0.9428920149803162 -2.2499999999999996 -1.75
    vertex -0.9428920149803162 -2.2499999999999996 -1.75
    vertex -1.100000023841858 -2.0928900241851807 -1.75
  endloop
endfacet
facet normal 0.0 0.0 -1.0
  outer loop
    vertex 1.100000023841858 2.0928900241851807 -1.75
    vertex -1.100000023841858 -2.0928900241851807 -1.75
    vertex -1.100000023841858 2.0928900241851807 -1.75
  endloop
endfacet
facet normal 0.0 0.0 -1.0
  outer loop
    vertex 1.100000023841858 2.0928900241851807 -1.75
    vertex -1.100000023841858 2.0928900241851807 -1.75
    vertex 0.9428920149803162 2.2499999999999996 -1.75
  endloop
endfacet
facet normal 0.0 0.0 -1.0
  outer loop
    vertex 0.9428920149803162 2.2499999999999996 -1.75
    vertex -1.100000023841858 2.0928900241851807 -1.75
    vertex -0.9428920149803162 2.2499999999999996 -1.75
  endloop
endfacet
facet normal 0.0 -1.0 0.0
  outer loop
    vertex 0.9428920149803162 -2.2499999999999996 4.542890071868892
    vertex -0.9428920149803162 -2.2499999999999996 -1.75
    vertex 0.9428920149803162 -2.2499999999999996 -1.75
  endloop
endfacet
facet normal 0.0 -1.0 0.0
  outer loop
    vertex -0.9428920149803162 -2.2499999999999996 -1.75
    vertex 0.9428920149803162 -2.2499999999999996 4.542890071868892
    vertex -0.9428920149803162 -2.2499999999999996 4.542890071868892
  endloop
endfacet
facet normal 0.0 0.0 -1.0
  outer loop
    vertex -2.1970709132878135 7.0 1.7500000000000002
    vertex -6.100000023841858 -0.6499999761581421 1.75
    vertex -6.100000023841858 7.0 1.7500000000000002
  endloop
endfacet
facet normal 0.0 0.0 -1.0
  outer loop
    vertex -6.100000023841858 -0.6499999761581421 1.75
    vertex -2.1970709132878135 7.0 1.7500000000000002
    vertex -2.197070913287814 1.9999999999999998 1.75
  endloop
endfacet
facet normal 0.0 0.0 -1.0
  outer loop
    vertex -2.197070913287814 1.9999999999999998 1.75
    vertex -1.1514699459075926 -0.6499999761581421 1.75
    vertex -6.100000023841858 -0.6499999761581421 1.75
  endloop
endfacet
facet normal 0.0 0.0 -1.0
  outer loop
    vertex -1.1514699459075926 -0.6499999761581421 1.75
    vertex -2.197070913287814 1.9999999999999998 1.75
    vertex -1.100000023841858 1.9999999999999998 1.75
  endloop
endfacet
facet normal 0.0 0.0 -1.0
  outer loop
    vertex -1.1514699459075926 -0.6499999761581421 1.75
    vertex -1.100000023841858 1.9999999999999998 1.75
    vertex -1.100000023841858 -0.6499999761581421 1.75
  endloop
endfacet
facet normal 0.0 0.0 -1.0
  outer loop
    vertex -1.1514699459075926 -0.6499999761581421 1.75
    vertex -6.100000023841858 -7.0 1.75
    vertex -6.100000023841858 -0.6499999761581421 1.75
  endloop
endfacet
facet normal 0.0 0.0 -1.0
  outer loop
    vertex -6.100000023841858 -7.0 1.75
    vertex -1.1514699459075926 -0.6499999761581421 1.75
    vertex -2.197070913287814 -1.9999999999999998 1.75
  endloop
endfacet
facet normal 0.0 0.0 -1.0
  outer loop
    vertex -2.197070913287814 -1.9999999999999998 1.75
    vertex -1.1514699459075926 -0.6499999761581421 1.75
    vertex -1.100000023841858 -1.9999999999999998 1.75
  endloop
endfacet
facet normal 0.0 0.0 -1.0
  outer loop
    vertex -1.100000023841858 -1.9999999999999998 1.75
    vertex -1.1514699459075926 -0.6499999761581421 1.75
    vertex -1.100000023841858 -0.6499999761581421 1.75
  endloop
endfacet
facet normal 0.0 0.0 -1.0
  outer loop
    vertex -2.197070913287814 -7.0 1.75
    vertex -6.100000023841858 -7.0 1.75
    vertex -2.197070913287814 -1.9999999999999998 1.75
  endloop
endfacet
facet normal 0.0 -1.0 0.0
  outer loop
    vertex -2.197070913287814 -7.0 5.495517451662554
    vertex -6.100000023841858 -7.0 1.75
    vertex -2.197070913287814 -7.0 1.75
  endloop
endfacet
facet normal 0.0 -1.0 0.0
  outer loop
    vertex -6.100000023841858 -7.0 1.75
    vertex -2.197070913287814 -7.0 5.495517451662554
    vertex -6.100000023841858 -7.0 5.495517451662554
  endloop
endfacet
facet normal 1.0 0.0 0.0
  outer loop
    vertex 1.100000023841858 2.0928900241851807 -1.75
    vertex 1.100000023841858 -2.0928900241851807 4.542890071868892
    vertex 1.100000023841858 -2.0928900241851807 -1.75
  endloop
endfacet
facet normal 1.0 0.0 0.0
  outer loop
    vertex 1.100000023841858 -2.0928900241851807 4.542890071868892
    vertex 1.100000023841858 2.0928900241851807 -1.75
    vertex 1.100000023841858 -1.9999999999999998 4.542890071868896
  endloop
endfacet
facet normal 1.0 0.0 0.0
  outer loop
    vertex 1.100000023841858 -1.9999999999999998 4.542890071868896
    vertex 1.100000023841858 2.0928900241851807 -1.75
    vertex 1.100000023841858 1.9999999999999998 4.542890071868896
  endloop
endfacet
facet normal 1.0 0.0 0.0
  outer loop
    vertex 1.100000023841858 1.9999999999999998 4.542890071868896
    vertex 1.100000023841858 2.0928900241851807 -1.75
    vertex 1.100000023841858 2.0928900241851807 4.542890071868896
  endloop
endfacet
facet normal 1.0 0.0 0.0
  outer loop
    vertex 1.100000023841858 2.0928900241851807 4.542890071868896
    vertex 1.100000023841858 2.0928900241851807 -1.75
    vertex 1.100000023841858 2.0928900241851807 1.75
  endloop
endfacet
facet normal -1.0 0.0 0.0
  outer loop
    vertex -6.100000023841858 7.0 5.495517451662554
    vertex -6.100000023841858 -7.0 1.75
    vertex -6.100000023841858 -7.0 5.495517451662554
  endloop
endfacet
facet normal -1.0 0.0 0.0
  outer loop
    vertex -6.100000023841858 -7.0 1.75
    vertex -6.100000023841858 7.0 5.495517451662554
    vertex -6.100000023841858 -0.6499999761581421 1.75
  endloop
endfacet
facet normal -1.0 0.0 0.0
  outer loop
    vertex -6.100000023841858 -0.6499999761581421 1.75
    vertex -6.100000023841858 7.0 5.495517451662554
    vertex -6.100000023841858 7.0 1.7500000000000002
  endloop
endfacet
facet normal -9.90635422984099e-18 -0.967247092982831 0.2538366819753655
  outer loop
    vertex -0.5499989986419677 -1.9999999999999984 5.495517451662552
    vertex -0.9428920149803162 -2.2499999999999996 4.542890071868892
    vertex 0.9428920149803162 -2.2499999999999996 4.542890071868892
  endloop
endfacet
facet normal 0.432448427683209 -0.4324430136040066 0.7911898617774407
  outer loop
    vertex 1.100000023841858 -2.0928900241851807 4.542890071868892
    vertex -0.5499989986419677 -1.9999999999999984 5.495517451662552
    vertex 0.9428920149803162 -2.2499999999999996 4.542890071868892
  endloop
endfacet
facet normal 0.5000000000000001 -3.411847283963901e-14 0.8660254037844387
  outer loop
    vertex 1.100000023841858 -1.9999999999999998 4.542890071868896
    vertex -0.5499989986419677 -1.9999999999999984 5.495517451662552
    vertex 1.100000023841858 -2.0928900241851807 4.542890071868892
  endloop
endfacet
facet normal 0.5000000000000002 0.0 0.8660254037844387
  outer loop
    vertex 1.100000023841858 2.0928900241851807 4.542890071868896
    vertex -0.5499989986419677 1.9999999999999998 5.495517451662552
    vertex 1.100000023841858 1.9999999999999998 4.542890071868896
  endloop
endfacet
facet normal 0.4324484276832081 0.43244301360400633 0.7911898617774413
  outer loop
    vertex 1.100000023841858 2.0928900241851807 4.542890071868896
    vertex 0.9428920149803162 2.2499999999999996 4.542890071868896
    vertex -0.5499989986419677 1.9999999999999998 5.495517451662552
  endloop
endfacet
facet normal 0.0 0.9672470929828312 0.2538366819753651
  outer loop
    vertex -0.5499989986419677 1.9999999999999998 5.495517451662552
    vertex 0.9428920149803162 2.2499999999999996 4.542890071868896
    vertex -0.9428920149803162 2.2499999999999996 4.542890071868896
  endloop
endfacet
facet normal 1.0 0.0 0.0
  outer loop
    vertex -2.197070913287814 -1.9999999999999998 1.75
    vertex -2.197070913287814 -7.0 5.495517451662554
    vertex -2.197070913287814 -7.0 1.75
  endloop
endfacet
facet normal 1.0 0.0 0.0
  outer loop
    vertex -2.197070913287814 -7.0 5.495517451662554
    vertex -2.197070913287814 -1.9999999999999998 1.75
    vertex -2.197070913287814 -1.9999999999999998 5.495517451662554
  endloop
endfacet
facet normal 1.9165059127456847e-16 5.972333777747666e-17 1.0
  outer loop
    vertex -0.5499989986419677 -1.9999999999999984 5.495517451662552
    vertex -2.1970709132878135 1.9999999999999996 5.495517451662554
    vertex -2.197070913287814 -1.9999999999999998 5.495517451662554
  endloop
endfacet
facet normal 1.9165059127456847e-16 5.972333777747666e-17 1.0
  outer loop
    vertex -2.1970709132878135 1.9999999999999996 5.495517451662554
    vertex -0.5499989986419677 -1.9999999999999984 5.495517451662552
    vertex -0.5499989986419677 1.9999999999999998 5.495517451662552
  endloop
endfacet
facet normal 1.9165059127456847e-16 5.972333777747666e-17 1.0
  outer loop
    vertex -2.197070913287814 -7.0 5.495517451662554
    vertex -6.100000023841858 7.0 5.495517451662554
    vertex -6.100000023841858 -7.0 5.495517451662554
  endloop
endfacet
facet normal 1.9165059127456847e-16 5.972333777747666e-17 1.0
  outer loop
    vertex -6.100000023841858 7.0 5.495517451662554
    vertex -2.197070913287814 -7.0 5.495517451662554
    vertex -2.197070913287814 -1.9999999999999998 5.495517451662554
  endloop
endfacet
facet normal 1.9165059127456847e-16 5.972333777747666e-17 1.0
  outer loop
    vertex -6.100000023841858 7.0 5.495517451662554
    vertex -2.197070913287814 -1.9999999999999998 5.495517451662554
    vertex -2.197070913287813 7.0 5.495517451662554
  endloop
endfacet
facet normal 1.9165059127456847e-16 5.972333777747666e-17 1.0
  outer loop
    vertex -2.197070913287813 7.0 5.495517451662554
    vertex -2.197070913287814 -1.9999999999999998 5.495517451662554
    vertex -2.1970709132878135 1.9999999999999996 5.495517451662554
  endloop
endfacet
facet normal 4.5157854566880463e-17 1.0 4.705568921618854e-17
  outer loop
    vertex -6.100000023841858 7.0 5.495517451662554
    vertex -2.1970709132878135 7.0 1.7500000000000002
    vertex -6.100000023841858 7.0 1.7500000000000002
  endloop
endfacet
facet normal 4.5157854566880463e-17 1.0 4.705568921618854e-17
  outer loop
    vertex -2.1970709132878135 7.0 1.7500000000000002
    vertex -6.100000023841858 7.0 5.495517451662554
    vertex -2.197070913287813 7.0 5.495517451662554
  endloop
endfacet
facet normal 1.0 -4.515785456688046e-17 -1.8822275686475413e-16
  outer loop
    vertex -2.197070913287814 1.9999999999999998 1.75
    vertex -2.197070913287813 7.0 5.495517451662554
    vertex -2.1970709132878135 1.9999999999999996 5.495517451662554
  endloop
endfacet
facet normal 1.0 -4.515785456688046e-17 -1.8822275686475413e-16
  outer loop
    vertex -2.197070913287813 7.0 5.495517451662554
    vertex -2.197070913287814 1.9999999999999998 1.75
    vertex -2.1970709132878135 7.0 1.7500000000000002
  endloop
endfacet
facet normal -0.6381722735406362 0.6381642838821915 0.43067678839369217
  outer loop
    vertex -0.9428920149803162 2.2499999999999996 4.542890071868896
    vertex -1.100000023841858 2.0928900241851807 4.542890071868896
    vertex -0.5499989986419677 1.9999999999999998 5.495517451662552
  endloop
endfacet
facet normal 0.5000000000000001 5.8570668453098286e-18 0.8660254037844387
  outer loop
    vertex 1.100000023841858 -1.9999999999999998 4.542890071868896
    vertex -0.5499989986419677 1.9999999999999998 5.495517451662552
    vertex -0.5499989986419677 -1.9999999999999984 5.495517451662552
  endloop
endfacet
facet normal 0.5000000000000001 5.8570668453098286e-18 0.8660254037844387
  outer loop
    vertex -0.5499989986419677 1.9999999999999998 5.495517451662552
    vertex 1.100000023841858 -1.9999999999999998 4.542890071868896
    vertex 1.100000023841858 1.9999999999999998 4.542890071868896
  endloop
endfacet
facet normal -1.0 0.0 0.0
  outer loop
    vertex -1.100000023841858 -1.9999999999999998 1.75
    vertex -1.100000023841858 2.0928900241851807 -1.75
    vertex -1.100000023841858 -2.0928900241851807 -1.75
  endloop
endfacet
facet normal -1.0 0.0 0.0
  outer loop
    vertex -1.100000023841858 2.0928900241851807 -1.75
    vertex -1.100000023841858 -1.9999999999999998 1.75
    vertex -1.100000023841858 -0.6499999761581421 1.75
  endloop
endfacet
facet normal -1.0 0.0 0.0
  outer loop
    vertex -1.100000023841858 2.0928900241851807 -1.75
    vertex -1.100000023841858 -0.6499999761581421 1.75
    vertex -1.100000023841858 1.9999999999999998 1.75
  endloop
endfacet
facet normal -1.0 0.0 0.0
  outer loop
    vertex -1.100000023841858 2.0928900241851807 -1.75
    vertex -1.100000023841858 1.9999999999999998 1.75
    vertex -1.100000023841858 2.0928900241851807 4.542890071868896
  endloop
endfacet
facet normal -0.22078604739219646 -0.9747832656944408 0.03242076802008715
  outer loop
    vertex -0.5499989986419677 1.9999999999999998 5.495517451662552
    vertex -1.100000023841858 2.0928900241851807 4.542890071868896
    vertex -1.100000023841858 1.9999999999999998 1.75
  endloop
endfacet
facet normal -8.210969903675742e-17 1.0 4.5073386637822774e-17
  outer loop
    vertex -2.1970709132878135 1.9999999999999996 5.495517451662554
    vertex -1.100000023841858 1.9999999999999998 1.75
    vertex -2.197070913287814 1.9999999999999998 1.75
  endloop
endfacet
facet normal -8.210969903675742e-17 1.0 4.5073386637822774e-17
  outer loop
    vertex -1.100000023841858 1.9999999999999998 1.75
    vertex -2.1970709132878135 1.9999999999999996 5.495517451662554
    vertex -0.5499989986419677 1.9999999999999998 5.495517451662552
  endloop
endfacet
facet normal -8.210969903675742e-17 1.0 4.5073386637822774e-17
  outer loop
    vertex -0.5499989986419677 1.9999999999999998 5.495517451662552
    vertex 1.100000023841858 1.9999999999999998 4.542890071868896
    vertex -0.5499989986419677 1.9999999999999998 4.542890071868896
  endloop
endfacet
facet normal -0.6035018703178937 -0.6741394161948319 0.4258186703930391
  outer loop
    vertex -0.5499989986419677 -1.9999999999999984 5.495517451662552
    vertex -1.100000023841858 -2.0928900241851807 4.568955275102186
    vertex -0.9428920149803162 -2.2499999999999996 4.542890071868892
  endloop
endfacet
facet normal -0.7071112075456846 -0.7071023547997021 1.6595200819676088e-18
  outer loop
    vertex -1.100000023841858 -2.0928900241851807 4.568955275102186
    vertex -0.9428920149803162 -2.2499999999999996 -1.75
    vertex -0.9428920149803162 -2.2499999999999996 4.542890071868892
  endloop
endfacet
facet normal -0.7071112075456846 -0.7071023547997021 1.6595200819676088e-18
  outer loop
    vertex -0.9428920149803162 -2.2499999999999996 -1.75
    vertex -1.100000023841858 -2.0928900241851807 4.568955275102186
    vertex -1.100000023841858 -2.0928900241851807 1.75
  endloop
endfacet
facet normal -0.16653225076324135 0.9860360081942895 0.0
  outer loop
    vertex -1.100000023841858 -2.0928900241851807 1.75
    vertex -0.5499989986419677 -1.9999999999999984 5.495517451662552
    vertex -1.100000023841858 -2.0928900241851807 -1.75
  endloop
endfacet
facet normal -0.16653225076324135 0.9860360081942895 0.0
  outer loop
    vertex -0.5499989986419677 -1.9999999999999984 5.495517451662552
    vertex -1.100000023841858 -2.0928900241851807 1.75
    vertex -1.100000023841858 -2.0928900241851807 4.568955275102186
  endloop
endfacet
facet normal -0.17779572366793836 -0.9837210249475433 0.026107962799670845
  outer loop
    vertex -0.5499989986419677 -1.9999999999999984 5.495517451662552
    vertex -1.100000023841858 -1.9999999999999998 1.75
    vertex -1.100000023841858 -2.0928900241851807 -1.75
  endloop
endfacet
facet normal 5.651375444201926e-17 -1.0 2.389934240384555e-16
  outer loop
    vertex -0.5499989986419677 -1.9999999999999984 5.495517451662552
    vertex -2.197070913287814 -1.9999999999999998 1.75
    vertex -1.100000023841858 -1.9999999999999998 1.75
  endloop
endfacet
facet normal 5.651375444201926e-17 -1.0 2.389934240384555e-16
  outer loop
    vertex -2.197070913287814 -1.9999999999999998 1.75
    vertex -0.5499989986419677 -1.9999999999999984 5.495517451662552
    vertex -2.197070913287814 -1.9999999999999998 5.495517451662554
  endloop
endfacet
facet normal 5.651375444201926e-17 -1.0 2.389934240384555e-16
  outer loop
    vertex -0.5499989986419677 -1.9999999999999984 5.495517451662552
    vertex -0.5499989986419677 -1.9999999999999984 4.542890071868896
    vertex 1.100000023841858 -1.9999999999999998 4.542890071868896
  endloop
endfacet
endsolid x endstop tip
