solid X_END_STOP_PIN
facet normal 0.0 0.0 -1.0
  outer loop
    vertex -55.087522975312446 25.361193046936812 42.21052069236279
    vertex -53.58787495682029 19.728762016244676 42.21052551269531
    vertex -55.08787495682017 19.72876201624465 42.21052551269531
  endloop
endfacet
facet normal 0.0 0.0 -1.0
  outer loop
    vertex -53.58787495682029 19.728762016244676 42.21052551269531
    vertex -55.087522975312446 25.361193046936812 42.21052069236279
    vertex -53.58752297531256 25.36119304693671 42.21052069236279
  endloop
endfacet
facet normal -0.9999999983542249 5.737203295260368e-05 -1.3382161249024606e-16
  outer loop
    vertex -55.087522975312446 25.361193046936812 55.49999517966747
    vertex -55.087760212754276 21.7287620129531 48.49999999999999
    vertex -55.087760212754276 21.7287620129531 55.5
  endloop
endfacet
facet normal -0.9999999983542249 5.737203295260368e-05 -1.3382161249024606e-16
  outer loop
    vertex -55.087760212754276 21.7287620129531 48.49999999999999
    vertex -55.08787495682017 19.72876201624465 42.21052551269531
    vertex -55.08787495682017 19.72876201624465 46.49999999999999
  endloop
endfacet
facet normal -0.9999999983542249 5.737203295260368e-05 -1.3382161249024606e-16
  outer loop
    vertex -55.08787495682017 19.72876201624465 42.21052551269531
    vertex -55.087760212754276 21.7287620129531 48.49999999999999
    vertex -55.087522975312446 25.361193046936812 42.21052069236279
  endloop
endfacet
facet normal -0.9999999983542249 5.737203295260368e-05 -1.3382161249024606e-16
  outer loop
    vertex -55.087522975312446 25.361193046936812 42.21052069236279
    vertex -55.087760212754276 21.7287620129531 48.49999999999999
    vertex -55.087522975312446 25.361193046936812 55.49999517966747
  endloop
endfacet
facet normal 0.0 -1.0 0.0
  outer loop
    vertex -48.58787496504905 19.728475156079888 46.49999999999999
    vertex -53.58787495682029 19.728762016244676 45.0
    vertex -48.58787496504905 19.728475156079888 45.0
  endloop
endfacet
facet normal 0.0 -1.0 0.0
  outer loop
    vertex -53.58787495682029 19.728762016244676 45.0
    vertex -55.08787495682017 19.72876201624465 42.21052551269531
    vertex -53.58787495682029 19.728762016244676 42.21052551269531
  endloop
endfacet
facet normal 0.0 -1.0 0.0
  outer loop
    vertex -55.08787495682017 19.72876201624465 42.21052551269531
    vertex -53.58787495682029 19.728762016244676 45.0
    vertex -55.08787495682017 19.72876201624465 46.49999999999999
  endloop
endfacet
facet normal 0.0 -1.0 0.0
  outer loop
    vertex -55.08787495682017 19.72876201624465 46.49999999999999
    vertex -53.58787495682029 19.728762016244676 45.0
    vertex -48.58787496504905 19.728475156079888 46.49999999999999
  endloop
endfacet
facet normal 0.0 -1.0 0.0
  outer loop
    vertex -55.08787495682017 19.72876201624465 46.49999999999999
    vertex -48.58787496504905 19.728475156079888 46.49999999999999
    vertex -53.58787495682018 19.72876201624465 46.49999999999999
  endloop
endfacet
facet normal 2.853454452253726e-05 0.9999999995812721 4.820332520509197e-06
  outer loop
    vertex -55.087522975312446 25.361193046936812 55.49999517966747
    vertex -53.58752297531256 25.36119304693671 42.21052069236279
    vertex -55.087522975312446 25.361193046936812 42.21052069236279
  endloop
endfacet
facet normal 2.853454452253726e-05 0.9999999995812721 4.820332520509197e-06
  outer loop
    vertex -53.58752297531256 25.36119304693671 42.21052069236279
    vertex -55.087522975312446 25.361193046936812 55.49999517966747
    vertex -53.587522958854805 25.361479907101472 44.99999517966748
  endloop
endfacet
facet normal 2.853454452253726e-05 0.9999999995812721 4.820332520509197e-06
  outer loop
    vertex -53.587522958854805 25.361479907101472 44.99999517966748
    vertex -55.087522975312446 25.361193046936812 55.49999517966747
    vertex -53.587522975312446 25.361193046936812 46.49999517966747
  endloop
endfacet
facet normal 2.853454452253726e-05 0.9999999995812721 4.820332520509197e-06
  outer loop
    vertex -53.587522958854805 25.361479907101472 44.99999517966748
    vertex -53.587522975312446 25.361193046936812 46.49999517966747
    vertex -48.58752296708358 25.361193046936812 44.99999517966748
  endloop
endfacet
facet normal 2.853454452253726e-05 0.9999999995812721 4.820332520509197e-06
  outer loop
    vertex -53.587522975312446 25.361193046936812 46.49999517966747
    vertex -55.087522975312446 25.361193046936812 55.49999517966747
    vertex -53.587522975312446 25.361193046936812 55.49999517966747
  endloop
endfacet
facet normal 2.853454452253726e-05 0.9999999995812721 4.820332520509197e-06
  outer loop
    vertex -48.58752298354133 25.360906186772052 46.49999517966747
    vertex -48.58752296708358 25.361193046936812 44.99999517966748
    vertex -53.587522975312446 25.361193046936812 46.49999517966747
  endloop
endfacet
facet normal 0.9999999983542249 -5.7372032952193693e-05 -1.99142035934955e-15
  outer loop
    vertex -53.587522975312446 25.361193046936812 46.49999517966747
    vertex -53.58776021769159 21.72867595490381 48.49999999999999
    vertex -53.58787495682018 19.72876201624465 46.49999999999999
  endloop
endfacet
facet normal 0.9999999983542249 -5.7372032952193693e-05 -1.99142035934955e-15
  outer loop
    vertex -53.58776021769159 21.72867595490381 48.49999999999999
    vertex -53.587522975312446 25.361193046936812 46.49999517966747
    vertex -53.58776021769159 21.72867595490381 55.5
  endloop
endfacet
facet normal 0.9999999983542249 -5.7372032952193693e-05 -1.99142035934955e-15
  outer loop
    vertex -53.58776021769159 21.72867595490381 55.5
    vertex -53.587522975312446 25.361193046936812 46.49999517966747
    vertex -53.587522975312446 25.361193046936812 55.49999517966747
  endloop
endfacet
facet normal -2.0284294941131835e-05 -0.7071143876107789 0.7070991743895482
  outer loop
    vertex -53.58776021769159 21.72867595490381 48.49999999999999
    vertex -55.08787495682017 19.72876201624465 46.49999999999999
    vertex -53.58787495682018 19.72876201624465 46.49999999999999
  endloop
endfacet
facet normal -2.0284294941131835e-05 -0.7071143876107789 0.7070991743895482
  outer loop
    vertex -55.08787495682017 19.72876201624465 46.49999999999999
    vertex -53.58776021769159 21.72867595490381 48.49999999999999
    vertex -55.087760212754276 21.7287620129531 48.49999999999999
  endloop
endfacet
facet normal 0.0 0.0 1.0
  outer loop
    vertex -53.58776021769159 21.72867595490381 55.5
    vertex -55.087522975312446 25.361193046936812 55.49999517966747
    vertex -55.087760212754276 21.7287620129531 55.5
  endloop
endfacet
facet normal 0.0 0.0 1.0
  outer loop
    vertex -55.087522975312446 25.361193046936812 55.49999517966747
    vertex -53.58776021769159 21.72867595490381 55.5
    vertex -53.587522975312446 25.361193046936812 55.49999517966747
  endloop
endfacet
facet normal -5.7372032955179525e-05 -0.9999999983542249 0.0
  outer loop
    vertex -53.58776021769159 21.72867595490381 55.5
    vertex -55.087760212754276 21.7287620129531 48.49999999999999
    vertex -53.58776021769159 21.72867595490381 48.49999999999999
  endloop
endfacet
facet normal -5.7372032955179525e-05 -0.9999999983542249 0.0
  outer loop
    vertex -55.087760212754276 21.7287620129531 48.49999999999999
    vertex -53.58776021769159 21.72867595490381 55.5
    vertex -55.087760212754276 21.7287620129531 55.5
  endloop
endfacet
facet normal 0.9999999983542249 -5.737203295217077e-05 -1.1550926951810163e-15
  outer loop
    vertex -48.58752296708358 25.361193046936812 44.99999517966748
    vertex -48.58787496504905 19.728475156079888 46.49999999999999
    vertex -48.58787496504905 19.728475156079888 45.0
  endloop
endfacet
facet normal 0.9999999983542249 -5.737203295217077e-05 -1.1550926951810163e-15
  outer loop
    vertex -48.58787496504905 19.728475156079888 46.49999999999999
    vertex -48.58752296708358 25.361193046936812 44.99999517966748
    vertex -48.58752298354133 25.360906186772052 46.49999517966747
  endloop
endfacet
facet normal 0.0 0.0 1.0
  outer loop
    vertex -48.58787496504905 19.728475156079888 46.49999999999999
    vertex -53.587522975312446 25.361193046936812 46.49999517966747
    vertex -53.58787495682018 19.72876201624465 46.49999999999999
  endloop
endfacet
facet normal 0.0 0.0 1.0
  outer loop
    vertex -53.587522975312446 25.361193046936812 46.49999517966747
    vertex -48.58787496504905 19.728475156079888 46.49999999999999
    vertex -48.58752298354133 25.360906186772052 46.49999517966747
  endloop
endfacet
facet normal 0.9999999983542249 -5.737203295217078e-05 6.211311114489494e-16
  outer loop
    vertex -53.58752297531256 25.36119304693671 42.21052069236279
    vertex -53.58787495682029 19.728762016244676 45.0
    vertex -53.58787495682029 19.728762016244676 42.21052551269531
  endloop
endfacet
facet normal 0.9999999983542249 -5.737203295217078e-05 6.211311114489494e-16
  outer loop
    vertex -53.58787495682029 19.728762016244676 45.0
    vertex -53.58752297531256 25.36119304693671 42.21052069236279
    vertex -53.587522958854805 25.361479907101472 44.99999517966748
  endloop
endfacet
facet normal 6.211311104267074e-16 -3.563555459350533e-20 -1.0
  outer loop
    vertex -53.587522958854805 25.361479907101472 44.99999517966748
    vertex -48.58787496504905 19.728475156079888 45.0
    vertex -53.58787495682029 19.728762016244676 45.0
  endloop
endfacet
facet normal 6.211311104267074e-16 -3.563555459350533e-20 -1.0
  outer loop
    vertex -48.58787496504905 19.728475156079888 45.0
    vertex -53.587522958854805 25.361479907101472 44.99999517966748
    vertex -48.58752296708358 25.361193046936812 44.99999517966748
  endloop
endfacet
endsolid X_END_STOP_PIN
